%TF.GenerationSoftware,KiCad,Pcbnew,7.0.11-7.0.11~ubuntu22.04.1*%
%TF.CreationDate,2025-01-08T19:32:42-05:00*%
%TF.ProjectId,sub_rf_mod,7375625f-7266-45f6-9d6f-642e6b696361,rev?*%
%TF.SameCoordinates,Original*%
%TF.FileFunction,Soldermask,Bot*%
%TF.FilePolarity,Negative*%
%FSLAX46Y46*%
G04 Gerber Fmt 4.6, Leading zero omitted, Abs format (unit mm)*
G04 Created by KiCad (PCBNEW 7.0.11-7.0.11~ubuntu22.04.1) date 2025-01-08 19:32:42*
%MOMM*%
%LPD*%
G01*
G04 APERTURE LIST*
G04 Aperture macros list*
%AMRoundRect*
0 Rectangle with rounded corners*
0 $1 Rounding radius*
0 $2 $3 $4 $5 $6 $7 $8 $9 X,Y pos of 4 corners*
0 Add a 4 corners polygon primitive as box body*
4,1,4,$2,$3,$4,$5,$6,$7,$8,$9,$2,$3,0*
0 Add four circle primitives for the rounded corners*
1,1,$1+$1,$2,$3*
1,1,$1+$1,$4,$5*
1,1,$1+$1,$6,$7*
1,1,$1+$1,$8,$9*
0 Add four rect primitives between the rounded corners*
20,1,$1+$1,$2,$3,$4,$5,0*
20,1,$1+$1,$4,$5,$6,$7,0*
20,1,$1+$1,$6,$7,$8,$9,0*
20,1,$1+$1,$8,$9,$2,$3,0*%
G04 Aperture macros list end*
%ADD10C,1.600000*%
%ADD11O,1.600000X1.600000*%
%ADD12R,1.200000X1.200000*%
%ADD13C,1.200000*%
%ADD14R,1.600000X1.600000*%
%ADD15C,3.800000*%
%ADD16C,6.000000*%
%ADD17R,1.700000X1.700000*%
%ADD18O,1.700000X1.700000*%
%ADD19R,1.500000X1.500000*%
%ADD20C,1.500000*%
%ADD21C,3.450000*%
%ADD22C,3.765000*%
%ADD23RoundRect,0.150000X-0.150000X0.825000X-0.150000X-0.825000X0.150000X-0.825000X0.150000X0.825000X0*%
%ADD24RoundRect,0.150000X0.825000X0.150000X-0.825000X0.150000X-0.825000X-0.150000X0.825000X-0.150000X0*%
%ADD25RoundRect,0.100000X-0.637500X-0.100000X0.637500X-0.100000X0.637500X0.100000X-0.637500X0.100000X0*%
%ADD26R,1.905000X2.000000*%
%ADD27O,1.905000X2.000000*%
%ADD28RoundRect,0.150000X0.150000X-0.825000X0.150000X0.825000X-0.150000X0.825000X-0.150000X-0.825000X0*%
G04 APERTURE END LIST*
D10*
%TO.C,L1*%
X107594400Y-78333600D03*
D11*
X107594400Y-68173600D03*
%TD*%
D12*
%TO.C,C8*%
X135592600Y-59436000D03*
D13*
X133592600Y-59436000D03*
%TD*%
D10*
%TO.C,R22*%
X167132000Y-78994000D03*
D11*
X167132000Y-71374000D03*
%TD*%
D10*
%TO.C,R14*%
X136398000Y-87706200D03*
D11*
X128778000Y-87706200D03*
%TD*%
D14*
%TO.C,D2*%
X123799600Y-56235600D03*
D11*
X131419600Y-56235600D03*
%TD*%
D12*
%TO.C,C25*%
X121132600Y-55956200D03*
D13*
X119132600Y-55956200D03*
%TD*%
D10*
%TO.C,R28*%
X166700200Y-83667600D03*
D11*
X166700200Y-91287600D03*
%TD*%
D10*
%TO.C,R5*%
X132232400Y-71450200D03*
D11*
X124612400Y-71450200D03*
%TD*%
D10*
%TO.C,R4*%
X145973800Y-72745600D03*
D11*
X138353800Y-72745600D03*
%TD*%
D10*
%TO.C,R1*%
X132232400Y-65252600D03*
D11*
X124612400Y-65252600D03*
%TD*%
D12*
%TO.C,C9*%
X135821200Y-74676000D03*
D13*
X133821200Y-74676000D03*
%TD*%
D10*
%TO.C,R15*%
X128752600Y-93776800D03*
D11*
X136372600Y-93776800D03*
%TD*%
D10*
%TO.C,R20*%
X152501600Y-85090000D03*
D11*
X142341600Y-85090000D03*
%TD*%
D10*
%TO.C,C23*%
X133767200Y-81635600D03*
X128767200Y-81635600D03*
%TD*%
%TO.C,C1*%
X154319600Y-82194400D03*
X159319600Y-82194400D03*
%TD*%
%TO.C,R18*%
X157226000Y-78968600D03*
D11*
X157226000Y-71348600D03*
%TD*%
D10*
%TO.C,C12*%
X118658000Y-84836000D03*
X123658000Y-84836000D03*
%TD*%
%TO.C,R6*%
X137922000Y-62738000D03*
D11*
X145542000Y-62738000D03*
%TD*%
D10*
%TO.C,C19*%
X110032800Y-99172400D03*
X110032800Y-94172400D03*
%TD*%
%TO.C,C11*%
X129601600Y-74599800D03*
X124601600Y-74599800D03*
%TD*%
%TO.C,R29*%
X157911800Y-93878400D03*
D11*
X165531800Y-93878400D03*
%TD*%
D12*
%TO.C,C26*%
X155506200Y-96139000D03*
D13*
X153506200Y-96139000D03*
%TD*%
D10*
%TO.C,R19*%
X160502600Y-78994000D03*
D11*
X160502600Y-71374000D03*
%TD*%
D15*
%TO.C,H1*%
X113792000Y-94742000D03*
%TD*%
D16*
%TO.C,H3*%
X167640000Y-98806000D03*
%TD*%
D10*
%TO.C,R7*%
X146050000Y-75793600D03*
D11*
X138430000Y-75793600D03*
%TD*%
D14*
%TO.C,C24*%
X146899000Y-81864200D03*
D10*
X144399000Y-81864200D03*
%TD*%
%TO.C,R23*%
X148640800Y-78867000D03*
D11*
X141020800Y-78867000D03*
%TD*%
D10*
%TO.C,C15*%
X148767800Y-70474200D03*
X148767800Y-75474200D03*
%TD*%
%TO.C,R3*%
X145542000Y-59690000D03*
D11*
X137922000Y-59690000D03*
%TD*%
D12*
%TO.C,C16*%
X151612600Y-71704200D03*
D13*
X153612600Y-71704200D03*
%TD*%
D10*
%TO.C,R17*%
X128778000Y-84658200D03*
D11*
X136398000Y-84658200D03*
%TD*%
D10*
%TO.C,R2*%
X131216400Y-59055000D03*
D11*
X123596400Y-59055000D03*
%TD*%
D10*
%TO.C,R10*%
X121539000Y-66040000D03*
D11*
X121539000Y-73660000D03*
%TD*%
D10*
%TO.C,C20*%
X139192000Y-94448000D03*
X139192000Y-89448000D03*
%TD*%
%TO.C,C4*%
X142417800Y-93559000D03*
X142417800Y-88559000D03*
%TD*%
%TO.C,R12*%
X128778000Y-90703400D03*
D11*
X136398000Y-90703400D03*
%TD*%
D10*
%TO.C,R26*%
X131368800Y-62153800D03*
D11*
X123748800Y-62153800D03*
%TD*%
D10*
%TO.C,C6*%
X125984000Y-88940000D03*
X125984000Y-93940000D03*
%TD*%
%TO.C,R21*%
X163804600Y-78994000D03*
D11*
X163804600Y-71374000D03*
%TD*%
D12*
%TO.C,C17*%
X151873200Y-78232000D03*
D13*
X153873200Y-78232000D03*
%TD*%
D10*
%TO.C,C3*%
X124968000Y-82256000D03*
X124968000Y-77256000D03*
%TD*%
%TO.C,C28*%
X152781000Y-92757000D03*
X152781000Y-87757000D03*
%TD*%
D12*
%TO.C,C13*%
X105326401Y-63601600D03*
D13*
X107326401Y-63601600D03*
%TD*%
D10*
%TO.C,R24*%
X148767800Y-68021200D03*
D11*
X148767800Y-60401200D03*
%TD*%
D10*
%TO.C,C29*%
X134924800Y-70902200D03*
X134924800Y-65902200D03*
%TD*%
D12*
%TO.C,C18*%
X113342199Y-63474600D03*
D13*
X111342199Y-63474600D03*
%TD*%
D10*
%TO.C,R16*%
X128778000Y-99872800D03*
D11*
X136398000Y-99872800D03*
%TD*%
D10*
%TO.C,R27*%
X135661400Y-78536800D03*
D11*
X128041400Y-78536800D03*
%TD*%
D10*
%TO.C,C5*%
X110805600Y-91490800D03*
X105805600Y-91490800D03*
%TD*%
%TO.C,C2*%
X137998200Y-70125600D03*
X137998200Y-65125600D03*
%TD*%
D17*
%TO.C,J1*%
X113792000Y-72659000D03*
D18*
X113792000Y-75199000D03*
X113792000Y-77739000D03*
X113792000Y-80279000D03*
X113792000Y-82819000D03*
X113792000Y-85359000D03*
X113792000Y-87899000D03*
X113792000Y-90439000D03*
%TD*%
D19*
%TO.C,Q1*%
X120802400Y-60952000D03*
D20*
X118262400Y-63492000D03*
X115722400Y-60952000D03*
%TD*%
D12*
%TO.C,C10*%
X149961600Y-93294200D03*
D13*
X149961600Y-95294200D03*
%TD*%
D14*
%TO.C,D1*%
X114046000Y-99060000D03*
D11*
X121666000Y-99060000D03*
%TD*%
D10*
%TO.C,R25*%
X170332400Y-78968600D03*
D11*
X170332400Y-71348600D03*
%TD*%
D10*
%TO.C,R11*%
X106730800Y-94234000D03*
D11*
X106730800Y-101854000D03*
%TD*%
D10*
%TO.C,R13*%
X136398000Y-96828000D03*
D11*
X128778000Y-96828000D03*
%TD*%
D10*
%TO.C,R8*%
X132232400Y-68351400D03*
D11*
X124612400Y-68351400D03*
%TD*%
D10*
%TO.C,C21*%
X139319000Y-96748600D03*
X139319000Y-101748600D03*
%TD*%
D12*
%TO.C,C7*%
X145389600Y-93286801D03*
D13*
X145389600Y-95286801D03*
%TD*%
D15*
%TO.C,H2*%
X113792000Y-68580000D03*
%TD*%
D10*
%TO.C,R9*%
X118110000Y-66040000D03*
D11*
X118110000Y-73660000D03*
%TD*%
D10*
%TO.C,C22*%
X139192000Y-87082000D03*
X139192000Y-82082000D03*
%TD*%
D19*
%TO.C,J2*%
X161260000Y-62728000D03*
D20*
X163260000Y-62728000D03*
X158560000Y-62728000D03*
X160560000Y-65228000D03*
X162560000Y-65228000D03*
X166560000Y-62728000D03*
X158560000Y-65228000D03*
X164560000Y-65228000D03*
X166560000Y-65228000D03*
D21*
X155310000Y-59728000D03*
X169810000Y-59728000D03*
D22*
X162560000Y-58928000D03*
%TD*%
D10*
%TO.C,C14*%
X151892000Y-68286000D03*
X151892000Y-63286000D03*
%TD*%
D23*
%TO.C,U7*%
X156387800Y-85002600D03*
X157657800Y-85002600D03*
X158927800Y-85002600D03*
X160197800Y-85002600D03*
X161467800Y-85002600D03*
X162737800Y-85002600D03*
X164007800Y-85002600D03*
X164007800Y-89952600D03*
X162737800Y-89952600D03*
X161467800Y-89952600D03*
X160197800Y-89952600D03*
X158927800Y-89952600D03*
X157657800Y-89952600D03*
X156387800Y-89952600D03*
%TD*%
D24*
%TO.C,U5*%
X110144100Y-80264000D03*
X110144100Y-81534000D03*
X110144100Y-82804000D03*
X110144100Y-84074000D03*
X110144100Y-85344000D03*
X110144100Y-86614000D03*
X110144100Y-87884000D03*
X110144100Y-89154000D03*
X105194100Y-89154000D03*
X105194100Y-87884000D03*
X105194100Y-86614000D03*
X105194100Y-85344000D03*
X105194100Y-84074000D03*
X105194100Y-82804000D03*
X105194100Y-81534000D03*
X105194100Y-80264000D03*
%TD*%
%TO.C,U1*%
X145807200Y-65557400D03*
X145807200Y-66827400D03*
X145807200Y-68097400D03*
X145807200Y-69367400D03*
X140857200Y-69367400D03*
X140857200Y-68097400D03*
X140857200Y-66827400D03*
X140857200Y-65557400D03*
%TD*%
D25*
%TO.C,U6*%
X144787700Y-92195600D03*
X144787700Y-91545600D03*
X144787700Y-90895600D03*
X144787700Y-90245600D03*
X144787700Y-89595600D03*
X144787700Y-88945600D03*
X144787700Y-88295600D03*
X144787700Y-87645600D03*
X144787700Y-86995600D03*
X144787700Y-86345600D03*
X144787700Y-85695600D03*
X144787700Y-85045600D03*
X150512700Y-85045600D03*
X150512700Y-85695600D03*
X150512700Y-86345600D03*
X150512700Y-86995600D03*
X150512700Y-87645600D03*
X150512700Y-88295600D03*
X150512700Y-88945600D03*
X150512700Y-89595600D03*
X150512700Y-90245600D03*
X150512700Y-90895600D03*
X150512700Y-91545600D03*
X150512700Y-92195600D03*
%TD*%
D26*
%TO.C,U8*%
X106654600Y-57475000D03*
D27*
X109194600Y-57475000D03*
X111734600Y-57475000D03*
%TD*%
D28*
%TO.C,U3*%
X122555000Y-81469000D03*
X121285000Y-81469000D03*
X120015000Y-81469000D03*
X118745000Y-81469000D03*
X118745000Y-76519000D03*
X120015000Y-76519000D03*
X121285000Y-76519000D03*
X122555000Y-76519000D03*
%TD*%
D24*
%TO.C,U2*%
X123125000Y-88138000D03*
X123125000Y-89408000D03*
X123125000Y-90678000D03*
X123125000Y-91948000D03*
X123125000Y-93218000D03*
X123125000Y-94488000D03*
X123125000Y-95758000D03*
X118175000Y-95758000D03*
X118175000Y-94488000D03*
X118175000Y-93218000D03*
X118175000Y-91948000D03*
X118175000Y-90678000D03*
X118175000Y-89408000D03*
X118175000Y-88138000D03*
%TD*%
M02*
