%TF.GenerationSoftware,KiCad,Pcbnew,7.0.11-7.0.11~ubuntu22.04.1*%
%TF.CreationDate,2025-01-08T19:32:41-05:00*%
%TF.ProjectId,sub_rf_mod,7375625f-7266-45f6-9d6f-642e6b696361,rev?*%
%TF.SameCoordinates,Original*%
%TF.FileFunction,Paste,Bot*%
%TF.FilePolarity,Positive*%
%FSLAX46Y46*%
G04 Gerber Fmt 4.6, Leading zero omitted, Abs format (unit mm)*
G04 Created by KiCad (PCBNEW 7.0.11-7.0.11~ubuntu22.04.1) date 2025-01-08 19:32:41*
%MOMM*%
%LPD*%
G01*
G04 APERTURE LIST*
G04 Aperture macros list*
%AMRoundRect*
0 Rectangle with rounded corners*
0 $1 Rounding radius*
0 $2 $3 $4 $5 $6 $7 $8 $9 X,Y pos of 4 corners*
0 Add a 4 corners polygon primitive as box body*
4,1,4,$2,$3,$4,$5,$6,$7,$8,$9,$2,$3,0*
0 Add four circle primitives for the rounded corners*
1,1,$1+$1,$2,$3*
1,1,$1+$1,$4,$5*
1,1,$1+$1,$6,$7*
1,1,$1+$1,$8,$9*
0 Add four rect primitives between the rounded corners*
20,1,$1+$1,$2,$3,$4,$5,0*
20,1,$1+$1,$4,$5,$6,$7,0*
20,1,$1+$1,$6,$7,$8,$9,0*
20,1,$1+$1,$8,$9,$2,$3,0*%
G04 Aperture macros list end*
%ADD10RoundRect,0.150000X-0.150000X0.825000X-0.150000X-0.825000X0.150000X-0.825000X0.150000X0.825000X0*%
%ADD11RoundRect,0.150000X0.825000X0.150000X-0.825000X0.150000X-0.825000X-0.150000X0.825000X-0.150000X0*%
%ADD12RoundRect,0.100000X-0.637500X-0.100000X0.637500X-0.100000X0.637500X0.100000X-0.637500X0.100000X0*%
%ADD13RoundRect,0.150000X0.150000X-0.825000X0.150000X0.825000X-0.150000X0.825000X-0.150000X-0.825000X0*%
G04 APERTURE END LIST*
D10*
%TO.C,U7*%
X156387800Y-85002600D03*
X157657800Y-85002600D03*
X158927800Y-85002600D03*
X160197800Y-85002600D03*
X161467800Y-85002600D03*
X162737800Y-85002600D03*
X164007800Y-85002600D03*
X164007800Y-89952600D03*
X162737800Y-89952600D03*
X161467800Y-89952600D03*
X160197800Y-89952600D03*
X158927800Y-89952600D03*
X157657800Y-89952600D03*
X156387800Y-89952600D03*
%TD*%
D11*
%TO.C,U5*%
X110144100Y-80264000D03*
X110144100Y-81534000D03*
X110144100Y-82804000D03*
X110144100Y-84074000D03*
X110144100Y-85344000D03*
X110144100Y-86614000D03*
X110144100Y-87884000D03*
X110144100Y-89154000D03*
X105194100Y-89154000D03*
X105194100Y-87884000D03*
X105194100Y-86614000D03*
X105194100Y-85344000D03*
X105194100Y-84074000D03*
X105194100Y-82804000D03*
X105194100Y-81534000D03*
X105194100Y-80264000D03*
%TD*%
%TO.C,U1*%
X145807200Y-65557400D03*
X145807200Y-66827400D03*
X145807200Y-68097400D03*
X145807200Y-69367400D03*
X140857200Y-69367400D03*
X140857200Y-68097400D03*
X140857200Y-66827400D03*
X140857200Y-65557400D03*
%TD*%
D12*
%TO.C,U6*%
X144787700Y-92195600D03*
X144787700Y-91545600D03*
X144787700Y-90895600D03*
X144787700Y-90245600D03*
X144787700Y-89595600D03*
X144787700Y-88945600D03*
X144787700Y-88295600D03*
X144787700Y-87645600D03*
X144787700Y-86995600D03*
X144787700Y-86345600D03*
X144787700Y-85695600D03*
X144787700Y-85045600D03*
X150512700Y-85045600D03*
X150512700Y-85695600D03*
X150512700Y-86345600D03*
X150512700Y-86995600D03*
X150512700Y-87645600D03*
X150512700Y-88295600D03*
X150512700Y-88945600D03*
X150512700Y-89595600D03*
X150512700Y-90245600D03*
X150512700Y-90895600D03*
X150512700Y-91545600D03*
X150512700Y-92195600D03*
%TD*%
D13*
%TO.C,U3*%
X122555000Y-81469000D03*
X121285000Y-81469000D03*
X120015000Y-81469000D03*
X118745000Y-81469000D03*
X118745000Y-76519000D03*
X120015000Y-76519000D03*
X121285000Y-76519000D03*
X122555000Y-76519000D03*
%TD*%
D11*
%TO.C,U2*%
X123125000Y-88138000D03*
X123125000Y-89408000D03*
X123125000Y-90678000D03*
X123125000Y-91948000D03*
X123125000Y-93218000D03*
X123125000Y-94488000D03*
X123125000Y-95758000D03*
X118175000Y-95758000D03*
X118175000Y-94488000D03*
X118175000Y-93218000D03*
X118175000Y-91948000D03*
X118175000Y-90678000D03*
X118175000Y-89408000D03*
X118175000Y-88138000D03*
%TD*%
M02*
