%TF.GenerationSoftware,KiCad,Pcbnew,7.0.11-7.0.11~ubuntu22.04.1*%
%TF.CreationDate,2025-01-08T19:32:41-05:00*%
%TF.ProjectId,sub_rf_mod,7375625f-7266-45f6-9d6f-642e6b696361,rev?*%
%TF.SameCoordinates,Original*%
%TF.FileFunction,Copper,L1,Top*%
%TF.FilePolarity,Positive*%
%FSLAX46Y46*%
G04 Gerber Fmt 4.6, Leading zero omitted, Abs format (unit mm)*
G04 Created by KiCad (PCBNEW 7.0.11-7.0.11~ubuntu22.04.1) date 2025-01-08 19:32:41*
%MOMM*%
%LPD*%
G01*
G04 APERTURE LIST*
%TA.AperFunction,ComponentPad*%
%ADD10C,1.600000*%
%TD*%
%TA.AperFunction,ComponentPad*%
%ADD11O,1.600000X1.600000*%
%TD*%
%TA.AperFunction,ComponentPad*%
%ADD12R,1.200000X1.200000*%
%TD*%
%TA.AperFunction,ComponentPad*%
%ADD13C,1.200000*%
%TD*%
%TA.AperFunction,ComponentPad*%
%ADD14R,1.600000X1.600000*%
%TD*%
%TA.AperFunction,ComponentPad*%
%ADD15C,3.800000*%
%TD*%
%TA.AperFunction,ComponentPad*%
%ADD16C,6.000000*%
%TD*%
%TA.AperFunction,ComponentPad*%
%ADD17R,1.700000X1.700000*%
%TD*%
%TA.AperFunction,ComponentPad*%
%ADD18O,1.700000X1.700000*%
%TD*%
%TA.AperFunction,ComponentPad*%
%ADD19R,1.500000X1.500000*%
%TD*%
%TA.AperFunction,ComponentPad*%
%ADD20C,1.500000*%
%TD*%
%TA.AperFunction,ComponentPad*%
%ADD21C,3.450000*%
%TD*%
%TA.AperFunction,ComponentPad*%
%ADD22C,3.765000*%
%TD*%
%TA.AperFunction,ComponentPad*%
%ADD23R,1.905000X2.000000*%
%TD*%
%TA.AperFunction,ComponentPad*%
%ADD24O,1.905000X2.000000*%
%TD*%
%TA.AperFunction,ViaPad*%
%ADD25C,0.914400*%
%TD*%
%TA.AperFunction,Conductor*%
%ADD26C,0.381000*%
%TD*%
%TA.AperFunction,Conductor*%
%ADD27C,0.254000*%
%TD*%
G04 APERTURE END LIST*
D10*
%TO.P,L1,1,1*%
%TO.N,Net-(L1-Pad1)*%
X107594400Y-78333600D03*
D11*
%TO.P,L1,2,2*%
%TO.N,+5VD*%
X107594400Y-68173600D03*
%TD*%
D12*
%TO.P,C8,1*%
%TO.N,Net-(C8-Pad1)*%
X135592600Y-59436000D03*
D13*
%TO.P,C8,2*%
%TO.N,GNDD*%
X133592600Y-59436000D03*
%TD*%
D10*
%TO.P,R22,1*%
%TO.N,Net-(R22-Pad1)*%
X167132000Y-78994000D03*
D11*
%TO.P,R22,2*%
%TO.N,/comp_vid*%
X167132000Y-71374000D03*
%TD*%
D10*
%TO.P,R14,1*%
%TO.N,Net-(C22-Pad2)*%
X136398000Y-87706200D03*
D11*
%TO.P,R14,2*%
%TO.N,Net-(U2A--)*%
X128778000Y-87706200D03*
%TD*%
D14*
%TO.P,D2,1,K*%
%TO.N,Net-(D2-K)*%
X123799600Y-56235600D03*
D11*
%TO.P,D2,2,A*%
%TO.N,GNDD*%
X131419600Y-56235600D03*
%TD*%
D12*
%TO.P,C25,1*%
%TO.N,Net-(D2-K)*%
X121132600Y-55956200D03*
D13*
%TO.P,C25,2*%
%TO.N,GNDD*%
X119132600Y-55956200D03*
%TD*%
D10*
%TO.P,R28,1*%
%TO.N,Net-(R22-Pad1)*%
X166700200Y-83667600D03*
D11*
%TO.P,R28,2*%
%TO.N,Net-(U7C--)*%
X166700200Y-91287600D03*
%TD*%
D10*
%TO.P,R5,1*%
%TO.N,GNDD*%
X132232400Y-71450200D03*
D11*
%TO.P,R5,2*%
%TO.N,Net-(U3-INT)*%
X124612400Y-71450200D03*
%TD*%
D10*
%TO.P,R4,1*%
%TO.N,Net-(U1B--)*%
X145973800Y-72745600D03*
D11*
%TO.P,R4,2*%
%TO.N,Net-(C9-Pad1)*%
X138353800Y-72745600D03*
%TD*%
D10*
%TO.P,R1,1*%
%TO.N,Net-(D2-K)*%
X132232400Y-65252600D03*
D11*
%TO.P,R1,2*%
%TO.N,Net-(J1-Pin_2)*%
X124612400Y-65252600D03*
%TD*%
D12*
%TO.P,C9,1*%
%TO.N,Net-(C9-Pad1)*%
X135821200Y-74676000D03*
D13*
%TO.P,C9,2*%
%TO.N,GNDD*%
X133821200Y-74676000D03*
%TD*%
D10*
%TO.P,R15,1*%
%TO.N,GNDD*%
X128752600Y-93776800D03*
D11*
%TO.P,R15,2*%
%TO.N,Net-(C20-Pad2)*%
X136372600Y-93776800D03*
%TD*%
D10*
%TO.P,R20,1*%
%TO.N,Net-(U6-R_EXT)*%
X152501600Y-85090000D03*
D11*
%TO.P,R20,2*%
%TO.N,GNDD*%
X142341600Y-85090000D03*
%TD*%
D10*
%TO.P,C23,1*%
%TO.N,Net-(C23-Pad1)*%
X133767200Y-81635600D03*
%TO.P,C23,2*%
%TO.N,Net-(C22-Pad2)*%
X128767200Y-81635600D03*
%TD*%
%TO.P,C1,1*%
%TO.N,GNDD*%
X154319600Y-82194400D03*
%TO.P,C1,2*%
%TO.N,+5VD*%
X159319600Y-82194400D03*
%TD*%
%TO.P,R18,1*%
%TO.N,Net-(U7A--)*%
X157226000Y-78968600D03*
D11*
%TO.P,R18,2*%
%TO.N,/blue*%
X157226000Y-71348600D03*
%TD*%
D10*
%TO.P,C12,1*%
%TO.N,/Y*%
X118658000Y-84836000D03*
%TO.P,C12,2*%
%TO.N,Net-(U3-VIDEO)*%
X123658000Y-84836000D03*
%TD*%
%TO.P,R6,1*%
%TO.N,Net-(C14-Pad2)*%
X137922000Y-62738000D03*
D11*
%TO.P,R6,2*%
%TO.N,Net-(U1A--)*%
X145542000Y-62738000D03*
%TD*%
D10*
%TO.P,C19,1*%
%TO.N,Net-(D1-K)*%
X110032800Y-99172400D03*
%TO.P,C19,2*%
%TO.N,GNDD*%
X110032800Y-94172400D03*
%TD*%
%TO.P,C11,1*%
%TO.N,GNDD*%
X129601600Y-74599800D03*
%TO.P,C11,2*%
%TO.N,Net-(U3-INT)*%
X124601600Y-74599800D03*
%TD*%
%TO.P,R29,1*%
%TO.N,Net-(C26-Pad1)*%
X157911800Y-93878400D03*
D11*
%TO.P,R29,2*%
%TO.N,Net-(U7C--)*%
X165531800Y-93878400D03*
%TD*%
D12*
%TO.P,C26,1*%
%TO.N,Net-(C26-Pad1)*%
X155506200Y-96139000D03*
D13*
%TO.P,C26,2*%
%TO.N,GNDD*%
X153506200Y-96139000D03*
%TD*%
D10*
%TO.P,R19,1*%
%TO.N,Net-(U7B--)*%
X160502600Y-78994000D03*
D11*
%TO.P,R19,2*%
%TO.N,/green*%
X160502600Y-71374000D03*
%TD*%
D15*
%TO.P,H1,1,1*%
%TO.N,GNDD*%
X113792000Y-94742000D03*
%TD*%
D16*
%TO.P,H3,1,1*%
%TO.N,GNDD*%
X167640000Y-98806000D03*
%TD*%
D10*
%TO.P,R7,1*%
%TO.N,Net-(C15-Pad2)*%
X146050000Y-75793600D03*
D11*
%TO.P,R7,2*%
%TO.N,Net-(U1B--)*%
X138430000Y-75793600D03*
%TD*%
D14*
%TO.P,C24,1*%
%TO.N,+5VD*%
X146899000Y-81864200D03*
D10*
%TO.P,C24,2*%
%TO.N,GNDD*%
X144399000Y-81864200D03*
%TD*%
%TO.P,R23,1*%
%TO.N,Net-(C17-Pad1)*%
X148640800Y-78867000D03*
D11*
%TO.P,R23,2*%
%TO.N,Net-(C15-Pad2)*%
X141020800Y-78867000D03*
%TD*%
D10*
%TO.P,C15,1*%
%TO.N,Net-(U1B--)*%
X148767800Y-70474200D03*
%TO.P,C15,2*%
%TO.N,Net-(C15-Pad2)*%
X148767800Y-75474200D03*
%TD*%
%TO.P,R3,1*%
%TO.N,Net-(U1A--)*%
X145542000Y-59690000D03*
D11*
%TO.P,R3,2*%
%TO.N,Net-(C8-Pad1)*%
X137922000Y-59690000D03*
%TD*%
D12*
%TO.P,C16,1*%
%TO.N,Net-(C16-Pad1)*%
X151612600Y-71704200D03*
D13*
%TO.P,C16,2*%
%TO.N,/audio_1*%
X153612600Y-71704200D03*
%TD*%
D10*
%TO.P,R17,1*%
%TO.N,GNDD*%
X128778000Y-84658200D03*
D11*
%TO.P,R17,2*%
%TO.N,Net-(C22-Pad2)*%
X136398000Y-84658200D03*
%TD*%
D10*
%TO.P,R2,1*%
%TO.N,Net-(D2-K)*%
X131216400Y-59055000D03*
D11*
%TO.P,R2,2*%
%TO.N,+5VA*%
X123596400Y-59055000D03*
%TD*%
D10*
%TO.P,R10,1*%
%TO.N,Net-(Q1-E)*%
X121539000Y-66040000D03*
D11*
%TO.P,R10,2*%
%TO.N,+5VD*%
X121539000Y-73660000D03*
%TD*%
D10*
%TO.P,C20,1*%
%TO.N,Net-(U6-Pr)*%
X139192000Y-94448000D03*
%TO.P,C20,2*%
%TO.N,Net-(C20-Pad2)*%
X139192000Y-89448000D03*
%TD*%
%TO.P,C4,1*%
%TO.N,GNDD*%
X142417800Y-93559000D03*
%TO.P,C4,2*%
%TO.N,+5VD*%
X142417800Y-88559000D03*
%TD*%
%TO.P,R12,1*%
%TO.N,Net-(U2B--)*%
X128778000Y-90703400D03*
D11*
%TO.P,R12,2*%
%TO.N,Net-(C20-Pad2)*%
X136398000Y-90703400D03*
%TD*%
D10*
%TO.P,R26,1*%
%TO.N,+5VA*%
X131368800Y-62153800D03*
D11*
%TO.P,R26,2*%
%TO.N,Net-(L1-Pad1)*%
X123748800Y-62153800D03*
%TD*%
D10*
%TO.P,C6,1*%
%TO.N,GNDD*%
X125984000Y-88940000D03*
%TO.P,C6,2*%
%TO.N,+5VD*%
X125984000Y-93940000D03*
%TD*%
%TO.P,R21,1*%
%TO.N,Net-(U7D--)*%
X163804600Y-78994000D03*
D11*
%TO.P,R21,2*%
%TO.N,/red*%
X163804600Y-71374000D03*
%TD*%
D12*
%TO.P,C17,1*%
%TO.N,Net-(C17-Pad1)*%
X151873200Y-78232000D03*
D13*
%TO.P,C17,2*%
%TO.N,/audio_2*%
X153873200Y-78232000D03*
%TD*%
D10*
%TO.P,C3,1*%
%TO.N,GNDD*%
X124968000Y-82256000D03*
%TO.P,C3,2*%
%TO.N,+5VD*%
X124968000Y-77256000D03*
%TD*%
%TO.P,C28,1*%
%TO.N,GNDD*%
X152781000Y-92757000D03*
%TO.P,C28,2*%
%TO.N,+5VD*%
X152781000Y-87757000D03*
%TD*%
D12*
%TO.P,C13,1*%
%TO.N,VDDF*%
X105326401Y-63601600D03*
D13*
%TO.P,C13,2*%
%TO.N,GNDD*%
X107326401Y-63601600D03*
%TD*%
D10*
%TO.P,R24,1*%
%TO.N,Net-(C16-Pad1)*%
X148767800Y-68021200D03*
D11*
%TO.P,R24,2*%
%TO.N,Net-(C14-Pad2)*%
X148767800Y-60401200D03*
%TD*%
D10*
%TO.P,C29,1*%
%TO.N,GNDD*%
X134924800Y-70902200D03*
%TO.P,C29,2*%
%TO.N,+5VD*%
X134924800Y-65902200D03*
%TD*%
D12*
%TO.P,C18,1*%
%TO.N,+5VD*%
X113342199Y-63474600D03*
D13*
%TO.P,C18,2*%
%TO.N,GNDD*%
X111342199Y-63474600D03*
%TD*%
D10*
%TO.P,R16,1*%
%TO.N,GNDD*%
X128778000Y-99872800D03*
D11*
%TO.P,R16,2*%
%TO.N,Net-(C21-Pad2)*%
X136398000Y-99872800D03*
%TD*%
D10*
%TO.P,R27,1*%
%TO.N,Net-(U6-SYNC)*%
X135661400Y-78536800D03*
D11*
%TO.P,R27,2*%
%TO.N,Net-(C23-Pad1)*%
X128041400Y-78536800D03*
%TD*%
D10*
%TO.P,C5,1*%
%TO.N,GNDD*%
X110805600Y-91490800D03*
%TO.P,C5,2*%
%TO.N,+5VD*%
X105805600Y-91490800D03*
%TD*%
%TO.P,C2,1*%
%TO.N,GNDD*%
X137998200Y-70125600D03*
%TO.P,C2,2*%
%TO.N,+5VA*%
X137998200Y-65125600D03*
%TD*%
D17*
%TO.P,J1,1,Pin_1*%
%TO.N,GNDD*%
X113792000Y-72659000D03*
D18*
%TO.P,J1,2,Pin_2*%
%TO.N,Net-(J1-Pin_2)*%
X113792000Y-75199000D03*
%TO.P,J1,3,Pin_3*%
%TO.N,/Pr*%
X113792000Y-77739000D03*
%TO.P,J1,4,Pin_4*%
%TO.N,VDDF*%
X113792000Y-80279000D03*
%TO.P,J1,5,Pin_5*%
%TO.N,Net-(D1-K)*%
X113792000Y-82819000D03*
%TO.P,J1,6,Pin_6*%
%TO.N,/Y*%
X113792000Y-85359000D03*
%TO.P,J1,7,Pin_7*%
%TO.N,/Pb*%
X113792000Y-87899000D03*
%TO.P,J1,8,Pin_8*%
%TO.N,unconnected-(J1-Pin_8-Pad8)*%
X113792000Y-90439000D03*
%TD*%
D19*
%TO.P,Q1,1,E*%
%TO.N,Net-(Q1-E)*%
X120802400Y-60952000D03*
D20*
%TO.P,Q1,2,B*%
%TO.N,Net-(Q1-B)*%
X118262400Y-63492000D03*
%TO.P,Q1,3,C*%
%TO.N,GNDD*%
X115722400Y-60952000D03*
%TD*%
D12*
%TO.P,C10,1*%
%TO.N,+5VD*%
X149961600Y-93294200D03*
D13*
%TO.P,C10,2*%
%TO.N,GNDD*%
X149961600Y-95294200D03*
%TD*%
D14*
%TO.P,D1,1,K*%
%TO.N,Net-(D1-K)*%
X114046000Y-99060000D03*
D11*
%TO.P,D1,2,A*%
%TO.N,GNDD*%
X121666000Y-99060000D03*
%TD*%
D10*
%TO.P,R25,1*%
%TO.N,Net-(U2D--)*%
X170332400Y-78968600D03*
D11*
%TO.P,R25,2*%
%TO.N,/sync*%
X170332400Y-71348600D03*
%TD*%
D10*
%TO.P,R11,1*%
%TO.N,+5VD*%
X106730800Y-94234000D03*
D11*
%TO.P,R11,2*%
%TO.N,Net-(D1-K)*%
X106730800Y-101854000D03*
%TD*%
D10*
%TO.P,R13,1*%
%TO.N,Net-(C21-Pad2)*%
X136398000Y-96828000D03*
D11*
%TO.P,R13,2*%
%TO.N,Net-(U2C--)*%
X128778000Y-96828000D03*
%TD*%
D10*
%TO.P,R8,1*%
%TO.N,+5VD*%
X132232400Y-68351400D03*
D11*
%TO.P,R8,2*%
%TO.N,Net-(U3-BURST)*%
X124612400Y-68351400D03*
%TD*%
D10*
%TO.P,C21,1*%
%TO.N,Net-(U6-Pb)*%
X139319000Y-96748600D03*
%TO.P,C21,2*%
%TO.N,Net-(C21-Pad2)*%
X139319000Y-101748600D03*
%TD*%
D12*
%TO.P,C7,1*%
%TO.N,+5VD*%
X145389600Y-93286801D03*
D13*
%TO.P,C7,2*%
%TO.N,GNDD*%
X145389600Y-95286801D03*
%TD*%
D15*
%TO.P,H2,1,1*%
%TO.N,GNDD*%
X113792000Y-68580000D03*
%TD*%
D10*
%TO.P,R9,1*%
%TO.N,Net-(Q1-B)*%
X118110000Y-66040000D03*
D11*
%TO.P,R9,2*%
%TO.N,Net-(U3-BURST)*%
X118110000Y-73660000D03*
%TD*%
D10*
%TO.P,C22,1*%
%TO.N,Net-(U6-Y)*%
X139192000Y-87082000D03*
%TO.P,C22,2*%
%TO.N,Net-(C22-Pad2)*%
X139192000Y-82082000D03*
%TD*%
D19*
%TO.P,J2,1,1*%
%TO.N,/blue*%
X161260000Y-62728000D03*
D20*
%TO.P,J2,2,2*%
%TO.N,+5VD*%
X163260000Y-62728000D03*
%TO.P,J2,3,3*%
%TO.N,/green*%
X158560000Y-62728000D03*
%TO.P,J2,4,4*%
%TO.N,/comp_vid*%
X160560000Y-65228000D03*
%TO.P,J2,5,5*%
%TO.N,/sync*%
X162560000Y-65228000D03*
%TO.P,J2,6,6*%
%TO.N,/audio_1*%
X166560000Y-62728000D03*
%TO.P,J2,7,7*%
%TO.N,/red*%
X158560000Y-65228000D03*
%TO.P,J2,8,8*%
%TO.N,/audio_1*%
X164560000Y-65228000D03*
%TO.P,J2,9,9*%
%TO.N,/audio_2*%
X166560000Y-65228000D03*
D21*
%TO.P,J2,MH1,MH1*%
%TO.N,GNDD*%
X155310000Y-59728000D03*
%TO.P,J2,MH2,MH2*%
X169810000Y-59728000D03*
D22*
%TO.P,J2,MH3,MH3*%
X162560000Y-58928000D03*
%TD*%
D10*
%TO.P,C14,1*%
%TO.N,Net-(U1A--)*%
X151892000Y-68286000D03*
%TO.P,C14,2*%
%TO.N,Net-(C14-Pad2)*%
X151892000Y-63286000D03*
%TD*%
D23*
%TO.P,U8,1,IN*%
%TO.N,VDDF*%
X106654600Y-57475000D03*
D24*
%TO.P,U8,2,GND*%
%TO.N,GNDD*%
X109194600Y-57475000D03*
%TO.P,U8,3,OUT*%
%TO.N,+5VD*%
X111734600Y-57475000D03*
%TD*%
D25*
%TO.N,+5VD*%
X104286820Y-84683600D03*
%TO.N,Net-(D1-K)*%
X104286820Y-86614000D03*
%TD*%
D26*
%TO.N,+5VD*%
X132232400Y-68351400D02*
X124794872Y-60913872D01*
X124794872Y-60913872D02*
X122889872Y-60913872D01*
X122889872Y-60913872D02*
X119451000Y-57475000D01*
X119451000Y-57475000D02*
X111734600Y-57475000D01*
D27*
%TO.N,+5VA*%
X131368800Y-62153800D02*
X131368800Y-62001400D01*
X131368800Y-62001400D02*
X128422400Y-59055000D01*
X128422400Y-59055000D02*
X123596400Y-59055000D01*
D26*
%TO.N,+5VD*%
X121539000Y-73660000D02*
X124968000Y-77089000D01*
X124968000Y-77089000D02*
X124968000Y-77256000D01*
D27*
%TO.N,Net-(L1-Pad1)*%
X107594400Y-78333600D02*
X107594400Y-71558244D01*
X107594400Y-71558244D02*
X116998844Y-62153800D01*
X116998844Y-62153800D02*
X123748800Y-62153800D01*
D26*
%TO.N,VDDF*%
X106654600Y-57475000D02*
X105333800Y-58795800D01*
X105333800Y-58795800D02*
X105333800Y-78740000D01*
X105333800Y-78740000D02*
X106872800Y-80279000D01*
X106872800Y-80279000D02*
X113792000Y-80279000D01*
%TO.N,+5VD*%
X107594400Y-68173600D02*
X108643199Y-68173600D01*
X108643199Y-68173600D02*
X113342199Y-63474600D01*
X121539000Y-86639400D02*
X125984000Y-91084400D01*
X159319600Y-82194400D02*
X153757000Y-87757000D01*
X109885600Y-55626000D02*
X111734600Y-57475000D01*
X104495100Y-84683600D02*
X104063800Y-84252300D01*
X132232400Y-68351400D02*
X132475600Y-68351400D01*
X124968000Y-77256000D02*
X121539000Y-80685000D01*
X124968000Y-76747170D02*
X124968000Y-77256000D01*
X138277600Y-85217000D02*
X137287000Y-86207600D01*
X132475600Y-68351400D02*
X134924800Y-65902200D01*
X153757000Y-87757000D02*
X152781000Y-87757000D01*
X104286820Y-84683600D02*
X104444300Y-84683600D01*
X104007073Y-84403853D02*
X104007073Y-56927327D01*
X132232400Y-68351400D02*
X132232400Y-69482770D01*
X105805600Y-86044900D02*
X105805600Y-91490800D01*
X106730800Y-94234000D02*
X106730800Y-92416000D01*
X121539000Y-80685000D02*
X121539000Y-86639400D01*
X104444300Y-84683600D02*
X105805600Y-86044900D01*
X125984000Y-91084400D02*
X125984000Y-93940000D01*
X104286820Y-84683600D02*
X104495100Y-84683600D01*
X104286820Y-84683600D02*
X104007073Y-84403853D01*
X135178800Y-86207600D02*
X128930400Y-92456000D01*
X128930400Y-92456000D02*
X127468000Y-92456000D01*
X137287000Y-86207600D02*
X135178800Y-86207600D01*
X113342199Y-63474600D02*
X113342199Y-59082599D01*
X104007073Y-56927327D02*
X105308400Y-55626000D01*
X142240000Y-88315800D02*
X142240000Y-87249000D01*
X140208000Y-85217000D02*
X138277600Y-85217000D01*
X113342199Y-59082599D02*
X111734600Y-57475000D01*
X106730800Y-92416000D02*
X105805600Y-91490800D01*
X127468000Y-92456000D02*
X125984000Y-93940000D01*
X142240000Y-87249000D02*
X140208000Y-85217000D01*
X132232400Y-69482770D02*
X124968000Y-76747170D01*
X105308400Y-55626000D02*
X109885600Y-55626000D01*
D27*
%TO.N,/Y*%
X113792000Y-85359000D02*
X116012200Y-85359000D01*
X116535200Y-84836000D02*
X118658000Y-84836000D01*
X116012200Y-85359000D02*
X116535200Y-84836000D01*
%TO.N,Net-(D1-K)*%
X104368600Y-96494600D02*
X106629200Y-98755200D01*
X113792000Y-82819000D02*
X113192800Y-82819000D01*
X104368600Y-86695780D02*
X104368600Y-96494600D01*
X104286820Y-86614000D02*
X104368600Y-86695780D01*
X108458000Y-97028000D02*
X106730800Y-98755200D01*
X108458000Y-90424000D02*
X108458000Y-97028000D01*
X106730800Y-98755200D02*
X106730800Y-101854000D01*
X106629200Y-98755200D02*
X106730800Y-98755200D01*
X111734600Y-87147400D02*
X108458000Y-90424000D01*
X111734600Y-84277200D02*
X111734600Y-87147400D01*
X113192800Y-82819000D02*
X111734600Y-84277200D01*
%TO.N,+5VA*%
X135026400Y-62153800D02*
X137998200Y-65125600D01*
X131368800Y-62153800D02*
X135026400Y-62153800D01*
%TD*%
%TA.AperFunction,Conductor*%
%TO.N,GNDD*%
G36*
X119263094Y-57990013D02*
G01*
X119275098Y-58000265D01*
X120999798Y-59724965D01*
X121028024Y-59780363D01*
X121018298Y-59841771D01*
X120974334Y-59885735D01*
X120928663Y-59896700D01*
X120006828Y-59896700D01*
X120006813Y-59896701D01*
X119981291Y-59899662D01*
X119981288Y-59899662D01*
X119876875Y-59945765D01*
X119796165Y-60026475D01*
X119750062Y-60130888D01*
X119750062Y-60130889D01*
X119747100Y-60156418D01*
X119747100Y-60156423D01*
X119747101Y-61620900D01*
X119727888Y-61680031D01*
X119677588Y-61716576D01*
X119646501Y-61721500D01*
X117028765Y-61721500D01*
X117017501Y-61720867D01*
X116982499Y-61716923D01*
X116982493Y-61716923D01*
X116928244Y-61727186D01*
X116924541Y-61727815D01*
X116869986Y-61736038D01*
X116862779Y-61738262D01*
X116862629Y-61737775D01*
X116861402Y-61738179D01*
X116861570Y-61738659D01*
X116854455Y-61741148D01*
X116828196Y-61755026D01*
X116805664Y-61766934D01*
X116802323Y-61768621D01*
X116752571Y-61792581D01*
X116746342Y-61796828D01*
X116746056Y-61796409D01*
X116744996Y-61797161D01*
X116745298Y-61797570D01*
X116739234Y-61802044D01*
X116700217Y-61841061D01*
X116697513Y-61843666D01*
X116657037Y-61881225D01*
X116652338Y-61887117D01*
X116651939Y-61886799D01*
X116643555Y-61897723D01*
X114419233Y-64122044D01*
X114363835Y-64150270D01*
X114302427Y-64140544D01*
X114258463Y-64096580D01*
X114247498Y-64050912D01*
X114247498Y-62829022D01*
X114244537Y-62803491D01*
X114218872Y-62745366D01*
X114198433Y-62699075D01*
X114117723Y-62618365D01*
X114013309Y-62572262D01*
X113987781Y-62569300D01*
X113987778Y-62569300D01*
X113938599Y-62569300D01*
X113879468Y-62550087D01*
X113842923Y-62499787D01*
X113837999Y-62468700D01*
X113837999Y-59146711D01*
X113840298Y-59125328D01*
X113841820Y-59118332D01*
X113838255Y-59068480D01*
X113837999Y-59061305D01*
X113837999Y-59047144D01*
X113837379Y-59042836D01*
X113835981Y-59033114D01*
X113835214Y-59025973D01*
X113833440Y-59001167D01*
X113831650Y-58976125D01*
X113829146Y-58969414D01*
X113823825Y-58948563D01*
X113822807Y-58941480D01*
X113802040Y-58896006D01*
X113799292Y-58889372D01*
X113781826Y-58842544D01*
X113781825Y-58842542D01*
X113777533Y-58836809D01*
X113766558Y-58818313D01*
X113763581Y-58811793D01*
X113763580Y-58811792D01*
X113763579Y-58811789D01*
X113730853Y-58774023D01*
X113726345Y-58768430D01*
X113723694Y-58764889D01*
X113717854Y-58757087D01*
X113707831Y-58747064D01*
X113702952Y-58741824D01*
X113670217Y-58704046D01*
X113670216Y-58704045D01*
X113670215Y-58704044D01*
X113664191Y-58700173D01*
X113647447Y-58686680D01*
X113103302Y-58142535D01*
X113075076Y-58087137D01*
X113084802Y-58025729D01*
X113128766Y-57981765D01*
X113174437Y-57970800D01*
X119203963Y-57970800D01*
X119263094Y-57990013D01*
G37*
%TD.AperFunction*%
%TA.AperFunction,Conductor*%
G36*
X171971112Y-53369713D02*
G01*
X171983116Y-53379965D01*
X172426035Y-53822884D01*
X172454261Y-53878282D01*
X172455500Y-53894019D01*
X172455500Y-103178774D01*
X172436287Y-103237905D01*
X172425151Y-103250782D01*
X171984451Y-103680733D01*
X171928709Y-103708273D01*
X171914345Y-103709325D01*
X162376059Y-103723100D01*
X102877920Y-103723100D01*
X102818789Y-103703887D01*
X102806785Y-103693635D01*
X102366378Y-103253229D01*
X102338152Y-103197831D01*
X102336914Y-103182061D01*
X102346354Y-84368120D01*
X103507452Y-84368120D01*
X103511017Y-84417968D01*
X103511273Y-84425144D01*
X103511273Y-84439310D01*
X103512687Y-84449147D01*
X103513288Y-84453327D01*
X103514055Y-84460459D01*
X103517622Y-84510328D01*
X103517622Y-84510329D01*
X103520125Y-84517037D01*
X103525445Y-84537877D01*
X103526465Y-84544971D01*
X103527004Y-84546807D01*
X103527423Y-84551639D01*
X103527489Y-84552092D01*
X103527463Y-84552095D01*
X103530445Y-84586406D01*
X103522012Y-84661264D01*
X103519495Y-84683603D01*
X103519495Y-84683605D01*
X103538732Y-84854344D01*
X103595484Y-85016531D01*
X103686895Y-85162011D01*
X103686900Y-85162017D01*
X103686901Y-85162019D01*
X103808401Y-85283519D01*
X103808403Y-85283520D01*
X103808408Y-85283524D01*
X103928528Y-85359000D01*
X103953890Y-85374936D01*
X104116074Y-85431687D01*
X104133967Y-85433703D01*
X104286816Y-85450925D01*
X104286820Y-85450925D01*
X104286823Y-85450925D01*
X104351560Y-85443630D01*
X104439670Y-85433703D01*
X104500580Y-85446174D01*
X104522068Y-85462535D01*
X105280335Y-86220802D01*
X105308561Y-86276200D01*
X105309800Y-86291937D01*
X105309800Y-90441731D01*
X105290587Y-90500862D01*
X105262159Y-90527263D01*
X105136653Y-90604973D01*
X105136648Y-90604977D01*
X104985272Y-90742974D01*
X104981780Y-90747600D01*
X104930812Y-90783209D01*
X104868649Y-90782059D01*
X104819033Y-90744590D01*
X104800900Y-90686974D01*
X104800900Y-87219928D01*
X104820113Y-87160797D01*
X104830365Y-87148793D01*
X104857316Y-87121842D01*
X104886739Y-87092419D01*
X104978156Y-86946930D01*
X105034907Y-86784746D01*
X105043933Y-86704639D01*
X105054145Y-86614004D01*
X105054145Y-86613995D01*
X105034907Y-86443255D01*
X105018935Y-86397611D01*
X104978156Y-86281070D01*
X104924816Y-86196180D01*
X104886744Y-86135588D01*
X104886737Y-86135579D01*
X104765240Y-86014082D01*
X104765231Y-86014075D01*
X104619751Y-85922664D01*
X104457564Y-85865912D01*
X104286824Y-85846675D01*
X104286816Y-85846675D01*
X104116075Y-85865912D01*
X103953888Y-85922664D01*
X103808408Y-86014075D01*
X103808399Y-86014082D01*
X103686902Y-86135579D01*
X103686895Y-86135588D01*
X103595484Y-86281068D01*
X103538732Y-86443255D01*
X103519495Y-86613995D01*
X103519495Y-86614004D01*
X103538732Y-86784744D01*
X103595484Y-86946931D01*
X103686895Y-87092411D01*
X103686900Y-87092417D01*
X103686901Y-87092419D01*
X103808401Y-87213919D01*
X103841764Y-87234882D01*
X103889222Y-87264702D01*
X103929068Y-87312430D01*
X103936300Y-87349883D01*
X103936300Y-96464679D01*
X103935667Y-96475942D01*
X103931723Y-96510944D01*
X103931723Y-96510951D01*
X103941982Y-96565170D01*
X103942612Y-96568877D01*
X103950839Y-96623459D01*
X103953063Y-96630666D01*
X103952574Y-96630816D01*
X103952978Y-96632043D01*
X103953460Y-96631875D01*
X103955949Y-96638988D01*
X103955950Y-96638992D01*
X103955951Y-96638995D01*
X103955952Y-96638996D01*
X103981731Y-96687774D01*
X103983426Y-96691130D01*
X104007382Y-96740874D01*
X104011631Y-96747106D01*
X104011207Y-96747394D01*
X104011954Y-96748447D01*
X104012367Y-96748143D01*
X104016843Y-96754208D01*
X104055870Y-96793235D01*
X104058479Y-96795944D01*
X104096017Y-96836400D01*
X104101914Y-96841102D01*
X104101594Y-96841502D01*
X104112523Y-96849888D01*
X106269035Y-99006400D01*
X106297261Y-99061798D01*
X106298500Y-99077535D01*
X106298500Y-100767218D01*
X106279287Y-100826349D01*
X106239524Y-100856959D01*
X106240175Y-100858266D01*
X106236014Y-100860337D01*
X106128178Y-100927106D01*
X106061854Y-100968173D01*
X106061853Y-100968174D01*
X106061844Y-100968180D01*
X105910474Y-101106173D01*
X105787027Y-101269645D01*
X105787026Y-101269646D01*
X105695724Y-101453005D01*
X105695723Y-101453006D01*
X105639664Y-101650035D01*
X105639664Y-101650036D01*
X105620765Y-101854000D01*
X105639664Y-102057963D01*
X105639664Y-102057964D01*
X105695723Y-102254993D01*
X105695724Y-102254994D01*
X105787026Y-102438353D01*
X105787027Y-102438354D01*
X105787029Y-102438358D01*
X105830880Y-102496426D01*
X105910474Y-102601826D01*
X106061844Y-102739819D01*
X106061848Y-102739822D01*
X106061854Y-102739827D01*
X106236015Y-102847663D01*
X106427025Y-102921660D01*
X106553097Y-102945227D01*
X106628377Y-102959300D01*
X106628379Y-102959300D01*
X106833223Y-102959300D01*
X106896646Y-102947443D01*
X107034575Y-102921660D01*
X107225585Y-102847663D01*
X107399746Y-102739827D01*
X107551126Y-102601826D01*
X107674571Y-102438358D01*
X107765877Y-102254991D01*
X107821935Y-102057968D01*
X107840835Y-101854000D01*
X107831068Y-101748600D01*
X138208965Y-101748600D01*
X138227864Y-101952563D01*
X138227864Y-101952564D01*
X138283923Y-102149593D01*
X138283924Y-102149594D01*
X138375226Y-102332953D01*
X138375227Y-102332954D01*
X138375229Y-102332958D01*
X138498674Y-102496426D01*
X138650044Y-102634419D01*
X138650048Y-102634422D01*
X138650054Y-102634427D01*
X138824215Y-102742263D01*
X139015225Y-102816260D01*
X139141297Y-102839827D01*
X139216577Y-102853900D01*
X139216579Y-102853900D01*
X139421423Y-102853900D01*
X139484846Y-102842043D01*
X139622775Y-102816260D01*
X139813785Y-102742263D01*
X139987946Y-102634427D01*
X140139326Y-102496426D01*
X140262771Y-102332958D01*
X140354077Y-102149591D01*
X140410135Y-101952568D01*
X140429035Y-101748600D01*
X140410135Y-101544632D01*
X140354077Y-101347609D01*
X140262771Y-101164242D01*
X140139326Y-101000774D01*
X140103572Y-100968180D01*
X139987955Y-100862780D01*
X139987950Y-100862776D01*
X139987946Y-100862773D01*
X139813785Y-100754937D01*
X139813781Y-100754935D01*
X139622776Y-100680940D01*
X139421423Y-100643300D01*
X139421421Y-100643300D01*
X139216579Y-100643300D01*
X139216577Y-100643300D01*
X139015223Y-100680940D01*
X138824218Y-100754935D01*
X138824214Y-100754937D01*
X138716378Y-100821706D01*
X138650054Y-100862773D01*
X138650053Y-100862774D01*
X138650044Y-100862780D01*
X138498674Y-101000773D01*
X138375227Y-101164245D01*
X138375226Y-101164246D01*
X138283924Y-101347605D01*
X138283923Y-101347606D01*
X138227864Y-101544635D01*
X138227864Y-101544636D01*
X138208965Y-101748600D01*
X107831068Y-101748600D01*
X107821935Y-101650032D01*
X107765877Y-101453009D01*
X107674571Y-101269642D01*
X107551126Y-101106174D01*
X107551125Y-101106173D01*
X107399755Y-100968180D01*
X107399750Y-100968176D01*
X107399746Y-100968173D01*
X107225585Y-100860337D01*
X107221425Y-100858266D01*
X107222160Y-100856789D01*
X107179160Y-100821746D01*
X107163100Y-100767218D01*
X107163100Y-99172400D01*
X108922765Y-99172400D01*
X108941664Y-99376363D01*
X108941664Y-99376364D01*
X108997723Y-99573393D01*
X108997724Y-99573394D01*
X109089026Y-99756753D01*
X109089027Y-99756754D01*
X109089029Y-99756758D01*
X109212474Y-99920226D01*
X109363844Y-100058219D01*
X109363848Y-100058222D01*
X109363854Y-100058227D01*
X109538015Y-100166063D01*
X109729025Y-100240060D01*
X109855097Y-100263627D01*
X109930377Y-100277700D01*
X109930379Y-100277700D01*
X110135223Y-100277700D01*
X110198646Y-100265843D01*
X110336575Y-100240060D01*
X110527585Y-100166063D01*
X110701746Y-100058227D01*
X110853126Y-99920226D01*
X110864193Y-99905571D01*
X112940700Y-99905571D01*
X112940701Y-99905586D01*
X112943662Y-99931108D01*
X112943662Y-99931111D01*
X112989765Y-100035524D01*
X112989766Y-100035525D01*
X113070475Y-100116234D01*
X113174891Y-100162338D01*
X113200421Y-100165300D01*
X114891578Y-100165299D01*
X114917109Y-100162338D01*
X115021525Y-100116234D01*
X115102234Y-100035525D01*
X115148338Y-99931109D01*
X115151300Y-99905579D01*
X115151300Y-99872800D01*
X135287965Y-99872800D01*
X135306864Y-100076763D01*
X135306864Y-100076764D01*
X135362923Y-100273793D01*
X135362924Y-100273794D01*
X135454226Y-100457153D01*
X135454227Y-100457154D01*
X135454229Y-100457158D01*
X135577674Y-100620626D01*
X135729044Y-100758619D01*
X135729048Y-100758622D01*
X135729054Y-100758627D01*
X135903215Y-100866463D01*
X136094225Y-100940460D01*
X136220297Y-100964027D01*
X136295577Y-100978100D01*
X136295579Y-100978100D01*
X136500423Y-100978100D01*
X136563846Y-100966243D01*
X136701775Y-100940460D01*
X136892785Y-100866463D01*
X137066946Y-100758627D01*
X137218326Y-100620626D01*
X137341771Y-100457158D01*
X137433077Y-100273791D01*
X137489135Y-100076768D01*
X137508035Y-99872800D01*
X137489135Y-99668832D01*
X137433077Y-99471809D01*
X137341771Y-99288442D01*
X137218326Y-99124974D01*
X137166288Y-99077535D01*
X137066955Y-98986980D01*
X137066950Y-98986976D01*
X137066946Y-98986973D01*
X136892785Y-98879137D01*
X136892781Y-98879135D01*
X136701776Y-98805140D01*
X136500423Y-98767500D01*
X136500421Y-98767500D01*
X136295579Y-98767500D01*
X136295577Y-98767500D01*
X136094223Y-98805140D01*
X135903218Y-98879135D01*
X135903214Y-98879137D01*
X135861769Y-98904799D01*
X135729054Y-98986973D01*
X135729053Y-98986974D01*
X135729044Y-98986980D01*
X135577674Y-99124973D01*
X135454227Y-99288445D01*
X135454226Y-99288446D01*
X135362924Y-99471805D01*
X135362923Y-99471806D01*
X135306864Y-99668835D01*
X135306864Y-99668836D01*
X135287965Y-99872800D01*
X115151300Y-99872800D01*
X115151299Y-98214422D01*
X115148338Y-98188891D01*
X115102234Y-98084475D01*
X115021525Y-98003766D01*
X115021524Y-98003765D01*
X114917110Y-97957662D01*
X114891579Y-97954700D01*
X113200428Y-97954700D01*
X113200413Y-97954701D01*
X113174891Y-97957662D01*
X113174888Y-97957662D01*
X113070475Y-98003765D01*
X112989765Y-98084475D01*
X112943662Y-98188888D01*
X112943662Y-98188889D01*
X112940700Y-98214418D01*
X112940700Y-99905571D01*
X110864193Y-99905571D01*
X110976571Y-99756758D01*
X111067877Y-99573391D01*
X111123935Y-99376368D01*
X111142835Y-99172400D01*
X111123935Y-98968432D01*
X111067877Y-98771409D01*
X110976571Y-98588042D01*
X110853126Y-98424574D01*
X110853125Y-98424573D01*
X110701755Y-98286580D01*
X110701750Y-98286576D01*
X110701746Y-98286573D01*
X110527585Y-98178737D01*
X110527581Y-98178735D01*
X110336576Y-98104740D01*
X110135223Y-98067100D01*
X110135221Y-98067100D01*
X109930379Y-98067100D01*
X109930377Y-98067100D01*
X109729023Y-98104740D01*
X109538018Y-98178735D01*
X109538014Y-98178737D01*
X109480372Y-98214428D01*
X109363854Y-98286573D01*
X109363853Y-98286574D01*
X109363844Y-98286580D01*
X109212474Y-98424573D01*
X109089027Y-98588045D01*
X109089026Y-98588046D01*
X108997724Y-98771405D01*
X108997723Y-98771406D01*
X108941664Y-98968435D01*
X108941664Y-98968436D01*
X108922765Y-99172400D01*
X107163100Y-99172400D01*
X107163100Y-98975934D01*
X107182313Y-98916803D01*
X107192559Y-98904805D01*
X108742530Y-97354833D01*
X108750936Y-97347323D01*
X108778474Y-97325363D01*
X108778473Y-97325363D01*
X108778478Y-97325360D01*
X108809590Y-97279726D01*
X108811743Y-97276692D01*
X108844520Y-97232281D01*
X108844521Y-97232275D01*
X108848040Y-97225619D01*
X108848497Y-97225860D01*
X108849082Y-97224702D01*
X108848617Y-97224478D01*
X108851884Y-97217691D01*
X108851888Y-97217687D01*
X108868165Y-97164916D01*
X108869313Y-97161425D01*
X108887562Y-97109277D01*
X108887562Y-97109273D01*
X108888963Y-97101871D01*
X108889470Y-97101966D01*
X108889686Y-97100693D01*
X108889176Y-97100616D01*
X108890300Y-97093160D01*
X108890300Y-97037980D01*
X108890370Y-97034220D01*
X108890454Y-97031963D01*
X108892434Y-96979051D01*
X108892432Y-96979046D01*
X108892433Y-96979045D01*
X108891590Y-96971555D01*
X108892097Y-96971497D01*
X108890300Y-96957842D01*
X108890300Y-96828000D01*
X127667965Y-96828000D01*
X127686864Y-97031963D01*
X127686864Y-97031964D01*
X127686864Y-97031967D01*
X127686865Y-97031968D01*
X127690374Y-97044300D01*
X127742923Y-97228993D01*
X127742924Y-97228994D01*
X127834226Y-97412353D01*
X127834227Y-97412354D01*
X127834229Y-97412358D01*
X127957674Y-97575826D01*
X128109044Y-97713819D01*
X128109048Y-97713822D01*
X128109054Y-97713827D01*
X128283215Y-97821663D01*
X128474225Y-97895660D01*
X128600297Y-97919227D01*
X128675577Y-97933300D01*
X128675579Y-97933300D01*
X128880423Y-97933300D01*
X128943846Y-97921443D01*
X129081775Y-97895660D01*
X129272785Y-97821663D01*
X129446946Y-97713827D01*
X129598326Y-97575826D01*
X129721771Y-97412358D01*
X129813077Y-97228991D01*
X129869135Y-97031968D01*
X129888035Y-96828000D01*
X135287965Y-96828000D01*
X135306864Y-97031963D01*
X135306864Y-97031964D01*
X135306864Y-97031967D01*
X135306865Y-97031968D01*
X135310374Y-97044300D01*
X135362923Y-97228993D01*
X135362924Y-97228994D01*
X135454226Y-97412353D01*
X135454227Y-97412354D01*
X135454229Y-97412358D01*
X135577674Y-97575826D01*
X135729044Y-97713819D01*
X135729048Y-97713822D01*
X135729054Y-97713827D01*
X135903215Y-97821663D01*
X136094225Y-97895660D01*
X136220297Y-97919227D01*
X136295577Y-97933300D01*
X136295579Y-97933300D01*
X136500423Y-97933300D01*
X136563846Y-97921443D01*
X136701775Y-97895660D01*
X136892785Y-97821663D01*
X137066946Y-97713827D01*
X137218326Y-97575826D01*
X137341771Y-97412358D01*
X137433077Y-97228991D01*
X137489135Y-97031968D01*
X137508035Y-96828000D01*
X137489135Y-96624032D01*
X137433077Y-96427009D01*
X137341771Y-96243642D01*
X137218326Y-96080174D01*
X137218325Y-96080173D01*
X137066955Y-95942180D01*
X137066950Y-95942176D01*
X137066946Y-95942173D01*
X136892785Y-95834337D01*
X136892781Y-95834335D01*
X136701776Y-95760340D01*
X136500423Y-95722700D01*
X136500421Y-95722700D01*
X136295579Y-95722700D01*
X136295577Y-95722700D01*
X136094223Y-95760340D01*
X135903218Y-95834335D01*
X135903214Y-95834337D01*
X135795378Y-95901106D01*
X135729054Y-95942173D01*
X135729053Y-95942174D01*
X135729044Y-95942180D01*
X135577674Y-96080173D01*
X135454227Y-96243645D01*
X135454226Y-96243646D01*
X135362924Y-96427005D01*
X135362923Y-96427006D01*
X135306864Y-96624035D01*
X135306864Y-96624036D01*
X135287965Y-96828000D01*
X129888035Y-96828000D01*
X129869135Y-96624032D01*
X129813077Y-96427009D01*
X129721771Y-96243642D01*
X129598326Y-96080174D01*
X129598325Y-96080173D01*
X129446955Y-95942180D01*
X129446950Y-95942176D01*
X129446946Y-95942173D01*
X129272785Y-95834337D01*
X129272781Y-95834335D01*
X129081776Y-95760340D01*
X128880423Y-95722700D01*
X128880421Y-95722700D01*
X128675579Y-95722700D01*
X128675577Y-95722700D01*
X128474223Y-95760340D01*
X128283218Y-95834335D01*
X128283214Y-95834337D01*
X128175378Y-95901106D01*
X128109054Y-95942173D01*
X128109053Y-95942174D01*
X128109044Y-95942180D01*
X127957674Y-96080173D01*
X127834227Y-96243645D01*
X127834226Y-96243646D01*
X127742924Y-96427005D01*
X127742923Y-96427006D01*
X127686864Y-96624035D01*
X127686864Y-96624036D01*
X127667965Y-96828000D01*
X108890300Y-96828000D01*
X108890300Y-90644734D01*
X108909513Y-90585603D01*
X108919759Y-90573605D01*
X109054364Y-90439000D01*
X112631751Y-90439000D01*
X112651505Y-90652190D01*
X112651505Y-90652191D01*
X112651505Y-90652194D01*
X112651506Y-90652195D01*
X112661402Y-90686974D01*
X112710100Y-90858131D01*
X112710103Y-90858138D01*
X112805531Y-91049783D01*
X112805532Y-91049785D01*
X112805536Y-91049792D01*
X112934566Y-91220655D01*
X113092792Y-91364898D01*
X113092794Y-91364899D01*
X113274833Y-91477612D01*
X113474483Y-91554957D01*
X113606258Y-91579590D01*
X113684944Y-91594300D01*
X113684946Y-91594300D01*
X113899056Y-91594300D01*
X113965349Y-91581907D01*
X114109517Y-91554957D01*
X114309167Y-91477612D01*
X114491206Y-91364899D01*
X114649434Y-91220655D01*
X114778464Y-91049792D01*
X114873900Y-90858130D01*
X114932494Y-90652195D01*
X114952249Y-90439000D01*
X114932494Y-90225805D01*
X114873900Y-90019870D01*
X114778464Y-89828208D01*
X114649434Y-89657345D01*
X114643530Y-89651963D01*
X114491207Y-89513101D01*
X114309167Y-89400388D01*
X114309163Y-89400386D01*
X114109518Y-89323043D01*
X113899056Y-89283700D01*
X113899054Y-89283700D01*
X113684946Y-89283700D01*
X113684944Y-89283700D01*
X113474481Y-89323043D01*
X113274836Y-89400386D01*
X113274832Y-89400388D01*
X113092792Y-89513101D01*
X112934566Y-89657344D01*
X112895003Y-89709735D01*
X112805536Y-89828208D01*
X112805534Y-89828211D01*
X112805534Y-89828212D01*
X112805531Y-89828216D01*
X112710103Y-90019861D01*
X112710100Y-90019868D01*
X112651505Y-90225808D01*
X112651505Y-90225809D01*
X112631751Y-90439000D01*
X109054364Y-90439000D01*
X111594363Y-87899000D01*
X112631751Y-87899000D01*
X112651505Y-88112190D01*
X112651505Y-88112191D01*
X112651505Y-88112194D01*
X112651506Y-88112195D01*
X112659741Y-88141139D01*
X112710100Y-88318131D01*
X112710103Y-88318138D01*
X112805531Y-88509783D01*
X112805532Y-88509785D01*
X112805536Y-88509792D01*
X112905994Y-88642819D01*
X112934566Y-88680655D01*
X113092792Y-88824898D01*
X113155371Y-88863645D01*
X113274833Y-88937612D01*
X113474483Y-89014957D01*
X113606258Y-89039590D01*
X113684944Y-89054300D01*
X113684946Y-89054300D01*
X113899056Y-89054300D01*
X113965349Y-89041907D01*
X114109517Y-89014957D01*
X114309167Y-88937612D01*
X114491206Y-88824899D01*
X114649434Y-88680655D01*
X114778464Y-88509792D01*
X114873900Y-88318130D01*
X114932494Y-88112195D01*
X114952249Y-87899000D01*
X114932494Y-87685805D01*
X114873900Y-87479870D01*
X114869108Y-87470247D01*
X114778468Y-87288216D01*
X114778467Y-87288215D01*
X114778464Y-87288208D01*
X114649434Y-87117345D01*
X114639054Y-87107882D01*
X114491207Y-86973101D01*
X114309167Y-86860388D01*
X114309163Y-86860386D01*
X114109518Y-86783043D01*
X113899056Y-86743700D01*
X113899054Y-86743700D01*
X113684946Y-86743700D01*
X113684944Y-86743700D01*
X113474481Y-86783043D01*
X113274836Y-86860386D01*
X113274832Y-86860388D01*
X113092792Y-86973101D01*
X112934566Y-87117344D01*
X112879695Y-87190005D01*
X112805536Y-87288208D01*
X112805534Y-87288211D01*
X112805534Y-87288212D01*
X112805531Y-87288216D01*
X112710103Y-87479861D01*
X112710100Y-87479868D01*
X112651505Y-87685808D01*
X112651505Y-87685809D01*
X112631751Y-87899000D01*
X111594363Y-87899000D01*
X112019130Y-87474233D01*
X112027536Y-87466723D01*
X112055078Y-87444760D01*
X112086176Y-87399144D01*
X112088336Y-87396100D01*
X112121120Y-87351682D01*
X112121121Y-87351676D01*
X112124642Y-87345017D01*
X112125098Y-87345258D01*
X112125680Y-87344105D01*
X112125215Y-87343881D01*
X112128481Y-87337096D01*
X112128488Y-87337087D01*
X112144758Y-87284336D01*
X112145914Y-87280822D01*
X112164162Y-87228678D01*
X112164162Y-87228674D01*
X112165563Y-87221272D01*
X112166070Y-87221367D01*
X112166286Y-87220093D01*
X112165776Y-87220016D01*
X112166900Y-87212560D01*
X112166900Y-87157381D01*
X112166970Y-87153621D01*
X112167385Y-87142527D01*
X112169034Y-87098451D01*
X112169032Y-87098446D01*
X112169033Y-87098445D01*
X112168190Y-87090955D01*
X112168697Y-87090897D01*
X112166900Y-87077242D01*
X112166900Y-85359000D01*
X112631751Y-85359000D01*
X112651505Y-85572190D01*
X112651505Y-85572191D01*
X112710100Y-85778131D01*
X112710103Y-85778138D01*
X112805531Y-85969783D01*
X112805532Y-85969785D01*
X112805536Y-85969792D01*
X112902505Y-86098199D01*
X112934566Y-86140655D01*
X113092792Y-86284898D01*
X113092794Y-86284899D01*
X113274833Y-86397612D01*
X113474483Y-86474957D01*
X113606258Y-86499590D01*
X113684944Y-86514300D01*
X113684946Y-86514300D01*
X113899056Y-86514300D01*
X113965349Y-86501907D01*
X114109517Y-86474957D01*
X114309167Y-86397612D01*
X114491206Y-86284899D01*
X114649434Y-86140655D01*
X114778464Y-85969792D01*
X114823385Y-85879579D01*
X114839578Y-85847059D01*
X114883133Y-85802691D01*
X114929631Y-85791300D01*
X115982278Y-85791300D01*
X115993543Y-85791933D01*
X116028542Y-85795877D01*
X116028543Y-85795876D01*
X116028547Y-85795877D01*
X116082803Y-85785610D01*
X116086437Y-85784993D01*
X116141062Y-85776760D01*
X116141069Y-85776756D01*
X116148273Y-85774535D01*
X116148425Y-85775028D01*
X116149639Y-85774629D01*
X116149469Y-85774142D01*
X116156585Y-85771651D01*
X116156592Y-85771650D01*
X116205427Y-85745839D01*
X116208718Y-85744178D01*
X116258474Y-85720218D01*
X116258480Y-85720211D01*
X116264705Y-85715969D01*
X116264995Y-85716395D01*
X116266046Y-85715650D01*
X116265740Y-85715235D01*
X116271804Y-85710758D01*
X116271808Y-85710757D01*
X116310874Y-85671690D01*
X116313528Y-85669133D01*
X116354003Y-85631579D01*
X116354003Y-85631578D01*
X116354005Y-85631577D01*
X116358707Y-85625681D01*
X116359108Y-85626000D01*
X116367488Y-85615075D01*
X116684800Y-85297765D01*
X116740198Y-85269539D01*
X116755935Y-85268300D01*
X117576225Y-85268300D01*
X117635356Y-85287513D01*
X117666275Y-85324055D01*
X117714229Y-85420358D01*
X117828887Y-85572190D01*
X117837674Y-85583826D01*
X117989044Y-85721819D01*
X117989048Y-85721822D01*
X117989054Y-85721827D01*
X118163215Y-85829663D01*
X118354225Y-85903660D01*
X118480297Y-85927227D01*
X118555577Y-85941300D01*
X118555579Y-85941300D01*
X118760423Y-85941300D01*
X118823846Y-85929443D01*
X118961775Y-85903660D01*
X119152785Y-85829663D01*
X119326946Y-85721827D01*
X119329622Y-85719388D01*
X119379021Y-85674354D01*
X119478326Y-85583826D01*
X119601771Y-85420358D01*
X119693077Y-85236991D01*
X119749135Y-85039968D01*
X119768035Y-84836000D01*
X119749135Y-84632032D01*
X119693077Y-84435009D01*
X119601771Y-84251642D01*
X119478326Y-84088174D01*
X119473399Y-84083682D01*
X119326955Y-83950180D01*
X119326950Y-83950176D01*
X119326946Y-83950173D01*
X119152785Y-83842337D01*
X119152781Y-83842335D01*
X118961776Y-83768340D01*
X118760423Y-83730700D01*
X118760421Y-83730700D01*
X118555579Y-83730700D01*
X118555577Y-83730700D01*
X118354223Y-83768340D01*
X118163218Y-83842335D01*
X118163214Y-83842337D01*
X118116005Y-83871568D01*
X117989054Y-83950173D01*
X117989053Y-83950174D01*
X117989044Y-83950180D01*
X117837674Y-84088173D01*
X117798366Y-84140226D01*
X117714229Y-84251642D01*
X117666276Y-84347943D01*
X117622723Y-84392309D01*
X117576225Y-84403700D01*
X116565131Y-84403700D01*
X116553866Y-84403067D01*
X116518857Y-84399121D01*
X116518850Y-84399122D01*
X116464600Y-84409387D01*
X116460891Y-84410017D01*
X116406336Y-84418239D01*
X116399134Y-84420461D01*
X116398985Y-84419978D01*
X116397750Y-84420384D01*
X116397918Y-84420862D01*
X116390802Y-84423351D01*
X116341993Y-84449147D01*
X116338638Y-84450841D01*
X116288928Y-84474780D01*
X116282702Y-84479026D01*
X116282414Y-84478604D01*
X116281355Y-84479355D01*
X116281658Y-84479765D01*
X116275593Y-84484241D01*
X116236560Y-84523273D01*
X116233855Y-84525879D01*
X116193393Y-84563424D01*
X116188698Y-84569312D01*
X116188299Y-84568994D01*
X116179913Y-84579920D01*
X115862600Y-84897235D01*
X115807203Y-84925461D01*
X115791465Y-84926700D01*
X114929631Y-84926700D01*
X114870500Y-84907487D01*
X114839578Y-84870941D01*
X114778468Y-84748216D01*
X114778467Y-84748215D01*
X114778464Y-84748208D01*
X114649434Y-84577345D01*
X114640622Y-84569312D01*
X114491207Y-84433101D01*
X114309167Y-84320388D01*
X114309163Y-84320386D01*
X114109518Y-84243043D01*
X113899056Y-84203700D01*
X113899054Y-84203700D01*
X113684946Y-84203700D01*
X113684944Y-84203700D01*
X113474481Y-84243043D01*
X113274836Y-84320386D01*
X113274832Y-84320388D01*
X113092792Y-84433101D01*
X112934566Y-84577344D01*
X112927723Y-84586406D01*
X112805536Y-84748208D01*
X112805534Y-84748211D01*
X112805534Y-84748212D01*
X112805531Y-84748216D01*
X112710103Y-84939861D01*
X112710100Y-84939868D01*
X112651505Y-85145808D01*
X112651505Y-85145809D01*
X112631751Y-85359000D01*
X112166900Y-85359000D01*
X112166900Y-84497934D01*
X112186113Y-84438803D01*
X112196359Y-84426805D01*
X112912648Y-83710515D01*
X112968046Y-83682290D01*
X113029454Y-83692016D01*
X113051556Y-83707306D01*
X113092794Y-83744899D01*
X113274833Y-83857612D01*
X113474483Y-83934957D01*
X113597060Y-83957871D01*
X113684944Y-83974300D01*
X113684946Y-83974300D01*
X113899056Y-83974300D01*
X113965349Y-83961907D01*
X114109517Y-83934957D01*
X114309167Y-83857612D01*
X114491206Y-83744899D01*
X114649434Y-83600655D01*
X114778464Y-83429792D01*
X114873900Y-83238130D01*
X114932494Y-83032195D01*
X114952249Y-82819000D01*
X114932494Y-82605805D01*
X114873900Y-82399870D01*
X114873153Y-82398370D01*
X114778468Y-82208216D01*
X114778467Y-82208215D01*
X114778464Y-82208208D01*
X114649434Y-82037345D01*
X114648607Y-82036591D01*
X114491207Y-81893101D01*
X114309167Y-81780388D01*
X114309163Y-81780386D01*
X114109518Y-81703043D01*
X113899056Y-81663700D01*
X113899054Y-81663700D01*
X113684946Y-81663700D01*
X113684944Y-81663700D01*
X113474481Y-81703043D01*
X113274836Y-81780386D01*
X113274832Y-81780388D01*
X113092792Y-81893101D01*
X112934566Y-82037344D01*
X112900844Y-82082000D01*
X112805536Y-82208208D01*
X112805534Y-82208211D01*
X112805534Y-82208212D01*
X112805531Y-82208216D01*
X112710103Y-82399861D01*
X112710100Y-82399868D01*
X112651505Y-82605808D01*
X112640240Y-82727378D01*
X112615653Y-82784484D01*
X112611204Y-82789230D01*
X111450077Y-83950356D01*
X111441668Y-83957871D01*
X111414121Y-83979840D01*
X111383023Y-84025452D01*
X111380854Y-84028509D01*
X111351274Y-84068591D01*
X111348081Y-84072917D01*
X111344560Y-84079579D01*
X111344110Y-84079341D01*
X111343522Y-84080505D01*
X111343980Y-84080726D01*
X111340711Y-84087513D01*
X111324451Y-84140226D01*
X111323276Y-84143796D01*
X111305037Y-84195921D01*
X111303636Y-84203328D01*
X111303138Y-84203233D01*
X111302920Y-84204513D01*
X111303423Y-84204589D01*
X111302300Y-84212041D01*
X111302300Y-84267216D01*
X111302230Y-84270977D01*
X111300165Y-84326148D01*
X111301010Y-84333636D01*
X111300501Y-84333693D01*
X111302300Y-84347357D01*
X111302300Y-86926664D01*
X111283087Y-86985795D01*
X111272835Y-86997799D01*
X108173473Y-90097160D01*
X108165063Y-90104676D01*
X108137520Y-90126641D01*
X108106423Y-90172252D01*
X108104248Y-90175318D01*
X108071481Y-90219717D01*
X108067960Y-90226379D01*
X108067510Y-90226141D01*
X108066922Y-90227305D01*
X108067380Y-90227526D01*
X108064111Y-90234313D01*
X108047851Y-90287026D01*
X108046676Y-90290596D01*
X108028437Y-90342721D01*
X108027036Y-90350128D01*
X108026538Y-90350033D01*
X108026320Y-90351313D01*
X108026823Y-90351389D01*
X108025700Y-90358841D01*
X108025700Y-90414016D01*
X108025630Y-90417777D01*
X108023565Y-90472948D01*
X108024410Y-90480436D01*
X108023901Y-90480493D01*
X108025700Y-90494157D01*
X108025700Y-94053060D01*
X108006487Y-94112191D01*
X107956187Y-94148736D01*
X107894013Y-94148736D01*
X107843713Y-94112191D01*
X107824929Y-94062342D01*
X107821935Y-94030036D01*
X107821935Y-94030035D01*
X107821935Y-94030032D01*
X107765877Y-93833009D01*
X107674571Y-93649642D01*
X107551126Y-93486174D01*
X107541507Y-93477405D01*
X107399751Y-93348177D01*
X107399746Y-93348173D01*
X107274241Y-93270463D01*
X107234081Y-93222999D01*
X107226600Y-93184931D01*
X107226600Y-92480112D01*
X107228899Y-92458729D01*
X107230421Y-92451733D01*
X107226856Y-92401881D01*
X107226600Y-92394706D01*
X107226600Y-92380545D01*
X107226036Y-92376625D01*
X107224582Y-92366515D01*
X107223815Y-92359374D01*
X107220251Y-92309527D01*
X107220251Y-92309526D01*
X107217747Y-92302815D01*
X107212426Y-92281964D01*
X107211408Y-92274881D01*
X107190641Y-92229407D01*
X107187893Y-92222773D01*
X107170427Y-92175945D01*
X107170426Y-92175943D01*
X107166134Y-92170210D01*
X107155159Y-92151714D01*
X107152182Y-92145194D01*
X107152181Y-92145193D01*
X107152180Y-92145190D01*
X107119454Y-92107424D01*
X107114946Y-92101831D01*
X107106454Y-92090487D01*
X107096432Y-92080465D01*
X107091553Y-92075225D01*
X107058818Y-92037447D01*
X107058817Y-92037446D01*
X107058816Y-92037445D01*
X107052792Y-92033574D01*
X107036048Y-92020081D01*
X106897338Y-91881371D01*
X106869112Y-91825973D01*
X106871714Y-91782705D01*
X106875028Y-91771060D01*
X106896735Y-91694768D01*
X106915635Y-91490800D01*
X106896735Y-91286832D01*
X106840677Y-91089809D01*
X106749371Y-90906442D01*
X106625926Y-90742974D01*
X106585200Y-90705847D01*
X106474551Y-90604977D01*
X106474546Y-90604973D01*
X106349041Y-90527263D01*
X106308881Y-90479799D01*
X106301400Y-90441731D01*
X106301400Y-86109013D01*
X106303699Y-86087630D01*
X106305221Y-86080634D01*
X106301656Y-86030782D01*
X106301400Y-86023607D01*
X106301400Y-86009446D01*
X106301400Y-86009443D01*
X106299381Y-85995406D01*
X106298615Y-85988275D01*
X106297787Y-85976700D01*
X106295051Y-85938427D01*
X106292549Y-85931721D01*
X106287226Y-85910865D01*
X106286208Y-85903782D01*
X106286208Y-85903781D01*
X106277910Y-85885611D01*
X106265436Y-85858296D01*
X106262693Y-85851674D01*
X106245227Y-85804845D01*
X106240934Y-85799110D01*
X106229959Y-85780614D01*
X106226982Y-85774094D01*
X106226981Y-85774093D01*
X106226980Y-85774090D01*
X106194254Y-85736324D01*
X106189746Y-85730731D01*
X106186947Y-85726992D01*
X106181255Y-85719388D01*
X106171232Y-85709365D01*
X106166353Y-85704125D01*
X106133618Y-85666347D01*
X106133617Y-85666346D01*
X106133616Y-85666345D01*
X106127592Y-85662474D01*
X106110848Y-85648981D01*
X105067440Y-84605573D01*
X105039214Y-84550175D01*
X105038610Y-84545729D01*
X105034907Y-84512854D01*
X105034023Y-84510329D01*
X105016573Y-84460459D01*
X104978156Y-84350670D01*
X104978155Y-84350668D01*
X104886744Y-84205188D01*
X104886737Y-84205179D01*
X104765240Y-84083682D01*
X104765231Y-84083675D01*
X104619758Y-83992268D01*
X104619752Y-83992265D01*
X104619750Y-83992264D01*
X104570245Y-83974941D01*
X104520779Y-83937276D01*
X104502873Y-83879987D01*
X104502873Y-64591027D01*
X104522086Y-64531896D01*
X104572386Y-64495351D01*
X104634560Y-64495351D01*
X104644102Y-64498997D01*
X104650390Y-64501773D01*
X104655291Y-64503938D01*
X104658253Y-64504281D01*
X104680822Y-64506900D01*
X104737399Y-64506899D01*
X104796530Y-64526111D01*
X104833076Y-64576410D01*
X104838000Y-64607499D01*
X104838000Y-78675886D01*
X104835702Y-78697261D01*
X104834179Y-78704266D01*
X104834179Y-78704267D01*
X104837744Y-78754115D01*
X104838000Y-78761291D01*
X104838000Y-78775457D01*
X104838310Y-78777611D01*
X104840015Y-78789474D01*
X104840782Y-78796606D01*
X104844349Y-78846475D01*
X104844349Y-78846476D01*
X104846852Y-78853184D01*
X104852171Y-78874023D01*
X104853192Y-78881119D01*
X104865682Y-78908468D01*
X104873959Y-78926592D01*
X104876707Y-78933227D01*
X104894172Y-78980054D01*
X104898468Y-78985793D01*
X104909438Y-79004281D01*
X104912418Y-79010806D01*
X104945158Y-79048590D01*
X104949650Y-79054164D01*
X104958145Y-79065512D01*
X104958146Y-79065513D01*
X104968166Y-79075533D01*
X104973059Y-79080789D01*
X105005782Y-79118553D01*
X105011807Y-79122425D01*
X105028552Y-79135919D01*
X106476881Y-80584248D01*
X106490374Y-80600992D01*
X106494245Y-80607016D01*
X106494246Y-80607017D01*
X106494247Y-80607018D01*
X106532025Y-80639753D01*
X106537265Y-80644632D01*
X106547291Y-80654658D01*
X106558632Y-80663148D01*
X106564225Y-80667655D01*
X106601991Y-80700380D01*
X106601992Y-80700380D01*
X106601994Y-80700382D01*
X106608505Y-80703355D01*
X106627007Y-80714332D01*
X106632745Y-80718628D01*
X106679594Y-80736101D01*
X106686213Y-80738844D01*
X106705262Y-80747543D01*
X106731681Y-80759608D01*
X106738766Y-80760626D01*
X106759614Y-80765947D01*
X106766327Y-80768451D01*
X106816185Y-80772016D01*
X106823306Y-80772781D01*
X106837343Y-80774800D01*
X106851509Y-80774800D01*
X106858684Y-80775055D01*
X106908534Y-80778621D01*
X106915538Y-80777097D01*
X106936914Y-80774800D01*
X112685988Y-80774800D01*
X112745119Y-80794013D01*
X112776041Y-80830559D01*
X112805531Y-80889783D01*
X112805532Y-80889785D01*
X112805536Y-80889792D01*
X112902829Y-81018628D01*
X112934566Y-81060655D01*
X113092792Y-81204898D01*
X113092794Y-81204899D01*
X113274833Y-81317612D01*
X113474483Y-81394957D01*
X113606258Y-81419590D01*
X113684944Y-81434300D01*
X113684946Y-81434300D01*
X113899056Y-81434300D01*
X113965349Y-81421907D01*
X114109517Y-81394957D01*
X114309167Y-81317612D01*
X114491206Y-81204899D01*
X114649434Y-81060655D01*
X114778464Y-80889792D01*
X114873900Y-80698130D01*
X114932494Y-80492195D01*
X114952249Y-80279000D01*
X114932494Y-80065805D01*
X114873900Y-79859870D01*
X114807958Y-79727441D01*
X114778468Y-79668216D01*
X114778467Y-79668215D01*
X114778464Y-79668208D01*
X114649434Y-79497345D01*
X114598989Y-79451358D01*
X114491207Y-79353101D01*
X114309167Y-79240388D01*
X114309163Y-79240386D01*
X114109518Y-79163043D01*
X113899056Y-79123700D01*
X113899054Y-79123700D01*
X113684946Y-79123700D01*
X113684944Y-79123700D01*
X113474481Y-79163043D01*
X113274836Y-79240386D01*
X113274832Y-79240388D01*
X113092792Y-79353101D01*
X112934566Y-79497344D01*
X112892573Y-79552953D01*
X112805536Y-79668208D01*
X112805534Y-79668211D01*
X112805534Y-79668212D01*
X112805531Y-79668216D01*
X112776041Y-79727441D01*
X112732486Y-79771809D01*
X112685988Y-79783200D01*
X107119837Y-79783200D01*
X107060706Y-79763987D01*
X107048702Y-79753735D01*
X105859065Y-78564098D01*
X105830839Y-78508700D01*
X105829600Y-78492963D01*
X105829600Y-64607499D01*
X105848813Y-64548368D01*
X105899113Y-64511823D01*
X105930200Y-64506899D01*
X105971973Y-64506899D01*
X105971979Y-64506899D01*
X105997510Y-64503938D01*
X106101926Y-64457834D01*
X106182635Y-64377125D01*
X106228739Y-64272709D01*
X106231701Y-64247179D01*
X106231700Y-62956022D01*
X106228739Y-62930491D01*
X106208655Y-62885006D01*
X106182635Y-62826075D01*
X106101925Y-62745365D01*
X105997511Y-62699262D01*
X105971983Y-62696300D01*
X105971980Y-62696300D01*
X105930200Y-62696300D01*
X105871069Y-62677087D01*
X105834524Y-62626787D01*
X105829600Y-62595700D01*
X105829600Y-59042836D01*
X105848813Y-58983705D01*
X105859059Y-58971706D01*
X106021002Y-58809763D01*
X106076400Y-58781538D01*
X106092137Y-58780299D01*
X107652672Y-58780299D01*
X107652678Y-58780299D01*
X107678209Y-58777338D01*
X107782625Y-58731234D01*
X107863334Y-58650525D01*
X107909438Y-58546109D01*
X107912400Y-58520579D01*
X107912399Y-56429422D01*
X107909438Y-56403891D01*
X107863334Y-56299475D01*
X107857394Y-56293535D01*
X107829168Y-56238137D01*
X107838894Y-56176729D01*
X107882858Y-56132765D01*
X107928529Y-56121800D01*
X109638563Y-56121800D01*
X109697694Y-56141013D01*
X109709698Y-56151265D01*
X110507629Y-56949197D01*
X110535855Y-57004595D01*
X110530680Y-57055679D01*
X110517225Y-57091529D01*
X110476800Y-57314292D01*
X110476800Y-57578984D01*
X110492011Y-57747997D01*
X110552244Y-57966247D01*
X110650477Y-58170229D01*
X110650483Y-58170238D01*
X110783555Y-58353397D01*
X110783557Y-58353399D01*
X110783558Y-58353400D01*
X110947205Y-58509862D01*
X110947207Y-58509863D01*
X110947208Y-58509864D01*
X111136156Y-58634589D01*
X111158858Y-58644292D01*
X111344347Y-58723574D01*
X111565079Y-58773955D01*
X111791259Y-58784112D01*
X112015618Y-58753721D01*
X112180803Y-58700049D01*
X112242975Y-58700049D01*
X112283023Y-58724590D01*
X112816934Y-59258501D01*
X112845160Y-59313899D01*
X112846399Y-59329636D01*
X112846399Y-62468700D01*
X112827186Y-62527831D01*
X112776886Y-62564376D01*
X112745801Y-62569300D01*
X112696628Y-62569300D01*
X112696612Y-62569301D01*
X112671090Y-62572262D01*
X112671087Y-62572262D01*
X112566674Y-62618365D01*
X112485964Y-62699075D01*
X112439861Y-62803488D01*
X112439861Y-62803489D01*
X112436899Y-62829017D01*
X112436899Y-63637062D01*
X112417686Y-63696193D01*
X112407434Y-63708197D01*
X108614848Y-67500782D01*
X108559450Y-67529008D01*
X108498042Y-67519282D01*
X108463432Y-67490271D01*
X108414728Y-67425775D01*
X108263355Y-67287780D01*
X108263350Y-67287776D01*
X108263346Y-67287773D01*
X108089185Y-67179937D01*
X108089181Y-67179935D01*
X107898176Y-67105940D01*
X107696823Y-67068300D01*
X107696821Y-67068300D01*
X107491979Y-67068300D01*
X107491977Y-67068300D01*
X107290623Y-67105940D01*
X107099618Y-67179935D01*
X107099614Y-67179937D01*
X107037592Y-67218340D01*
X106925454Y-67287773D01*
X106925453Y-67287774D01*
X106925444Y-67287780D01*
X106774074Y-67425773D01*
X106703460Y-67519282D01*
X106655699Y-67582529D01*
X106650627Y-67589245D01*
X106650626Y-67589246D01*
X106559324Y-67772605D01*
X106559323Y-67772606D01*
X106503264Y-67969635D01*
X106503264Y-67969636D01*
X106484365Y-68173600D01*
X106503264Y-68377563D01*
X106503264Y-68377564D01*
X106559323Y-68574593D01*
X106559324Y-68574594D01*
X106650626Y-68757953D01*
X106650627Y-68757954D01*
X106650629Y-68757958D01*
X106763194Y-68907019D01*
X106774074Y-68921426D01*
X106925444Y-69059419D01*
X106925448Y-69059422D01*
X106925454Y-69059427D01*
X107099615Y-69167263D01*
X107290625Y-69241260D01*
X107416697Y-69264827D01*
X107491977Y-69278900D01*
X107491979Y-69278900D01*
X107696823Y-69278900D01*
X107760246Y-69267043D01*
X107898175Y-69241260D01*
X108089185Y-69167263D01*
X108263346Y-69059427D01*
X108414726Y-68921426D01*
X108538171Y-68757958D01*
X108553767Y-68726636D01*
X108597321Y-68682269D01*
X108636644Y-68671134D01*
X108653071Y-68669959D01*
X108657315Y-68669656D01*
X108664490Y-68669400D01*
X108678654Y-68669400D01*
X108678656Y-68669400D01*
X108692683Y-68667382D01*
X108699812Y-68666616D01*
X108749672Y-68663051D01*
X108756382Y-68660547D01*
X108777233Y-68655226D01*
X108784318Y-68654208D01*
X108829809Y-68633431D01*
X108836409Y-68630698D01*
X108883254Y-68613227D01*
X108888983Y-68608937D01*
X108907487Y-68597958D01*
X108914005Y-68594982D01*
X108951804Y-68562227D01*
X108957339Y-68557767D01*
X108968711Y-68549255D01*
X108978742Y-68539222D01*
X108983970Y-68534355D01*
X109021752Y-68501618D01*
X109025622Y-68495595D01*
X109039114Y-68478850D01*
X113108601Y-64409364D01*
X113163999Y-64381138D01*
X113179736Y-64379899D01*
X113918510Y-64379899D01*
X113977641Y-64399112D01*
X114014186Y-64449412D01*
X114014186Y-64511586D01*
X113989645Y-64551634D01*
X107309873Y-71231404D01*
X107301463Y-71238920D01*
X107273920Y-71260885D01*
X107242823Y-71306496D01*
X107240654Y-71309553D01*
X107222646Y-71333955D01*
X107207881Y-71353961D01*
X107204360Y-71360623D01*
X107203910Y-71360385D01*
X107203322Y-71361549D01*
X107203780Y-71361770D01*
X107200511Y-71368557D01*
X107184251Y-71421270D01*
X107183076Y-71424840D01*
X107164837Y-71476965D01*
X107163436Y-71484372D01*
X107162938Y-71484277D01*
X107162720Y-71485557D01*
X107163223Y-71485633D01*
X107162100Y-71493085D01*
X107162100Y-71548260D01*
X107162030Y-71552021D01*
X107159965Y-71607192D01*
X107160810Y-71614680D01*
X107160301Y-71614737D01*
X107162100Y-71628401D01*
X107162100Y-77246818D01*
X107142887Y-77305949D01*
X107103124Y-77336559D01*
X107103775Y-77337866D01*
X107099614Y-77339937D01*
X107041749Y-77375766D01*
X106925454Y-77447773D01*
X106925453Y-77447774D01*
X106925444Y-77447780D01*
X106774074Y-77585773D01*
X106720292Y-77656993D01*
X106658364Y-77739000D01*
X106650627Y-77749245D01*
X106650626Y-77749246D01*
X106559324Y-77932605D01*
X106559323Y-77932606D01*
X106503264Y-78129635D01*
X106503264Y-78129636D01*
X106484365Y-78333600D01*
X106503264Y-78537563D01*
X106503264Y-78537564D01*
X106559323Y-78734593D01*
X106559324Y-78734594D01*
X106650626Y-78917953D01*
X106650627Y-78917954D01*
X106650629Y-78917958D01*
X106766177Y-79070968D01*
X106774074Y-79081426D01*
X106925444Y-79219419D01*
X106925448Y-79219422D01*
X106925454Y-79219427D01*
X107099615Y-79327263D01*
X107290625Y-79401260D01*
X107404927Y-79422627D01*
X107491977Y-79438900D01*
X107491979Y-79438900D01*
X107696823Y-79438900D01*
X107760246Y-79427043D01*
X107898175Y-79401260D01*
X108089185Y-79327263D01*
X108263346Y-79219427D01*
X108414726Y-79081426D01*
X108538171Y-78917958D01*
X108629477Y-78734591D01*
X108685535Y-78537568D01*
X108704435Y-78333600D01*
X108685535Y-78129632D01*
X108629477Y-77932609D01*
X108538171Y-77749242D01*
X108530437Y-77739000D01*
X112631751Y-77739000D01*
X112651505Y-77952190D01*
X112651505Y-77952191D01*
X112651505Y-77952194D01*
X112651506Y-77952195D01*
X112657976Y-77974935D01*
X112710100Y-78158131D01*
X112710103Y-78158138D01*
X112805531Y-78349783D01*
X112805532Y-78349785D01*
X112805536Y-78349792D01*
X112913654Y-78492963D01*
X112934566Y-78520655D01*
X113092792Y-78664898D01*
X113128004Y-78686700D01*
X113274833Y-78777612D01*
X113474483Y-78854957D01*
X113606258Y-78879590D01*
X113684944Y-78894300D01*
X113684946Y-78894300D01*
X113899056Y-78894300D01*
X113969576Y-78881117D01*
X114109517Y-78854957D01*
X114309167Y-78777612D01*
X114491206Y-78664899D01*
X114649434Y-78520655D01*
X114778464Y-78349792D01*
X114873900Y-78158130D01*
X114932494Y-77952195D01*
X114952249Y-77739000D01*
X114932494Y-77525805D01*
X114873900Y-77319870D01*
X114866968Y-77305949D01*
X114778468Y-77128216D01*
X114778467Y-77128215D01*
X114778464Y-77128208D01*
X114649434Y-76957345D01*
X114585323Y-76898900D01*
X114491207Y-76813101D01*
X114309167Y-76700388D01*
X114309163Y-76700386D01*
X114109518Y-76623043D01*
X113899056Y-76583700D01*
X113899054Y-76583700D01*
X113684946Y-76583700D01*
X113684944Y-76583700D01*
X113474481Y-76623043D01*
X113274836Y-76700386D01*
X113274832Y-76700388D01*
X113092792Y-76813101D01*
X112934566Y-76957344D01*
X112879695Y-77030005D01*
X112805536Y-77128208D01*
X112805534Y-77128211D01*
X112805534Y-77128212D01*
X112805531Y-77128216D01*
X112710103Y-77319861D01*
X112710100Y-77319868D01*
X112651505Y-77525808D01*
X112651505Y-77525809D01*
X112631751Y-77739000D01*
X108530437Y-77739000D01*
X108414726Y-77585774D01*
X108387431Y-77560891D01*
X108263355Y-77447780D01*
X108263350Y-77447776D01*
X108263346Y-77447773D01*
X108089185Y-77339937D01*
X108085025Y-77337866D01*
X108085760Y-77336389D01*
X108042760Y-77301346D01*
X108026700Y-77246818D01*
X108026700Y-75199000D01*
X112631751Y-75199000D01*
X112651505Y-75412190D01*
X112651505Y-75412191D01*
X112710100Y-75618131D01*
X112710103Y-75618138D01*
X112805531Y-75809783D01*
X112805532Y-75809785D01*
X112805536Y-75809792D01*
X112934566Y-75980655D01*
X113092792Y-76124898D01*
X113144554Y-76156947D01*
X113274833Y-76237612D01*
X113474483Y-76314957D01*
X113606258Y-76339590D01*
X113684944Y-76354300D01*
X113684946Y-76354300D01*
X113899056Y-76354300D01*
X113965349Y-76341907D01*
X114109517Y-76314957D01*
X114309167Y-76237612D01*
X114491206Y-76124899D01*
X114649434Y-75980655D01*
X114778464Y-75809792D01*
X114873900Y-75618130D01*
X114932494Y-75412195D01*
X114952249Y-75199000D01*
X114932494Y-74985805D01*
X114873900Y-74779870D01*
X114870582Y-74773207D01*
X114778468Y-74588216D01*
X114778467Y-74588215D01*
X114778464Y-74588208D01*
X114649434Y-74417345D01*
X114638992Y-74407826D01*
X114491207Y-74273101D01*
X114309167Y-74160388D01*
X114309163Y-74160386D01*
X114109518Y-74083043D01*
X113899056Y-74043700D01*
X113899054Y-74043700D01*
X113684946Y-74043700D01*
X113684944Y-74043700D01*
X113474481Y-74083043D01*
X113274836Y-74160386D01*
X113274832Y-74160388D01*
X113092792Y-74273101D01*
X112934566Y-74417344D01*
X112879695Y-74490005D01*
X112805536Y-74588208D01*
X112805534Y-74588211D01*
X112805534Y-74588212D01*
X112805531Y-74588216D01*
X112710103Y-74779861D01*
X112710100Y-74779868D01*
X112651505Y-74985808D01*
X112651505Y-74985809D01*
X112631751Y-75199000D01*
X108026700Y-75199000D01*
X108026700Y-73660000D01*
X116999965Y-73660000D01*
X117018864Y-73863963D01*
X117018864Y-73863964D01*
X117074923Y-74060993D01*
X117074924Y-74060994D01*
X117166226Y-74244353D01*
X117166227Y-74244354D01*
X117166229Y-74244358D01*
X117187935Y-74273101D01*
X117289674Y-74407826D01*
X117441044Y-74545819D01*
X117441048Y-74545822D01*
X117441054Y-74545827D01*
X117615215Y-74653663D01*
X117806225Y-74727660D01*
X117932297Y-74751227D01*
X118007577Y-74765300D01*
X118007579Y-74765300D01*
X118212423Y-74765300D01*
X118275846Y-74753443D01*
X118413775Y-74727660D01*
X118604785Y-74653663D01*
X118778946Y-74545827D01*
X118930326Y-74407826D01*
X119053771Y-74244358D01*
X119145077Y-74060991D01*
X119201135Y-73863968D01*
X119220035Y-73660000D01*
X119201135Y-73456032D01*
X119145077Y-73259009D01*
X119053771Y-73075642D01*
X118930326Y-72912174D01*
X118930325Y-72912173D01*
X118778955Y-72774180D01*
X118778950Y-72774176D01*
X118778946Y-72774173D01*
X118604785Y-72666337D01*
X118604781Y-72666335D01*
X118413776Y-72592340D01*
X118212423Y-72554700D01*
X118212421Y-72554700D01*
X118007579Y-72554700D01*
X118007577Y-72554700D01*
X117806223Y-72592340D01*
X117615218Y-72666335D01*
X117615214Y-72666337D01*
X117507378Y-72733106D01*
X117441054Y-72774173D01*
X117441053Y-72774174D01*
X117441044Y-72774180D01*
X117289674Y-72912173D01*
X117166227Y-73075645D01*
X117166226Y-73075646D01*
X117074924Y-73259005D01*
X117074923Y-73259006D01*
X117018864Y-73456035D01*
X117018864Y-73456036D01*
X116999965Y-73660000D01*
X108026700Y-73660000D01*
X108026700Y-71778979D01*
X108045913Y-71719848D01*
X108056165Y-71707844D01*
X108313809Y-71450200D01*
X123502365Y-71450200D01*
X123521264Y-71654163D01*
X123521264Y-71654164D01*
X123577323Y-71851193D01*
X123577324Y-71851194D01*
X123668626Y-72034553D01*
X123668627Y-72034554D01*
X123668629Y-72034558D01*
X123764299Y-72161246D01*
X123792074Y-72198026D01*
X123943444Y-72336019D01*
X123943448Y-72336022D01*
X123943454Y-72336027D01*
X124117615Y-72443863D01*
X124308625Y-72517860D01*
X124434697Y-72541427D01*
X124509977Y-72555500D01*
X124509979Y-72555500D01*
X124714823Y-72555500D01*
X124789007Y-72541632D01*
X124916175Y-72517860D01*
X125107185Y-72443863D01*
X125281346Y-72336027D01*
X125432726Y-72198026D01*
X125556171Y-72034558D01*
X125647477Y-71851191D01*
X125703535Y-71654168D01*
X125722435Y-71450200D01*
X125703535Y-71246232D01*
X125647477Y-71049209D01*
X125556171Y-70865842D01*
X125432726Y-70702374D01*
X125432725Y-70702373D01*
X125281355Y-70564380D01*
X125281350Y-70564376D01*
X125281346Y-70564373D01*
X125107185Y-70456537D01*
X125107181Y-70456535D01*
X124916176Y-70382540D01*
X124714823Y-70344900D01*
X124714821Y-70344900D01*
X124509979Y-70344900D01*
X124509977Y-70344900D01*
X124308623Y-70382540D01*
X124117618Y-70456535D01*
X124117614Y-70456537D01*
X124009778Y-70523306D01*
X123943454Y-70564373D01*
X123943453Y-70564374D01*
X123943444Y-70564380D01*
X123792074Y-70702373D01*
X123668627Y-70865845D01*
X123668626Y-70865846D01*
X123577324Y-71049205D01*
X123577323Y-71049206D01*
X123521264Y-71246235D01*
X123521264Y-71246236D01*
X123502365Y-71450200D01*
X108313809Y-71450200D01*
X111412609Y-68351400D01*
X123502365Y-68351400D01*
X123521264Y-68555363D01*
X123521264Y-68555364D01*
X123577323Y-68752393D01*
X123577324Y-68752394D01*
X123668626Y-68935753D01*
X123668627Y-68935754D01*
X123668629Y-68935758D01*
X123784245Y-69088859D01*
X123792074Y-69099226D01*
X123943444Y-69237219D01*
X123943448Y-69237222D01*
X123943454Y-69237227D01*
X124117615Y-69345063D01*
X124308625Y-69419060D01*
X124420841Y-69440037D01*
X124509977Y-69456700D01*
X124509979Y-69456700D01*
X124714823Y-69456700D01*
X124778246Y-69444843D01*
X124916175Y-69419060D01*
X125107185Y-69345063D01*
X125281346Y-69237227D01*
X125432726Y-69099226D01*
X125556171Y-68935758D01*
X125647477Y-68752391D01*
X125703535Y-68555368D01*
X125722435Y-68351400D01*
X125703535Y-68147432D01*
X125647477Y-67950409D01*
X125556171Y-67767042D01*
X125432726Y-67603574D01*
X125360986Y-67538174D01*
X125281355Y-67465580D01*
X125281350Y-67465576D01*
X125281346Y-67465573D01*
X125107185Y-67357737D01*
X125107181Y-67357735D01*
X124916176Y-67283740D01*
X124714823Y-67246100D01*
X124714821Y-67246100D01*
X124509979Y-67246100D01*
X124509977Y-67246100D01*
X124308623Y-67283740D01*
X124117618Y-67357735D01*
X124117614Y-67357737D01*
X124049077Y-67400174D01*
X123943454Y-67465573D01*
X123943453Y-67465574D01*
X123943444Y-67465580D01*
X123792074Y-67603573D01*
X123668627Y-67767045D01*
X123668626Y-67767046D01*
X123577324Y-67950405D01*
X123577323Y-67950406D01*
X123521264Y-68147435D01*
X123521264Y-68147436D01*
X123502365Y-68351400D01*
X111412609Y-68351400D01*
X113724009Y-66040000D01*
X116999965Y-66040000D01*
X117018864Y-66243963D01*
X117018864Y-66243964D01*
X117074923Y-66440993D01*
X117074924Y-66440994D01*
X117166226Y-66624353D01*
X117166227Y-66624354D01*
X117166229Y-66624358D01*
X117185613Y-66650026D01*
X117289674Y-66787826D01*
X117441044Y-66925819D01*
X117441048Y-66925822D01*
X117441054Y-66925827D01*
X117615215Y-67033663D01*
X117806225Y-67107660D01*
X117932297Y-67131227D01*
X118007577Y-67145300D01*
X118007579Y-67145300D01*
X118212423Y-67145300D01*
X118275846Y-67133443D01*
X118413775Y-67107660D01*
X118604785Y-67033663D01*
X118778946Y-66925827D01*
X118789836Y-66915900D01*
X118811816Y-66895862D01*
X118930326Y-66787826D01*
X119053771Y-66624358D01*
X119145077Y-66440991D01*
X119201135Y-66243968D01*
X119220035Y-66040000D01*
X120428965Y-66040000D01*
X120447864Y-66243963D01*
X120447864Y-66243964D01*
X120503923Y-66440993D01*
X120503924Y-66440994D01*
X120595226Y-66624353D01*
X120595227Y-66624354D01*
X120595229Y-66624358D01*
X120614613Y-66650026D01*
X120718674Y-66787826D01*
X120870044Y-66925819D01*
X120870048Y-66925822D01*
X120870054Y-66925827D01*
X121044215Y-67033663D01*
X121235225Y-67107660D01*
X121361297Y-67131227D01*
X121436577Y-67145300D01*
X121436579Y-67145300D01*
X121641423Y-67145300D01*
X121704846Y-67133443D01*
X121842775Y-67107660D01*
X122033785Y-67033663D01*
X122207946Y-66925827D01*
X122218836Y-66915900D01*
X122240816Y-66895862D01*
X122359326Y-66787826D01*
X122482771Y-66624358D01*
X122574077Y-66440991D01*
X122630135Y-66243968D01*
X122649035Y-66040000D01*
X122630135Y-65836032D01*
X122574077Y-65639009D01*
X122482771Y-65455642D01*
X122359326Y-65292174D01*
X122359325Y-65292173D01*
X122315916Y-65252600D01*
X123502365Y-65252600D01*
X123521264Y-65456563D01*
X123521264Y-65456564D01*
X123577323Y-65653593D01*
X123577324Y-65653594D01*
X123668626Y-65836953D01*
X123668627Y-65836954D01*
X123668629Y-65836958D01*
X123775002Y-65977819D01*
X123792074Y-66000426D01*
X123943444Y-66138419D01*
X123943448Y-66138422D01*
X123943454Y-66138427D01*
X124117615Y-66246263D01*
X124308625Y-66320260D01*
X124434697Y-66343827D01*
X124509977Y-66357900D01*
X124509979Y-66357900D01*
X124714823Y-66357900D01*
X124778246Y-66346043D01*
X124916175Y-66320260D01*
X125107185Y-66246263D01*
X125281346Y-66138427D01*
X125432726Y-66000426D01*
X125556171Y-65836958D01*
X125647477Y-65653591D01*
X125703535Y-65456568D01*
X125722435Y-65252600D01*
X125703535Y-65048632D01*
X125647477Y-64851609D01*
X125556171Y-64668242D01*
X125432726Y-64504774D01*
X125426393Y-64499001D01*
X125281355Y-64366780D01*
X125281350Y-64366776D01*
X125281346Y-64366773D01*
X125107185Y-64258937D01*
X125107181Y-64258935D01*
X124916176Y-64184940D01*
X124714823Y-64147300D01*
X124714821Y-64147300D01*
X124509979Y-64147300D01*
X124509977Y-64147300D01*
X124308623Y-64184940D01*
X124117618Y-64258935D01*
X124117614Y-64258937D01*
X124009778Y-64325706D01*
X123943454Y-64366773D01*
X123943453Y-64366774D01*
X123943444Y-64366780D01*
X123792074Y-64504773D01*
X123668627Y-64668245D01*
X123668626Y-64668246D01*
X123577324Y-64851605D01*
X123577323Y-64851606D01*
X123521264Y-65048635D01*
X123521264Y-65048636D01*
X123502365Y-65252600D01*
X122315916Y-65252600D01*
X122207955Y-65154180D01*
X122207950Y-65154176D01*
X122207946Y-65154173D01*
X122033785Y-65046337D01*
X122033781Y-65046335D01*
X121842776Y-64972340D01*
X121641423Y-64934700D01*
X121641421Y-64934700D01*
X121436579Y-64934700D01*
X121436577Y-64934700D01*
X121235223Y-64972340D01*
X121044218Y-65046335D01*
X121044214Y-65046337D01*
X120936378Y-65113106D01*
X120870054Y-65154173D01*
X120870053Y-65154174D01*
X120870044Y-65154180D01*
X120718674Y-65292173D01*
X120699290Y-65317842D01*
X120610912Y-65434875D01*
X120595227Y-65455645D01*
X120595226Y-65455646D01*
X120503924Y-65639005D01*
X120503923Y-65639006D01*
X120447864Y-65836035D01*
X120447864Y-65836036D01*
X120428965Y-66040000D01*
X119220035Y-66040000D01*
X119201135Y-65836032D01*
X119145077Y-65639009D01*
X119053771Y-65455642D01*
X118930326Y-65292174D01*
X118930325Y-65292173D01*
X118778955Y-65154180D01*
X118778950Y-65154176D01*
X118778946Y-65154173D01*
X118604785Y-65046337D01*
X118604781Y-65046335D01*
X118413776Y-64972340D01*
X118212423Y-64934700D01*
X118212421Y-64934700D01*
X118007579Y-64934700D01*
X118007577Y-64934700D01*
X117806223Y-64972340D01*
X117615218Y-65046335D01*
X117615214Y-65046337D01*
X117507378Y-65113106D01*
X117441054Y-65154173D01*
X117441053Y-65154174D01*
X117441044Y-65154180D01*
X117289674Y-65292173D01*
X117270290Y-65317842D01*
X117181912Y-65434875D01*
X117166227Y-65455645D01*
X117166226Y-65455646D01*
X117074924Y-65639005D01*
X117074923Y-65639006D01*
X117018864Y-65836035D01*
X117018864Y-65836036D01*
X116999965Y-66040000D01*
X113724009Y-66040000D01*
X117148444Y-62615565D01*
X117203842Y-62587339D01*
X117219579Y-62586100D01*
X117427971Y-62586100D01*
X117487102Y-62605313D01*
X117523647Y-62655613D01*
X117523647Y-62717787D01*
X117505736Y-62750520D01*
X117380704Y-62902870D01*
X117380700Y-62902876D01*
X117282714Y-63086195D01*
X117222369Y-63285121D01*
X117201994Y-63492000D01*
X117222369Y-63698878D01*
X117282714Y-63897804D01*
X117380700Y-64081123D01*
X117380705Y-64081130D01*
X117512580Y-64241820D01*
X117664836Y-64366773D01*
X117673269Y-64373694D01*
X117673276Y-64373699D01*
X117856595Y-64471685D01*
X117856597Y-64471685D01*
X117856600Y-64471687D01*
X117962913Y-64503937D01*
X118055521Y-64532030D01*
X118055522Y-64532030D01*
X118055525Y-64532031D01*
X118262400Y-64552406D01*
X118469275Y-64532031D01*
X118668200Y-64471687D01*
X118709874Y-64449412D01*
X118851523Y-64373699D01*
X118851524Y-64373697D01*
X118851530Y-64373695D01*
X119012220Y-64241820D01*
X119144095Y-64081130D01*
X119144543Y-64080293D01*
X119242085Y-63897804D01*
X119242085Y-63897803D01*
X119242087Y-63897800D01*
X119302431Y-63698875D01*
X119322806Y-63492000D01*
X119302431Y-63285125D01*
X119242087Y-63086200D01*
X119242085Y-63086197D01*
X119242085Y-63086195D01*
X119144099Y-62902876D01*
X119144095Y-62902870D01*
X119083489Y-62829022D01*
X119019063Y-62750518D01*
X118996403Y-62692623D01*
X119012102Y-62632463D01*
X119060163Y-62593020D01*
X119096829Y-62586100D01*
X122667025Y-62586100D01*
X122726156Y-62605313D01*
X122757075Y-62641855D01*
X122805029Y-62738158D01*
X122928474Y-62901626D01*
X123079844Y-63039619D01*
X123079848Y-63039622D01*
X123079854Y-63039627D01*
X123254015Y-63147463D01*
X123445025Y-63221460D01*
X123555128Y-63242042D01*
X123646377Y-63259100D01*
X123646379Y-63259100D01*
X123851223Y-63259100D01*
X123919090Y-63246413D01*
X124052575Y-63221460D01*
X124243585Y-63147463D01*
X124417746Y-63039627D01*
X124569126Y-62901626D01*
X124692571Y-62738158D01*
X124783877Y-62554791D01*
X124839935Y-62357768D01*
X124858835Y-62153800D01*
X124839935Y-61949832D01*
X124830720Y-61917444D01*
X124833018Y-61855316D01*
X124871397Y-61806400D01*
X124931197Y-61789386D01*
X124989578Y-61810770D01*
X124998615Y-61818782D01*
X131140660Y-67960827D01*
X131168886Y-68016225D01*
X131166285Y-68059492D01*
X131141265Y-68147428D01*
X131141264Y-68147432D01*
X131122365Y-68351400D01*
X131141264Y-68555363D01*
X131141264Y-68555364D01*
X131197323Y-68752393D01*
X131197324Y-68752394D01*
X131288626Y-68935753D01*
X131288627Y-68935754D01*
X131288629Y-68935758D01*
X131404245Y-69088859D01*
X131412074Y-69099226D01*
X131563444Y-69237219D01*
X131563451Y-69237225D01*
X131563454Y-69237227D01*
X131587217Y-69251940D01*
X131627378Y-69299403D01*
X131631970Y-69361408D01*
X131605394Y-69408607D01*
X125692782Y-75321219D01*
X125637384Y-75349445D01*
X125575976Y-75339719D01*
X125532012Y-75295755D01*
X125522286Y-75234347D01*
X125541366Y-75189460D01*
X125545371Y-75184158D01*
X125636677Y-75000791D01*
X125692735Y-74803768D01*
X125711635Y-74599800D01*
X125692735Y-74395832D01*
X125636677Y-74198809D01*
X125545371Y-74015442D01*
X125421926Y-73851974D01*
X125420748Y-73850900D01*
X125270555Y-73713980D01*
X125270550Y-73713976D01*
X125270546Y-73713973D01*
X125096385Y-73606137D01*
X125096381Y-73606135D01*
X124905376Y-73532140D01*
X124704023Y-73494500D01*
X124704021Y-73494500D01*
X124499179Y-73494500D01*
X124499177Y-73494500D01*
X124297823Y-73532140D01*
X124106818Y-73606135D01*
X124106814Y-73606137D01*
X124065970Y-73631427D01*
X123932654Y-73713973D01*
X123932653Y-73713974D01*
X123932644Y-73713980D01*
X123781274Y-73851973D01*
X123705810Y-73951905D01*
X123673136Y-73995173D01*
X123657827Y-74015445D01*
X123657826Y-74015446D01*
X123566524Y-74198805D01*
X123566523Y-74198806D01*
X123510464Y-74395835D01*
X123510464Y-74395836D01*
X123491565Y-74599800D01*
X123497679Y-74665790D01*
X123484003Y-74726442D01*
X123437289Y-74767471D01*
X123375380Y-74773207D01*
X123326373Y-74746206D01*
X122630738Y-74050571D01*
X122602512Y-73995173D01*
X122605114Y-73951905D01*
X122619748Y-73900475D01*
X122630135Y-73863968D01*
X122649035Y-73660000D01*
X122630135Y-73456032D01*
X122574077Y-73259009D01*
X122482771Y-73075642D01*
X122359326Y-72912174D01*
X122359325Y-72912173D01*
X122207955Y-72774180D01*
X122207950Y-72774176D01*
X122207946Y-72774173D01*
X122033785Y-72666337D01*
X122033781Y-72666335D01*
X121842776Y-72592340D01*
X121641423Y-72554700D01*
X121641421Y-72554700D01*
X121436579Y-72554700D01*
X121436577Y-72554700D01*
X121235223Y-72592340D01*
X121044218Y-72666335D01*
X121044214Y-72666337D01*
X120936378Y-72733106D01*
X120870054Y-72774173D01*
X120870053Y-72774174D01*
X120870044Y-72774180D01*
X120718674Y-72912173D01*
X120595227Y-73075645D01*
X120595226Y-73075646D01*
X120503924Y-73259005D01*
X120503923Y-73259006D01*
X120447864Y-73456035D01*
X120447864Y-73456036D01*
X120428965Y-73660000D01*
X120447864Y-73863963D01*
X120447864Y-73863964D01*
X120503923Y-74060993D01*
X120503924Y-74060994D01*
X120595226Y-74244353D01*
X120595227Y-74244354D01*
X120595229Y-74244358D01*
X120616935Y-74273101D01*
X120718674Y-74407826D01*
X120870044Y-74545819D01*
X120870048Y-74545822D01*
X120870054Y-74545827D01*
X121044215Y-74653663D01*
X121235225Y-74727660D01*
X121361297Y-74751227D01*
X121436577Y-74765300D01*
X121436579Y-74765300D01*
X121641423Y-74765300D01*
X121681128Y-74757877D01*
X121842775Y-74727660D01*
X121842782Y-74727657D01*
X121843489Y-74727525D01*
X121905144Y-74735545D01*
X121933110Y-74755277D01*
X123914955Y-76737122D01*
X123943181Y-76792520D01*
X123934269Y-76850544D01*
X123934602Y-76850673D01*
X123934018Y-76852179D01*
X123933879Y-76853087D01*
X123932924Y-76855005D01*
X123876864Y-77052035D01*
X123876864Y-77052036D01*
X123857965Y-77256000D01*
X123876864Y-77459967D01*
X123876865Y-77459970D01*
X123901885Y-77547906D01*
X123899587Y-77610037D01*
X123876260Y-77646571D01*
X121233750Y-80289081D01*
X121217011Y-80302571D01*
X121210982Y-80306446D01*
X121210979Y-80306448D01*
X121178259Y-80344210D01*
X121173369Y-80349463D01*
X121163345Y-80359487D01*
X121154855Y-80370828D01*
X121150353Y-80376414D01*
X121117621Y-80414188D01*
X121117615Y-80414198D01*
X121114636Y-80420721D01*
X121103672Y-80439200D01*
X121099374Y-80444942D01*
X121099373Y-80444944D01*
X121081903Y-80491782D01*
X121079155Y-80498416D01*
X121058392Y-80543880D01*
X121057372Y-80550975D01*
X121052054Y-80571810D01*
X121049548Y-80578526D01*
X121049548Y-80578528D01*
X121045981Y-80628391D01*
X121045214Y-80635526D01*
X121043200Y-80649536D01*
X121043200Y-80663707D01*
X121042944Y-80670882D01*
X121039379Y-80720733D01*
X121040901Y-80727730D01*
X121043200Y-80749113D01*
X121043200Y-86575286D01*
X121040902Y-86596661D01*
X121039981Y-86600900D01*
X121039379Y-86603667D01*
X121042944Y-86653515D01*
X121043200Y-86660691D01*
X121043200Y-86674857D01*
X121044987Y-86687288D01*
X121045215Y-86688874D01*
X121045982Y-86696006D01*
X121049549Y-86745875D01*
X121049549Y-86745876D01*
X121052052Y-86752584D01*
X121057371Y-86773423D01*
X121058392Y-86780519D01*
X121076593Y-86820373D01*
X121079159Y-86825992D01*
X121081906Y-86832625D01*
X121083132Y-86835913D01*
X121099372Y-86879454D01*
X121103668Y-86885193D01*
X121114638Y-86903681D01*
X121117618Y-86910206D01*
X121150358Y-86947990D01*
X121154850Y-86953564D01*
X121158450Y-86958373D01*
X121163346Y-86964913D01*
X121173366Y-86974933D01*
X121178259Y-86980189D01*
X121210982Y-87017953D01*
X121217007Y-87021825D01*
X121233752Y-87035319D01*
X125458735Y-91260302D01*
X125486961Y-91315700D01*
X125488200Y-91331437D01*
X125488200Y-92890931D01*
X125468987Y-92950062D01*
X125440559Y-92976463D01*
X125315053Y-93054173D01*
X125315048Y-93054177D01*
X125163674Y-93192173D01*
X125124490Y-93244062D01*
X125045867Y-93348177D01*
X125040227Y-93355645D01*
X125040226Y-93355646D01*
X124948924Y-93539005D01*
X124948923Y-93539006D01*
X124892864Y-93736035D01*
X124892864Y-93736036D01*
X124873965Y-93940000D01*
X124892864Y-94143963D01*
X124892864Y-94143964D01*
X124892864Y-94143967D01*
X124892865Y-94143968D01*
X124902489Y-94177793D01*
X124948923Y-94340993D01*
X124948924Y-94340994D01*
X125040226Y-94524353D01*
X125040227Y-94524354D01*
X125040229Y-94524358D01*
X125144639Y-94662619D01*
X125163674Y-94687826D01*
X125315044Y-94825819D01*
X125315048Y-94825822D01*
X125315054Y-94825827D01*
X125489215Y-94933663D01*
X125680225Y-95007660D01*
X125806297Y-95031227D01*
X125881577Y-95045300D01*
X125881579Y-95045300D01*
X126086423Y-95045300D01*
X126155675Y-95032354D01*
X126287775Y-95007660D01*
X126478785Y-94933663D01*
X126652946Y-94825827D01*
X126661144Y-94818354D01*
X126713677Y-94770463D01*
X126804326Y-94687826D01*
X126927771Y-94524358D01*
X127019077Y-94340991D01*
X127075135Y-94143968D01*
X127094035Y-93940000D01*
X127078913Y-93776800D01*
X135262565Y-93776800D01*
X135281464Y-93980763D01*
X135281464Y-93980764D01*
X135337523Y-94177793D01*
X135337524Y-94177794D01*
X135428826Y-94361153D01*
X135428827Y-94361154D01*
X135428829Y-94361158D01*
X135494409Y-94448000D01*
X135552274Y-94524626D01*
X135703644Y-94662619D01*
X135703648Y-94662622D01*
X135703654Y-94662627D01*
X135877815Y-94770463D01*
X136068825Y-94844460D01*
X136194897Y-94868027D01*
X136270177Y-94882100D01*
X136270179Y-94882100D01*
X136475023Y-94882100D01*
X136538446Y-94870243D01*
X136676375Y-94844460D01*
X136867385Y-94770463D01*
X137041546Y-94662627D01*
X137053239Y-94651968D01*
X137081476Y-94626226D01*
X137192926Y-94524626D01*
X137250791Y-94448000D01*
X138081965Y-94448000D01*
X138100864Y-94651963D01*
X138100864Y-94651964D01*
X138100864Y-94651967D01*
X138100865Y-94651968D01*
X138103897Y-94662625D01*
X138156923Y-94848993D01*
X138156924Y-94848994D01*
X138248226Y-95032353D01*
X138248227Y-95032354D01*
X138248229Y-95032358D01*
X138371674Y-95195826D01*
X138523044Y-95333819D01*
X138523048Y-95333822D01*
X138523054Y-95333827D01*
X138697215Y-95441663D01*
X138888225Y-95515660D01*
X138914114Y-95520499D01*
X138968707Y-95550250D01*
X138995387Y-95606409D01*
X138983963Y-95667524D01*
X138938797Y-95710253D01*
X138931969Y-95713193D01*
X138824218Y-95754935D01*
X138824214Y-95754937D01*
X138716378Y-95821706D01*
X138650054Y-95862773D01*
X138650053Y-95862774D01*
X138650044Y-95862780D01*
X138498674Y-96000773D01*
X138375227Y-96164245D01*
X138375226Y-96164246D01*
X138283924Y-96347605D01*
X138283923Y-96347606D01*
X138227864Y-96544635D01*
X138227864Y-96544636D01*
X138208965Y-96748600D01*
X138227864Y-96952563D01*
X138227864Y-96952564D01*
X138283923Y-97149593D01*
X138283924Y-97149594D01*
X138375226Y-97332953D01*
X138375227Y-97332954D01*
X138375229Y-97332958D01*
X138435186Y-97412354D01*
X138498674Y-97496426D01*
X138650044Y-97634419D01*
X138650048Y-97634422D01*
X138650054Y-97634427D01*
X138824215Y-97742263D01*
X139015225Y-97816260D01*
X139141297Y-97839827D01*
X139216577Y-97853900D01*
X139216579Y-97853900D01*
X139421423Y-97853900D01*
X139484846Y-97842043D01*
X139622775Y-97816260D01*
X139813785Y-97742263D01*
X139987946Y-97634427D01*
X140139326Y-97496426D01*
X140262771Y-97332958D01*
X140354077Y-97149591D01*
X140410135Y-96952568D01*
X140425702Y-96784571D01*
X154600900Y-96784571D01*
X154600901Y-96784586D01*
X154603862Y-96810108D01*
X154603862Y-96810111D01*
X154649965Y-96914524D01*
X154649966Y-96914525D01*
X154730675Y-96995234D01*
X154835091Y-97041338D01*
X154860621Y-97044300D01*
X156151778Y-97044299D01*
X156177309Y-97041338D01*
X156281725Y-96995234D01*
X156362434Y-96914525D01*
X156408538Y-96810109D01*
X156411500Y-96784579D01*
X156411499Y-95493422D01*
X156408538Y-95467891D01*
X156362434Y-95363475D01*
X156281725Y-95282766D01*
X156281724Y-95282765D01*
X156177310Y-95236662D01*
X156151779Y-95233700D01*
X154860628Y-95233700D01*
X154860613Y-95233701D01*
X154835091Y-95236662D01*
X154835088Y-95236662D01*
X154730675Y-95282765D01*
X154649965Y-95363475D01*
X154603862Y-95467888D01*
X154603862Y-95467889D01*
X154600900Y-95493418D01*
X154600900Y-96784571D01*
X140425702Y-96784571D01*
X140429035Y-96748600D01*
X140410135Y-96544632D01*
X140354077Y-96347609D01*
X140262771Y-96164242D01*
X140139326Y-96000774D01*
X140139325Y-96000773D01*
X139987955Y-95862780D01*
X139987950Y-95862776D01*
X139987946Y-95862773D01*
X139813785Y-95754937D01*
X139813781Y-95754935D01*
X139622778Y-95680941D01*
X139622777Y-95680940D01*
X139622775Y-95680940D01*
X139596882Y-95676099D01*
X139542290Y-95646347D01*
X139515611Y-95590188D01*
X139527037Y-95529072D01*
X139572204Y-95486345D01*
X139579013Y-95483413D01*
X139656723Y-95453308D01*
X139686778Y-95441666D01*
X139686782Y-95441664D01*
X139686785Y-95441663D01*
X139860946Y-95333827D01*
X140012326Y-95195826D01*
X140135771Y-95032358D01*
X140227077Y-94848991D01*
X140283135Y-94651968D01*
X140302035Y-94448000D01*
X140283135Y-94244032D01*
X140227077Y-94047009D01*
X140169995Y-93932372D01*
X144484300Y-93932372D01*
X144484301Y-93932387D01*
X144487262Y-93957909D01*
X144487262Y-93957912D01*
X144533365Y-94062325D01*
X144533366Y-94062326D01*
X144614075Y-94143035D01*
X144718491Y-94189139D01*
X144744021Y-94192101D01*
X146035178Y-94192100D01*
X146060709Y-94189139D01*
X146165125Y-94143035D01*
X146245834Y-94062326D01*
X146291938Y-93957910D01*
X146294042Y-93939771D01*
X149056300Y-93939771D01*
X149056301Y-93939786D01*
X149059262Y-93965308D01*
X149059262Y-93965311D01*
X149105365Y-94069724D01*
X149105366Y-94069725D01*
X149186075Y-94150434D01*
X149290491Y-94196538D01*
X149316021Y-94199500D01*
X150607178Y-94199499D01*
X150632709Y-94196538D01*
X150737125Y-94150434D01*
X150817834Y-94069725D01*
X150863938Y-93965309D01*
X150866900Y-93939779D01*
X150866900Y-93878400D01*
X156801765Y-93878400D01*
X156820664Y-94082363D01*
X156820664Y-94082364D01*
X156876723Y-94279393D01*
X156876724Y-94279394D01*
X156968026Y-94462753D01*
X156968027Y-94462754D01*
X156968029Y-94462758D01*
X157091474Y-94626226D01*
X157242844Y-94764219D01*
X157242848Y-94764222D01*
X157242854Y-94764227D01*
X157417015Y-94872063D01*
X157608025Y-94946060D01*
X157734097Y-94969627D01*
X157809377Y-94983700D01*
X157809379Y-94983700D01*
X158014223Y-94983700D01*
X158077646Y-94971843D01*
X158215575Y-94946060D01*
X158406585Y-94872063D01*
X158580746Y-94764227D01*
X158732126Y-94626226D01*
X158855571Y-94462758D01*
X158946877Y-94279391D01*
X159002935Y-94082368D01*
X159021835Y-93878400D01*
X164421765Y-93878400D01*
X164440664Y-94082363D01*
X164440664Y-94082364D01*
X164496723Y-94279393D01*
X164496724Y-94279394D01*
X164588026Y-94462753D01*
X164588027Y-94462754D01*
X164588029Y-94462758D01*
X164711474Y-94626226D01*
X164862844Y-94764219D01*
X164862848Y-94764222D01*
X164862854Y-94764227D01*
X165037015Y-94872063D01*
X165228025Y-94946060D01*
X165354097Y-94969627D01*
X165429377Y-94983700D01*
X165429379Y-94983700D01*
X165634223Y-94983700D01*
X165697646Y-94971843D01*
X165835575Y-94946060D01*
X166026585Y-94872063D01*
X166200746Y-94764227D01*
X166352126Y-94626226D01*
X166475571Y-94462758D01*
X166566877Y-94279391D01*
X166622935Y-94082368D01*
X166641835Y-93878400D01*
X166622935Y-93674432D01*
X166566877Y-93477409D01*
X166475571Y-93294042D01*
X166352126Y-93130574D01*
X166352125Y-93130573D01*
X166200755Y-92992580D01*
X166200750Y-92992576D01*
X166200746Y-92992573D01*
X166026585Y-92884737D01*
X166026581Y-92884735D01*
X165835576Y-92810740D01*
X165634223Y-92773100D01*
X165634221Y-92773100D01*
X165429379Y-92773100D01*
X165429377Y-92773100D01*
X165228023Y-92810740D01*
X165037018Y-92884735D01*
X165037014Y-92884737D01*
X164932787Y-92949272D01*
X164862854Y-92992573D01*
X164862853Y-92992574D01*
X164862844Y-92992580D01*
X164711474Y-93130573D01*
X164588027Y-93294045D01*
X164588026Y-93294046D01*
X164496724Y-93477405D01*
X164496723Y-93477406D01*
X164440664Y-93674435D01*
X164440664Y-93674436D01*
X164421765Y-93878400D01*
X159021835Y-93878400D01*
X159002935Y-93674432D01*
X158946877Y-93477409D01*
X158855571Y-93294042D01*
X158732126Y-93130574D01*
X158732125Y-93130573D01*
X158580755Y-92992580D01*
X158580750Y-92992576D01*
X158580746Y-92992573D01*
X158406585Y-92884737D01*
X158406581Y-92884735D01*
X158215576Y-92810740D01*
X158014223Y-92773100D01*
X158014221Y-92773100D01*
X157809379Y-92773100D01*
X157809377Y-92773100D01*
X157608023Y-92810740D01*
X157417018Y-92884735D01*
X157417014Y-92884737D01*
X157312787Y-92949272D01*
X157242854Y-92992573D01*
X157242853Y-92992574D01*
X157242844Y-92992580D01*
X157091474Y-93130573D01*
X156968027Y-93294045D01*
X156968026Y-93294046D01*
X156876724Y-93477405D01*
X156876723Y-93477406D01*
X156820664Y-93674435D01*
X156820664Y-93674436D01*
X156801765Y-93878400D01*
X150866900Y-93878400D01*
X150866899Y-92648622D01*
X150863938Y-92623091D01*
X150852020Y-92596100D01*
X150817834Y-92518675D01*
X150737124Y-92437965D01*
X150632710Y-92391862D01*
X150607179Y-92388900D01*
X149316028Y-92388900D01*
X149316013Y-92388901D01*
X149290491Y-92391862D01*
X149290488Y-92391862D01*
X149186075Y-92437965D01*
X149105365Y-92518675D01*
X149059262Y-92623088D01*
X149059262Y-92623089D01*
X149056300Y-92648618D01*
X149056300Y-93939771D01*
X146294042Y-93939771D01*
X146294900Y-93932380D01*
X146294899Y-92641223D01*
X146291938Y-92615692D01*
X146283287Y-92596100D01*
X146245834Y-92511276D01*
X146165124Y-92430566D01*
X146060710Y-92384463D01*
X146035179Y-92381501D01*
X144744028Y-92381501D01*
X144744013Y-92381502D01*
X144718491Y-92384463D01*
X144718488Y-92384463D01*
X144614075Y-92430566D01*
X144533365Y-92511276D01*
X144487262Y-92615689D01*
X144487262Y-92615690D01*
X144484300Y-92641219D01*
X144484300Y-93932372D01*
X140169995Y-93932372D01*
X140135771Y-93863642D01*
X140012326Y-93700174D01*
X139984092Y-93674435D01*
X139860955Y-93562180D01*
X139860950Y-93562176D01*
X139860946Y-93562173D01*
X139686785Y-93454337D01*
X139686781Y-93454335D01*
X139495776Y-93380340D01*
X139294423Y-93342700D01*
X139294421Y-93342700D01*
X139089579Y-93342700D01*
X139089577Y-93342700D01*
X138888223Y-93380340D01*
X138697218Y-93454335D01*
X138697214Y-93454337D01*
X138589378Y-93521106D01*
X138523054Y-93562173D01*
X138523053Y-93562174D01*
X138523044Y-93562180D01*
X138371674Y-93700173D01*
X138248227Y-93863645D01*
X138248226Y-93863646D01*
X138156924Y-94047005D01*
X138156923Y-94047006D01*
X138100864Y-94244035D01*
X138100864Y-94244036D01*
X138081965Y-94448000D01*
X137250791Y-94448000D01*
X137316371Y-94361158D01*
X137407677Y-94177791D01*
X137463735Y-93980768D01*
X137482635Y-93776800D01*
X137463735Y-93572832D01*
X137407677Y-93375809D01*
X137316371Y-93192442D01*
X137192926Y-93028974D01*
X137140592Y-92981265D01*
X137041555Y-92890980D01*
X137041550Y-92890976D01*
X137041546Y-92890973D01*
X136867385Y-92783137D01*
X136867381Y-92783135D01*
X136676376Y-92709140D01*
X136475023Y-92671500D01*
X136475021Y-92671500D01*
X136270179Y-92671500D01*
X136270177Y-92671500D01*
X136068823Y-92709140D01*
X135877818Y-92783135D01*
X135877814Y-92783137D01*
X135823549Y-92816737D01*
X135703654Y-92890973D01*
X135703653Y-92890974D01*
X135703644Y-92890980D01*
X135552274Y-93028973D01*
X135475550Y-93130573D01*
X135429032Y-93192174D01*
X135428827Y-93192445D01*
X135428826Y-93192446D01*
X135337524Y-93375805D01*
X135337523Y-93375806D01*
X135281464Y-93572835D01*
X135281464Y-93572836D01*
X135262565Y-93776800D01*
X127078913Y-93776800D01*
X127075135Y-93736032D01*
X127050113Y-93648090D01*
X127052411Y-93585961D01*
X127075736Y-93549429D01*
X127643902Y-92981265D01*
X127699300Y-92953039D01*
X127715037Y-92951800D01*
X128866286Y-92951800D01*
X128887661Y-92954097D01*
X128894666Y-92955621D01*
X128944515Y-92952055D01*
X128951691Y-92951800D01*
X128965855Y-92951800D01*
X128965857Y-92951800D01*
X128979884Y-92949782D01*
X128987013Y-92949016D01*
X129036873Y-92945451D01*
X129043583Y-92942947D01*
X129064434Y-92937626D01*
X129071519Y-92936608D01*
X129117010Y-92915831D01*
X129123610Y-92913098D01*
X129170455Y-92895627D01*
X129176184Y-92891337D01*
X129194688Y-92880358D01*
X129201206Y-92877382D01*
X129239005Y-92844627D01*
X129244540Y-92840167D01*
X129255912Y-92831655D01*
X129265943Y-92821622D01*
X129271171Y-92816755D01*
X129308953Y-92784018D01*
X129312823Y-92777995D01*
X129326315Y-92761250D01*
X131384166Y-90703400D01*
X135287965Y-90703400D01*
X135306864Y-90907363D01*
X135306864Y-90907364D01*
X135362923Y-91104393D01*
X135362924Y-91104394D01*
X135454226Y-91287753D01*
X135454227Y-91287754D01*
X135454229Y-91287758D01*
X135577674Y-91451226D01*
X135729044Y-91589219D01*
X135729048Y-91589222D01*
X135729054Y-91589227D01*
X135903215Y-91697063D01*
X136094225Y-91771060D01*
X136220297Y-91794627D01*
X136295577Y-91808700D01*
X136295579Y-91808700D01*
X136500423Y-91808700D01*
X136563846Y-91796843D01*
X136701775Y-91771060D01*
X136892785Y-91697063D01*
X137066946Y-91589227D01*
X137218326Y-91451226D01*
X137341771Y-91287758D01*
X137341850Y-91287600D01*
X165590165Y-91287600D01*
X165609064Y-91491563D01*
X165609064Y-91491564D01*
X165665123Y-91688593D01*
X165665124Y-91688594D01*
X165756426Y-91871953D01*
X165756427Y-91871954D01*
X165756429Y-91871958D01*
X165834539Y-91975392D01*
X165879874Y-92035426D01*
X166031244Y-92173419D01*
X166031248Y-92173422D01*
X166031254Y-92173427D01*
X166205415Y-92281263D01*
X166396425Y-92355260D01*
X166510727Y-92376627D01*
X166597777Y-92392900D01*
X166597779Y-92392900D01*
X166802623Y-92392900D01*
X166868724Y-92380543D01*
X167003975Y-92355260D01*
X167194985Y-92281263D01*
X167369146Y-92173427D01*
X167520526Y-92035426D01*
X167643971Y-91871958D01*
X167735277Y-91688591D01*
X167791335Y-91491568D01*
X167810235Y-91287600D01*
X167791335Y-91083632D01*
X167735277Y-90886609D01*
X167643971Y-90703242D01*
X167520526Y-90539774D01*
X167477842Y-90500862D01*
X167369155Y-90401780D01*
X167369150Y-90401776D01*
X167369146Y-90401773D01*
X167194985Y-90293937D01*
X167194981Y-90293935D01*
X167003976Y-90219940D01*
X166802623Y-90182300D01*
X166802621Y-90182300D01*
X166597779Y-90182300D01*
X166597777Y-90182300D01*
X166396423Y-90219940D01*
X166205418Y-90293935D01*
X166205414Y-90293937D01*
X166097578Y-90360706D01*
X166031254Y-90401773D01*
X166031253Y-90401774D01*
X166031244Y-90401780D01*
X165879874Y-90539773D01*
X165756427Y-90703245D01*
X165756426Y-90703246D01*
X165665124Y-90886605D01*
X165665123Y-90886606D01*
X165609064Y-91083635D01*
X165609064Y-91083636D01*
X165590165Y-91287600D01*
X137341850Y-91287600D01*
X137433077Y-91104391D01*
X137489135Y-90907368D01*
X137508035Y-90703400D01*
X137489135Y-90499432D01*
X137433077Y-90302409D01*
X137341771Y-90119042D01*
X137218326Y-89955574D01*
X137218325Y-89955573D01*
X137066955Y-89817580D01*
X137066950Y-89817576D01*
X137066946Y-89817573D01*
X136892785Y-89709737D01*
X136892781Y-89709735D01*
X136701776Y-89635740D01*
X136500423Y-89598100D01*
X136500421Y-89598100D01*
X136295579Y-89598100D01*
X136295577Y-89598100D01*
X136094223Y-89635740D01*
X135903218Y-89709735D01*
X135903214Y-89709737D01*
X135795378Y-89776506D01*
X135729054Y-89817573D01*
X135729053Y-89817574D01*
X135729044Y-89817580D01*
X135577674Y-89955573D01*
X135486337Y-90076523D01*
X135470754Y-90097160D01*
X135454227Y-90119045D01*
X135454226Y-90119046D01*
X135362924Y-90302405D01*
X135362923Y-90302406D01*
X135306864Y-90499435D01*
X135306864Y-90499436D01*
X135287965Y-90703400D01*
X131384166Y-90703400D01*
X132639566Y-89448000D01*
X138081965Y-89448000D01*
X138100864Y-89651963D01*
X138100864Y-89651964D01*
X138156923Y-89848993D01*
X138156924Y-89848994D01*
X138248226Y-90032353D01*
X138248227Y-90032354D01*
X138248229Y-90032358D01*
X138319428Y-90126641D01*
X138371674Y-90195826D01*
X138523044Y-90333819D01*
X138523048Y-90333822D01*
X138523054Y-90333827D01*
X138697215Y-90441663D01*
X138888225Y-90515660D01*
X139014297Y-90539227D01*
X139089577Y-90553300D01*
X139089579Y-90553300D01*
X139294423Y-90553300D01*
X139366783Y-90539773D01*
X139495775Y-90515660D01*
X139686785Y-90441663D01*
X139860946Y-90333827D01*
X140012326Y-90195826D01*
X140135771Y-90032358D01*
X140227077Y-89848991D01*
X140283135Y-89651968D01*
X140302035Y-89448000D01*
X140283135Y-89244032D01*
X140227077Y-89047009D01*
X140135771Y-88863642D01*
X140012326Y-88700174D01*
X139990915Y-88680655D01*
X139860955Y-88562180D01*
X139860950Y-88562176D01*
X139860946Y-88562173D01*
X139686785Y-88454337D01*
X139686781Y-88454335D01*
X139495776Y-88380340D01*
X139455627Y-88372835D01*
X139407758Y-88363886D01*
X139353165Y-88334136D01*
X139326485Y-88277977D01*
X139337910Y-88216861D01*
X139383076Y-88174133D01*
X139407757Y-88166113D01*
X139495775Y-88149660D01*
X139686785Y-88075663D01*
X139860946Y-87967827D01*
X139868475Y-87960964D01*
X139924200Y-87910163D01*
X140012326Y-87829826D01*
X140135771Y-87666358D01*
X140227077Y-87482991D01*
X140283135Y-87285968D01*
X140302035Y-87082000D01*
X140283135Y-86878032D01*
X140227077Y-86681009D01*
X140135771Y-86497642D01*
X140012326Y-86334174D01*
X140012325Y-86334173D01*
X139860955Y-86196180D01*
X139860950Y-86196176D01*
X139860946Y-86196173D01*
X139686785Y-86088337D01*
X139686781Y-86088335D01*
X139495776Y-86014340D01*
X139294423Y-85976700D01*
X139294421Y-85976700D01*
X139089579Y-85976700D01*
X139089577Y-85976700D01*
X138888223Y-86014340D01*
X138697218Y-86088335D01*
X138697214Y-86088337D01*
X138589378Y-86155106D01*
X138523054Y-86196173D01*
X138523053Y-86196174D01*
X138523044Y-86196180D01*
X138371674Y-86334173D01*
X138248227Y-86497645D01*
X138248226Y-86497646D01*
X138156924Y-86681005D01*
X138156923Y-86681006D01*
X138100864Y-86878035D01*
X138100864Y-86878036D01*
X138081965Y-87082000D01*
X138100864Y-87285963D01*
X138100864Y-87285964D01*
X138100864Y-87285967D01*
X138100865Y-87285968D01*
X138103231Y-87294283D01*
X138156923Y-87482993D01*
X138156924Y-87482994D01*
X138248226Y-87666353D01*
X138248227Y-87666354D01*
X138248229Y-87666358D01*
X138357588Y-87811173D01*
X138371674Y-87829826D01*
X138523044Y-87967819D01*
X138523048Y-87967822D01*
X138523054Y-87967827D01*
X138697215Y-88075663D01*
X138888225Y-88149660D01*
X138976240Y-88166113D01*
X139030834Y-88195865D01*
X139057514Y-88252023D01*
X139046089Y-88313139D01*
X139000923Y-88355867D01*
X138976240Y-88363887D01*
X138888223Y-88380340D01*
X138697218Y-88454335D01*
X138697214Y-88454337D01*
X138607667Y-88509783D01*
X138523054Y-88562173D01*
X138523053Y-88562174D01*
X138523044Y-88562180D01*
X138371674Y-88700173D01*
X138324258Y-88762963D01*
X138249243Y-88862300D01*
X138248227Y-88863645D01*
X138248226Y-88863646D01*
X138156924Y-89047005D01*
X138156923Y-89047006D01*
X138100864Y-89244035D01*
X138100864Y-89244036D01*
X138081965Y-89448000D01*
X132639566Y-89448000D01*
X135354702Y-86732865D01*
X135410100Y-86704639D01*
X135425837Y-86703400D01*
X135597688Y-86703400D01*
X135656819Y-86722613D01*
X135693364Y-86772913D01*
X135693364Y-86835087D01*
X135665462Y-86878344D01*
X135577674Y-86958373D01*
X135454227Y-87121845D01*
X135454226Y-87121846D01*
X135362924Y-87305205D01*
X135362923Y-87305206D01*
X135306864Y-87502235D01*
X135306864Y-87502236D01*
X135287965Y-87706200D01*
X135306864Y-87910163D01*
X135306864Y-87910164D01*
X135362923Y-88107193D01*
X135362924Y-88107194D01*
X135454226Y-88290553D01*
X135454227Y-88290554D01*
X135454229Y-88290558D01*
X135577674Y-88454026D01*
X135729044Y-88592019D01*
X135729048Y-88592022D01*
X135729054Y-88592027D01*
X135903215Y-88699863D01*
X136094225Y-88773860D01*
X136220297Y-88797427D01*
X136295577Y-88811500D01*
X136295579Y-88811500D01*
X136500423Y-88811500D01*
X136563846Y-88799643D01*
X136701775Y-88773860D01*
X136892785Y-88699863D01*
X137066946Y-88592027D01*
X137218326Y-88454026D01*
X137341771Y-88290558D01*
X137433077Y-88107191D01*
X137489135Y-87910168D01*
X137508035Y-87706200D01*
X137489135Y-87502232D01*
X137433077Y-87305209D01*
X137341771Y-87121842D01*
X137218326Y-86958374D01*
X137209904Y-86950696D01*
X137130538Y-86878344D01*
X137099783Y-86824309D01*
X137106663Y-86762517D01*
X137148550Y-86716570D01*
X137198312Y-86703400D01*
X137222886Y-86703400D01*
X137244261Y-86705697D01*
X137251266Y-86707221D01*
X137301115Y-86703655D01*
X137308291Y-86703400D01*
X137322455Y-86703400D01*
X137322457Y-86703400D01*
X137336484Y-86701382D01*
X137343613Y-86700616D01*
X137393473Y-86697051D01*
X137400183Y-86694547D01*
X137421034Y-86689226D01*
X137428119Y-86688208D01*
X137473610Y-86667431D01*
X137480210Y-86664698D01*
X137527055Y-86647227D01*
X137532784Y-86642937D01*
X137551288Y-86631958D01*
X137557806Y-86628982D01*
X137595605Y-86596227D01*
X137601140Y-86591767D01*
X137612512Y-86583255D01*
X137622543Y-86573222D01*
X137627771Y-86568355D01*
X137665553Y-86535618D01*
X137669423Y-86529595D01*
X137682915Y-86512850D01*
X138453502Y-85742265D01*
X138508900Y-85714039D01*
X138524637Y-85712800D01*
X139960963Y-85712800D01*
X140020094Y-85732013D01*
X140032098Y-85742265D01*
X141714735Y-87424902D01*
X141742961Y-87480300D01*
X141744200Y-87496037D01*
X141744200Y-87632995D01*
X141724987Y-87692126D01*
X141711374Y-87707339D01*
X141597474Y-87811173D01*
X141531151Y-87899000D01*
X141479176Y-87967827D01*
X141474027Y-87974645D01*
X141474026Y-87974646D01*
X141382724Y-88158005D01*
X141382723Y-88158006D01*
X141326664Y-88355035D01*
X141326664Y-88355036D01*
X141307765Y-88559000D01*
X141326664Y-88762963D01*
X141326664Y-88762964D01*
X141382723Y-88959993D01*
X141382724Y-88959994D01*
X141474026Y-89143353D01*
X141474027Y-89143354D01*
X141474029Y-89143358D01*
X141580010Y-89283700D01*
X141597474Y-89306826D01*
X141748844Y-89444819D01*
X141748848Y-89444822D01*
X141748854Y-89444827D01*
X141923015Y-89552663D01*
X142114025Y-89626660D01*
X142240097Y-89650227D01*
X142315377Y-89664300D01*
X142315379Y-89664300D01*
X142520223Y-89664300D01*
X142586217Y-89651963D01*
X142721575Y-89626660D01*
X142912585Y-89552663D01*
X143086746Y-89444827D01*
X143238126Y-89306826D01*
X143361571Y-89143358D01*
X143452877Y-88959991D01*
X143508935Y-88762968D01*
X143527835Y-88559000D01*
X143508935Y-88355032D01*
X143452877Y-88158009D01*
X143361571Y-87974642D01*
X143238126Y-87811174D01*
X143178700Y-87757000D01*
X151670965Y-87757000D01*
X151689864Y-87960963D01*
X151689864Y-87960964D01*
X151689864Y-87960967D01*
X151689865Y-87960968D01*
X151693757Y-87974646D01*
X151745923Y-88157993D01*
X151745924Y-88157994D01*
X151837226Y-88341353D01*
X151837227Y-88341354D01*
X151837229Y-88341358D01*
X151922312Y-88454026D01*
X151960674Y-88504826D01*
X152112044Y-88642819D01*
X152112048Y-88642822D01*
X152112054Y-88642827D01*
X152286215Y-88750663D01*
X152477225Y-88824660D01*
X152603297Y-88848227D01*
X152678577Y-88862300D01*
X152678579Y-88862300D01*
X152883423Y-88862300D01*
X152946846Y-88850443D01*
X153084775Y-88824660D01*
X153275785Y-88750663D01*
X153449946Y-88642827D01*
X153601326Y-88504826D01*
X153724771Y-88341358D01*
X153743056Y-88304635D01*
X153786610Y-88260270D01*
X153825930Y-88249135D01*
X153863473Y-88246451D01*
X153870183Y-88243947D01*
X153891034Y-88238626D01*
X153898119Y-88237608D01*
X153943610Y-88216831D01*
X153950210Y-88214098D01*
X153997055Y-88196627D01*
X154002784Y-88192337D01*
X154021288Y-88181358D01*
X154027806Y-88178382D01*
X154065605Y-88145627D01*
X154071140Y-88141167D01*
X154082512Y-88132655D01*
X154092543Y-88122622D01*
X154097771Y-88117755D01*
X154135553Y-88085018D01*
X154139423Y-88078995D01*
X154152915Y-88062250D01*
X158547565Y-83667600D01*
X165590165Y-83667600D01*
X165609064Y-83871563D01*
X165609064Y-83871564D01*
X165609064Y-83871567D01*
X165609065Y-83871568D01*
X165620011Y-83910042D01*
X165665123Y-84068593D01*
X165665124Y-84068594D01*
X165756426Y-84251953D01*
X165756427Y-84251954D01*
X165756429Y-84251958D01*
X165862417Y-84392309D01*
X165879874Y-84415426D01*
X166031244Y-84553419D01*
X166031248Y-84553422D01*
X166031254Y-84553427D01*
X166205415Y-84661263D01*
X166396425Y-84735260D01*
X166513552Y-84757155D01*
X166597777Y-84772900D01*
X166597779Y-84772900D01*
X166802623Y-84772900D01*
X166866046Y-84761043D01*
X167003975Y-84735260D01*
X167194985Y-84661263D01*
X167369146Y-84553427D01*
X167370611Y-84552092D01*
X167416423Y-84510328D01*
X167520526Y-84415426D01*
X167643971Y-84251958D01*
X167735277Y-84068591D01*
X167791335Y-83871568D01*
X167810235Y-83667600D01*
X167791335Y-83463632D01*
X167735277Y-83266609D01*
X167643971Y-83083242D01*
X167520526Y-82919774D01*
X167520525Y-82919773D01*
X167369155Y-82781780D01*
X167369150Y-82781776D01*
X167369146Y-82781773D01*
X167194985Y-82673937D01*
X167194981Y-82673935D01*
X167003976Y-82599940D01*
X166802623Y-82562300D01*
X166802621Y-82562300D01*
X166597779Y-82562300D01*
X166597777Y-82562300D01*
X166396423Y-82599940D01*
X166205418Y-82673935D01*
X166205414Y-82673937D01*
X166119105Y-82727378D01*
X166031254Y-82781773D01*
X166031253Y-82781774D01*
X166031244Y-82781780D01*
X165879874Y-82919773D01*
X165794982Y-83032190D01*
X165758708Y-83080225D01*
X165756427Y-83083245D01*
X165756426Y-83083246D01*
X165665124Y-83266605D01*
X165665123Y-83266606D01*
X165609064Y-83463635D01*
X165609064Y-83463636D01*
X165590165Y-83667600D01*
X158547565Y-83667600D01*
X158925490Y-83289675D01*
X158980886Y-83261451D01*
X159015109Y-83261925D01*
X159015819Y-83262057D01*
X159015825Y-83262060D01*
X159163561Y-83289677D01*
X159217177Y-83299700D01*
X159217179Y-83299700D01*
X159422023Y-83299700D01*
X159485446Y-83287843D01*
X159623375Y-83262060D01*
X159814385Y-83188063D01*
X159988546Y-83080227D01*
X159993552Y-83075664D01*
X160016298Y-83054927D01*
X160139926Y-82942226D01*
X160263371Y-82778758D01*
X160354677Y-82595391D01*
X160410735Y-82398368D01*
X160429635Y-82194400D01*
X160410735Y-81990432D01*
X160354677Y-81793409D01*
X160263371Y-81610042D01*
X160139926Y-81446574D01*
X160123539Y-81431635D01*
X159988555Y-81308580D01*
X159988550Y-81308576D01*
X159988546Y-81308573D01*
X159814385Y-81200737D01*
X159814381Y-81200735D01*
X159623376Y-81126740D01*
X159422023Y-81089100D01*
X159422021Y-81089100D01*
X159217179Y-81089100D01*
X159217177Y-81089100D01*
X159015823Y-81126740D01*
X158824818Y-81200735D01*
X158824814Y-81200737D01*
X158716978Y-81267506D01*
X158650654Y-81308573D01*
X158650653Y-81308574D01*
X158650644Y-81308580D01*
X158499274Y-81446573D01*
X158375827Y-81610045D01*
X158375826Y-81610046D01*
X158284524Y-81793405D01*
X158284523Y-81793406D01*
X158228464Y-81990435D01*
X158228464Y-81990436D01*
X158209565Y-82194400D01*
X158228464Y-82398367D01*
X158228465Y-82398370D01*
X158253485Y-82486306D01*
X158251187Y-82548437D01*
X158227860Y-82584971D01*
X153770126Y-87042705D01*
X153714728Y-87070931D01*
X153653320Y-87061205D01*
X153618709Y-87032193D01*
X153601327Y-87009174D01*
X153449955Y-86871180D01*
X153449950Y-86871176D01*
X153449946Y-86871173D01*
X153275785Y-86763337D01*
X153275781Y-86763335D01*
X153084776Y-86689340D01*
X152883423Y-86651700D01*
X152883421Y-86651700D01*
X152678579Y-86651700D01*
X152678577Y-86651700D01*
X152477223Y-86689340D01*
X152286218Y-86763335D01*
X152286214Y-86763337D01*
X152251638Y-86784746D01*
X152112054Y-86871173D01*
X152112053Y-86871174D01*
X152112044Y-86871180D01*
X151960674Y-87009173D01*
X151837227Y-87172645D01*
X151837226Y-87172646D01*
X151745924Y-87356005D01*
X151745923Y-87356006D01*
X151689864Y-87553035D01*
X151689864Y-87553036D01*
X151670965Y-87757000D01*
X143178700Y-87757000D01*
X143086755Y-87673180D01*
X143086750Y-87673176D01*
X143086746Y-87673173D01*
X142912585Y-87565337D01*
X142912581Y-87565335D01*
X142800059Y-87521744D01*
X142751861Y-87482468D01*
X142735800Y-87427937D01*
X142735800Y-87313113D01*
X142738099Y-87291730D01*
X142739621Y-87284734D01*
X142736056Y-87234882D01*
X142735800Y-87227707D01*
X142735800Y-87213546D01*
X142735800Y-87213543D01*
X142733781Y-87199506D01*
X142733015Y-87192375D01*
X142731604Y-87172646D01*
X142729451Y-87142527D01*
X142726949Y-87135821D01*
X142721626Y-87114965D01*
X142720608Y-87107882D01*
X142720608Y-87107881D01*
X142708788Y-87082000D01*
X142699836Y-87062396D01*
X142697093Y-87055774D01*
X142679627Y-87008945D01*
X142675334Y-87003210D01*
X142664359Y-86984714D01*
X142661382Y-86978194D01*
X142661381Y-86978193D01*
X142661380Y-86978190D01*
X142628654Y-86940424D01*
X142624146Y-86934831D01*
X142615654Y-86923487D01*
X142605632Y-86913465D01*
X142600753Y-86908225D01*
X142568018Y-86870447D01*
X142568017Y-86870446D01*
X142568016Y-86870445D01*
X142561992Y-86866574D01*
X142545248Y-86853081D01*
X140782167Y-85090000D01*
X151391565Y-85090000D01*
X151410464Y-85293963D01*
X151410464Y-85293964D01*
X151466523Y-85490993D01*
X151466524Y-85490994D01*
X151557826Y-85674353D01*
X151557827Y-85674354D01*
X151557829Y-85674358D01*
X151670422Y-85823455D01*
X151681274Y-85837826D01*
X151832644Y-85975819D01*
X151832648Y-85975822D01*
X151832654Y-85975827D01*
X152006815Y-86083663D01*
X152197825Y-86157660D01*
X152323897Y-86181227D01*
X152399177Y-86195300D01*
X152399179Y-86195300D01*
X152604023Y-86195300D01*
X152667446Y-86183443D01*
X152805375Y-86157660D01*
X152996385Y-86083663D01*
X153170546Y-85975827D01*
X153321926Y-85837826D01*
X153445371Y-85674358D01*
X153536677Y-85490991D01*
X153592735Y-85293968D01*
X153611635Y-85090000D01*
X153592735Y-84886032D01*
X153536677Y-84689009D01*
X153445371Y-84505642D01*
X153321926Y-84342174D01*
X153319255Y-84339739D01*
X153170555Y-84204180D01*
X153170550Y-84204176D01*
X153170546Y-84204173D01*
X152996385Y-84096337D01*
X152996381Y-84096335D01*
X152805376Y-84022340D01*
X152604023Y-83984700D01*
X152604021Y-83984700D01*
X152399179Y-83984700D01*
X152399177Y-83984700D01*
X152197823Y-84022340D01*
X152006818Y-84096335D01*
X152006814Y-84096337D01*
X151935932Y-84140226D01*
X151832654Y-84204173D01*
X151832653Y-84204174D01*
X151832644Y-84204180D01*
X151681274Y-84342173D01*
X151621131Y-84421816D01*
X151577929Y-84479026D01*
X151557827Y-84505645D01*
X151557826Y-84505646D01*
X151466524Y-84689005D01*
X151466523Y-84689006D01*
X151410464Y-84886035D01*
X151410464Y-84886036D01*
X151391565Y-85090000D01*
X140782167Y-85090000D01*
X140603919Y-84911752D01*
X140590425Y-84895007D01*
X140586552Y-84888981D01*
X140548789Y-84856259D01*
X140543533Y-84851366D01*
X140533513Y-84841346D01*
X140533512Y-84841345D01*
X140522164Y-84832850D01*
X140516590Y-84828358D01*
X140478806Y-84795618D01*
X140472281Y-84792638D01*
X140453793Y-84781668D01*
X140448054Y-84777372D01*
X140401227Y-84759907D01*
X140394592Y-84757159D01*
X140349121Y-84736393D01*
X140349119Y-84736392D01*
X140342023Y-84735371D01*
X140321184Y-84730052D01*
X140314475Y-84727549D01*
X140264606Y-84723982D01*
X140257474Y-84723215D01*
X140255436Y-84722922D01*
X140243457Y-84721200D01*
X140243454Y-84721200D01*
X140229291Y-84721200D01*
X140222115Y-84720944D01*
X140172267Y-84717379D01*
X140172266Y-84717379D01*
X140165261Y-84718902D01*
X140143886Y-84721200D01*
X138341714Y-84721200D01*
X138320338Y-84718902D01*
X138313334Y-84717379D01*
X138313332Y-84717379D01*
X138263485Y-84720944D01*
X138256309Y-84721200D01*
X138242136Y-84721200D01*
X138228126Y-84723214D01*
X138220991Y-84723981D01*
X138171128Y-84727548D01*
X138171126Y-84727548D01*
X138164410Y-84730054D01*
X138143575Y-84735372D01*
X138136480Y-84736392D01*
X138091016Y-84757155D01*
X138084382Y-84759903D01*
X138037544Y-84777373D01*
X138037542Y-84777374D01*
X138031800Y-84781672D01*
X138013321Y-84792636D01*
X138006798Y-84795615D01*
X138006788Y-84795621D01*
X137969014Y-84828353D01*
X137963428Y-84832855D01*
X137952087Y-84841345D01*
X137942063Y-84851369D01*
X137936810Y-84856259D01*
X137899048Y-84888979D01*
X137899046Y-84888982D01*
X137895171Y-84895011D01*
X137881681Y-84911750D01*
X137570463Y-85222969D01*
X137515065Y-85251195D01*
X137453657Y-85241469D01*
X137409693Y-85197506D01*
X137399967Y-85136097D01*
X137409275Y-85106992D01*
X137417736Y-85090000D01*
X137433077Y-85059191D01*
X137489135Y-84862168D01*
X137508035Y-84658200D01*
X137489135Y-84454232D01*
X137433077Y-84257209D01*
X137352971Y-84096335D01*
X137341773Y-84073846D01*
X137341772Y-84073845D01*
X137341771Y-84073842D01*
X137218326Y-83910374D01*
X137175758Y-83871568D01*
X137066955Y-83772380D01*
X137066950Y-83772376D01*
X137066946Y-83772373D01*
X136892785Y-83664537D01*
X136892781Y-83664535D01*
X136701776Y-83590540D01*
X136500423Y-83552900D01*
X136500421Y-83552900D01*
X136295579Y-83552900D01*
X136295577Y-83552900D01*
X136094223Y-83590540D01*
X135903218Y-83664535D01*
X135903214Y-83664537D01*
X135828956Y-83710516D01*
X135729054Y-83772373D01*
X135729053Y-83772374D01*
X135729044Y-83772380D01*
X135577674Y-83910373D01*
X135493121Y-84022340D01*
X135458195Y-84068591D01*
X135454227Y-84073845D01*
X135454226Y-84073846D01*
X135362924Y-84257205D01*
X135362923Y-84257206D01*
X135306864Y-84454235D01*
X135306864Y-84454236D01*
X135287965Y-84658200D01*
X135306864Y-84862163D01*
X135306864Y-84862164D01*
X135362923Y-85059193D01*
X135362924Y-85059194D01*
X135454226Y-85242553D01*
X135454227Y-85242554D01*
X135454229Y-85242558D01*
X135515776Y-85324059D01*
X135577674Y-85406026D01*
X135721187Y-85536856D01*
X135751942Y-85590891D01*
X135745062Y-85652683D01*
X135703175Y-85698630D01*
X135653413Y-85711800D01*
X135242914Y-85711800D01*
X135221538Y-85709502D01*
X135214534Y-85707979D01*
X135214532Y-85707979D01*
X135164685Y-85711544D01*
X135157509Y-85711800D01*
X135143336Y-85711800D01*
X135129326Y-85713814D01*
X135122191Y-85714581D01*
X135072328Y-85718148D01*
X135072326Y-85718148D01*
X135065610Y-85720654D01*
X135044775Y-85725972D01*
X135037680Y-85726992D01*
X134992216Y-85747755D01*
X134985582Y-85750503D01*
X134938744Y-85767973D01*
X134938742Y-85767974D01*
X134933000Y-85772272D01*
X134914521Y-85783236D01*
X134907998Y-85786215D01*
X134907988Y-85786221D01*
X134870214Y-85818953D01*
X134864628Y-85823455D01*
X134853287Y-85831945D01*
X134843263Y-85841969D01*
X134838010Y-85846859D01*
X134800248Y-85879579D01*
X134800246Y-85879582D01*
X134796371Y-85885611D01*
X134782881Y-85902350D01*
X130047522Y-90637709D01*
X129992124Y-90665935D01*
X129930716Y-90656209D01*
X129886752Y-90612245D01*
X129876216Y-90575855D01*
X129871713Y-90527263D01*
X129869135Y-90499432D01*
X129813077Y-90302409D01*
X129721771Y-90119042D01*
X129598326Y-89955574D01*
X129598325Y-89955573D01*
X129446955Y-89817580D01*
X129446950Y-89817576D01*
X129446946Y-89817573D01*
X129272785Y-89709737D01*
X129272781Y-89709735D01*
X129081776Y-89635740D01*
X128880423Y-89598100D01*
X128880421Y-89598100D01*
X128675579Y-89598100D01*
X128675577Y-89598100D01*
X128474223Y-89635740D01*
X128283218Y-89709735D01*
X128283214Y-89709737D01*
X128175378Y-89776506D01*
X128109054Y-89817573D01*
X128109053Y-89817574D01*
X128109044Y-89817580D01*
X127957674Y-89955573D01*
X127866337Y-90076523D01*
X127850754Y-90097160D01*
X127834227Y-90119045D01*
X127834226Y-90119046D01*
X127742924Y-90302405D01*
X127742923Y-90302406D01*
X127686864Y-90499435D01*
X127686864Y-90499436D01*
X127667965Y-90703400D01*
X127686864Y-90907363D01*
X127686864Y-90907364D01*
X127742923Y-91104393D01*
X127742924Y-91104394D01*
X127834226Y-91287753D01*
X127834227Y-91287754D01*
X127834229Y-91287758D01*
X127957674Y-91451226D01*
X128109044Y-91589219D01*
X128109048Y-91589222D01*
X128109054Y-91589227D01*
X128283215Y-91697063D01*
X128283218Y-91697064D01*
X128460629Y-91765793D01*
X128508826Y-91805069D01*
X128524733Y-91865174D01*
X128502274Y-91923150D01*
X128450026Y-91956852D01*
X128424288Y-91960200D01*
X127532114Y-91960200D01*
X127510738Y-91957902D01*
X127503734Y-91956379D01*
X127503732Y-91956379D01*
X127453885Y-91959944D01*
X127446709Y-91960200D01*
X127432536Y-91960200D01*
X127418526Y-91962214D01*
X127411391Y-91962981D01*
X127361528Y-91966548D01*
X127361526Y-91966548D01*
X127354810Y-91969054D01*
X127333975Y-91974372D01*
X127326880Y-91975392D01*
X127281416Y-91996155D01*
X127274782Y-91998903D01*
X127227944Y-92016373D01*
X127227942Y-92016374D01*
X127222200Y-92020672D01*
X127203721Y-92031636D01*
X127197198Y-92034615D01*
X127197188Y-92034621D01*
X127159414Y-92067353D01*
X127153828Y-92071855D01*
X127142487Y-92080345D01*
X127132463Y-92090369D01*
X127127210Y-92095259D01*
X127089448Y-92127979D01*
X127089446Y-92127982D01*
X127085571Y-92134011D01*
X127072081Y-92150750D01*
X126651535Y-92571297D01*
X126596137Y-92599523D01*
X126534729Y-92589797D01*
X126490765Y-92545834D01*
X126479800Y-92500162D01*
X126479800Y-91148512D01*
X126482099Y-91127129D01*
X126483621Y-91120133D01*
X126480056Y-91070281D01*
X126479800Y-91063106D01*
X126479800Y-91048945D01*
X126477783Y-91034919D01*
X126477015Y-91027774D01*
X126473451Y-90977927D01*
X126473451Y-90977926D01*
X126470947Y-90971215D01*
X126465626Y-90950364D01*
X126464608Y-90943281D01*
X126443841Y-90897807D01*
X126441093Y-90891173D01*
X126423627Y-90844345D01*
X126423626Y-90844343D01*
X126419334Y-90838610D01*
X126408359Y-90820114D01*
X126405382Y-90813594D01*
X126405381Y-90813593D01*
X126405380Y-90813590D01*
X126372654Y-90775824D01*
X126368146Y-90770231D01*
X126359654Y-90758887D01*
X126349632Y-90748865D01*
X126344753Y-90743625D01*
X126312018Y-90705847D01*
X126312017Y-90705846D01*
X126312016Y-90705845D01*
X126305992Y-90701974D01*
X126289248Y-90688481D01*
X123306967Y-87706200D01*
X127667965Y-87706200D01*
X127686864Y-87910163D01*
X127686864Y-87910164D01*
X127742923Y-88107193D01*
X127742924Y-88107194D01*
X127834226Y-88290553D01*
X127834227Y-88290554D01*
X127834229Y-88290558D01*
X127957674Y-88454026D01*
X128109044Y-88592019D01*
X128109048Y-88592022D01*
X128109054Y-88592027D01*
X128283215Y-88699863D01*
X128474225Y-88773860D01*
X128600297Y-88797427D01*
X128675577Y-88811500D01*
X128675579Y-88811500D01*
X128880423Y-88811500D01*
X128943846Y-88799643D01*
X129081775Y-88773860D01*
X129272785Y-88699863D01*
X129446946Y-88592027D01*
X129598326Y-88454026D01*
X129721771Y-88290558D01*
X129813077Y-88107191D01*
X129869135Y-87910168D01*
X129888035Y-87706200D01*
X129869135Y-87502232D01*
X129813077Y-87305209D01*
X129721771Y-87121842D01*
X129598326Y-86958374D01*
X129589904Y-86950696D01*
X129446955Y-86820380D01*
X129446950Y-86820376D01*
X129446946Y-86820373D01*
X129272785Y-86712537D01*
X129272781Y-86712535D01*
X129081776Y-86638540D01*
X128880423Y-86600900D01*
X128880421Y-86600900D01*
X128675579Y-86600900D01*
X128675577Y-86600900D01*
X128474223Y-86638540D01*
X128283218Y-86712535D01*
X128283214Y-86712537D01*
X128201173Y-86763335D01*
X128109054Y-86820373D01*
X128109053Y-86820374D01*
X128109044Y-86820380D01*
X127957674Y-86958373D01*
X127834227Y-87121845D01*
X127834226Y-87121846D01*
X127742924Y-87305205D01*
X127742923Y-87305206D01*
X127686864Y-87502235D01*
X127686864Y-87502236D01*
X127667965Y-87706200D01*
X123306967Y-87706200D01*
X122064265Y-86463498D01*
X122036039Y-86408100D01*
X122034800Y-86392363D01*
X122034800Y-84836000D01*
X122547965Y-84836000D01*
X122566864Y-85039963D01*
X122566864Y-85039964D01*
X122622923Y-85236993D01*
X122622924Y-85236994D01*
X122714226Y-85420353D01*
X122714227Y-85420354D01*
X122714229Y-85420358D01*
X122828887Y-85572190D01*
X122837674Y-85583826D01*
X122989044Y-85721819D01*
X122989048Y-85721822D01*
X122989054Y-85721827D01*
X123163215Y-85829663D01*
X123354225Y-85903660D01*
X123480297Y-85927227D01*
X123555577Y-85941300D01*
X123555579Y-85941300D01*
X123760423Y-85941300D01*
X123823846Y-85929443D01*
X123961775Y-85903660D01*
X124152785Y-85829663D01*
X124326946Y-85721827D01*
X124329622Y-85719388D01*
X124379021Y-85674354D01*
X124478326Y-85583826D01*
X124601771Y-85420358D01*
X124693077Y-85236991D01*
X124749135Y-85039968D01*
X124768035Y-84836000D01*
X124749135Y-84632032D01*
X124693077Y-84435009D01*
X124601771Y-84251642D01*
X124478326Y-84088174D01*
X124473399Y-84083682D01*
X124326955Y-83950180D01*
X124326950Y-83950176D01*
X124326946Y-83950173D01*
X124152785Y-83842337D01*
X124152781Y-83842335D01*
X123961776Y-83768340D01*
X123760423Y-83730700D01*
X123760421Y-83730700D01*
X123555579Y-83730700D01*
X123555577Y-83730700D01*
X123354223Y-83768340D01*
X123163218Y-83842335D01*
X123163214Y-83842337D01*
X123116005Y-83871568D01*
X122989054Y-83950173D01*
X122989053Y-83950174D01*
X122989044Y-83950180D01*
X122837674Y-84088173D01*
X122714227Y-84251645D01*
X122714226Y-84251646D01*
X122622924Y-84435005D01*
X122622923Y-84435006D01*
X122566864Y-84632035D01*
X122566864Y-84632036D01*
X122547965Y-84836000D01*
X122034800Y-84836000D01*
X122034800Y-81635600D01*
X127657165Y-81635600D01*
X127676064Y-81839563D01*
X127676064Y-81839564D01*
X127732123Y-82036593D01*
X127732124Y-82036594D01*
X127823426Y-82219953D01*
X127823427Y-82219954D01*
X127823429Y-82219958D01*
X127946874Y-82383426D01*
X128098244Y-82521419D01*
X128098248Y-82521422D01*
X128098254Y-82521427D01*
X128272415Y-82629263D01*
X128463425Y-82703260D01*
X128589497Y-82726827D01*
X128664777Y-82740900D01*
X128664779Y-82740900D01*
X128869623Y-82740900D01*
X128933046Y-82729043D01*
X129070975Y-82703260D01*
X129261985Y-82629263D01*
X129436146Y-82521427D01*
X129587526Y-82383426D01*
X129710971Y-82219958D01*
X129802277Y-82036591D01*
X129858335Y-81839568D01*
X129877235Y-81635600D01*
X132657165Y-81635600D01*
X132676064Y-81839563D01*
X132676064Y-81839564D01*
X132732123Y-82036593D01*
X132732124Y-82036594D01*
X132823426Y-82219953D01*
X132823427Y-82219954D01*
X132823429Y-82219958D01*
X132946874Y-82383426D01*
X133098244Y-82521419D01*
X133098248Y-82521422D01*
X133098254Y-82521427D01*
X133272415Y-82629263D01*
X133463425Y-82703260D01*
X133589497Y-82726827D01*
X133664777Y-82740900D01*
X133664779Y-82740900D01*
X133869623Y-82740900D01*
X133933046Y-82729043D01*
X134070975Y-82703260D01*
X134261985Y-82629263D01*
X134436146Y-82521427D01*
X134587526Y-82383426D01*
X134710971Y-82219958D01*
X134779666Y-82082000D01*
X138081965Y-82082000D01*
X138100864Y-82285963D01*
X138100864Y-82285964D01*
X138156923Y-82482993D01*
X138156924Y-82482994D01*
X138248226Y-82666353D01*
X138248227Y-82666354D01*
X138248229Y-82666358D01*
X138363499Y-82819000D01*
X138371674Y-82829826D01*
X138523044Y-82967819D01*
X138523048Y-82967822D01*
X138523054Y-82967827D01*
X138697215Y-83075663D01*
X138888225Y-83149660D01*
X139014297Y-83173227D01*
X139089577Y-83187300D01*
X139089579Y-83187300D01*
X139294423Y-83187300D01*
X139357846Y-83175443D01*
X139495775Y-83149660D01*
X139686785Y-83075663D01*
X139860946Y-82967827D01*
X140012326Y-82829826D01*
X140102987Y-82709771D01*
X145793700Y-82709771D01*
X145793701Y-82709786D01*
X145796662Y-82735308D01*
X145796662Y-82735311D01*
X145842765Y-82839724D01*
X145842766Y-82839725D01*
X145923475Y-82920434D01*
X146027891Y-82966538D01*
X146053421Y-82969500D01*
X147744578Y-82969499D01*
X147770109Y-82966538D01*
X147874525Y-82920434D01*
X147955234Y-82839725D01*
X148001338Y-82735309D01*
X148004300Y-82709779D01*
X148004299Y-81018622D01*
X148001338Y-80993091D01*
X147955234Y-80888675D01*
X147874525Y-80807966D01*
X147874524Y-80807965D01*
X147770110Y-80761862D01*
X147744579Y-80758900D01*
X146053428Y-80758900D01*
X146053413Y-80758901D01*
X146027891Y-80761862D01*
X146027888Y-80761862D01*
X145923475Y-80807965D01*
X145842765Y-80888675D01*
X145796662Y-80993088D01*
X145796662Y-80993089D01*
X145793700Y-81018618D01*
X145793700Y-82709771D01*
X140102987Y-82709771D01*
X140135771Y-82666358D01*
X140227077Y-82482991D01*
X140283135Y-82285968D01*
X140302035Y-82082000D01*
X140283135Y-81878032D01*
X140227077Y-81681009D01*
X140135771Y-81497642D01*
X140012326Y-81334174D01*
X140012325Y-81334173D01*
X139860955Y-81196180D01*
X139860950Y-81196176D01*
X139860946Y-81196173D01*
X139686785Y-81088337D01*
X139686781Y-81088335D01*
X139495776Y-81014340D01*
X139294423Y-80976700D01*
X139294421Y-80976700D01*
X139089579Y-80976700D01*
X139089577Y-80976700D01*
X138888223Y-81014340D01*
X138697218Y-81088335D01*
X138697214Y-81088337D01*
X138635192Y-81126740D01*
X138523054Y-81196173D01*
X138523053Y-81196174D01*
X138523044Y-81196180D01*
X138371674Y-81334173D01*
X138248227Y-81497645D01*
X138248226Y-81497646D01*
X138156924Y-81681005D01*
X138156923Y-81681006D01*
X138100864Y-81878035D01*
X138100864Y-81878036D01*
X138081965Y-82082000D01*
X134779666Y-82082000D01*
X134802277Y-82036591D01*
X134858335Y-81839568D01*
X134877235Y-81635600D01*
X134858335Y-81431632D01*
X134802277Y-81234609D01*
X134710971Y-81051242D01*
X134587526Y-80887774D01*
X134587525Y-80887773D01*
X134436155Y-80749780D01*
X134436150Y-80749776D01*
X134436146Y-80749773D01*
X134261985Y-80641937D01*
X134261981Y-80641935D01*
X134070976Y-80567940D01*
X133869623Y-80530300D01*
X133869621Y-80530300D01*
X133664779Y-80530300D01*
X133664777Y-80530300D01*
X133463423Y-80567940D01*
X133272418Y-80641935D01*
X133272414Y-80641937D01*
X133181647Y-80698138D01*
X133098254Y-80749773D01*
X133098253Y-80749774D01*
X133098244Y-80749780D01*
X132946874Y-80887773D01*
X132879720Y-80976700D01*
X132848066Y-81018618D01*
X132823427Y-81051245D01*
X132823426Y-81051246D01*
X132732124Y-81234605D01*
X132732123Y-81234606D01*
X132676064Y-81431635D01*
X132676064Y-81431636D01*
X132657165Y-81635600D01*
X129877235Y-81635600D01*
X129858335Y-81431632D01*
X129802277Y-81234609D01*
X129710971Y-81051242D01*
X129587526Y-80887774D01*
X129587525Y-80887773D01*
X129436155Y-80749780D01*
X129436150Y-80749776D01*
X129436146Y-80749773D01*
X129261985Y-80641937D01*
X129261981Y-80641935D01*
X129070976Y-80567940D01*
X128869623Y-80530300D01*
X128869621Y-80530300D01*
X128664779Y-80530300D01*
X128664777Y-80530300D01*
X128463423Y-80567940D01*
X128272418Y-80641935D01*
X128272414Y-80641937D01*
X128181647Y-80698138D01*
X128098254Y-80749773D01*
X128098253Y-80749774D01*
X128098244Y-80749780D01*
X127946874Y-80887773D01*
X127879720Y-80976700D01*
X127848066Y-81018618D01*
X127823427Y-81051245D01*
X127823426Y-81051246D01*
X127732124Y-81234605D01*
X127732123Y-81234606D01*
X127676064Y-81431635D01*
X127676064Y-81431636D01*
X127657165Y-81635600D01*
X122034800Y-81635600D01*
X122034800Y-80932036D01*
X122054013Y-80872905D01*
X122064259Y-80860907D01*
X124388365Y-78536800D01*
X126931365Y-78536800D01*
X126950264Y-78740763D01*
X126950264Y-78740764D01*
X126950264Y-78740767D01*
X126950265Y-78740768D01*
X126957744Y-78767053D01*
X127006323Y-78937793D01*
X127006324Y-78937794D01*
X127097626Y-79121153D01*
X127097627Y-79121154D01*
X127097629Y-79121158D01*
X127187666Y-79240386D01*
X127221074Y-79284626D01*
X127372444Y-79422619D01*
X127372448Y-79422622D01*
X127372454Y-79422627D01*
X127546615Y-79530463D01*
X127737625Y-79604460D01*
X127863697Y-79628027D01*
X127938977Y-79642100D01*
X127938979Y-79642100D01*
X128143823Y-79642100D01*
X128207246Y-79630243D01*
X128345175Y-79604460D01*
X128536185Y-79530463D01*
X128710346Y-79422627D01*
X128861726Y-79284626D01*
X128985171Y-79121158D01*
X129076477Y-78937791D01*
X129132535Y-78740768D01*
X129151435Y-78536800D01*
X134551365Y-78536800D01*
X134570264Y-78740763D01*
X134570264Y-78740764D01*
X134570264Y-78740767D01*
X134570265Y-78740768D01*
X134577744Y-78767053D01*
X134626323Y-78937793D01*
X134626324Y-78937794D01*
X134717626Y-79121153D01*
X134717627Y-79121154D01*
X134717629Y-79121158D01*
X134807666Y-79240386D01*
X134841074Y-79284626D01*
X134992444Y-79422619D01*
X134992448Y-79422622D01*
X134992454Y-79422627D01*
X135166615Y-79530463D01*
X135357625Y-79604460D01*
X135483697Y-79628027D01*
X135558977Y-79642100D01*
X135558979Y-79642100D01*
X135763823Y-79642100D01*
X135827246Y-79630243D01*
X135965175Y-79604460D01*
X136156185Y-79530463D01*
X136330346Y-79422627D01*
X136481726Y-79284626D01*
X136605171Y-79121158D01*
X136696477Y-78937791D01*
X136716619Y-78867000D01*
X139910765Y-78867000D01*
X139929664Y-79070963D01*
X139929664Y-79070964D01*
X139985723Y-79267993D01*
X139985724Y-79267994D01*
X140077026Y-79451353D01*
X140077027Y-79451354D01*
X140077029Y-79451358D01*
X140136767Y-79530464D01*
X140200474Y-79614826D01*
X140351844Y-79752819D01*
X140351848Y-79752822D01*
X140351854Y-79752827D01*
X140526015Y-79860663D01*
X140717025Y-79934660D01*
X140843097Y-79958227D01*
X140918377Y-79972300D01*
X140918379Y-79972300D01*
X141123223Y-79972300D01*
X141186646Y-79960443D01*
X141324575Y-79934660D01*
X141515585Y-79860663D01*
X141689746Y-79752827D01*
X141841126Y-79614826D01*
X141964571Y-79451358D01*
X142055877Y-79267991D01*
X142111935Y-79070968D01*
X142130835Y-78867000D01*
X147530765Y-78867000D01*
X147549664Y-79070963D01*
X147549664Y-79070964D01*
X147605723Y-79267993D01*
X147605724Y-79267994D01*
X147697026Y-79451353D01*
X147697027Y-79451354D01*
X147697029Y-79451358D01*
X147756767Y-79530464D01*
X147820474Y-79614826D01*
X147971844Y-79752819D01*
X147971848Y-79752822D01*
X147971854Y-79752827D01*
X148146015Y-79860663D01*
X148337025Y-79934660D01*
X148463097Y-79958227D01*
X148538377Y-79972300D01*
X148538379Y-79972300D01*
X148743223Y-79972300D01*
X148806646Y-79960443D01*
X148944575Y-79934660D01*
X149135585Y-79860663D01*
X149309746Y-79752827D01*
X149461126Y-79614826D01*
X149584571Y-79451358D01*
X149675877Y-79267991D01*
X149731935Y-79070968D01*
X149749855Y-78877571D01*
X150967900Y-78877571D01*
X150967901Y-78877586D01*
X150970862Y-78903108D01*
X150970862Y-78903111D01*
X151016965Y-79007524D01*
X151016966Y-79007525D01*
X151097675Y-79088234D01*
X151202091Y-79134338D01*
X151227621Y-79137300D01*
X152518778Y-79137299D01*
X152544309Y-79134338D01*
X152648725Y-79088234D01*
X152729434Y-79007525D01*
X152775538Y-78903109D01*
X152778500Y-78877579D01*
X152778499Y-78396985D01*
X152797712Y-78337856D01*
X152848012Y-78301311D01*
X152910186Y-78301311D01*
X152960486Y-78337856D01*
X152979148Y-78386470D01*
X152982805Y-78421262D01*
X153041609Y-78602244D01*
X153041610Y-78602245D01*
X153041611Y-78602247D01*
X153076707Y-78663035D01*
X153136761Y-78767052D01*
X153136766Y-78767058D01*
X153264091Y-78908468D01*
X153264100Y-78908476D01*
X153304453Y-78937794D01*
X153418056Y-79020332D01*
X153591906Y-79097734D01*
X153778049Y-79137300D01*
X153778050Y-79137300D01*
X153968350Y-79137300D01*
X153968351Y-79137300D01*
X154154494Y-79097734D01*
X154328344Y-79020332D01*
X154399547Y-78968600D01*
X156115965Y-78968600D01*
X156134864Y-79172563D01*
X156134864Y-79172564D01*
X156190923Y-79369593D01*
X156190924Y-79369594D01*
X156282226Y-79552953D01*
X156282227Y-79552954D01*
X156282229Y-79552958D01*
X156349546Y-79642100D01*
X156405674Y-79716426D01*
X156557044Y-79854419D01*
X156557048Y-79854422D01*
X156557054Y-79854427D01*
X156731215Y-79962263D01*
X156922225Y-80036260D01*
X157048297Y-80059827D01*
X157123577Y-80073900D01*
X157123579Y-80073900D01*
X157328423Y-80073900D01*
X157393904Y-80061659D01*
X157529775Y-80036260D01*
X157720785Y-79962263D01*
X157894946Y-79854427D01*
X158046326Y-79716426D01*
X158169771Y-79552958D01*
X158261077Y-79369591D01*
X158317135Y-79172568D01*
X158333681Y-78994000D01*
X159392565Y-78994000D01*
X159411464Y-79197963D01*
X159411464Y-79197964D01*
X159467523Y-79394993D01*
X159467524Y-79394994D01*
X159558826Y-79578353D01*
X159558827Y-79578354D01*
X159558829Y-79578358D01*
X159663093Y-79716426D01*
X159682274Y-79741826D01*
X159833644Y-79879819D01*
X159833648Y-79879822D01*
X159833654Y-79879827D01*
X160007815Y-79987663D01*
X160198825Y-80061660D01*
X160324897Y-80085227D01*
X160400177Y-80099300D01*
X160400179Y-80099300D01*
X160605023Y-80099300D01*
X160668446Y-80087443D01*
X160806375Y-80061660D01*
X160997385Y-79987663D01*
X161171546Y-79879827D01*
X161322926Y-79741826D01*
X161446371Y-79578358D01*
X161537677Y-79394991D01*
X161593735Y-79197968D01*
X161612635Y-78994000D01*
X162694565Y-78994000D01*
X162713464Y-79197963D01*
X162713464Y-79197964D01*
X162769523Y-79394993D01*
X162769524Y-79394994D01*
X162860826Y-79578353D01*
X162860827Y-79578354D01*
X162860829Y-79578358D01*
X162965093Y-79716426D01*
X162984274Y-79741826D01*
X163135644Y-79879819D01*
X163135648Y-79879822D01*
X163135654Y-79879827D01*
X163309815Y-79987663D01*
X163500825Y-80061660D01*
X163626897Y-80085227D01*
X163702177Y-80099300D01*
X163702179Y-80099300D01*
X163907023Y-80099300D01*
X163970446Y-80087443D01*
X164108375Y-80061660D01*
X164299385Y-79987663D01*
X164473546Y-79879827D01*
X164624926Y-79741826D01*
X164748371Y-79578358D01*
X164839677Y-79394991D01*
X164895735Y-79197968D01*
X164914635Y-78994000D01*
X166021965Y-78994000D01*
X166040864Y-79197963D01*
X166040864Y-79197964D01*
X166096923Y-79394993D01*
X166096924Y-79394994D01*
X166188226Y-79578353D01*
X166188227Y-79578354D01*
X166188229Y-79578358D01*
X166292493Y-79716426D01*
X166311674Y-79741826D01*
X166463044Y-79879819D01*
X166463048Y-79879822D01*
X166463054Y-79879827D01*
X166637215Y-79987663D01*
X166828225Y-80061660D01*
X166954297Y-80085227D01*
X167029577Y-80099300D01*
X167029579Y-80099300D01*
X167234423Y-80099300D01*
X167297846Y-80087443D01*
X167435775Y-80061660D01*
X167626785Y-79987663D01*
X167800946Y-79879827D01*
X167952326Y-79741826D01*
X168075771Y-79578358D01*
X168167077Y-79394991D01*
X168223135Y-79197968D01*
X168242035Y-78994000D01*
X168239681Y-78968600D01*
X169222365Y-78968600D01*
X169241264Y-79172563D01*
X169241264Y-79172564D01*
X169297323Y-79369593D01*
X169297324Y-79369594D01*
X169388626Y-79552953D01*
X169388627Y-79552954D01*
X169388629Y-79552958D01*
X169455946Y-79642100D01*
X169512074Y-79716426D01*
X169663444Y-79854419D01*
X169663448Y-79854422D01*
X169663454Y-79854427D01*
X169837615Y-79962263D01*
X170028625Y-80036260D01*
X170154697Y-80059827D01*
X170229977Y-80073900D01*
X170229979Y-80073900D01*
X170434823Y-80073900D01*
X170500304Y-80061659D01*
X170636175Y-80036260D01*
X170827185Y-79962263D01*
X171001346Y-79854427D01*
X171152726Y-79716426D01*
X171276171Y-79552958D01*
X171367477Y-79369591D01*
X171423535Y-79172568D01*
X171442435Y-78968600D01*
X171423535Y-78764632D01*
X171367477Y-78567609D01*
X171276171Y-78384242D01*
X171152726Y-78220774D01*
X171152725Y-78220773D01*
X171001355Y-78082780D01*
X171001350Y-78082776D01*
X171001346Y-78082773D01*
X170827185Y-77974937D01*
X170827181Y-77974935D01*
X170636176Y-77900940D01*
X170434823Y-77863300D01*
X170434821Y-77863300D01*
X170229979Y-77863300D01*
X170229977Y-77863300D01*
X170028623Y-77900940D01*
X169837618Y-77974935D01*
X169837614Y-77974937D01*
X169729778Y-78041706D01*
X169663454Y-78082773D01*
X169663453Y-78082774D01*
X169663444Y-78082780D01*
X169512074Y-78220773D01*
X169388627Y-78384245D01*
X169388626Y-78384246D01*
X169297324Y-78567605D01*
X169297323Y-78567606D01*
X169241264Y-78764635D01*
X169241264Y-78764636D01*
X169222365Y-78968600D01*
X168239681Y-78968600D01*
X168223135Y-78790032D01*
X168167077Y-78593009D01*
X168075771Y-78409642D01*
X167952326Y-78246174D01*
X167924464Y-78220774D01*
X167800955Y-78108180D01*
X167800950Y-78108176D01*
X167800946Y-78108173D01*
X167626785Y-78000337D01*
X167626781Y-78000335D01*
X167435776Y-77926340D01*
X167234423Y-77888700D01*
X167234421Y-77888700D01*
X167029579Y-77888700D01*
X167029577Y-77888700D01*
X166828223Y-77926340D01*
X166637218Y-78000335D01*
X166637214Y-78000337D01*
X166568730Y-78042741D01*
X166463054Y-78108173D01*
X166463053Y-78108174D01*
X166463044Y-78108180D01*
X166311674Y-78246173D01*
X166188227Y-78409645D01*
X166188226Y-78409646D01*
X166096924Y-78593005D01*
X166096923Y-78593006D01*
X166040864Y-78790035D01*
X166040864Y-78790036D01*
X166021965Y-78994000D01*
X164914635Y-78994000D01*
X164895735Y-78790032D01*
X164839677Y-78593009D01*
X164748371Y-78409642D01*
X164624926Y-78246174D01*
X164597064Y-78220774D01*
X164473555Y-78108180D01*
X164473550Y-78108176D01*
X164473546Y-78108173D01*
X164299385Y-78000337D01*
X164299381Y-78000335D01*
X164108376Y-77926340D01*
X163907023Y-77888700D01*
X163907021Y-77888700D01*
X163702179Y-77888700D01*
X163702177Y-77888700D01*
X163500823Y-77926340D01*
X163309818Y-78000335D01*
X163309814Y-78000337D01*
X163241330Y-78042741D01*
X163135654Y-78108173D01*
X163135653Y-78108174D01*
X163135644Y-78108180D01*
X162984274Y-78246173D01*
X162860827Y-78409645D01*
X162860826Y-78409646D01*
X162769524Y-78593005D01*
X162769523Y-78593006D01*
X162713464Y-78790035D01*
X162713464Y-78790036D01*
X162694565Y-78994000D01*
X161612635Y-78994000D01*
X161593735Y-78790032D01*
X161537677Y-78593009D01*
X161446371Y-78409642D01*
X161322926Y-78246174D01*
X161295064Y-78220774D01*
X161171555Y-78108180D01*
X161171550Y-78108176D01*
X161171546Y-78108173D01*
X160997385Y-78000337D01*
X160997381Y-78000335D01*
X160806376Y-77926340D01*
X160605023Y-77888700D01*
X160605021Y-77888700D01*
X160400179Y-77888700D01*
X160400177Y-77888700D01*
X160198823Y-77926340D01*
X160007818Y-78000335D01*
X160007814Y-78000337D01*
X159939330Y-78042741D01*
X159833654Y-78108173D01*
X159833653Y-78108174D01*
X159833644Y-78108180D01*
X159682274Y-78246173D01*
X159558827Y-78409645D01*
X159558826Y-78409646D01*
X159467524Y-78593005D01*
X159467523Y-78593006D01*
X159411464Y-78790035D01*
X159411464Y-78790036D01*
X159392565Y-78994000D01*
X158333681Y-78994000D01*
X158336035Y-78968600D01*
X158317135Y-78764632D01*
X158261077Y-78567609D01*
X158169771Y-78384242D01*
X158046326Y-78220774D01*
X158046325Y-78220773D01*
X157894955Y-78082780D01*
X157894950Y-78082776D01*
X157894946Y-78082773D01*
X157720785Y-77974937D01*
X157720781Y-77974935D01*
X157529776Y-77900940D01*
X157328423Y-77863300D01*
X157328421Y-77863300D01*
X157123579Y-77863300D01*
X157123577Y-77863300D01*
X156922223Y-77900940D01*
X156731218Y-77974935D01*
X156731214Y-77974937D01*
X156623378Y-78041706D01*
X156557054Y-78082773D01*
X156557053Y-78082774D01*
X156557044Y-78082780D01*
X156405674Y-78220773D01*
X156282227Y-78384245D01*
X156282226Y-78384246D01*
X156190924Y-78567605D01*
X156190923Y-78567606D01*
X156134864Y-78764635D01*
X156134864Y-78764636D01*
X156115965Y-78968600D01*
X154399547Y-78968600D01*
X154482301Y-78908475D01*
X154482304Y-78908471D01*
X154482308Y-78908468D01*
X154583028Y-78796606D01*
X154609638Y-78767053D01*
X154704789Y-78602247D01*
X154763595Y-78421259D01*
X154783487Y-78232000D01*
X154763595Y-78042741D01*
X154750951Y-78003826D01*
X154704790Y-77861755D01*
X154704789Y-77861754D01*
X154704789Y-77861753D01*
X154609638Y-77696947D01*
X154609633Y-77696941D01*
X154482308Y-77555531D01*
X154482299Y-77555523D01*
X154328347Y-77443670D01*
X154328344Y-77443668D01*
X154154492Y-77366265D01*
X154013934Y-77336389D01*
X153968351Y-77326700D01*
X153778049Y-77326700D01*
X153715774Y-77339937D01*
X153591905Y-77366266D01*
X153418053Y-77443670D01*
X153264100Y-77555523D01*
X153264091Y-77555531D01*
X153136766Y-77696941D01*
X153136761Y-77696947D01*
X153041611Y-77861753D01*
X153041609Y-77861755D01*
X152982805Y-78042737D01*
X152979148Y-78077531D01*
X152953859Y-78134330D01*
X152900014Y-78165417D01*
X152838180Y-78158917D01*
X152791976Y-78117314D01*
X152778499Y-78067015D01*
X152778499Y-77586428D01*
X152778498Y-77586418D01*
X152775538Y-77560891D01*
X152773171Y-77555531D01*
X152729434Y-77456475D01*
X152648724Y-77375765D01*
X152544310Y-77329662D01*
X152518779Y-77326700D01*
X151227628Y-77326700D01*
X151227613Y-77326701D01*
X151202091Y-77329662D01*
X151202088Y-77329662D01*
X151097675Y-77375765D01*
X151016965Y-77456475D01*
X150970862Y-77560888D01*
X150970862Y-77560889D01*
X150967900Y-77586418D01*
X150967900Y-78877571D01*
X149749855Y-78877571D01*
X149750835Y-78867000D01*
X149731935Y-78663032D01*
X149675877Y-78466009D01*
X149584571Y-78282642D01*
X149461126Y-78119174D01*
X149449060Y-78108174D01*
X149309755Y-77981180D01*
X149309750Y-77981176D01*
X149309746Y-77981173D01*
X149135585Y-77873337D01*
X149135581Y-77873335D01*
X148944576Y-77799340D01*
X148743223Y-77761700D01*
X148743221Y-77761700D01*
X148538379Y-77761700D01*
X148538377Y-77761700D01*
X148337023Y-77799340D01*
X148146018Y-77873335D01*
X148146014Y-77873337D01*
X148060412Y-77926340D01*
X147971854Y-77981173D01*
X147971853Y-77981174D01*
X147971844Y-77981180D01*
X147820474Y-78119173D01*
X147697027Y-78282645D01*
X147697026Y-78282646D01*
X147605724Y-78466005D01*
X147605723Y-78466006D01*
X147549664Y-78663035D01*
X147549664Y-78663036D01*
X147530765Y-78867000D01*
X142130835Y-78867000D01*
X142111935Y-78663032D01*
X142055877Y-78466009D01*
X141964571Y-78282642D01*
X141841126Y-78119174D01*
X141829060Y-78108174D01*
X141689755Y-77981180D01*
X141689750Y-77981176D01*
X141689746Y-77981173D01*
X141515585Y-77873337D01*
X141515581Y-77873335D01*
X141324576Y-77799340D01*
X141123223Y-77761700D01*
X141123221Y-77761700D01*
X140918379Y-77761700D01*
X140918377Y-77761700D01*
X140717023Y-77799340D01*
X140526018Y-77873335D01*
X140526014Y-77873337D01*
X140440412Y-77926340D01*
X140351854Y-77981173D01*
X140351853Y-77981174D01*
X140351844Y-77981180D01*
X140200474Y-78119173D01*
X140077027Y-78282645D01*
X140077026Y-78282646D01*
X139985724Y-78466005D01*
X139985723Y-78466006D01*
X139929664Y-78663035D01*
X139929664Y-78663036D01*
X139910765Y-78867000D01*
X136716619Y-78867000D01*
X136752535Y-78740768D01*
X136771435Y-78536800D01*
X136752535Y-78332832D01*
X136696477Y-78135809D01*
X136605171Y-77952442D01*
X136481726Y-77788974D01*
X136451808Y-77761700D01*
X136330355Y-77650980D01*
X136330350Y-77650976D01*
X136330346Y-77650973D01*
X136156185Y-77543137D01*
X136156181Y-77543135D01*
X135965176Y-77469140D01*
X135763823Y-77431500D01*
X135763821Y-77431500D01*
X135558979Y-77431500D01*
X135558977Y-77431500D01*
X135357623Y-77469140D01*
X135166618Y-77543135D01*
X135166614Y-77543137D01*
X135067078Y-77604768D01*
X134992454Y-77650973D01*
X134992453Y-77650974D01*
X134992444Y-77650980D01*
X134841074Y-77788973D01*
X134756521Y-77900940D01*
X134717820Y-77952190D01*
X134717627Y-77952445D01*
X134717626Y-77952446D01*
X134626324Y-78135805D01*
X134626323Y-78135806D01*
X134570264Y-78332835D01*
X134570264Y-78332836D01*
X134551365Y-78536800D01*
X129151435Y-78536800D01*
X129132535Y-78332832D01*
X129076477Y-78135809D01*
X128985171Y-77952442D01*
X128861726Y-77788974D01*
X128831808Y-77761700D01*
X128710355Y-77650980D01*
X128710350Y-77650976D01*
X128710346Y-77650973D01*
X128536185Y-77543137D01*
X128536181Y-77543135D01*
X128345176Y-77469140D01*
X128143823Y-77431500D01*
X128143821Y-77431500D01*
X127938979Y-77431500D01*
X127938977Y-77431500D01*
X127737623Y-77469140D01*
X127546618Y-77543135D01*
X127546614Y-77543137D01*
X127447078Y-77604768D01*
X127372454Y-77650973D01*
X127372453Y-77650974D01*
X127372444Y-77650980D01*
X127221074Y-77788973D01*
X127136521Y-77900940D01*
X127097820Y-77952190D01*
X127097627Y-77952445D01*
X127097626Y-77952446D01*
X127006324Y-78135805D01*
X127006323Y-78135806D01*
X126950264Y-78332835D01*
X126950264Y-78332836D01*
X126931365Y-78536800D01*
X124388365Y-78536800D01*
X124573890Y-78351275D01*
X124629286Y-78323051D01*
X124663509Y-78323525D01*
X124664219Y-78323657D01*
X124664225Y-78323660D01*
X124811961Y-78351277D01*
X124865577Y-78361300D01*
X124865579Y-78361300D01*
X125070423Y-78361300D01*
X125133846Y-78349443D01*
X125271775Y-78323660D01*
X125462785Y-78249663D01*
X125636946Y-78141827D01*
X125643548Y-78135809D01*
X125673863Y-78108173D01*
X125788326Y-78003826D01*
X125911771Y-77840358D01*
X126003077Y-77656991D01*
X126059135Y-77459968D01*
X126078035Y-77256000D01*
X126059135Y-77052032D01*
X126003077Y-76855009D01*
X125911771Y-76671642D01*
X125892641Y-76646309D01*
X125872338Y-76587543D01*
X125890455Y-76528067D01*
X125901780Y-76514555D01*
X126622735Y-75793600D01*
X137319965Y-75793600D01*
X137338864Y-75997563D01*
X137338864Y-75997564D01*
X137394923Y-76194593D01*
X137394924Y-76194594D01*
X137486226Y-76377953D01*
X137486227Y-76377954D01*
X137486229Y-76377958D01*
X137599586Y-76528067D01*
X137609674Y-76541426D01*
X137761044Y-76679419D01*
X137761048Y-76679422D01*
X137761054Y-76679427D01*
X137935215Y-76787263D01*
X138126225Y-76861260D01*
X138252297Y-76884827D01*
X138327577Y-76898900D01*
X138327579Y-76898900D01*
X138532423Y-76898900D01*
X138595846Y-76887043D01*
X138733775Y-76861260D01*
X138924785Y-76787263D01*
X139098946Y-76679427D01*
X139107494Y-76671635D01*
X139160796Y-76623043D01*
X139250326Y-76541426D01*
X139373771Y-76377958D01*
X139465077Y-76194591D01*
X139521135Y-75997568D01*
X139540035Y-75793600D01*
X144939965Y-75793600D01*
X144958864Y-75997563D01*
X144958864Y-75997564D01*
X145014923Y-76194593D01*
X145014924Y-76194594D01*
X145106226Y-76377953D01*
X145106227Y-76377954D01*
X145106229Y-76377958D01*
X145219586Y-76528067D01*
X145229674Y-76541426D01*
X145381044Y-76679419D01*
X145381048Y-76679422D01*
X145381054Y-76679427D01*
X145555215Y-76787263D01*
X145746225Y-76861260D01*
X145872297Y-76884827D01*
X145947577Y-76898900D01*
X145947579Y-76898900D01*
X146152423Y-76898900D01*
X146215846Y-76887043D01*
X146353775Y-76861260D01*
X146544785Y-76787263D01*
X146718946Y-76679427D01*
X146727494Y-76671635D01*
X146780796Y-76623043D01*
X146870326Y-76541426D01*
X146993771Y-76377958D01*
X147085077Y-76194591D01*
X147141135Y-75997568D01*
X147160035Y-75793600D01*
X147141135Y-75589632D01*
X147108292Y-75474200D01*
X147657765Y-75474200D01*
X147676664Y-75678163D01*
X147676664Y-75678164D01*
X147732723Y-75875193D01*
X147732724Y-75875194D01*
X147824026Y-76058553D01*
X147824027Y-76058554D01*
X147824029Y-76058558D01*
X147947474Y-76222026D01*
X148098844Y-76360019D01*
X148098848Y-76360022D01*
X148098854Y-76360027D01*
X148273015Y-76467863D01*
X148464025Y-76541860D01*
X148590097Y-76565427D01*
X148665377Y-76579500D01*
X148665379Y-76579500D01*
X148870223Y-76579500D01*
X148933646Y-76567643D01*
X149071575Y-76541860D01*
X149262585Y-76467863D01*
X149436746Y-76360027D01*
X149588126Y-76222026D01*
X149711571Y-76058558D01*
X149802877Y-75875191D01*
X149858935Y-75678168D01*
X149877835Y-75474200D01*
X149858935Y-75270232D01*
X149802877Y-75073209D01*
X149711571Y-74889842D01*
X149588126Y-74726374D01*
X149546361Y-74688300D01*
X149436755Y-74588380D01*
X149436750Y-74588376D01*
X149436746Y-74588373D01*
X149262585Y-74480537D01*
X149262581Y-74480535D01*
X149071576Y-74406540D01*
X148870223Y-74368900D01*
X148870221Y-74368900D01*
X148665379Y-74368900D01*
X148665377Y-74368900D01*
X148464023Y-74406540D01*
X148273018Y-74480535D01*
X148273014Y-74480537D01*
X148167581Y-74545819D01*
X148098854Y-74588373D01*
X148098853Y-74588374D01*
X148098844Y-74588380D01*
X147947474Y-74726373D01*
X147824027Y-74889845D01*
X147824026Y-74889846D01*
X147732724Y-75073205D01*
X147732723Y-75073206D01*
X147676664Y-75270235D01*
X147676664Y-75270236D01*
X147657765Y-75474200D01*
X147108292Y-75474200D01*
X147085077Y-75392609D01*
X146993771Y-75209242D01*
X146870326Y-75045774D01*
X146870325Y-75045773D01*
X146718955Y-74907780D01*
X146718950Y-74907776D01*
X146718946Y-74907773D01*
X146544785Y-74799937D01*
X146544781Y-74799935D01*
X146353776Y-74725940D01*
X146152423Y-74688300D01*
X146152421Y-74688300D01*
X145947579Y-74688300D01*
X145947577Y-74688300D01*
X145746223Y-74725940D01*
X145555218Y-74799935D01*
X145555214Y-74799937D01*
X145447378Y-74866706D01*
X145381054Y-74907773D01*
X145381053Y-74907774D01*
X145381044Y-74907780D01*
X145229674Y-75045773D01*
X145208959Y-75073205D01*
X145113964Y-75199000D01*
X145106227Y-75209245D01*
X145106226Y-75209246D01*
X145014924Y-75392605D01*
X145014923Y-75392606D01*
X144958864Y-75589635D01*
X144958864Y-75589636D01*
X144939965Y-75793600D01*
X139540035Y-75793600D01*
X139521135Y-75589632D01*
X139465077Y-75392609D01*
X139373771Y-75209242D01*
X139250326Y-75045774D01*
X139250325Y-75045773D01*
X139098955Y-74907780D01*
X139098950Y-74907776D01*
X139098946Y-74907773D01*
X138924785Y-74799937D01*
X138924781Y-74799935D01*
X138733776Y-74725940D01*
X138532423Y-74688300D01*
X138532421Y-74688300D01*
X138327579Y-74688300D01*
X138327577Y-74688300D01*
X138126223Y-74725940D01*
X137935218Y-74799935D01*
X137935214Y-74799937D01*
X137827378Y-74866706D01*
X137761054Y-74907773D01*
X137761053Y-74907774D01*
X137761044Y-74907780D01*
X137609674Y-75045773D01*
X137588959Y-75073205D01*
X137493964Y-75199000D01*
X137486227Y-75209245D01*
X137486226Y-75209246D01*
X137394924Y-75392605D01*
X137394923Y-75392606D01*
X137338864Y-75589635D01*
X137338864Y-75589636D01*
X137319965Y-75793600D01*
X126622735Y-75793600D01*
X127094764Y-75321571D01*
X134915900Y-75321571D01*
X134915901Y-75321586D01*
X134918862Y-75347108D01*
X134918862Y-75347111D01*
X134964965Y-75451524D01*
X134964966Y-75451525D01*
X135045675Y-75532234D01*
X135150091Y-75578338D01*
X135175621Y-75581300D01*
X136466778Y-75581299D01*
X136492309Y-75578338D01*
X136596725Y-75532234D01*
X136677434Y-75451525D01*
X136723538Y-75347109D01*
X136726500Y-75321579D01*
X136726499Y-74030422D01*
X136723538Y-74004891D01*
X136700142Y-73951905D01*
X136677434Y-73900475D01*
X136596724Y-73819765D01*
X136492310Y-73773662D01*
X136466779Y-73770700D01*
X135175628Y-73770700D01*
X135175613Y-73770701D01*
X135150091Y-73773662D01*
X135150088Y-73773662D01*
X135045675Y-73819765D01*
X134964965Y-73900475D01*
X134918862Y-74004888D01*
X134918862Y-74004889D01*
X134915900Y-74030418D01*
X134915900Y-75321571D01*
X127094764Y-75321571D01*
X129670735Y-72745600D01*
X137243765Y-72745600D01*
X137262664Y-72949563D01*
X137262664Y-72949564D01*
X137318723Y-73146593D01*
X137318724Y-73146594D01*
X137410026Y-73329953D01*
X137410027Y-73329954D01*
X137410029Y-73329958D01*
X137533474Y-73493426D01*
X137684844Y-73631419D01*
X137684848Y-73631422D01*
X137684854Y-73631427D01*
X137859015Y-73739263D01*
X138050025Y-73813260D01*
X138176097Y-73836827D01*
X138251377Y-73850900D01*
X138251379Y-73850900D01*
X138456223Y-73850900D01*
X138519646Y-73839043D01*
X138657575Y-73813260D01*
X138848585Y-73739263D01*
X139022746Y-73631427D01*
X139174126Y-73493426D01*
X139297571Y-73329958D01*
X139388877Y-73146591D01*
X139444935Y-72949568D01*
X139463835Y-72745600D01*
X144863765Y-72745600D01*
X144882664Y-72949563D01*
X144882664Y-72949564D01*
X144938723Y-73146593D01*
X144938724Y-73146594D01*
X145030026Y-73329953D01*
X145030027Y-73329954D01*
X145030029Y-73329958D01*
X145153474Y-73493426D01*
X145304844Y-73631419D01*
X145304848Y-73631422D01*
X145304854Y-73631427D01*
X145479015Y-73739263D01*
X145670025Y-73813260D01*
X145796097Y-73836827D01*
X145871377Y-73850900D01*
X145871379Y-73850900D01*
X146076223Y-73850900D01*
X146139646Y-73839043D01*
X146277575Y-73813260D01*
X146468585Y-73739263D01*
X146642746Y-73631427D01*
X146794126Y-73493426D01*
X146917571Y-73329958D01*
X147008877Y-73146591D01*
X147064935Y-72949568D01*
X147083835Y-72745600D01*
X147064935Y-72541632D01*
X147010346Y-72349771D01*
X150707300Y-72349771D01*
X150707301Y-72349786D01*
X150710262Y-72375308D01*
X150710262Y-72375311D01*
X150756365Y-72479724D01*
X150756366Y-72479725D01*
X150837075Y-72560434D01*
X150941491Y-72606538D01*
X150967021Y-72609500D01*
X152258178Y-72609499D01*
X152283709Y-72606538D01*
X152388125Y-72560434D01*
X152468834Y-72479725D01*
X152514938Y-72375309D01*
X152517900Y-72349779D01*
X152517899Y-71869185D01*
X152537112Y-71810056D01*
X152587412Y-71773511D01*
X152649586Y-71773511D01*
X152699886Y-71810056D01*
X152718548Y-71858670D01*
X152722205Y-71893462D01*
X152781009Y-72074444D01*
X152781010Y-72074445D01*
X152781011Y-72074447D01*
X152831122Y-72161242D01*
X152876161Y-72239252D01*
X152876166Y-72239258D01*
X153003491Y-72380668D01*
X153003499Y-72380675D01*
X153157456Y-72492532D01*
X153331306Y-72569934D01*
X153517449Y-72609500D01*
X153517450Y-72609500D01*
X153707750Y-72609500D01*
X153707751Y-72609500D01*
X153893894Y-72569934D01*
X154067744Y-72492532D01*
X154221701Y-72380675D01*
X154221704Y-72380671D01*
X154221708Y-72380668D01*
X154349033Y-72239258D01*
X154349038Y-72239253D01*
X154444189Y-72074447D01*
X154502995Y-71893459D01*
X154522887Y-71704200D01*
X154502995Y-71514941D01*
X154495894Y-71493085D01*
X154448948Y-71348600D01*
X156115965Y-71348600D01*
X156134864Y-71552563D01*
X156134864Y-71552564D01*
X156190923Y-71749593D01*
X156190924Y-71749594D01*
X156282226Y-71932953D01*
X156282227Y-71932954D01*
X156282229Y-71932958D01*
X156331176Y-71997774D01*
X156405674Y-72096426D01*
X156557044Y-72234419D01*
X156557048Y-72234422D01*
X156557054Y-72234427D01*
X156731215Y-72342263D01*
X156922225Y-72416260D01*
X157048297Y-72439827D01*
X157123577Y-72453900D01*
X157123579Y-72453900D01*
X157328423Y-72453900D01*
X157393904Y-72441659D01*
X157529775Y-72416260D01*
X157720785Y-72342263D01*
X157894946Y-72234427D01*
X158046326Y-72096426D01*
X158169771Y-71932958D01*
X158261077Y-71749591D01*
X158317135Y-71552568D01*
X158333681Y-71374000D01*
X159392565Y-71374000D01*
X159411464Y-71577963D01*
X159411464Y-71577964D01*
X159467523Y-71774993D01*
X159467524Y-71774994D01*
X159558826Y-71958353D01*
X159558827Y-71958354D01*
X159558829Y-71958358D01*
X159646495Y-72074447D01*
X159682274Y-72121826D01*
X159833644Y-72259819D01*
X159833648Y-72259822D01*
X159833654Y-72259827D01*
X160007815Y-72367663D01*
X160198825Y-72441660D01*
X160324897Y-72465227D01*
X160400177Y-72479300D01*
X160400179Y-72479300D01*
X160605023Y-72479300D01*
X160668446Y-72467443D01*
X160806375Y-72441660D01*
X160997385Y-72367663D01*
X161171546Y-72259827D01*
X161322926Y-72121826D01*
X161446371Y-71958358D01*
X161537677Y-71774991D01*
X161593735Y-71577968D01*
X161612635Y-71374000D01*
X162694565Y-71374000D01*
X162713464Y-71577963D01*
X162713464Y-71577964D01*
X162769523Y-71774993D01*
X162769524Y-71774994D01*
X162860826Y-71958353D01*
X162860827Y-71958354D01*
X162860829Y-71958358D01*
X162948495Y-72074447D01*
X162984274Y-72121826D01*
X163135644Y-72259819D01*
X163135648Y-72259822D01*
X163135654Y-72259827D01*
X163309815Y-72367663D01*
X163500825Y-72441660D01*
X163626897Y-72465227D01*
X163702177Y-72479300D01*
X163702179Y-72479300D01*
X163907023Y-72479300D01*
X163970446Y-72467443D01*
X164108375Y-72441660D01*
X164299385Y-72367663D01*
X164473546Y-72259827D01*
X164624926Y-72121826D01*
X164748371Y-71958358D01*
X164839677Y-71774991D01*
X164895735Y-71577968D01*
X164914635Y-71374000D01*
X166021965Y-71374000D01*
X166040864Y-71577963D01*
X166040864Y-71577964D01*
X166096923Y-71774993D01*
X166096924Y-71774994D01*
X166188226Y-71958353D01*
X166188227Y-71958354D01*
X166188229Y-71958358D01*
X166275895Y-72074447D01*
X166311674Y-72121826D01*
X166463044Y-72259819D01*
X166463048Y-72259822D01*
X166463054Y-72259827D01*
X166637215Y-72367663D01*
X166828225Y-72441660D01*
X166954297Y-72465227D01*
X167029577Y-72479300D01*
X167029579Y-72479300D01*
X167234423Y-72479300D01*
X167297846Y-72467443D01*
X167435775Y-72441660D01*
X167626785Y-72367663D01*
X167800946Y-72259827D01*
X167952326Y-72121826D01*
X168075771Y-71958358D01*
X168167077Y-71774991D01*
X168223135Y-71577968D01*
X168242035Y-71374000D01*
X168239681Y-71348600D01*
X169222365Y-71348600D01*
X169241264Y-71552563D01*
X169241264Y-71552564D01*
X169297323Y-71749593D01*
X169297324Y-71749594D01*
X169388626Y-71932953D01*
X169388627Y-71932954D01*
X169388629Y-71932958D01*
X169437576Y-71997774D01*
X169512074Y-72096426D01*
X169663444Y-72234419D01*
X169663448Y-72234422D01*
X169663454Y-72234427D01*
X169837615Y-72342263D01*
X170028625Y-72416260D01*
X170154697Y-72439827D01*
X170229977Y-72453900D01*
X170229979Y-72453900D01*
X170434823Y-72453900D01*
X170500304Y-72441659D01*
X170636175Y-72416260D01*
X170827185Y-72342263D01*
X171001346Y-72234427D01*
X171152726Y-72096426D01*
X171276171Y-71932958D01*
X171367477Y-71749591D01*
X171423535Y-71552568D01*
X171442435Y-71348600D01*
X171423535Y-71144632D01*
X171367477Y-70947609D01*
X171276171Y-70764242D01*
X171152726Y-70600774D01*
X171112796Y-70564373D01*
X171001355Y-70462780D01*
X171001350Y-70462776D01*
X171001346Y-70462773D01*
X170827185Y-70354937D01*
X170827181Y-70354935D01*
X170636176Y-70280940D01*
X170434823Y-70243300D01*
X170434821Y-70243300D01*
X170229979Y-70243300D01*
X170229977Y-70243300D01*
X170028623Y-70280940D01*
X169837618Y-70354935D01*
X169837614Y-70354937D01*
X169729778Y-70421706D01*
X169663454Y-70462773D01*
X169663453Y-70462774D01*
X169663444Y-70462780D01*
X169512074Y-70600773D01*
X169388627Y-70764245D01*
X169388626Y-70764246D01*
X169297324Y-70947605D01*
X169297323Y-70947606D01*
X169241264Y-71144635D01*
X169241264Y-71144636D01*
X169222365Y-71348600D01*
X168239681Y-71348600D01*
X168223135Y-71170032D01*
X168167077Y-70973009D01*
X168075771Y-70789642D01*
X167952326Y-70626174D01*
X167924464Y-70600774D01*
X167800955Y-70488180D01*
X167800950Y-70488176D01*
X167800946Y-70488173D01*
X167626785Y-70380337D01*
X167626781Y-70380335D01*
X167435776Y-70306340D01*
X167234423Y-70268700D01*
X167234421Y-70268700D01*
X167029579Y-70268700D01*
X167029577Y-70268700D01*
X166828223Y-70306340D01*
X166637218Y-70380335D01*
X166637214Y-70380337D01*
X166529378Y-70447106D01*
X166463054Y-70488173D01*
X166463053Y-70488174D01*
X166463044Y-70488180D01*
X166311674Y-70626173D01*
X166188227Y-70789645D01*
X166188226Y-70789646D01*
X166096924Y-70973005D01*
X166096923Y-70973006D01*
X166040864Y-71170035D01*
X166040864Y-71170036D01*
X166021965Y-71374000D01*
X164914635Y-71374000D01*
X164895735Y-71170032D01*
X164839677Y-70973009D01*
X164748371Y-70789642D01*
X164624926Y-70626174D01*
X164597064Y-70600774D01*
X164473555Y-70488180D01*
X164473550Y-70488176D01*
X164473546Y-70488173D01*
X164299385Y-70380337D01*
X164299381Y-70380335D01*
X164108376Y-70306340D01*
X163907023Y-70268700D01*
X163907021Y-70268700D01*
X163702179Y-70268700D01*
X163702177Y-70268700D01*
X163500823Y-70306340D01*
X163309818Y-70380335D01*
X163309814Y-70380337D01*
X163201978Y-70447106D01*
X163135654Y-70488173D01*
X163135653Y-70488174D01*
X163135644Y-70488180D01*
X162984274Y-70626173D01*
X162860827Y-70789645D01*
X162860826Y-70789646D01*
X162769524Y-70973005D01*
X162769523Y-70973006D01*
X162713464Y-71170035D01*
X162713464Y-71170036D01*
X162694565Y-71374000D01*
X161612635Y-71374000D01*
X161593735Y-71170032D01*
X161537677Y-70973009D01*
X161446371Y-70789642D01*
X161322926Y-70626174D01*
X161295064Y-70600774D01*
X161171555Y-70488180D01*
X161171550Y-70488176D01*
X161171546Y-70488173D01*
X160997385Y-70380337D01*
X160997381Y-70380335D01*
X160806376Y-70306340D01*
X160605023Y-70268700D01*
X160605021Y-70268700D01*
X160400179Y-70268700D01*
X160400177Y-70268700D01*
X160198823Y-70306340D01*
X160007818Y-70380335D01*
X160007814Y-70380337D01*
X159899978Y-70447106D01*
X159833654Y-70488173D01*
X159833653Y-70488174D01*
X159833644Y-70488180D01*
X159682274Y-70626173D01*
X159558827Y-70789645D01*
X159558826Y-70789646D01*
X159467524Y-70973005D01*
X159467523Y-70973006D01*
X159411464Y-71170035D01*
X159411464Y-71170036D01*
X159392565Y-71374000D01*
X158333681Y-71374000D01*
X158336035Y-71348600D01*
X158317135Y-71144632D01*
X158261077Y-70947609D01*
X158169771Y-70764242D01*
X158046326Y-70600774D01*
X158006396Y-70564373D01*
X157894955Y-70462780D01*
X157894950Y-70462776D01*
X157894946Y-70462773D01*
X157720785Y-70354937D01*
X157720781Y-70354935D01*
X157529776Y-70280940D01*
X157328423Y-70243300D01*
X157328421Y-70243300D01*
X157123579Y-70243300D01*
X157123577Y-70243300D01*
X156922223Y-70280940D01*
X156731218Y-70354935D01*
X156731214Y-70354937D01*
X156623378Y-70421706D01*
X156557054Y-70462773D01*
X156557053Y-70462774D01*
X156557044Y-70462780D01*
X156405674Y-70600773D01*
X156282227Y-70764245D01*
X156282226Y-70764246D01*
X156190924Y-70947605D01*
X156190923Y-70947606D01*
X156134864Y-71144635D01*
X156134864Y-71144636D01*
X156115965Y-71348600D01*
X154448948Y-71348600D01*
X154444190Y-71333955D01*
X154444189Y-71333954D01*
X154444189Y-71333953D01*
X154349038Y-71169147D01*
X154349033Y-71169141D01*
X154221708Y-71027731D01*
X154221699Y-71027723D01*
X154067747Y-70915870D01*
X154067744Y-70915868D01*
X153893892Y-70838465D01*
X153757995Y-70809579D01*
X153707751Y-70798900D01*
X153517449Y-70798900D01*
X153424377Y-70818683D01*
X153331305Y-70838466D01*
X153157453Y-70915870D01*
X153003500Y-71027723D01*
X153003491Y-71027731D01*
X152876166Y-71169141D01*
X152876161Y-71169147D01*
X152781011Y-71333953D01*
X152781009Y-71333955D01*
X152722205Y-71514937D01*
X152718548Y-71549731D01*
X152693259Y-71606530D01*
X152639414Y-71637617D01*
X152577580Y-71631117D01*
X152531376Y-71589514D01*
X152517899Y-71539215D01*
X152517899Y-71058628D01*
X152517898Y-71058618D01*
X152514938Y-71033091D01*
X152512571Y-71027731D01*
X152468834Y-70928675D01*
X152388124Y-70847965D01*
X152283710Y-70801862D01*
X152258179Y-70798900D01*
X150967028Y-70798900D01*
X150967013Y-70798901D01*
X150941491Y-70801862D01*
X150941488Y-70801862D01*
X150837075Y-70847965D01*
X150756365Y-70928675D01*
X150710262Y-71033088D01*
X150710262Y-71033089D01*
X150707300Y-71058618D01*
X150707300Y-72349771D01*
X147010346Y-72349771D01*
X147008877Y-72344609D01*
X146917571Y-72161242D01*
X146794126Y-71997774D01*
X146750889Y-71958358D01*
X146642755Y-71859780D01*
X146642750Y-71859776D01*
X146642746Y-71859773D01*
X146468585Y-71751937D01*
X146468581Y-71751935D01*
X146277576Y-71677940D01*
X146076223Y-71640300D01*
X146076221Y-71640300D01*
X145871379Y-71640300D01*
X145871377Y-71640300D01*
X145670023Y-71677940D01*
X145479018Y-71751935D01*
X145479014Y-71751937D01*
X145385150Y-71810056D01*
X145304854Y-71859773D01*
X145304853Y-71859774D01*
X145304844Y-71859780D01*
X145153474Y-71997773D01*
X145030027Y-72161245D01*
X145030026Y-72161246D01*
X144938724Y-72344605D01*
X144938723Y-72344606D01*
X144882664Y-72541635D01*
X144882664Y-72541636D01*
X144863765Y-72745600D01*
X139463835Y-72745600D01*
X139444935Y-72541632D01*
X139388877Y-72344609D01*
X139297571Y-72161242D01*
X139174126Y-71997774D01*
X139130889Y-71958358D01*
X139022755Y-71859780D01*
X139022750Y-71859776D01*
X139022746Y-71859773D01*
X138848585Y-71751937D01*
X138848581Y-71751935D01*
X138657576Y-71677940D01*
X138456223Y-71640300D01*
X138456221Y-71640300D01*
X138251379Y-71640300D01*
X138251377Y-71640300D01*
X138050023Y-71677940D01*
X137859018Y-71751935D01*
X137859014Y-71751937D01*
X137765150Y-71810056D01*
X137684854Y-71859773D01*
X137684853Y-71859774D01*
X137684844Y-71859780D01*
X137533474Y-71997773D01*
X137410027Y-72161245D01*
X137410026Y-72161246D01*
X137318724Y-72344605D01*
X137318723Y-72344606D01*
X137262664Y-72541635D01*
X137262664Y-72541636D01*
X137243765Y-72745600D01*
X129670735Y-72745600D01*
X131942135Y-70474200D01*
X147657765Y-70474200D01*
X147676664Y-70678163D01*
X147676664Y-70678164D01*
X147732723Y-70875193D01*
X147732724Y-70875194D01*
X147824026Y-71058553D01*
X147824027Y-71058554D01*
X147824029Y-71058558D01*
X147908213Y-71170036D01*
X147947474Y-71222026D01*
X148098844Y-71360019D01*
X148098848Y-71360022D01*
X148098854Y-71360027D01*
X148273015Y-71467863D01*
X148464025Y-71541860D01*
X148590097Y-71565427D01*
X148665377Y-71579500D01*
X148665379Y-71579500D01*
X148870223Y-71579500D01*
X148933646Y-71567643D01*
X149071575Y-71541860D01*
X149262585Y-71467863D01*
X149436746Y-71360027D01*
X149588126Y-71222026D01*
X149711571Y-71058558D01*
X149802877Y-70875191D01*
X149858935Y-70678168D01*
X149877835Y-70474200D01*
X149858935Y-70270232D01*
X149802877Y-70073209D01*
X149711571Y-69889842D01*
X149588126Y-69726374D01*
X149532853Y-69675986D01*
X149436755Y-69588380D01*
X149436750Y-69588376D01*
X149436746Y-69588373D01*
X149262585Y-69480537D01*
X149262581Y-69480535D01*
X149071576Y-69406540D01*
X148870223Y-69368900D01*
X148870221Y-69368900D01*
X148665379Y-69368900D01*
X148665377Y-69368900D01*
X148464023Y-69406540D01*
X148273018Y-69480535D01*
X148273014Y-69480537D01*
X148189494Y-69532251D01*
X148098854Y-69588373D01*
X148098853Y-69588374D01*
X148098844Y-69588380D01*
X147947474Y-69726373D01*
X147894181Y-69796945D01*
X147845566Y-69861323D01*
X147824027Y-69889845D01*
X147824026Y-69889846D01*
X147732724Y-70073205D01*
X147732723Y-70073206D01*
X147676664Y-70270235D01*
X147676664Y-70270236D01*
X147657765Y-70474200D01*
X131942135Y-70474200D01*
X132537650Y-69878685D01*
X132554397Y-69865192D01*
X132560418Y-69861323D01*
X132593155Y-69823541D01*
X132598022Y-69818313D01*
X132608055Y-69808282D01*
X132616567Y-69796910D01*
X132621027Y-69791375D01*
X132653782Y-69753576D01*
X132656758Y-69747058D01*
X132667737Y-69728554D01*
X132672027Y-69722825D01*
X132689498Y-69675980D01*
X132692231Y-69669380D01*
X132713008Y-69623889D01*
X132714026Y-69616804D01*
X132719347Y-69595953D01*
X132721851Y-69589243D01*
X132725416Y-69539383D01*
X132726183Y-69532251D01*
X132728200Y-69518224D01*
X132728200Y-69504061D01*
X132728456Y-69496885D01*
X132729625Y-69480535D01*
X132732021Y-69447036D01*
X132730497Y-69440031D01*
X132728200Y-69418656D01*
X132728200Y-69400467D01*
X132747413Y-69341336D01*
X132775837Y-69314938D01*
X132901346Y-69237227D01*
X133052726Y-69099226D01*
X133176171Y-68935758D01*
X133267477Y-68752391D01*
X133323535Y-68555368D01*
X133342435Y-68351400D01*
X133332742Y-68246803D01*
X133346417Y-68186153D01*
X133361774Y-68166391D01*
X133506965Y-68021200D01*
X147657765Y-68021200D01*
X147676664Y-68225163D01*
X147676664Y-68225164D01*
X147732723Y-68422193D01*
X147732724Y-68422194D01*
X147824026Y-68605553D01*
X147824027Y-68605554D01*
X147824029Y-68605558D01*
X147915464Y-68726638D01*
X147947474Y-68769026D01*
X148098844Y-68907019D01*
X148098848Y-68907022D01*
X148098854Y-68907027D01*
X148273015Y-69014863D01*
X148464025Y-69088860D01*
X148590097Y-69112427D01*
X148665377Y-69126500D01*
X148665379Y-69126500D01*
X148870223Y-69126500D01*
X148933646Y-69114643D01*
X149071575Y-69088860D01*
X149262585Y-69014863D01*
X149436746Y-68907027D01*
X149588126Y-68769026D01*
X149711571Y-68605558D01*
X149802877Y-68422191D01*
X149841627Y-68286000D01*
X150781965Y-68286000D01*
X150800864Y-68489963D01*
X150800864Y-68489964D01*
X150800864Y-68489967D01*
X150800865Y-68489968D01*
X150804180Y-68501618D01*
X150856923Y-68686993D01*
X150856924Y-68686994D01*
X150948226Y-68870353D01*
X150948227Y-68870354D01*
X150948229Y-68870358D01*
X150997614Y-68935754D01*
X151071674Y-69033826D01*
X151223044Y-69171819D01*
X151223048Y-69171822D01*
X151223054Y-69171827D01*
X151397215Y-69279663D01*
X151588225Y-69353660D01*
X151714297Y-69377227D01*
X151789577Y-69391300D01*
X151789579Y-69391300D01*
X151994423Y-69391300D01*
X152057846Y-69379443D01*
X152195775Y-69353660D01*
X152386785Y-69279663D01*
X152560946Y-69171827D01*
X152565952Y-69167264D01*
X152610667Y-69126500D01*
X152712326Y-69033826D01*
X152835771Y-68870358D01*
X152927077Y-68686991D01*
X152983135Y-68489968D01*
X153002035Y-68286000D01*
X152983135Y-68082032D01*
X152927077Y-67885009D01*
X152835771Y-67701642D01*
X152712326Y-67538174D01*
X152712325Y-67538173D01*
X152560955Y-67400180D01*
X152560950Y-67400176D01*
X152560946Y-67400173D01*
X152386785Y-67292337D01*
X152386781Y-67292335D01*
X152195776Y-67218340D01*
X151994423Y-67180700D01*
X151994421Y-67180700D01*
X151789579Y-67180700D01*
X151789577Y-67180700D01*
X151588223Y-67218340D01*
X151397218Y-67292335D01*
X151397214Y-67292337D01*
X151311386Y-67345480D01*
X151223054Y-67400173D01*
X151223053Y-67400174D01*
X151223044Y-67400180D01*
X151071674Y-67538173D01*
X150948227Y-67701645D01*
X150948226Y-67701646D01*
X150856924Y-67885005D01*
X150856923Y-67885006D01*
X150800864Y-68082035D01*
X150800864Y-68082036D01*
X150781965Y-68286000D01*
X149841627Y-68286000D01*
X149858935Y-68225168D01*
X149877835Y-68021200D01*
X149858935Y-67817232D01*
X149802877Y-67620209D01*
X149711571Y-67436842D01*
X149588126Y-67273374D01*
X149588125Y-67273373D01*
X149436755Y-67135380D01*
X149436750Y-67135376D01*
X149436746Y-67135373D01*
X149262585Y-67027537D01*
X149262581Y-67027535D01*
X149071576Y-66953540D01*
X148870223Y-66915900D01*
X148870221Y-66915900D01*
X148665379Y-66915900D01*
X148665377Y-66915900D01*
X148464023Y-66953540D01*
X148273018Y-67027535D01*
X148273014Y-67027537D01*
X148165178Y-67094306D01*
X148098854Y-67135373D01*
X148098853Y-67135374D01*
X148098844Y-67135380D01*
X147947474Y-67273373D01*
X147883766Y-67357737D01*
X147832387Y-67425775D01*
X147824027Y-67436845D01*
X147824026Y-67436846D01*
X147732724Y-67620205D01*
X147732723Y-67620206D01*
X147676664Y-67817235D01*
X147676664Y-67817236D01*
X147657765Y-68021200D01*
X133506965Y-68021200D01*
X134530690Y-66997475D01*
X134586087Y-66969251D01*
X134620310Y-66969725D01*
X134621018Y-66969857D01*
X134621025Y-66969860D01*
X134778345Y-66999268D01*
X134822377Y-67007500D01*
X134822379Y-67007500D01*
X135027223Y-67007500D01*
X135090646Y-66995643D01*
X135228575Y-66969860D01*
X135419585Y-66895863D01*
X135593746Y-66788027D01*
X135593967Y-66787826D01*
X135621498Y-66762727D01*
X135745126Y-66650026D01*
X135868571Y-66486558D01*
X135959877Y-66303191D01*
X136015935Y-66106168D01*
X136034835Y-65902200D01*
X136015935Y-65698232D01*
X135959877Y-65501209D01*
X135868571Y-65317842D01*
X135745126Y-65154374D01*
X135744906Y-65154173D01*
X135593755Y-65016380D01*
X135593750Y-65016376D01*
X135593746Y-65016373D01*
X135419585Y-64908537D01*
X135419581Y-64908535D01*
X135228576Y-64834540D01*
X135027223Y-64796900D01*
X135027221Y-64796900D01*
X134822379Y-64796900D01*
X134822377Y-64796900D01*
X134621023Y-64834540D01*
X134430018Y-64908535D01*
X134430014Y-64908537D01*
X134408859Y-64921636D01*
X134255854Y-65016373D01*
X134255853Y-65016374D01*
X134255844Y-65016380D01*
X134104474Y-65154373D01*
X133981027Y-65317845D01*
X133981026Y-65317846D01*
X133889724Y-65501205D01*
X133889723Y-65501206D01*
X133833664Y-65698235D01*
X133833664Y-65698236D01*
X133814765Y-65902200D01*
X133833664Y-66106167D01*
X133833665Y-66106170D01*
X133858685Y-66194106D01*
X133856387Y-66256237D01*
X133833060Y-66292771D01*
X132803023Y-67322808D01*
X132747625Y-67351034D01*
X132695548Y-67345480D01*
X132536178Y-67283741D01*
X132536177Y-67283740D01*
X132536175Y-67283740D01*
X132427411Y-67263408D01*
X132334823Y-67246100D01*
X132334821Y-67246100D01*
X132129979Y-67246100D01*
X132129976Y-67246100D01*
X131927908Y-67283873D01*
X131866253Y-67275853D01*
X131838288Y-67256121D01*
X129834767Y-65252600D01*
X131122365Y-65252600D01*
X131141264Y-65456563D01*
X131141264Y-65456564D01*
X131197323Y-65653593D01*
X131197324Y-65653594D01*
X131288626Y-65836953D01*
X131288627Y-65836954D01*
X131288629Y-65836958D01*
X131395002Y-65977819D01*
X131412074Y-66000426D01*
X131563444Y-66138419D01*
X131563448Y-66138422D01*
X131563454Y-66138427D01*
X131737615Y-66246263D01*
X131928625Y-66320260D01*
X132054697Y-66343827D01*
X132129977Y-66357900D01*
X132129979Y-66357900D01*
X132334823Y-66357900D01*
X132398246Y-66346043D01*
X132536175Y-66320260D01*
X132727185Y-66246263D01*
X132901346Y-66138427D01*
X133052726Y-66000426D01*
X133176171Y-65836958D01*
X133267477Y-65653591D01*
X133323535Y-65456568D01*
X133342435Y-65252600D01*
X133323535Y-65048632D01*
X133267477Y-64851609D01*
X133176171Y-64668242D01*
X133052726Y-64504774D01*
X133046393Y-64499001D01*
X132901355Y-64366780D01*
X132901350Y-64366776D01*
X132901346Y-64366773D01*
X132727185Y-64258937D01*
X132727181Y-64258935D01*
X132536176Y-64184940D01*
X132334823Y-64147300D01*
X132334821Y-64147300D01*
X132129979Y-64147300D01*
X132129977Y-64147300D01*
X131928623Y-64184940D01*
X131737618Y-64258935D01*
X131737614Y-64258937D01*
X131629778Y-64325706D01*
X131563454Y-64366773D01*
X131563453Y-64366774D01*
X131563444Y-64366780D01*
X131412074Y-64504773D01*
X131288627Y-64668245D01*
X131288626Y-64668246D01*
X131197324Y-64851605D01*
X131197323Y-64851606D01*
X131141264Y-65048635D01*
X131141264Y-65048636D01*
X131122365Y-65252600D01*
X129834767Y-65252600D01*
X125190791Y-60608624D01*
X125177297Y-60591879D01*
X125173424Y-60585853D01*
X125135661Y-60553131D01*
X125130405Y-60548238D01*
X125120385Y-60538218D01*
X125120384Y-60538217D01*
X125109036Y-60529722D01*
X125103462Y-60525230D01*
X125065678Y-60492490D01*
X125059153Y-60489510D01*
X125040665Y-60478540D01*
X125034926Y-60474244D01*
X124988099Y-60456779D01*
X124981464Y-60454031D01*
X124935993Y-60433265D01*
X124935991Y-60433264D01*
X124928895Y-60432243D01*
X124908056Y-60426924D01*
X124901347Y-60424421D01*
X124851478Y-60420854D01*
X124844346Y-60420087D01*
X124842308Y-60419794D01*
X124830329Y-60418072D01*
X124830326Y-60418072D01*
X124816163Y-60418072D01*
X124808987Y-60417816D01*
X124759139Y-60414251D01*
X124759138Y-60414251D01*
X124752133Y-60415774D01*
X124730758Y-60418072D01*
X123136909Y-60418072D01*
X123077778Y-60398859D01*
X123065774Y-60388607D01*
X121732167Y-59055000D01*
X122486365Y-59055000D01*
X122505264Y-59258963D01*
X122505264Y-59258964D01*
X122561323Y-59455993D01*
X122561324Y-59455994D01*
X122652626Y-59639353D01*
X122652627Y-59639354D01*
X122652629Y-59639358D01*
X122759111Y-59780363D01*
X122776074Y-59802826D01*
X122927444Y-59940819D01*
X122927448Y-59940822D01*
X122927454Y-59940827D01*
X123101615Y-60048663D01*
X123292625Y-60122660D01*
X123418697Y-60146227D01*
X123493977Y-60160300D01*
X123493979Y-60160300D01*
X123698823Y-60160300D01*
X123762246Y-60148443D01*
X123900175Y-60122660D01*
X124091185Y-60048663D01*
X124265346Y-59940827D01*
X124416726Y-59802826D01*
X124540171Y-59639358D01*
X124588123Y-59543056D01*
X124631677Y-59498691D01*
X124678175Y-59487300D01*
X128201665Y-59487300D01*
X128260796Y-59506513D01*
X128272800Y-59516765D01*
X130340753Y-61584718D01*
X130368979Y-61640116D01*
X130359672Y-61700693D01*
X130333724Y-61752804D01*
X130333723Y-61752806D01*
X130277664Y-61949835D01*
X130277664Y-61949836D01*
X130258765Y-62153800D01*
X130277664Y-62357763D01*
X130277664Y-62357764D01*
X130333723Y-62554793D01*
X130333724Y-62554794D01*
X130425026Y-62738153D01*
X130425027Y-62738154D01*
X130425029Y-62738158D01*
X130548474Y-62901626D01*
X130699844Y-63039619D01*
X130699848Y-63039622D01*
X130699854Y-63039627D01*
X130874015Y-63147463D01*
X131065025Y-63221460D01*
X131175128Y-63242042D01*
X131266377Y-63259100D01*
X131266379Y-63259100D01*
X131471223Y-63259100D01*
X131539090Y-63246413D01*
X131672575Y-63221460D01*
X131863585Y-63147463D01*
X132037746Y-63039627D01*
X132189126Y-62901626D01*
X132312571Y-62738158D01*
X132360523Y-62641856D01*
X132404077Y-62597491D01*
X132450575Y-62586100D01*
X134805665Y-62586100D01*
X134864796Y-62605313D01*
X134876800Y-62615565D01*
X136926352Y-64665117D01*
X136954578Y-64720515D01*
X136951977Y-64763782D01*
X136907064Y-64921635D01*
X136907064Y-64921636D01*
X136888165Y-65125600D01*
X136907064Y-65329563D01*
X136907064Y-65329564D01*
X136963123Y-65526593D01*
X136963124Y-65526594D01*
X137054426Y-65709953D01*
X137054427Y-65709954D01*
X137054429Y-65709958D01*
X137150331Y-65836953D01*
X137177874Y-65873426D01*
X137329244Y-66011419D01*
X137329248Y-66011422D01*
X137329254Y-66011427D01*
X137503415Y-66119263D01*
X137694425Y-66193260D01*
X137820497Y-66216827D01*
X137895777Y-66230900D01*
X137895779Y-66230900D01*
X138100623Y-66230900D01*
X138164046Y-66219043D01*
X138301975Y-66193260D01*
X138492985Y-66119263D01*
X138667146Y-66011427D01*
X138818526Y-65873426D01*
X138941971Y-65709958D01*
X139033277Y-65526591D01*
X139089335Y-65329568D01*
X139098746Y-65228000D01*
X157499594Y-65228000D01*
X157519969Y-65434878D01*
X157580314Y-65633804D01*
X157678300Y-65817123D01*
X157678305Y-65817130D01*
X157810180Y-65977820D01*
X157966575Y-66106170D01*
X157970869Y-66109694D01*
X157970876Y-66109699D01*
X158154195Y-66207685D01*
X158154197Y-66207685D01*
X158154200Y-66207687D01*
X158281370Y-66246264D01*
X158353121Y-66268030D01*
X158353122Y-66268030D01*
X158353125Y-66268031D01*
X158560000Y-66288406D01*
X158766875Y-66268031D01*
X158965800Y-66207687D01*
X158965804Y-66207685D01*
X159149123Y-66109699D01*
X159149124Y-66109697D01*
X159149130Y-66109695D01*
X159309820Y-65977820D01*
X159441695Y-65817130D01*
X159471279Y-65761781D01*
X159516097Y-65718691D01*
X159577684Y-65710172D01*
X159632517Y-65739480D01*
X159648719Y-65761779D01*
X159678305Y-65817130D01*
X159810180Y-65977820D01*
X159966575Y-66106170D01*
X159970869Y-66109694D01*
X159970876Y-66109699D01*
X160154195Y-66207685D01*
X160154197Y-66207685D01*
X160154200Y-66207687D01*
X160281370Y-66246264D01*
X160353121Y-66268030D01*
X160353122Y-66268030D01*
X160353125Y-66268031D01*
X160560000Y-66288406D01*
X160766875Y-66268031D01*
X160965800Y-66207687D01*
X160965804Y-66207685D01*
X161149123Y-66109699D01*
X161149124Y-66109697D01*
X161149130Y-66109695D01*
X161309820Y-65977820D01*
X161441695Y-65817130D01*
X161471279Y-65761781D01*
X161516097Y-65718691D01*
X161577684Y-65710172D01*
X161632517Y-65739480D01*
X161648719Y-65761779D01*
X161678305Y-65817130D01*
X161810180Y-65977820D01*
X161966575Y-66106170D01*
X161970869Y-66109694D01*
X161970876Y-66109699D01*
X162154195Y-66207685D01*
X162154197Y-66207685D01*
X162154200Y-66207687D01*
X162281370Y-66246264D01*
X162353121Y-66268030D01*
X162353122Y-66268030D01*
X162353125Y-66268031D01*
X162560000Y-66288406D01*
X162766875Y-66268031D01*
X162965800Y-66207687D01*
X162965804Y-66207685D01*
X163149123Y-66109699D01*
X163149124Y-66109697D01*
X163149130Y-66109695D01*
X163309820Y-65977820D01*
X163441695Y-65817130D01*
X163471279Y-65761781D01*
X163516097Y-65718691D01*
X163577684Y-65710172D01*
X163632517Y-65739480D01*
X163648719Y-65761779D01*
X163678305Y-65817130D01*
X163810180Y-65977820D01*
X163966575Y-66106170D01*
X163970869Y-66109694D01*
X163970876Y-66109699D01*
X164154195Y-66207685D01*
X164154197Y-66207685D01*
X164154200Y-66207687D01*
X164281370Y-66246264D01*
X164353121Y-66268030D01*
X164353122Y-66268030D01*
X164353125Y-66268031D01*
X164560000Y-66288406D01*
X164766875Y-66268031D01*
X164965800Y-66207687D01*
X164965804Y-66207685D01*
X165149123Y-66109699D01*
X165149124Y-66109697D01*
X165149130Y-66109695D01*
X165309820Y-65977820D01*
X165441695Y-65817130D01*
X165471279Y-65761781D01*
X165516097Y-65718691D01*
X165577684Y-65710172D01*
X165632517Y-65739480D01*
X165648719Y-65761779D01*
X165678305Y-65817130D01*
X165810180Y-65977820D01*
X165966575Y-66106170D01*
X165970869Y-66109694D01*
X165970876Y-66109699D01*
X166154195Y-66207685D01*
X166154197Y-66207685D01*
X166154200Y-66207687D01*
X166281370Y-66246264D01*
X166353121Y-66268030D01*
X166353122Y-66268030D01*
X166353125Y-66268031D01*
X166560000Y-66288406D01*
X166766875Y-66268031D01*
X166965800Y-66207687D01*
X166965804Y-66207685D01*
X167149123Y-66109699D01*
X167149124Y-66109697D01*
X167149130Y-66109695D01*
X167309820Y-65977820D01*
X167441695Y-65817130D01*
X167498983Y-65709953D01*
X167539685Y-65633804D01*
X167539685Y-65633803D01*
X167539687Y-65633800D01*
X167600031Y-65434875D01*
X167620406Y-65228000D01*
X167600031Y-65021125D01*
X167598589Y-65016373D01*
X167539685Y-64822195D01*
X167441699Y-64638876D01*
X167441694Y-64638869D01*
X167390435Y-64576410D01*
X167309820Y-64478180D01*
X167149130Y-64346305D01*
X167149123Y-64346300D01*
X166965804Y-64248314D01*
X166766878Y-64187969D01*
X166560000Y-64167594D01*
X166353121Y-64187969D01*
X166154195Y-64248314D01*
X165970876Y-64346300D01*
X165970869Y-64346305D01*
X165810180Y-64478180D01*
X165678305Y-64638869D01*
X165678302Y-64638873D01*
X165648721Y-64694217D01*
X165603903Y-64737309D01*
X165542315Y-64745827D01*
X165487482Y-64716519D01*
X165471279Y-64694217D01*
X165441697Y-64638873D01*
X165441694Y-64638869D01*
X165390435Y-64576410D01*
X165309820Y-64478180D01*
X165149130Y-64346305D01*
X165149123Y-64346300D01*
X164965804Y-64248314D01*
X164766878Y-64187969D01*
X164560000Y-64167594D01*
X164353121Y-64187969D01*
X164154195Y-64248314D01*
X163970876Y-64346300D01*
X163970869Y-64346305D01*
X163810180Y-64478180D01*
X163678305Y-64638869D01*
X163678302Y-64638873D01*
X163648721Y-64694217D01*
X163603903Y-64737309D01*
X163542315Y-64745827D01*
X163487482Y-64716519D01*
X163471279Y-64694217D01*
X163441697Y-64638873D01*
X163441694Y-64638869D01*
X163390435Y-64576410D01*
X163309820Y-64478180D01*
X163149130Y-64346305D01*
X163149123Y-64346300D01*
X162965804Y-64248314D01*
X162766878Y-64187969D01*
X162560000Y-64167594D01*
X162353121Y-64187969D01*
X162154195Y-64248314D01*
X161970876Y-64346300D01*
X161970869Y-64346305D01*
X161810180Y-64478180D01*
X161678305Y-64638869D01*
X161678302Y-64638873D01*
X161648721Y-64694217D01*
X161603903Y-64737309D01*
X161542315Y-64745827D01*
X161487482Y-64716519D01*
X161471279Y-64694217D01*
X161441697Y-64638873D01*
X161441694Y-64638869D01*
X161390435Y-64576410D01*
X161309820Y-64478180D01*
X161149130Y-64346305D01*
X161149123Y-64346300D01*
X160965804Y-64248314D01*
X160766878Y-64187969D01*
X160560000Y-64167594D01*
X160353121Y-64187969D01*
X160154195Y-64248314D01*
X159970876Y-64346300D01*
X159970869Y-64346305D01*
X159810180Y-64478180D01*
X159678305Y-64638869D01*
X159678302Y-64638873D01*
X159648721Y-64694217D01*
X159603903Y-64737309D01*
X159542315Y-64745827D01*
X159487482Y-64716519D01*
X159471279Y-64694217D01*
X159441697Y-64638873D01*
X159441694Y-64638869D01*
X159390435Y-64576410D01*
X159309820Y-64478180D01*
X159149130Y-64346305D01*
X159149123Y-64346300D01*
X158965804Y-64248314D01*
X158766878Y-64187969D01*
X158560000Y-64167594D01*
X158353121Y-64187969D01*
X158154195Y-64248314D01*
X157970876Y-64346300D01*
X157970869Y-64346305D01*
X157810180Y-64478180D01*
X157678305Y-64638869D01*
X157678300Y-64638876D01*
X157580314Y-64822195D01*
X157519969Y-65021121D01*
X157499594Y-65228000D01*
X139098746Y-65228000D01*
X139108235Y-65125600D01*
X139089335Y-64921632D01*
X139033277Y-64724609D01*
X138941971Y-64541242D01*
X138818526Y-64377774D01*
X138814052Y-64373695D01*
X138667155Y-64239780D01*
X138667150Y-64239776D01*
X138667146Y-64239773D01*
X138492985Y-64131937D01*
X138492981Y-64131935D01*
X138301976Y-64057940D01*
X138118086Y-64023564D01*
X138063492Y-63993812D01*
X138036812Y-63937653D01*
X138048237Y-63876538D01*
X138093403Y-63833810D01*
X138118082Y-63825791D01*
X138225775Y-63805660D01*
X138416785Y-63731663D01*
X138590946Y-63623827D01*
X138742326Y-63485826D01*
X138865771Y-63322358D01*
X138957077Y-63138991D01*
X139013135Y-62941968D01*
X139032035Y-62738000D01*
X144431965Y-62738000D01*
X144450864Y-62941963D01*
X144450864Y-62941964D01*
X144450864Y-62941967D01*
X144450865Y-62941968D01*
X144461811Y-62980442D01*
X144506923Y-63138993D01*
X144506924Y-63138994D01*
X144598226Y-63322353D01*
X144598227Y-63322354D01*
X144598229Y-63322358D01*
X144700431Y-63457695D01*
X144721674Y-63485826D01*
X144873044Y-63623819D01*
X144873048Y-63623822D01*
X144873054Y-63623827D01*
X145047215Y-63731663D01*
X145238225Y-63805660D01*
X145345910Y-63825790D01*
X145439577Y-63843300D01*
X145439579Y-63843300D01*
X145644423Y-63843300D01*
X145707846Y-63831443D01*
X145845775Y-63805660D01*
X146036785Y-63731663D01*
X146210946Y-63623827D01*
X146362326Y-63485826D01*
X146485771Y-63322358D01*
X146503875Y-63286000D01*
X150781965Y-63286000D01*
X150800864Y-63489963D01*
X150800864Y-63489964D01*
X150856923Y-63686993D01*
X150856924Y-63686994D01*
X150948226Y-63870353D01*
X150948227Y-63870354D01*
X150948229Y-63870358D01*
X150999048Y-63937653D01*
X151071674Y-64033826D01*
X151223044Y-64171819D01*
X151223048Y-64171822D01*
X151223054Y-64171827D01*
X151397215Y-64279663D01*
X151588225Y-64353660D01*
X151712750Y-64376938D01*
X151789577Y-64391300D01*
X151789579Y-64391300D01*
X151994423Y-64391300D01*
X152066783Y-64377773D01*
X152195775Y-64353660D01*
X152386785Y-64279663D01*
X152560946Y-64171827D01*
X152565590Y-64167594D01*
X152643488Y-64096580D01*
X152712326Y-64033826D01*
X152835771Y-63870358D01*
X152927077Y-63686991D01*
X152983135Y-63489968D01*
X153002035Y-63286000D01*
X152983135Y-63082032D01*
X152927077Y-62885009D01*
X152848896Y-62728000D01*
X157499594Y-62728000D01*
X157519969Y-62934878D01*
X157580314Y-63133804D01*
X157678300Y-63317123D01*
X157678305Y-63317130D01*
X157810180Y-63477820D01*
X157970869Y-63609694D01*
X157970876Y-63609699D01*
X158154195Y-63707685D01*
X158154197Y-63707685D01*
X158154200Y-63707687D01*
X158233241Y-63731664D01*
X158353121Y-63768030D01*
X158353122Y-63768030D01*
X158353125Y-63768031D01*
X158560000Y-63788406D01*
X158766875Y-63768031D01*
X158965800Y-63707687D01*
X158965804Y-63707685D01*
X159149123Y-63609699D01*
X159149124Y-63609697D01*
X159149130Y-63609695D01*
X159254072Y-63523571D01*
X160204700Y-63523571D01*
X160204701Y-63523586D01*
X160207662Y-63549108D01*
X160207662Y-63549111D01*
X160253765Y-63653524D01*
X160253766Y-63653525D01*
X160334475Y-63734234D01*
X160438891Y-63780338D01*
X160464421Y-63783300D01*
X162055578Y-63783299D01*
X162081109Y-63780338D01*
X162185525Y-63734234D01*
X162266234Y-63653525D01*
X162312338Y-63549109D01*
X162315300Y-63523579D01*
X162315299Y-63521532D01*
X162315443Y-63521090D01*
X162315467Y-63520685D01*
X162315573Y-63520691D01*
X162334500Y-63462401D01*
X162384793Y-63425846D01*
X162446967Y-63425833D01*
X162493663Y-63457695D01*
X162510178Y-63477818D01*
X162510180Y-63477820D01*
X162565938Y-63523579D01*
X162670869Y-63609694D01*
X162670876Y-63609699D01*
X162854195Y-63707685D01*
X162854197Y-63707685D01*
X162854200Y-63707687D01*
X162933241Y-63731664D01*
X163053121Y-63768030D01*
X163053122Y-63768030D01*
X163053125Y-63768031D01*
X163260000Y-63788406D01*
X163466875Y-63768031D01*
X163665800Y-63707687D01*
X163665804Y-63707685D01*
X163849123Y-63609699D01*
X163849124Y-63609697D01*
X163849130Y-63609695D01*
X164009820Y-63477820D01*
X164141695Y-63317130D01*
X164158335Y-63286000D01*
X164239685Y-63133804D01*
X164239685Y-63133803D01*
X164239687Y-63133800D01*
X164300031Y-62934875D01*
X164320406Y-62728000D01*
X165499594Y-62728000D01*
X165519969Y-62934878D01*
X165580314Y-63133804D01*
X165678300Y-63317123D01*
X165678305Y-63317130D01*
X165810180Y-63477820D01*
X165970869Y-63609694D01*
X165970876Y-63609699D01*
X166154195Y-63707685D01*
X166154197Y-63707685D01*
X166154200Y-63707687D01*
X166233241Y-63731664D01*
X166353121Y-63768030D01*
X166353122Y-63768030D01*
X166353125Y-63768031D01*
X166560000Y-63788406D01*
X166766875Y-63768031D01*
X166965800Y-63707687D01*
X166965804Y-63707685D01*
X167149123Y-63609699D01*
X167149124Y-63609697D01*
X167149130Y-63609695D01*
X167309820Y-63477820D01*
X167441695Y-63317130D01*
X167458335Y-63286000D01*
X167539685Y-63133804D01*
X167539685Y-63133803D01*
X167539687Y-63133800D01*
X167600031Y-62934875D01*
X167620406Y-62728000D01*
X167600031Y-62521125D01*
X167539687Y-62322200D01*
X167539685Y-62322197D01*
X167539685Y-62322195D01*
X167441699Y-62138876D01*
X167441694Y-62138869D01*
X167353845Y-62031825D01*
X167309820Y-61978180D01*
X167149130Y-61846305D01*
X167149123Y-61846300D01*
X166965804Y-61748314D01*
X166766878Y-61687969D01*
X166560000Y-61667594D01*
X166353121Y-61687969D01*
X166154195Y-61748314D01*
X165970876Y-61846300D01*
X165970869Y-61846305D01*
X165810180Y-61978180D01*
X165678305Y-62138869D01*
X165678300Y-62138876D01*
X165580314Y-62322195D01*
X165519969Y-62521121D01*
X165499594Y-62728000D01*
X164320406Y-62728000D01*
X164300031Y-62521125D01*
X164239687Y-62322200D01*
X164239685Y-62322197D01*
X164239685Y-62322195D01*
X164141699Y-62138876D01*
X164141694Y-62138869D01*
X164053845Y-62031825D01*
X164009820Y-61978180D01*
X163849130Y-61846305D01*
X163849123Y-61846300D01*
X163665804Y-61748314D01*
X163466878Y-61687969D01*
X163260000Y-61667594D01*
X163053121Y-61687969D01*
X162854195Y-61748314D01*
X162670876Y-61846300D01*
X162670869Y-61846305D01*
X162510179Y-61978180D01*
X162510178Y-61978181D01*
X162493663Y-61998305D01*
X162441298Y-62031825D01*
X162379232Y-62028164D01*
X162331171Y-61988720D01*
X162315542Y-61935314D01*
X162315466Y-61935319D01*
X162315446Y-61934989D01*
X162315299Y-61934484D01*
X162315299Y-61932428D01*
X162315298Y-61932418D01*
X162312338Y-61906891D01*
X162304156Y-61888361D01*
X162266234Y-61802475D01*
X162185524Y-61721765D01*
X162081110Y-61675662D01*
X162055579Y-61672700D01*
X160464428Y-61672700D01*
X160464413Y-61672701D01*
X160438891Y-61675662D01*
X160438888Y-61675662D01*
X160334475Y-61721765D01*
X160253765Y-61802475D01*
X160207662Y-61906888D01*
X160207662Y-61906889D01*
X160204700Y-61932418D01*
X160204700Y-63523571D01*
X159254072Y-63523571D01*
X159309820Y-63477820D01*
X159441695Y-63317130D01*
X159458335Y-63286000D01*
X159539685Y-63133804D01*
X159539685Y-63133803D01*
X159539687Y-63133800D01*
X159600031Y-62934875D01*
X159620406Y-62728000D01*
X159600031Y-62521125D01*
X159539687Y-62322200D01*
X159539685Y-62322197D01*
X159539685Y-62322195D01*
X159441699Y-62138876D01*
X159441694Y-62138869D01*
X159353845Y-62031825D01*
X159309820Y-61978180D01*
X159149130Y-61846305D01*
X159149123Y-61846300D01*
X158965804Y-61748314D01*
X158766878Y-61687969D01*
X158560000Y-61667594D01*
X158353121Y-61687969D01*
X158154195Y-61748314D01*
X157970876Y-61846300D01*
X157970869Y-61846305D01*
X157810180Y-61978180D01*
X157678305Y-62138869D01*
X157678300Y-62138876D01*
X157580314Y-62322195D01*
X157519969Y-62521121D01*
X157499594Y-62728000D01*
X152848896Y-62728000D01*
X152835771Y-62701642D01*
X152712326Y-62538174D01*
X152707786Y-62534035D01*
X152560955Y-62400180D01*
X152560950Y-62400176D01*
X152560946Y-62400173D01*
X152386785Y-62292337D01*
X152386781Y-62292335D01*
X152195776Y-62218340D01*
X151994423Y-62180700D01*
X151994421Y-62180700D01*
X151789579Y-62180700D01*
X151789577Y-62180700D01*
X151588223Y-62218340D01*
X151397218Y-62292335D01*
X151397214Y-62292337D01*
X151325072Y-62337006D01*
X151223054Y-62400173D01*
X151223053Y-62400174D01*
X151223044Y-62400180D01*
X151071674Y-62538173D01*
X151011116Y-62618366D01*
X150950027Y-62699262D01*
X150948227Y-62701645D01*
X150948226Y-62701646D01*
X150856924Y-62885005D01*
X150856923Y-62885006D01*
X150800864Y-63082035D01*
X150800864Y-63082036D01*
X150781965Y-63286000D01*
X146503875Y-63286000D01*
X146577077Y-63138991D01*
X146633135Y-62941968D01*
X146652035Y-62738000D01*
X146633135Y-62534032D01*
X146577077Y-62337009D01*
X146485771Y-62153642D01*
X146362326Y-61990174D01*
X146349169Y-61978180D01*
X146210955Y-61852180D01*
X146210950Y-61852176D01*
X146210946Y-61852173D01*
X146036785Y-61744337D01*
X146036781Y-61744335D01*
X145845776Y-61670340D01*
X145644423Y-61632700D01*
X145644421Y-61632700D01*
X145439579Y-61632700D01*
X145439577Y-61632700D01*
X145238223Y-61670340D01*
X145047218Y-61744335D01*
X145047214Y-61744337D01*
X144953319Y-61802475D01*
X144873054Y-61852173D01*
X144873053Y-61852174D01*
X144873044Y-61852180D01*
X144721674Y-61990173D01*
X144598227Y-62153645D01*
X144598226Y-62153646D01*
X144506924Y-62337005D01*
X144506923Y-62337006D01*
X144450864Y-62534035D01*
X144450864Y-62534036D01*
X144431965Y-62738000D01*
X139032035Y-62738000D01*
X139013135Y-62534032D01*
X138957077Y-62337009D01*
X138865771Y-62153642D01*
X138742326Y-61990174D01*
X138729169Y-61978180D01*
X138590955Y-61852180D01*
X138590950Y-61852176D01*
X138590946Y-61852173D01*
X138416785Y-61744337D01*
X138416781Y-61744335D01*
X138225776Y-61670340D01*
X138024423Y-61632700D01*
X138024421Y-61632700D01*
X137819579Y-61632700D01*
X137819577Y-61632700D01*
X137618223Y-61670340D01*
X137427218Y-61744335D01*
X137427214Y-61744337D01*
X137333319Y-61802475D01*
X137253054Y-61852173D01*
X137253053Y-61852174D01*
X137253044Y-61852180D01*
X137101674Y-61990173D01*
X136978227Y-62153645D01*
X136978226Y-62153646D01*
X136886924Y-62337005D01*
X136886923Y-62337006D01*
X136830864Y-62534035D01*
X136830864Y-62534036D01*
X136811965Y-62738000D01*
X136830864Y-62941963D01*
X136830864Y-62941964D01*
X136830864Y-62941967D01*
X136830865Y-62941968D01*
X136841211Y-62978332D01*
X136885891Y-63135366D01*
X136883593Y-63197498D01*
X136845214Y-63246413D01*
X136785413Y-63263427D01*
X136727032Y-63242042D01*
X136717996Y-63234031D01*
X135353244Y-61869279D01*
X135345727Y-61860867D01*
X135323762Y-61833324D01*
X135323757Y-61833320D01*
X135278153Y-61802227D01*
X135275087Y-61800051D01*
X135230683Y-61767280D01*
X135224014Y-61763755D01*
X135224251Y-61763304D01*
X135223099Y-61762723D01*
X135222879Y-61763182D01*
X135216090Y-61759912D01*
X135165595Y-61744337D01*
X135163367Y-61743649D01*
X135159801Y-61742476D01*
X135107680Y-61724238D01*
X135100273Y-61722837D01*
X135100367Y-61722338D01*
X135099084Y-61722120D01*
X135099009Y-61722623D01*
X135091559Y-61721500D01*
X135036382Y-61721500D01*
X135032621Y-61721430D01*
X134977451Y-61719365D01*
X134969964Y-61720210D01*
X134969906Y-61719701D01*
X134956243Y-61721500D01*
X132450575Y-61721500D01*
X132391444Y-61702287D01*
X132360524Y-61665744D01*
X132312571Y-61569442D01*
X132189126Y-61405974D01*
X132179324Y-61397038D01*
X132037755Y-61267980D01*
X132037750Y-61267976D01*
X132037746Y-61267973D01*
X131863585Y-61160137D01*
X131863581Y-61160135D01*
X131672576Y-61086140D01*
X131471223Y-61048500D01*
X131471221Y-61048500D01*
X131266379Y-61048500D01*
X131266377Y-61048500D01*
X131117049Y-61076415D01*
X131055394Y-61068395D01*
X131027428Y-61048663D01*
X129033765Y-59055000D01*
X130106365Y-59055000D01*
X130125264Y-59258963D01*
X130125264Y-59258964D01*
X130181323Y-59455993D01*
X130181324Y-59455994D01*
X130272626Y-59639353D01*
X130272627Y-59639354D01*
X130272629Y-59639358D01*
X130379111Y-59780363D01*
X130396074Y-59802826D01*
X130547444Y-59940819D01*
X130547448Y-59940822D01*
X130547454Y-59940827D01*
X130721615Y-60048663D01*
X130912625Y-60122660D01*
X131038697Y-60146227D01*
X131113977Y-60160300D01*
X131113979Y-60160300D01*
X131318823Y-60160300D01*
X131382246Y-60148443D01*
X131520175Y-60122660D01*
X131626239Y-60081571D01*
X134687300Y-60081571D01*
X134687301Y-60081586D01*
X134690262Y-60107108D01*
X134690262Y-60107111D01*
X134736365Y-60211524D01*
X134736366Y-60211525D01*
X134817075Y-60292234D01*
X134921491Y-60338338D01*
X134947021Y-60341300D01*
X136238178Y-60341299D01*
X136263709Y-60338338D01*
X136368125Y-60292234D01*
X136448834Y-60211525D01*
X136494938Y-60107109D01*
X136497900Y-60081579D01*
X136497900Y-59690000D01*
X136811965Y-59690000D01*
X136830864Y-59893963D01*
X136830864Y-59893964D01*
X136886923Y-60090993D01*
X136886924Y-60090994D01*
X136978226Y-60274353D01*
X136978227Y-60274354D01*
X136978229Y-60274358D01*
X137097459Y-60432244D01*
X137101674Y-60437826D01*
X137253044Y-60575819D01*
X137253048Y-60575822D01*
X137253054Y-60575827D01*
X137427215Y-60683663D01*
X137618225Y-60757660D01*
X137744297Y-60781227D01*
X137819577Y-60795300D01*
X137819579Y-60795300D01*
X138024423Y-60795300D01*
X138087846Y-60783443D01*
X138225775Y-60757660D01*
X138416785Y-60683663D01*
X138590946Y-60575827D01*
X138742326Y-60437826D01*
X138865771Y-60274358D01*
X138957077Y-60090991D01*
X139013135Y-59893968D01*
X139032035Y-59690000D01*
X144431965Y-59690000D01*
X144450864Y-59893963D01*
X144450864Y-59893964D01*
X144506923Y-60090993D01*
X144506924Y-60090994D01*
X144598226Y-60274353D01*
X144598227Y-60274354D01*
X144598229Y-60274358D01*
X144717459Y-60432244D01*
X144721674Y-60437826D01*
X144873044Y-60575819D01*
X144873048Y-60575822D01*
X144873054Y-60575827D01*
X145047215Y-60683663D01*
X145238225Y-60757660D01*
X145364297Y-60781227D01*
X145439577Y-60795300D01*
X145439579Y-60795300D01*
X145644423Y-60795300D01*
X145707846Y-60783443D01*
X145845775Y-60757660D01*
X146036785Y-60683663D01*
X146210946Y-60575827D01*
X146362326Y-60437826D01*
X146389985Y-60401200D01*
X147657765Y-60401200D01*
X147676664Y-60605163D01*
X147676664Y-60605164D01*
X147732723Y-60802193D01*
X147732724Y-60802194D01*
X147824026Y-60985553D01*
X147824027Y-60985554D01*
X147824029Y-60985558D01*
X147892641Y-61076415D01*
X147947474Y-61149026D01*
X148098844Y-61287019D01*
X148098848Y-61287022D01*
X148098854Y-61287027D01*
X148273015Y-61394863D01*
X148464025Y-61468860D01*
X148590097Y-61492427D01*
X148665377Y-61506500D01*
X148665379Y-61506500D01*
X148870223Y-61506500D01*
X148933646Y-61494643D01*
X149071575Y-61468860D01*
X149262585Y-61394863D01*
X149436746Y-61287027D01*
X149444999Y-61279504D01*
X149511236Y-61219120D01*
X149588126Y-61149026D01*
X149711571Y-60985558D01*
X149802877Y-60802191D01*
X149858935Y-60605168D01*
X149877835Y-60401200D01*
X149858935Y-60197232D01*
X149802877Y-60000209D01*
X149711571Y-59816842D01*
X149588126Y-59653374D01*
X149572746Y-59639353D01*
X149436755Y-59515380D01*
X149436750Y-59515376D01*
X149436746Y-59515373D01*
X149262585Y-59407537D01*
X149262581Y-59407535D01*
X149071576Y-59333540D01*
X148870223Y-59295900D01*
X148870221Y-59295900D01*
X148665379Y-59295900D01*
X148665377Y-59295900D01*
X148464023Y-59333540D01*
X148273018Y-59407535D01*
X148273014Y-59407537D01*
X148194759Y-59455991D01*
X148098854Y-59515373D01*
X148098853Y-59515374D01*
X148098844Y-59515380D01*
X147947474Y-59653373D01*
X147919815Y-59690000D01*
X147834614Y-59802826D01*
X147824027Y-59816845D01*
X147824026Y-59816846D01*
X147732724Y-60000205D01*
X147732723Y-60000206D01*
X147676664Y-60197235D01*
X147676664Y-60197236D01*
X147657765Y-60401200D01*
X146389985Y-60401200D01*
X146485771Y-60274358D01*
X146577077Y-60090991D01*
X146633135Y-59893968D01*
X146652035Y-59690000D01*
X146633135Y-59486032D01*
X146577077Y-59289009D01*
X146485771Y-59105642D01*
X146362326Y-58942174D01*
X146361565Y-58941480D01*
X146210955Y-58804180D01*
X146210950Y-58804176D01*
X146210946Y-58804173D01*
X146036785Y-58696337D01*
X146036781Y-58696335D01*
X145845776Y-58622340D01*
X145644423Y-58584700D01*
X145644421Y-58584700D01*
X145439579Y-58584700D01*
X145439577Y-58584700D01*
X145238223Y-58622340D01*
X145047218Y-58696335D01*
X145047214Y-58696337D01*
X144978003Y-58739191D01*
X144873054Y-58804173D01*
X144873053Y-58804174D01*
X144873044Y-58804180D01*
X144721674Y-58942173D01*
X144598227Y-59105645D01*
X144598226Y-59105646D01*
X144506924Y-59289005D01*
X144506923Y-59289006D01*
X144450864Y-59486035D01*
X144450864Y-59486036D01*
X144431965Y-59690000D01*
X139032035Y-59690000D01*
X139013135Y-59486032D01*
X138957077Y-59289009D01*
X138865771Y-59105642D01*
X138742326Y-58942174D01*
X138741565Y-58941480D01*
X138590955Y-58804180D01*
X138590950Y-58804176D01*
X138590946Y-58804173D01*
X138416785Y-58696337D01*
X138416781Y-58696335D01*
X138225776Y-58622340D01*
X138024423Y-58584700D01*
X138024421Y-58584700D01*
X137819579Y-58584700D01*
X137819577Y-58584700D01*
X137618223Y-58622340D01*
X137427218Y-58696335D01*
X137427214Y-58696337D01*
X137358003Y-58739191D01*
X137253054Y-58804173D01*
X137253053Y-58804174D01*
X137253044Y-58804180D01*
X137101674Y-58942173D01*
X136978227Y-59105645D01*
X136978226Y-59105646D01*
X136886924Y-59289005D01*
X136886923Y-59289006D01*
X136830864Y-59486035D01*
X136830864Y-59486036D01*
X136811965Y-59690000D01*
X136497900Y-59690000D01*
X136497899Y-58790422D01*
X136494938Y-58764891D01*
X136491492Y-58757087D01*
X136448834Y-58660475D01*
X136368124Y-58579765D01*
X136263710Y-58533662D01*
X136238179Y-58530700D01*
X134947028Y-58530700D01*
X134947013Y-58530701D01*
X134921491Y-58533662D01*
X134921488Y-58533662D01*
X134817075Y-58579765D01*
X134736365Y-58660475D01*
X134690262Y-58764888D01*
X134690262Y-58764889D01*
X134687300Y-58790418D01*
X134687300Y-60081571D01*
X131626239Y-60081571D01*
X131711185Y-60048663D01*
X131885346Y-59940827D01*
X132036726Y-59802826D01*
X132160171Y-59639358D01*
X132251477Y-59455991D01*
X132307535Y-59258968D01*
X132326435Y-59055000D01*
X132307535Y-58851032D01*
X132251477Y-58654009D01*
X132160171Y-58470642D01*
X132036726Y-58307174D01*
X132036725Y-58307173D01*
X131885355Y-58169180D01*
X131885350Y-58169176D01*
X131885346Y-58169173D01*
X131711185Y-58061337D01*
X131711181Y-58061335D01*
X131520176Y-57987340D01*
X131318823Y-57949700D01*
X131318821Y-57949700D01*
X131113979Y-57949700D01*
X131113977Y-57949700D01*
X130912623Y-57987340D01*
X130721618Y-58061335D01*
X130721614Y-58061337D01*
X130613778Y-58128106D01*
X130547454Y-58169173D01*
X130547453Y-58169174D01*
X130547444Y-58169180D01*
X130396074Y-58307173D01*
X130326065Y-58399881D01*
X130272897Y-58470288D01*
X130272627Y-58470645D01*
X130272626Y-58470646D01*
X130181324Y-58654005D01*
X130181323Y-58654006D01*
X130125264Y-58851035D01*
X130125264Y-58851036D01*
X130106365Y-59055000D01*
X129033765Y-59055000D01*
X128749244Y-58770479D01*
X128741727Y-58762067D01*
X128719762Y-58734524D01*
X128719757Y-58734520D01*
X128674153Y-58703427D01*
X128671087Y-58701251D01*
X128626683Y-58668480D01*
X128620014Y-58664955D01*
X128620251Y-58664504D01*
X128619099Y-58663923D01*
X128618879Y-58664382D01*
X128612090Y-58661112D01*
X128559374Y-58644852D01*
X128555801Y-58643676D01*
X128503680Y-58625438D01*
X128496273Y-58624037D01*
X128496367Y-58623538D01*
X128495084Y-58623320D01*
X128495009Y-58623823D01*
X128487559Y-58622700D01*
X128432382Y-58622700D01*
X128428621Y-58622630D01*
X128373451Y-58620565D01*
X128365964Y-58621410D01*
X128365906Y-58620901D01*
X128352243Y-58622700D01*
X124678175Y-58622700D01*
X124619044Y-58603487D01*
X124588124Y-58566944D01*
X124540171Y-58470642D01*
X124416726Y-58307174D01*
X124416725Y-58307173D01*
X124265355Y-58169180D01*
X124265350Y-58169176D01*
X124265346Y-58169173D01*
X124091185Y-58061337D01*
X124091181Y-58061335D01*
X123900176Y-57987340D01*
X123698823Y-57949700D01*
X123698821Y-57949700D01*
X123493979Y-57949700D01*
X123493977Y-57949700D01*
X123292623Y-57987340D01*
X123101618Y-58061335D01*
X123101614Y-58061337D01*
X122993778Y-58128106D01*
X122927454Y-58169173D01*
X122927453Y-58169174D01*
X122927444Y-58169180D01*
X122776074Y-58307173D01*
X122706065Y-58399881D01*
X122652897Y-58470288D01*
X122652627Y-58470645D01*
X122652626Y-58470646D01*
X122561324Y-58654005D01*
X122561323Y-58654006D01*
X122505264Y-58851035D01*
X122505264Y-58851036D01*
X122486365Y-59055000D01*
X121732167Y-59055000D01*
X119846919Y-57169752D01*
X119833425Y-57153007D01*
X119829552Y-57146981D01*
X119791789Y-57114259D01*
X119786533Y-57109366D01*
X119776513Y-57099346D01*
X119776512Y-57099345D01*
X119765164Y-57090850D01*
X119759590Y-57086358D01*
X119753604Y-57081171D01*
X122694300Y-57081171D01*
X122694301Y-57081186D01*
X122697262Y-57106708D01*
X122697262Y-57106711D01*
X122743365Y-57211124D01*
X122743366Y-57211125D01*
X122824075Y-57291834D01*
X122928491Y-57337938D01*
X122954021Y-57340900D01*
X124645178Y-57340899D01*
X124670709Y-57337938D01*
X124775125Y-57291834D01*
X124855834Y-57211125D01*
X124901938Y-57106709D01*
X124904900Y-57081179D01*
X124904899Y-55390022D01*
X124901938Y-55364491D01*
X124882625Y-55320752D01*
X124855834Y-55260075D01*
X124775124Y-55179365D01*
X124670710Y-55133262D01*
X124645179Y-55130300D01*
X122954028Y-55130300D01*
X122954013Y-55130301D01*
X122928491Y-55133262D01*
X122928488Y-55133262D01*
X122824075Y-55179365D01*
X122743365Y-55260075D01*
X122697262Y-55364488D01*
X122697262Y-55364489D01*
X122694300Y-55390018D01*
X122694300Y-57081171D01*
X119753604Y-57081171D01*
X119721806Y-57053618D01*
X119715281Y-57050638D01*
X119696793Y-57039668D01*
X119691054Y-57035372D01*
X119644227Y-57017907D01*
X119637592Y-57015159D01*
X119592121Y-56994393D01*
X119592119Y-56994392D01*
X119585023Y-56993371D01*
X119564184Y-56988052D01*
X119557475Y-56985549D01*
X119507606Y-56981982D01*
X119500474Y-56981215D01*
X119496376Y-56980626D01*
X119486457Y-56979200D01*
X119486454Y-56979200D01*
X119472291Y-56979200D01*
X119465115Y-56978944D01*
X119415267Y-56975379D01*
X119415266Y-56975379D01*
X119408261Y-56976902D01*
X119386886Y-56979200D01*
X112977974Y-56979200D01*
X112918843Y-56959987D01*
X112887337Y-56922249D01*
X112818722Y-56779770D01*
X112818716Y-56779761D01*
X112689399Y-56601771D01*
X120227300Y-56601771D01*
X120227301Y-56601786D01*
X120230262Y-56627308D01*
X120230262Y-56627311D01*
X120276365Y-56731724D01*
X120276366Y-56731725D01*
X120357075Y-56812434D01*
X120461491Y-56858538D01*
X120487021Y-56861500D01*
X121778178Y-56861499D01*
X121803709Y-56858538D01*
X121908125Y-56812434D01*
X121988834Y-56731725D01*
X122034938Y-56627309D01*
X122037900Y-56601779D01*
X122037899Y-55310622D01*
X122034938Y-55285091D01*
X122026181Y-55265259D01*
X121988834Y-55180675D01*
X121908124Y-55099965D01*
X121803710Y-55053862D01*
X121778179Y-55050900D01*
X120487028Y-55050900D01*
X120487013Y-55050901D01*
X120461491Y-55053862D01*
X120461488Y-55053862D01*
X120357075Y-55099965D01*
X120276365Y-55180675D01*
X120230262Y-55285088D01*
X120230262Y-55285089D01*
X120227300Y-55310618D01*
X120227300Y-56601771D01*
X112689399Y-56601771D01*
X112685644Y-56596602D01*
X112675117Y-56586537D01*
X112521995Y-56440138D01*
X112521992Y-56440136D01*
X112521991Y-56440135D01*
X112333043Y-56315410D01*
X112179890Y-56249950D01*
X112124853Y-56226426D01*
X111904121Y-56176045D01*
X111677941Y-56165888D01*
X111677940Y-56165888D01*
X111677939Y-56165888D01*
X111453581Y-56196279D01*
X111453578Y-56196280D01*
X111288399Y-56249950D01*
X111226225Y-56249950D01*
X111186177Y-56225409D01*
X110281519Y-55320752D01*
X110268025Y-55304007D01*
X110264152Y-55297981D01*
X110226389Y-55265259D01*
X110221133Y-55260366D01*
X110211113Y-55250346D01*
X110211112Y-55250345D01*
X110199764Y-55241850D01*
X110194190Y-55237358D01*
X110156406Y-55204618D01*
X110149881Y-55201638D01*
X110131393Y-55190668D01*
X110125654Y-55186372D01*
X110078827Y-55168907D01*
X110072192Y-55166159D01*
X110026721Y-55145393D01*
X110026719Y-55145392D01*
X110019623Y-55144371D01*
X109998784Y-55139052D01*
X109992075Y-55136549D01*
X109942206Y-55132982D01*
X109935074Y-55132215D01*
X109933036Y-55131922D01*
X109921057Y-55130200D01*
X109921054Y-55130200D01*
X109906891Y-55130200D01*
X109899715Y-55129944D01*
X109849867Y-55126379D01*
X109849866Y-55126379D01*
X109842861Y-55127902D01*
X109821486Y-55130200D01*
X105372513Y-55130200D01*
X105351136Y-55127902D01*
X105344133Y-55126379D01*
X105344131Y-55126379D01*
X105294284Y-55129944D01*
X105287108Y-55130200D01*
X105272943Y-55130200D01*
X105266727Y-55131093D01*
X105258924Y-55132215D01*
X105251793Y-55132982D01*
X105201923Y-55136549D01*
X105201920Y-55136550D01*
X105195201Y-55139056D01*
X105174381Y-55144370D01*
X105167282Y-55145391D01*
X105167281Y-55145391D01*
X105121801Y-55166160D01*
X105115176Y-55168904D01*
X105103982Y-55173080D01*
X105068343Y-55186373D01*
X105062600Y-55190672D01*
X105044121Y-55201636D01*
X105037598Y-55204615D01*
X105037588Y-55204621D01*
X104999814Y-55237353D01*
X104994228Y-55241855D01*
X104982887Y-55250345D01*
X104972863Y-55260369D01*
X104967610Y-55265259D01*
X104929848Y-55297979D01*
X104929846Y-55297982D01*
X104925971Y-55304011D01*
X104912481Y-55320750D01*
X103701823Y-56531408D01*
X103685084Y-56544898D01*
X103679055Y-56548773D01*
X103679052Y-56548775D01*
X103646332Y-56586537D01*
X103641442Y-56591790D01*
X103631418Y-56601814D01*
X103622928Y-56613155D01*
X103618426Y-56618741D01*
X103585694Y-56656515D01*
X103585688Y-56656525D01*
X103582709Y-56663048D01*
X103571745Y-56681527D01*
X103567447Y-56687269D01*
X103567446Y-56687271D01*
X103549976Y-56734109D01*
X103547228Y-56740743D01*
X103526465Y-56786207D01*
X103525445Y-56793302D01*
X103520127Y-56814137D01*
X103517621Y-56820853D01*
X103517621Y-56820855D01*
X103514054Y-56870718D01*
X103513287Y-56877853D01*
X103511273Y-56891863D01*
X103511273Y-56906034D01*
X103511017Y-56913209D01*
X103507452Y-56963060D01*
X103508974Y-56970057D01*
X103511273Y-56991440D01*
X103511273Y-84339739D01*
X103508975Y-84361114D01*
X103507452Y-84368119D01*
X103507452Y-84368120D01*
X102346354Y-84368120D01*
X102361652Y-53879412D01*
X102380895Y-53820293D01*
X102391110Y-53808338D01*
X102819485Y-53379965D01*
X102874883Y-53351738D01*
X102890620Y-53350500D01*
X171911981Y-53350500D01*
X171971112Y-53369713D01*
G37*
%TD.AperFunction*%
%TD*%
M02*
