M48
; DRILL file {KiCad 7.0.5-7.0.5~ubuntu22.04.1} date Mon 10 Jul 2023 09:01:13 PM EDT
; FORMAT={-:-/ absolute / metric / decimal}
; #@! TF.CreationDate,2023-07-10T21:01:13-04:00
; #@! TF.GenerationSoftware,Kicad,Pcbnew,7.0.5-7.0.5~ubuntu22.04.1
; #@! TF.FileFunction,MixedPlating,1,2
FMAT,2
METRIC
; #@! TA.AperFunction,Plated,PTH,ComponentDrill
T1C0.600
; #@! TA.AperFunction,Plated,PTH,ViaDrill
T2C0.610
; #@! TA.AperFunction,Plated,PTH,ComponentDrill
T3C0.800
; #@! TA.AperFunction,Plated,PTH,ComponentDrill
T4C1.000
; #@! TA.AperFunction,Plated,PTH,ComponentDrill
T5C1.100
; #@! TA.AperFunction,Plated,PTH,ComponentDrill
T6C2.200
; #@! TA.AperFunction,Plated,PTH,ComponentDrill
T7C2.300
; #@! TA.AperFunction,Plated,PTH,ComponentDrill
T8C2.510
; #@! TA.AperFunction,Plated,PTH,ComponentDrill
T9C3.000
%
G90
G05
T1
X105.326Y-63.602
X107.326Y-63.602
X111.342Y-63.475
X113.342Y-63.475
X119.133Y-55.956
X121.133Y-55.956
X133.593Y-59.436
X133.821Y-74.676
X135.593Y-59.436
X135.821Y-74.676
X145.39Y-93.287
X145.39Y-95.287
X149.962Y-93.294
X149.962Y-95.294
X151.613Y-71.704
X151.873Y-78.232
X153.506Y-96.139
X153.613Y-71.704
X153.873Y-78.232
X155.506Y-96.139
T2
X104.287Y-84.684
X104.287Y-86.614
T3
X105.806Y-91.491
X106.731Y-94.234
X106.731Y-101.854
X110.033Y-94.172
X110.033Y-99.172
X110.806Y-91.491
X114.046Y-99.06
X115.722Y-60.952
X118.11Y-66.04
X118.11Y-73.66
X118.262Y-63.492
X118.658Y-84.836
X120.802Y-60.952
X121.539Y-66.04
X121.539Y-73.66
X121.666Y-99.06
X123.596Y-59.055
X123.658Y-84.836
X123.749Y-62.154
X123.8Y-56.236
X124.602Y-74.6
X124.612Y-65.253
X124.612Y-68.351
X124.612Y-71.45
X124.968Y-77.256
X124.968Y-82.256
X125.984Y-88.94
X125.984Y-93.94
X128.041Y-78.537
X128.753Y-93.777
X128.767Y-81.636
X128.778Y-84.658
X128.778Y-87.706
X128.778Y-90.703
X128.778Y-96.828
X128.778Y-99.873
X129.602Y-74.6
X131.216Y-59.055
X131.369Y-62.154
X131.42Y-56.236
X132.232Y-65.253
X132.232Y-68.351
X132.232Y-71.45
X133.767Y-81.636
X134.925Y-65.902
X134.925Y-70.902
X135.661Y-78.537
X136.373Y-93.777
X136.398Y-84.658
X136.398Y-87.706
X136.398Y-90.703
X136.398Y-96.828
X136.398Y-99.873
X137.922Y-59.69
X137.922Y-62.738
X137.998Y-65.126
X137.998Y-70.126
X138.354Y-72.746
X138.43Y-75.794
X139.192Y-82.082
X139.192Y-87.082
X139.192Y-89.448
X139.192Y-94.448
X139.319Y-96.749
X139.319Y-101.749
X141.021Y-78.867
X142.342Y-85.09
X142.418Y-88.559
X142.418Y-93.559
X144.399Y-81.864
X145.542Y-59.69
X145.542Y-62.738
X145.974Y-72.746
X146.05Y-75.794
X146.899Y-81.864
X148.641Y-78.867
X148.768Y-60.401
X148.768Y-68.021
X148.768Y-70.474
X148.768Y-75.474
X151.892Y-63.286
X151.892Y-68.286
X152.502Y-85.09
X152.781Y-87.757
X152.781Y-92.757
X154.32Y-82.194
X157.226Y-71.349
X157.226Y-78.969
X157.912Y-93.878
X159.32Y-82.194
X160.503Y-71.374
X160.503Y-78.994
X163.805Y-71.374
X163.805Y-78.994
X165.532Y-93.878
X166.7Y-83.668
X166.7Y-91.288
X167.132Y-71.374
X167.132Y-78.994
X170.332Y-71.349
X170.332Y-78.969
T4
X113.792Y-72.659
X113.792Y-75.199
X113.792Y-77.739
X113.792Y-80.279
X113.792Y-82.819
X113.792Y-85.359
X113.792Y-87.899
X113.792Y-90.439
X158.56Y-62.728
X158.56Y-65.228
X160.56Y-65.228
X161.26Y-62.728
X162.56Y-65.228
X163.26Y-62.728
X164.56Y-65.228
X166.56Y-62.728
X166.56Y-65.228
T5
X106.655Y-57.475
X109.195Y-57.475
X111.735Y-57.475
T6
X113.792Y-68.58
X113.792Y-94.742
T7
X155.31Y-59.728
X169.81Y-59.728
T8
X162.56Y-58.928
T9
X167.64Y-98.806
T0
M30
