%TF.GenerationSoftware,KiCad,Pcbnew,7.0.11-7.0.11~ubuntu22.04.1*%
%TF.CreationDate,2025-01-08T19:32:42-05:00*%
%TF.ProjectId,sub_rf_mod,7375625f-7266-45f6-9d6f-642e6b696361,rev?*%
%TF.SameCoordinates,Original*%
%TF.FileFunction,Legend,Top*%
%TF.FilePolarity,Positive*%
%FSLAX46Y46*%
G04 Gerber Fmt 4.6, Leading zero omitted, Abs format (unit mm)*
G04 Created by KiCad (PCBNEW 7.0.11-7.0.11~ubuntu22.04.1) date 2025-01-08 19:32:42*
%MOMM*%
%LPD*%
G01*
G04 APERTURE LIST*
%ADD10C,0.150000*%
%ADD11C,0.254000*%
%ADD12C,0.120000*%
%ADD13C,0.100000*%
G04 APERTURE END LIST*
D10*
X105279219Y-73420266D02*
X105279219Y-73896456D01*
X105279219Y-73896456D02*
X104279219Y-73896456D01*
X105279219Y-72563123D02*
X105279219Y-73134551D01*
X105279219Y-72848837D02*
X104279219Y-72848837D01*
X104279219Y-72848837D02*
X104422076Y-72944075D01*
X104422076Y-72944075D02*
X104517314Y-73039313D01*
X104517314Y-73039313D02*
X104564933Y-73134551D01*
X134199333Y-56747580D02*
X134151714Y-56795200D01*
X134151714Y-56795200D02*
X134008857Y-56842819D01*
X134008857Y-56842819D02*
X133913619Y-56842819D01*
X133913619Y-56842819D02*
X133770762Y-56795200D01*
X133770762Y-56795200D02*
X133675524Y-56699961D01*
X133675524Y-56699961D02*
X133627905Y-56604723D01*
X133627905Y-56604723D02*
X133580286Y-56414247D01*
X133580286Y-56414247D02*
X133580286Y-56271390D01*
X133580286Y-56271390D02*
X133627905Y-56080914D01*
X133627905Y-56080914D02*
X133675524Y-55985676D01*
X133675524Y-55985676D02*
X133770762Y-55890438D01*
X133770762Y-55890438D02*
X133913619Y-55842819D01*
X133913619Y-55842819D02*
X134008857Y-55842819D01*
X134008857Y-55842819D02*
X134151714Y-55890438D01*
X134151714Y-55890438D02*
X134199333Y-55938057D01*
X134770762Y-56271390D02*
X134675524Y-56223771D01*
X134675524Y-56223771D02*
X134627905Y-56176152D01*
X134627905Y-56176152D02*
X134580286Y-56080914D01*
X134580286Y-56080914D02*
X134580286Y-56033295D01*
X134580286Y-56033295D02*
X134627905Y-55938057D01*
X134627905Y-55938057D02*
X134675524Y-55890438D01*
X134675524Y-55890438D02*
X134770762Y-55842819D01*
X134770762Y-55842819D02*
X134961238Y-55842819D01*
X134961238Y-55842819D02*
X135056476Y-55890438D01*
X135056476Y-55890438D02*
X135104095Y-55938057D01*
X135104095Y-55938057D02*
X135151714Y-56033295D01*
X135151714Y-56033295D02*
X135151714Y-56080914D01*
X135151714Y-56080914D02*
X135104095Y-56176152D01*
X135104095Y-56176152D02*
X135056476Y-56223771D01*
X135056476Y-56223771D02*
X134961238Y-56271390D01*
X134961238Y-56271390D02*
X134770762Y-56271390D01*
X134770762Y-56271390D02*
X134675524Y-56319009D01*
X134675524Y-56319009D02*
X134627905Y-56366628D01*
X134627905Y-56366628D02*
X134580286Y-56461866D01*
X134580286Y-56461866D02*
X134580286Y-56652342D01*
X134580286Y-56652342D02*
X134627905Y-56747580D01*
X134627905Y-56747580D02*
X134675524Y-56795200D01*
X134675524Y-56795200D02*
X134770762Y-56842819D01*
X134770762Y-56842819D02*
X134961238Y-56842819D01*
X134961238Y-56842819D02*
X135056476Y-56795200D01*
X135056476Y-56795200D02*
X135104095Y-56747580D01*
X135104095Y-56747580D02*
X135151714Y-56652342D01*
X135151714Y-56652342D02*
X135151714Y-56461866D01*
X135151714Y-56461866D02*
X135104095Y-56366628D01*
X135104095Y-56366628D02*
X135056476Y-56319009D01*
X135056476Y-56319009D02*
X134961238Y-56271390D01*
X166489142Y-70050819D02*
X166155809Y-69574628D01*
X165917714Y-70050819D02*
X165917714Y-69050819D01*
X165917714Y-69050819D02*
X166298666Y-69050819D01*
X166298666Y-69050819D02*
X166393904Y-69098438D01*
X166393904Y-69098438D02*
X166441523Y-69146057D01*
X166441523Y-69146057D02*
X166489142Y-69241295D01*
X166489142Y-69241295D02*
X166489142Y-69384152D01*
X166489142Y-69384152D02*
X166441523Y-69479390D01*
X166441523Y-69479390D02*
X166393904Y-69527009D01*
X166393904Y-69527009D02*
X166298666Y-69574628D01*
X166298666Y-69574628D02*
X165917714Y-69574628D01*
X166870095Y-69146057D02*
X166917714Y-69098438D01*
X166917714Y-69098438D02*
X167012952Y-69050819D01*
X167012952Y-69050819D02*
X167251047Y-69050819D01*
X167251047Y-69050819D02*
X167346285Y-69098438D01*
X167346285Y-69098438D02*
X167393904Y-69146057D01*
X167393904Y-69146057D02*
X167441523Y-69241295D01*
X167441523Y-69241295D02*
X167441523Y-69336533D01*
X167441523Y-69336533D02*
X167393904Y-69479390D01*
X167393904Y-69479390D02*
X166822476Y-70050819D01*
X166822476Y-70050819D02*
X167441523Y-70050819D01*
X167822476Y-69146057D02*
X167870095Y-69098438D01*
X167870095Y-69098438D02*
X167965333Y-69050819D01*
X167965333Y-69050819D02*
X168203428Y-69050819D01*
X168203428Y-69050819D02*
X168298666Y-69098438D01*
X168298666Y-69098438D02*
X168346285Y-69146057D01*
X168346285Y-69146057D02*
X168393904Y-69241295D01*
X168393904Y-69241295D02*
X168393904Y-69336533D01*
X168393904Y-69336533D02*
X168346285Y-69479390D01*
X168346285Y-69479390D02*
X167774857Y-70050819D01*
X167774857Y-70050819D02*
X168393904Y-70050819D01*
X125595142Y-87907019D02*
X125261809Y-87430828D01*
X125023714Y-87907019D02*
X125023714Y-86907019D01*
X125023714Y-86907019D02*
X125404666Y-86907019D01*
X125404666Y-86907019D02*
X125499904Y-86954638D01*
X125499904Y-86954638D02*
X125547523Y-87002257D01*
X125547523Y-87002257D02*
X125595142Y-87097495D01*
X125595142Y-87097495D02*
X125595142Y-87240352D01*
X125595142Y-87240352D02*
X125547523Y-87335590D01*
X125547523Y-87335590D02*
X125499904Y-87383209D01*
X125499904Y-87383209D02*
X125404666Y-87430828D01*
X125404666Y-87430828D02*
X125023714Y-87430828D01*
X126547523Y-87907019D02*
X125976095Y-87907019D01*
X126261809Y-87907019D02*
X126261809Y-86907019D01*
X126261809Y-86907019D02*
X126166571Y-87049876D01*
X126166571Y-87049876D02*
X126071333Y-87145114D01*
X126071333Y-87145114D02*
X125976095Y-87192733D01*
X127404666Y-87240352D02*
X127404666Y-87907019D01*
X127166571Y-86859400D02*
X126928476Y-87573685D01*
X126928476Y-87573685D02*
X127547523Y-87573685D01*
X130579905Y-54810819D02*
X130579905Y-53810819D01*
X130579905Y-53810819D02*
X130818000Y-53810819D01*
X130818000Y-53810819D02*
X130960857Y-53858438D01*
X130960857Y-53858438D02*
X131056095Y-53953676D01*
X131056095Y-53953676D02*
X131103714Y-54048914D01*
X131103714Y-54048914D02*
X131151333Y-54239390D01*
X131151333Y-54239390D02*
X131151333Y-54382247D01*
X131151333Y-54382247D02*
X131103714Y-54572723D01*
X131103714Y-54572723D02*
X131056095Y-54667961D01*
X131056095Y-54667961D02*
X130960857Y-54763200D01*
X130960857Y-54763200D02*
X130818000Y-54810819D01*
X130818000Y-54810819D02*
X130579905Y-54810819D01*
X131532286Y-53906057D02*
X131579905Y-53858438D01*
X131579905Y-53858438D02*
X131675143Y-53810819D01*
X131675143Y-53810819D02*
X131913238Y-53810819D01*
X131913238Y-53810819D02*
X132008476Y-53858438D01*
X132008476Y-53858438D02*
X132056095Y-53906057D01*
X132056095Y-53906057D02*
X132103714Y-54001295D01*
X132103714Y-54001295D02*
X132103714Y-54096533D01*
X132103714Y-54096533D02*
X132056095Y-54239390D01*
X132056095Y-54239390D02*
X131484667Y-54810819D01*
X131484667Y-54810819D02*
X132103714Y-54810819D01*
X123537695Y-54890419D02*
X123537695Y-53890419D01*
X124109123Y-54890419D02*
X123680552Y-54318990D01*
X124109123Y-53890419D02*
X123537695Y-54461847D01*
X115562142Y-56442780D02*
X115514523Y-56490400D01*
X115514523Y-56490400D02*
X115371666Y-56538019D01*
X115371666Y-56538019D02*
X115276428Y-56538019D01*
X115276428Y-56538019D02*
X115133571Y-56490400D01*
X115133571Y-56490400D02*
X115038333Y-56395161D01*
X115038333Y-56395161D02*
X114990714Y-56299923D01*
X114990714Y-56299923D02*
X114943095Y-56109447D01*
X114943095Y-56109447D02*
X114943095Y-55966590D01*
X114943095Y-55966590D02*
X114990714Y-55776114D01*
X114990714Y-55776114D02*
X115038333Y-55680876D01*
X115038333Y-55680876D02*
X115133571Y-55585638D01*
X115133571Y-55585638D02*
X115276428Y-55538019D01*
X115276428Y-55538019D02*
X115371666Y-55538019D01*
X115371666Y-55538019D02*
X115514523Y-55585638D01*
X115514523Y-55585638D02*
X115562142Y-55633257D01*
X115943095Y-55633257D02*
X115990714Y-55585638D01*
X115990714Y-55585638D02*
X116085952Y-55538019D01*
X116085952Y-55538019D02*
X116324047Y-55538019D01*
X116324047Y-55538019D02*
X116419285Y-55585638D01*
X116419285Y-55585638D02*
X116466904Y-55633257D01*
X116466904Y-55633257D02*
X116514523Y-55728495D01*
X116514523Y-55728495D02*
X116514523Y-55823733D01*
X116514523Y-55823733D02*
X116466904Y-55966590D01*
X116466904Y-55966590D02*
X115895476Y-56538019D01*
X115895476Y-56538019D02*
X116514523Y-56538019D01*
X117419285Y-55538019D02*
X116943095Y-55538019D01*
X116943095Y-55538019D02*
X116895476Y-56014209D01*
X116895476Y-56014209D02*
X116943095Y-55966590D01*
X116943095Y-55966590D02*
X117038333Y-55918971D01*
X117038333Y-55918971D02*
X117276428Y-55918971D01*
X117276428Y-55918971D02*
X117371666Y-55966590D01*
X117371666Y-55966590D02*
X117419285Y-56014209D01*
X117419285Y-56014209D02*
X117466904Y-56109447D01*
X117466904Y-56109447D02*
X117466904Y-56347542D01*
X117466904Y-56347542D02*
X117419285Y-56442780D01*
X117419285Y-56442780D02*
X117371666Y-56490400D01*
X117371666Y-56490400D02*
X117276428Y-56538019D01*
X117276428Y-56538019D02*
X117038333Y-56538019D01*
X117038333Y-56538019D02*
X116943095Y-56490400D01*
X116943095Y-56490400D02*
X116895476Y-56442780D01*
X169525019Y-88120457D02*
X169048828Y-88453790D01*
X169525019Y-88691885D02*
X168525019Y-88691885D01*
X168525019Y-88691885D02*
X168525019Y-88310933D01*
X168525019Y-88310933D02*
X168572638Y-88215695D01*
X168572638Y-88215695D02*
X168620257Y-88168076D01*
X168620257Y-88168076D02*
X168715495Y-88120457D01*
X168715495Y-88120457D02*
X168858352Y-88120457D01*
X168858352Y-88120457D02*
X168953590Y-88168076D01*
X168953590Y-88168076D02*
X169001209Y-88215695D01*
X169001209Y-88215695D02*
X169048828Y-88310933D01*
X169048828Y-88310933D02*
X169048828Y-88691885D01*
X168620257Y-87739504D02*
X168572638Y-87691885D01*
X168572638Y-87691885D02*
X168525019Y-87596647D01*
X168525019Y-87596647D02*
X168525019Y-87358552D01*
X168525019Y-87358552D02*
X168572638Y-87263314D01*
X168572638Y-87263314D02*
X168620257Y-87215695D01*
X168620257Y-87215695D02*
X168715495Y-87168076D01*
X168715495Y-87168076D02*
X168810733Y-87168076D01*
X168810733Y-87168076D02*
X168953590Y-87215695D01*
X168953590Y-87215695D02*
X169525019Y-87787123D01*
X169525019Y-87787123D02*
X169525019Y-87168076D01*
X168953590Y-86596647D02*
X168905971Y-86691885D01*
X168905971Y-86691885D02*
X168858352Y-86739504D01*
X168858352Y-86739504D02*
X168763114Y-86787123D01*
X168763114Y-86787123D02*
X168715495Y-86787123D01*
X168715495Y-86787123D02*
X168620257Y-86739504D01*
X168620257Y-86739504D02*
X168572638Y-86691885D01*
X168572638Y-86691885D02*
X168525019Y-86596647D01*
X168525019Y-86596647D02*
X168525019Y-86406171D01*
X168525019Y-86406171D02*
X168572638Y-86310933D01*
X168572638Y-86310933D02*
X168620257Y-86263314D01*
X168620257Y-86263314D02*
X168715495Y-86215695D01*
X168715495Y-86215695D02*
X168763114Y-86215695D01*
X168763114Y-86215695D02*
X168858352Y-86263314D01*
X168858352Y-86263314D02*
X168905971Y-86310933D01*
X168905971Y-86310933D02*
X168953590Y-86406171D01*
X168953590Y-86406171D02*
X168953590Y-86596647D01*
X168953590Y-86596647D02*
X169001209Y-86691885D01*
X169001209Y-86691885D02*
X169048828Y-86739504D01*
X169048828Y-86739504D02*
X169144066Y-86787123D01*
X169144066Y-86787123D02*
X169334542Y-86787123D01*
X169334542Y-86787123D02*
X169429780Y-86739504D01*
X169429780Y-86739504D02*
X169477400Y-86691885D01*
X169477400Y-86691885D02*
X169525019Y-86596647D01*
X169525019Y-86596647D02*
X169525019Y-86406171D01*
X169525019Y-86406171D02*
X169477400Y-86310933D01*
X169477400Y-86310933D02*
X169429780Y-86263314D01*
X169429780Y-86263314D02*
X169334542Y-86215695D01*
X169334542Y-86215695D02*
X169144066Y-86215695D01*
X169144066Y-86215695D02*
X169048828Y-86263314D01*
X169048828Y-86263314D02*
X169001209Y-86310933D01*
X169001209Y-86310933D02*
X168953590Y-86406171D01*
X131405333Y-76858019D02*
X131072000Y-76381828D01*
X130833905Y-76858019D02*
X130833905Y-75858019D01*
X130833905Y-75858019D02*
X131214857Y-75858019D01*
X131214857Y-75858019D02*
X131310095Y-75905638D01*
X131310095Y-75905638D02*
X131357714Y-75953257D01*
X131357714Y-75953257D02*
X131405333Y-76048495D01*
X131405333Y-76048495D02*
X131405333Y-76191352D01*
X131405333Y-76191352D02*
X131357714Y-76286590D01*
X131357714Y-76286590D02*
X131310095Y-76334209D01*
X131310095Y-76334209D02*
X131214857Y-76381828D01*
X131214857Y-76381828D02*
X130833905Y-76381828D01*
X132310095Y-75858019D02*
X131833905Y-75858019D01*
X131833905Y-75858019D02*
X131786286Y-76334209D01*
X131786286Y-76334209D02*
X131833905Y-76286590D01*
X131833905Y-76286590D02*
X131929143Y-76238971D01*
X131929143Y-76238971D02*
X132167238Y-76238971D01*
X132167238Y-76238971D02*
X132262476Y-76286590D01*
X132262476Y-76286590D02*
X132310095Y-76334209D01*
X132310095Y-76334209D02*
X132357714Y-76429447D01*
X132357714Y-76429447D02*
X132357714Y-76667542D01*
X132357714Y-76667542D02*
X132310095Y-76762780D01*
X132310095Y-76762780D02*
X132262476Y-76810400D01*
X132262476Y-76810400D02*
X132167238Y-76858019D01*
X132167238Y-76858019D02*
X131929143Y-76858019D01*
X131929143Y-76858019D02*
X131833905Y-76810400D01*
X131833905Y-76810400D02*
X131786286Y-76762780D01*
X137602933Y-78712219D02*
X137269600Y-78236028D01*
X137031505Y-78712219D02*
X137031505Y-77712219D01*
X137031505Y-77712219D02*
X137412457Y-77712219D01*
X137412457Y-77712219D02*
X137507695Y-77759838D01*
X137507695Y-77759838D02*
X137555314Y-77807457D01*
X137555314Y-77807457D02*
X137602933Y-77902695D01*
X137602933Y-77902695D02*
X137602933Y-78045552D01*
X137602933Y-78045552D02*
X137555314Y-78140790D01*
X137555314Y-78140790D02*
X137507695Y-78188409D01*
X137507695Y-78188409D02*
X137412457Y-78236028D01*
X137412457Y-78236028D02*
X137031505Y-78236028D01*
X138460076Y-78045552D02*
X138460076Y-78712219D01*
X138221981Y-77664600D02*
X137983886Y-78378885D01*
X137983886Y-78378885D02*
X138602933Y-78378885D01*
X131456133Y-74343419D02*
X131122800Y-73867228D01*
X130884705Y-74343419D02*
X130884705Y-73343419D01*
X130884705Y-73343419D02*
X131265657Y-73343419D01*
X131265657Y-73343419D02*
X131360895Y-73391038D01*
X131360895Y-73391038D02*
X131408514Y-73438657D01*
X131408514Y-73438657D02*
X131456133Y-73533895D01*
X131456133Y-73533895D02*
X131456133Y-73676752D01*
X131456133Y-73676752D02*
X131408514Y-73771990D01*
X131408514Y-73771990D02*
X131360895Y-73819609D01*
X131360895Y-73819609D02*
X131265657Y-73867228D01*
X131265657Y-73867228D02*
X130884705Y-73867228D01*
X132408514Y-74343419D02*
X131837086Y-74343419D01*
X132122800Y-74343419D02*
X132122800Y-73343419D01*
X132122800Y-73343419D02*
X132027562Y-73486276D01*
X132027562Y-73486276D02*
X131932324Y-73581514D01*
X131932324Y-73581514D02*
X131837086Y-73629133D01*
X140422333Y-70844580D02*
X140374714Y-70892200D01*
X140374714Y-70892200D02*
X140231857Y-70939819D01*
X140231857Y-70939819D02*
X140136619Y-70939819D01*
X140136619Y-70939819D02*
X139993762Y-70892200D01*
X139993762Y-70892200D02*
X139898524Y-70796961D01*
X139898524Y-70796961D02*
X139850905Y-70701723D01*
X139850905Y-70701723D02*
X139803286Y-70511247D01*
X139803286Y-70511247D02*
X139803286Y-70368390D01*
X139803286Y-70368390D02*
X139850905Y-70177914D01*
X139850905Y-70177914D02*
X139898524Y-70082676D01*
X139898524Y-70082676D02*
X139993762Y-69987438D01*
X139993762Y-69987438D02*
X140136619Y-69939819D01*
X140136619Y-69939819D02*
X140231857Y-69939819D01*
X140231857Y-69939819D02*
X140374714Y-69987438D01*
X140374714Y-69987438D02*
X140422333Y-70035057D01*
X140898524Y-70939819D02*
X141089000Y-70939819D01*
X141089000Y-70939819D02*
X141184238Y-70892200D01*
X141184238Y-70892200D02*
X141231857Y-70844580D01*
X141231857Y-70844580D02*
X141327095Y-70701723D01*
X141327095Y-70701723D02*
X141374714Y-70511247D01*
X141374714Y-70511247D02*
X141374714Y-70130295D01*
X141374714Y-70130295D02*
X141327095Y-70035057D01*
X141327095Y-70035057D02*
X141279476Y-69987438D01*
X141279476Y-69987438D02*
X141184238Y-69939819D01*
X141184238Y-69939819D02*
X140993762Y-69939819D01*
X140993762Y-69939819D02*
X140898524Y-69987438D01*
X140898524Y-69987438D02*
X140850905Y-70035057D01*
X140850905Y-70035057D02*
X140803286Y-70130295D01*
X140803286Y-70130295D02*
X140803286Y-70368390D01*
X140803286Y-70368390D02*
X140850905Y-70463628D01*
X140850905Y-70463628D02*
X140898524Y-70511247D01*
X140898524Y-70511247D02*
X140993762Y-70558866D01*
X140993762Y-70558866D02*
X141184238Y-70558866D01*
X141184238Y-70558866D02*
X141279476Y-70511247D01*
X141279476Y-70511247D02*
X141327095Y-70463628D01*
X141327095Y-70463628D02*
X141374714Y-70368390D01*
X125569742Y-98549619D02*
X125236409Y-98073428D01*
X124998314Y-98549619D02*
X124998314Y-97549619D01*
X124998314Y-97549619D02*
X125379266Y-97549619D01*
X125379266Y-97549619D02*
X125474504Y-97597238D01*
X125474504Y-97597238D02*
X125522123Y-97644857D01*
X125522123Y-97644857D02*
X125569742Y-97740095D01*
X125569742Y-97740095D02*
X125569742Y-97882952D01*
X125569742Y-97882952D02*
X125522123Y-97978190D01*
X125522123Y-97978190D02*
X125474504Y-98025809D01*
X125474504Y-98025809D02*
X125379266Y-98073428D01*
X125379266Y-98073428D02*
X124998314Y-98073428D01*
X126522123Y-98549619D02*
X125950695Y-98549619D01*
X126236409Y-98549619D02*
X126236409Y-97549619D01*
X126236409Y-97549619D02*
X126141171Y-97692476D01*
X126141171Y-97692476D02*
X126045933Y-97787714D01*
X126045933Y-97787714D02*
X125950695Y-97835333D01*
X127426885Y-97549619D02*
X126950695Y-97549619D01*
X126950695Y-97549619D02*
X126903076Y-98025809D01*
X126903076Y-98025809D02*
X126950695Y-97978190D01*
X126950695Y-97978190D02*
X127045933Y-97930571D01*
X127045933Y-97930571D02*
X127284028Y-97930571D01*
X127284028Y-97930571D02*
X127379266Y-97978190D01*
X127379266Y-97978190D02*
X127426885Y-98025809D01*
X127426885Y-98025809D02*
X127474504Y-98121047D01*
X127474504Y-98121047D02*
X127474504Y-98359142D01*
X127474504Y-98359142D02*
X127426885Y-98454380D01*
X127426885Y-98454380D02*
X127379266Y-98502000D01*
X127379266Y-98502000D02*
X127284028Y-98549619D01*
X127284028Y-98549619D02*
X127045933Y-98549619D01*
X127045933Y-98549619D02*
X126950695Y-98502000D01*
X126950695Y-98502000D02*
X126903076Y-98454380D01*
X146778742Y-87914819D02*
X146445409Y-87438628D01*
X146207314Y-87914819D02*
X146207314Y-86914819D01*
X146207314Y-86914819D02*
X146588266Y-86914819D01*
X146588266Y-86914819D02*
X146683504Y-86962438D01*
X146683504Y-86962438D02*
X146731123Y-87010057D01*
X146731123Y-87010057D02*
X146778742Y-87105295D01*
X146778742Y-87105295D02*
X146778742Y-87248152D01*
X146778742Y-87248152D02*
X146731123Y-87343390D01*
X146731123Y-87343390D02*
X146683504Y-87391009D01*
X146683504Y-87391009D02*
X146588266Y-87438628D01*
X146588266Y-87438628D02*
X146207314Y-87438628D01*
X147159695Y-87010057D02*
X147207314Y-86962438D01*
X147207314Y-86962438D02*
X147302552Y-86914819D01*
X147302552Y-86914819D02*
X147540647Y-86914819D01*
X147540647Y-86914819D02*
X147635885Y-86962438D01*
X147635885Y-86962438D02*
X147683504Y-87010057D01*
X147683504Y-87010057D02*
X147731123Y-87105295D01*
X147731123Y-87105295D02*
X147731123Y-87200533D01*
X147731123Y-87200533D02*
X147683504Y-87343390D01*
X147683504Y-87343390D02*
X147112076Y-87914819D01*
X147112076Y-87914819D02*
X147731123Y-87914819D01*
X148350171Y-86914819D02*
X148445409Y-86914819D01*
X148445409Y-86914819D02*
X148540647Y-86962438D01*
X148540647Y-86962438D02*
X148588266Y-87010057D01*
X148588266Y-87010057D02*
X148635885Y-87105295D01*
X148635885Y-87105295D02*
X148683504Y-87295771D01*
X148683504Y-87295771D02*
X148683504Y-87533866D01*
X148683504Y-87533866D02*
X148635885Y-87724342D01*
X148635885Y-87724342D02*
X148588266Y-87819580D01*
X148588266Y-87819580D02*
X148540647Y-87867200D01*
X148540647Y-87867200D02*
X148445409Y-87914819D01*
X148445409Y-87914819D02*
X148350171Y-87914819D01*
X148350171Y-87914819D02*
X148254933Y-87867200D01*
X148254933Y-87867200D02*
X148207314Y-87819580D01*
X148207314Y-87819580D02*
X148159695Y-87724342D01*
X148159695Y-87724342D02*
X148112076Y-87533866D01*
X148112076Y-87533866D02*
X148112076Y-87295771D01*
X148112076Y-87295771D02*
X148159695Y-87105295D01*
X148159695Y-87105295D02*
X148207314Y-87010057D01*
X148207314Y-87010057D02*
X148254933Y-86962438D01*
X148254933Y-86962438D02*
X148350171Y-86914819D01*
X135577342Y-82833380D02*
X135529723Y-82881000D01*
X135529723Y-82881000D02*
X135386866Y-82928619D01*
X135386866Y-82928619D02*
X135291628Y-82928619D01*
X135291628Y-82928619D02*
X135148771Y-82881000D01*
X135148771Y-82881000D02*
X135053533Y-82785761D01*
X135053533Y-82785761D02*
X135005914Y-82690523D01*
X135005914Y-82690523D02*
X134958295Y-82500047D01*
X134958295Y-82500047D02*
X134958295Y-82357190D01*
X134958295Y-82357190D02*
X135005914Y-82166714D01*
X135005914Y-82166714D02*
X135053533Y-82071476D01*
X135053533Y-82071476D02*
X135148771Y-81976238D01*
X135148771Y-81976238D02*
X135291628Y-81928619D01*
X135291628Y-81928619D02*
X135386866Y-81928619D01*
X135386866Y-81928619D02*
X135529723Y-81976238D01*
X135529723Y-81976238D02*
X135577342Y-82023857D01*
X135958295Y-82023857D02*
X136005914Y-81976238D01*
X136005914Y-81976238D02*
X136101152Y-81928619D01*
X136101152Y-81928619D02*
X136339247Y-81928619D01*
X136339247Y-81928619D02*
X136434485Y-81976238D01*
X136434485Y-81976238D02*
X136482104Y-82023857D01*
X136482104Y-82023857D02*
X136529723Y-82119095D01*
X136529723Y-82119095D02*
X136529723Y-82214333D01*
X136529723Y-82214333D02*
X136482104Y-82357190D01*
X136482104Y-82357190D02*
X135910676Y-82928619D01*
X135910676Y-82928619D02*
X136529723Y-82928619D01*
X136863057Y-81928619D02*
X137482104Y-81928619D01*
X137482104Y-81928619D02*
X137148771Y-82309571D01*
X137148771Y-82309571D02*
X137291628Y-82309571D01*
X137291628Y-82309571D02*
X137386866Y-82357190D01*
X137386866Y-82357190D02*
X137434485Y-82404809D01*
X137434485Y-82404809D02*
X137482104Y-82500047D01*
X137482104Y-82500047D02*
X137482104Y-82738142D01*
X137482104Y-82738142D02*
X137434485Y-82833380D01*
X137434485Y-82833380D02*
X137386866Y-82881000D01*
X137386866Y-82881000D02*
X137291628Y-82928619D01*
X137291628Y-82928619D02*
X137005914Y-82928619D01*
X137005914Y-82928619D02*
X136910676Y-82881000D01*
X136910676Y-82881000D02*
X136863057Y-82833380D01*
X161184933Y-82807980D02*
X161137314Y-82855600D01*
X161137314Y-82855600D02*
X160994457Y-82903219D01*
X160994457Y-82903219D02*
X160899219Y-82903219D01*
X160899219Y-82903219D02*
X160756362Y-82855600D01*
X160756362Y-82855600D02*
X160661124Y-82760361D01*
X160661124Y-82760361D02*
X160613505Y-82665123D01*
X160613505Y-82665123D02*
X160565886Y-82474647D01*
X160565886Y-82474647D02*
X160565886Y-82331790D01*
X160565886Y-82331790D02*
X160613505Y-82141314D01*
X160613505Y-82141314D02*
X160661124Y-82046076D01*
X160661124Y-82046076D02*
X160756362Y-81950838D01*
X160756362Y-81950838D02*
X160899219Y-81903219D01*
X160899219Y-81903219D02*
X160994457Y-81903219D01*
X160994457Y-81903219D02*
X161137314Y-81950838D01*
X161137314Y-81950838D02*
X161184933Y-81998457D01*
X162137314Y-82903219D02*
X161565886Y-82903219D01*
X161851600Y-82903219D02*
X161851600Y-81903219D01*
X161851600Y-81903219D02*
X161756362Y-82046076D01*
X161756362Y-82046076D02*
X161661124Y-82141314D01*
X161661124Y-82141314D02*
X161565886Y-82188933D01*
X156583142Y-70025419D02*
X156249809Y-69549228D01*
X156011714Y-70025419D02*
X156011714Y-69025419D01*
X156011714Y-69025419D02*
X156392666Y-69025419D01*
X156392666Y-69025419D02*
X156487904Y-69073038D01*
X156487904Y-69073038D02*
X156535523Y-69120657D01*
X156535523Y-69120657D02*
X156583142Y-69215895D01*
X156583142Y-69215895D02*
X156583142Y-69358752D01*
X156583142Y-69358752D02*
X156535523Y-69453990D01*
X156535523Y-69453990D02*
X156487904Y-69501609D01*
X156487904Y-69501609D02*
X156392666Y-69549228D01*
X156392666Y-69549228D02*
X156011714Y-69549228D01*
X157535523Y-70025419D02*
X156964095Y-70025419D01*
X157249809Y-70025419D02*
X157249809Y-69025419D01*
X157249809Y-69025419D02*
X157154571Y-69168276D01*
X157154571Y-69168276D02*
X157059333Y-69263514D01*
X157059333Y-69263514D02*
X156964095Y-69311133D01*
X158106952Y-69453990D02*
X158011714Y-69406371D01*
X158011714Y-69406371D02*
X157964095Y-69358752D01*
X157964095Y-69358752D02*
X157916476Y-69263514D01*
X157916476Y-69263514D02*
X157916476Y-69215895D01*
X157916476Y-69215895D02*
X157964095Y-69120657D01*
X157964095Y-69120657D02*
X158011714Y-69073038D01*
X158011714Y-69073038D02*
X158106952Y-69025419D01*
X158106952Y-69025419D02*
X158297428Y-69025419D01*
X158297428Y-69025419D02*
X158392666Y-69073038D01*
X158392666Y-69073038D02*
X158440285Y-69120657D01*
X158440285Y-69120657D02*
X158487904Y-69215895D01*
X158487904Y-69215895D02*
X158487904Y-69263514D01*
X158487904Y-69263514D02*
X158440285Y-69358752D01*
X158440285Y-69358752D02*
X158392666Y-69406371D01*
X158392666Y-69406371D02*
X158297428Y-69453990D01*
X158297428Y-69453990D02*
X158106952Y-69453990D01*
X158106952Y-69453990D02*
X158011714Y-69501609D01*
X158011714Y-69501609D02*
X157964095Y-69549228D01*
X157964095Y-69549228D02*
X157916476Y-69644466D01*
X157916476Y-69644466D02*
X157916476Y-69834942D01*
X157916476Y-69834942D02*
X157964095Y-69930180D01*
X157964095Y-69930180D02*
X158011714Y-69977800D01*
X158011714Y-69977800D02*
X158106952Y-70025419D01*
X158106952Y-70025419D02*
X158297428Y-70025419D01*
X158297428Y-70025419D02*
X158392666Y-69977800D01*
X158392666Y-69977800D02*
X158440285Y-69930180D01*
X158440285Y-69930180D02*
X158487904Y-69834942D01*
X158487904Y-69834942D02*
X158487904Y-69644466D01*
X158487904Y-69644466D02*
X158440285Y-69549228D01*
X158440285Y-69549228D02*
X158392666Y-69501609D01*
X158392666Y-69501609D02*
X158297428Y-69453990D01*
X120896142Y-82695580D02*
X120848523Y-82743200D01*
X120848523Y-82743200D02*
X120705666Y-82790819D01*
X120705666Y-82790819D02*
X120610428Y-82790819D01*
X120610428Y-82790819D02*
X120467571Y-82743200D01*
X120467571Y-82743200D02*
X120372333Y-82647961D01*
X120372333Y-82647961D02*
X120324714Y-82552723D01*
X120324714Y-82552723D02*
X120277095Y-82362247D01*
X120277095Y-82362247D02*
X120277095Y-82219390D01*
X120277095Y-82219390D02*
X120324714Y-82028914D01*
X120324714Y-82028914D02*
X120372333Y-81933676D01*
X120372333Y-81933676D02*
X120467571Y-81838438D01*
X120467571Y-81838438D02*
X120610428Y-81790819D01*
X120610428Y-81790819D02*
X120705666Y-81790819D01*
X120705666Y-81790819D02*
X120848523Y-81838438D01*
X120848523Y-81838438D02*
X120896142Y-81886057D01*
X121848523Y-82790819D02*
X121277095Y-82790819D01*
X121562809Y-82790819D02*
X121562809Y-81790819D01*
X121562809Y-81790819D02*
X121467571Y-81933676D01*
X121467571Y-81933676D02*
X121372333Y-82028914D01*
X121372333Y-82028914D02*
X121277095Y-82076533D01*
X122229476Y-81886057D02*
X122277095Y-81838438D01*
X122277095Y-81838438D02*
X122372333Y-81790819D01*
X122372333Y-81790819D02*
X122610428Y-81790819D01*
X122610428Y-81790819D02*
X122705666Y-81838438D01*
X122705666Y-81838438D02*
X122753285Y-81886057D01*
X122753285Y-81886057D02*
X122800904Y-81981295D01*
X122800904Y-81981295D02*
X122800904Y-82076533D01*
X122800904Y-82076533D02*
X122753285Y-82219390D01*
X122753285Y-82219390D02*
X122181857Y-82790819D01*
X122181857Y-82790819D02*
X122800904Y-82790819D01*
X135926533Y-62761019D02*
X135593200Y-62284828D01*
X135355105Y-62761019D02*
X135355105Y-61761019D01*
X135355105Y-61761019D02*
X135736057Y-61761019D01*
X135736057Y-61761019D02*
X135831295Y-61808638D01*
X135831295Y-61808638D02*
X135878914Y-61856257D01*
X135878914Y-61856257D02*
X135926533Y-61951495D01*
X135926533Y-61951495D02*
X135926533Y-62094352D01*
X135926533Y-62094352D02*
X135878914Y-62189590D01*
X135878914Y-62189590D02*
X135831295Y-62237209D01*
X135831295Y-62237209D02*
X135736057Y-62284828D01*
X135736057Y-62284828D02*
X135355105Y-62284828D01*
X136783676Y-61761019D02*
X136593200Y-61761019D01*
X136593200Y-61761019D02*
X136497962Y-61808638D01*
X136497962Y-61808638D02*
X136450343Y-61856257D01*
X136450343Y-61856257D02*
X136355105Y-61999114D01*
X136355105Y-61999114D02*
X136307486Y-62189590D01*
X136307486Y-62189590D02*
X136307486Y-62570542D01*
X136307486Y-62570542D02*
X136355105Y-62665780D01*
X136355105Y-62665780D02*
X136402724Y-62713400D01*
X136402724Y-62713400D02*
X136497962Y-62761019D01*
X136497962Y-62761019D02*
X136688438Y-62761019D01*
X136688438Y-62761019D02*
X136783676Y-62713400D01*
X136783676Y-62713400D02*
X136831295Y-62665780D01*
X136831295Y-62665780D02*
X136878914Y-62570542D01*
X136878914Y-62570542D02*
X136878914Y-62332447D01*
X136878914Y-62332447D02*
X136831295Y-62237209D01*
X136831295Y-62237209D02*
X136783676Y-62189590D01*
X136783676Y-62189590D02*
X136688438Y-62141971D01*
X136688438Y-62141971D02*
X136497962Y-62141971D01*
X136497962Y-62141971D02*
X136402724Y-62189590D01*
X136402724Y-62189590D02*
X136355105Y-62237209D01*
X136355105Y-62237209D02*
X136307486Y-62332447D01*
X109389942Y-101563980D02*
X109342323Y-101611600D01*
X109342323Y-101611600D02*
X109199466Y-101659219D01*
X109199466Y-101659219D02*
X109104228Y-101659219D01*
X109104228Y-101659219D02*
X108961371Y-101611600D01*
X108961371Y-101611600D02*
X108866133Y-101516361D01*
X108866133Y-101516361D02*
X108818514Y-101421123D01*
X108818514Y-101421123D02*
X108770895Y-101230647D01*
X108770895Y-101230647D02*
X108770895Y-101087790D01*
X108770895Y-101087790D02*
X108818514Y-100897314D01*
X108818514Y-100897314D02*
X108866133Y-100802076D01*
X108866133Y-100802076D02*
X108961371Y-100706838D01*
X108961371Y-100706838D02*
X109104228Y-100659219D01*
X109104228Y-100659219D02*
X109199466Y-100659219D01*
X109199466Y-100659219D02*
X109342323Y-100706838D01*
X109342323Y-100706838D02*
X109389942Y-100754457D01*
X110342323Y-101659219D02*
X109770895Y-101659219D01*
X110056609Y-101659219D02*
X110056609Y-100659219D01*
X110056609Y-100659219D02*
X109961371Y-100802076D01*
X109961371Y-100802076D02*
X109866133Y-100897314D01*
X109866133Y-100897314D02*
X109770895Y-100944933D01*
X110818514Y-101659219D02*
X111008990Y-101659219D01*
X111008990Y-101659219D02*
X111104228Y-101611600D01*
X111104228Y-101611600D02*
X111151847Y-101563980D01*
X111151847Y-101563980D02*
X111247085Y-101421123D01*
X111247085Y-101421123D02*
X111294704Y-101230647D01*
X111294704Y-101230647D02*
X111294704Y-100849695D01*
X111294704Y-100849695D02*
X111247085Y-100754457D01*
X111247085Y-100754457D02*
X111199466Y-100706838D01*
X111199466Y-100706838D02*
X111104228Y-100659219D01*
X111104228Y-100659219D02*
X110913752Y-100659219D01*
X110913752Y-100659219D02*
X110818514Y-100706838D01*
X110818514Y-100706838D02*
X110770895Y-100754457D01*
X110770895Y-100754457D02*
X110723276Y-100849695D01*
X110723276Y-100849695D02*
X110723276Y-101087790D01*
X110723276Y-101087790D02*
X110770895Y-101183028D01*
X110770895Y-101183028D02*
X110818514Y-101230647D01*
X110818514Y-101230647D02*
X110913752Y-101278266D01*
X110913752Y-101278266D02*
X111104228Y-101278266D01*
X111104228Y-101278266D02*
X111199466Y-101230647D01*
X111199466Y-101230647D02*
X111247085Y-101183028D01*
X111247085Y-101183028D02*
X111294704Y-101087790D01*
X121429542Y-75924580D02*
X121381923Y-75972200D01*
X121381923Y-75972200D02*
X121239066Y-76019819D01*
X121239066Y-76019819D02*
X121143828Y-76019819D01*
X121143828Y-76019819D02*
X121000971Y-75972200D01*
X121000971Y-75972200D02*
X120905733Y-75876961D01*
X120905733Y-75876961D02*
X120858114Y-75781723D01*
X120858114Y-75781723D02*
X120810495Y-75591247D01*
X120810495Y-75591247D02*
X120810495Y-75448390D01*
X120810495Y-75448390D02*
X120858114Y-75257914D01*
X120858114Y-75257914D02*
X120905733Y-75162676D01*
X120905733Y-75162676D02*
X121000971Y-75067438D01*
X121000971Y-75067438D02*
X121143828Y-75019819D01*
X121143828Y-75019819D02*
X121239066Y-75019819D01*
X121239066Y-75019819D02*
X121381923Y-75067438D01*
X121381923Y-75067438D02*
X121429542Y-75115057D01*
X122381923Y-76019819D02*
X121810495Y-76019819D01*
X122096209Y-76019819D02*
X122096209Y-75019819D01*
X122096209Y-75019819D02*
X122000971Y-75162676D01*
X122000971Y-75162676D02*
X121905733Y-75257914D01*
X121905733Y-75257914D02*
X121810495Y-75305533D01*
X123334304Y-76019819D02*
X122762876Y-76019819D01*
X123048590Y-76019819D02*
X123048590Y-75019819D01*
X123048590Y-75019819D02*
X122953352Y-75162676D01*
X122953352Y-75162676D02*
X122858114Y-75257914D01*
X122858114Y-75257914D02*
X122762876Y-75305533D01*
X157472142Y-96670019D02*
X157138809Y-96193828D01*
X156900714Y-96670019D02*
X156900714Y-95670019D01*
X156900714Y-95670019D02*
X157281666Y-95670019D01*
X157281666Y-95670019D02*
X157376904Y-95717638D01*
X157376904Y-95717638D02*
X157424523Y-95765257D01*
X157424523Y-95765257D02*
X157472142Y-95860495D01*
X157472142Y-95860495D02*
X157472142Y-96003352D01*
X157472142Y-96003352D02*
X157424523Y-96098590D01*
X157424523Y-96098590D02*
X157376904Y-96146209D01*
X157376904Y-96146209D02*
X157281666Y-96193828D01*
X157281666Y-96193828D02*
X156900714Y-96193828D01*
X157853095Y-95765257D02*
X157900714Y-95717638D01*
X157900714Y-95717638D02*
X157995952Y-95670019D01*
X157995952Y-95670019D02*
X158234047Y-95670019D01*
X158234047Y-95670019D02*
X158329285Y-95717638D01*
X158329285Y-95717638D02*
X158376904Y-95765257D01*
X158376904Y-95765257D02*
X158424523Y-95860495D01*
X158424523Y-95860495D02*
X158424523Y-95955733D01*
X158424523Y-95955733D02*
X158376904Y-96098590D01*
X158376904Y-96098590D02*
X157805476Y-96670019D01*
X157805476Y-96670019D02*
X158424523Y-96670019D01*
X158900714Y-96670019D02*
X159091190Y-96670019D01*
X159091190Y-96670019D02*
X159186428Y-96622400D01*
X159186428Y-96622400D02*
X159234047Y-96574780D01*
X159234047Y-96574780D02*
X159329285Y-96431923D01*
X159329285Y-96431923D02*
X159376904Y-96241447D01*
X159376904Y-96241447D02*
X159376904Y-95860495D01*
X159376904Y-95860495D02*
X159329285Y-95765257D01*
X159329285Y-95765257D02*
X159281666Y-95717638D01*
X159281666Y-95717638D02*
X159186428Y-95670019D01*
X159186428Y-95670019D02*
X158995952Y-95670019D01*
X158995952Y-95670019D02*
X158900714Y-95717638D01*
X158900714Y-95717638D02*
X158853095Y-95765257D01*
X158853095Y-95765257D02*
X158805476Y-95860495D01*
X158805476Y-95860495D02*
X158805476Y-96098590D01*
X158805476Y-96098590D02*
X158853095Y-96193828D01*
X158853095Y-96193828D02*
X158900714Y-96241447D01*
X158900714Y-96241447D02*
X158995952Y-96289066D01*
X158995952Y-96289066D02*
X159186428Y-96289066D01*
X159186428Y-96289066D02*
X159281666Y-96241447D01*
X159281666Y-96241447D02*
X159329285Y-96193828D01*
X159329285Y-96193828D02*
X159376904Y-96098590D01*
X153863342Y-99748580D02*
X153815723Y-99796200D01*
X153815723Y-99796200D02*
X153672866Y-99843819D01*
X153672866Y-99843819D02*
X153577628Y-99843819D01*
X153577628Y-99843819D02*
X153434771Y-99796200D01*
X153434771Y-99796200D02*
X153339533Y-99700961D01*
X153339533Y-99700961D02*
X153291914Y-99605723D01*
X153291914Y-99605723D02*
X153244295Y-99415247D01*
X153244295Y-99415247D02*
X153244295Y-99272390D01*
X153244295Y-99272390D02*
X153291914Y-99081914D01*
X153291914Y-99081914D02*
X153339533Y-98986676D01*
X153339533Y-98986676D02*
X153434771Y-98891438D01*
X153434771Y-98891438D02*
X153577628Y-98843819D01*
X153577628Y-98843819D02*
X153672866Y-98843819D01*
X153672866Y-98843819D02*
X153815723Y-98891438D01*
X153815723Y-98891438D02*
X153863342Y-98939057D01*
X154244295Y-98939057D02*
X154291914Y-98891438D01*
X154291914Y-98891438D02*
X154387152Y-98843819D01*
X154387152Y-98843819D02*
X154625247Y-98843819D01*
X154625247Y-98843819D02*
X154720485Y-98891438D01*
X154720485Y-98891438D02*
X154768104Y-98939057D01*
X154768104Y-98939057D02*
X154815723Y-99034295D01*
X154815723Y-99034295D02*
X154815723Y-99129533D01*
X154815723Y-99129533D02*
X154768104Y-99272390D01*
X154768104Y-99272390D02*
X154196676Y-99843819D01*
X154196676Y-99843819D02*
X154815723Y-99843819D01*
X155672866Y-98843819D02*
X155482390Y-98843819D01*
X155482390Y-98843819D02*
X155387152Y-98891438D01*
X155387152Y-98891438D02*
X155339533Y-98939057D01*
X155339533Y-98939057D02*
X155244295Y-99081914D01*
X155244295Y-99081914D02*
X155196676Y-99272390D01*
X155196676Y-99272390D02*
X155196676Y-99653342D01*
X155196676Y-99653342D02*
X155244295Y-99748580D01*
X155244295Y-99748580D02*
X155291914Y-99796200D01*
X155291914Y-99796200D02*
X155387152Y-99843819D01*
X155387152Y-99843819D02*
X155577628Y-99843819D01*
X155577628Y-99843819D02*
X155672866Y-99796200D01*
X155672866Y-99796200D02*
X155720485Y-99748580D01*
X155720485Y-99748580D02*
X155768104Y-99653342D01*
X155768104Y-99653342D02*
X155768104Y-99415247D01*
X155768104Y-99415247D02*
X155720485Y-99320009D01*
X155720485Y-99320009D02*
X155672866Y-99272390D01*
X155672866Y-99272390D02*
X155577628Y-99224771D01*
X155577628Y-99224771D02*
X155387152Y-99224771D01*
X155387152Y-99224771D02*
X155291914Y-99272390D01*
X155291914Y-99272390D02*
X155244295Y-99320009D01*
X155244295Y-99320009D02*
X155196676Y-99415247D01*
X159859742Y-70050819D02*
X159526409Y-69574628D01*
X159288314Y-70050819D02*
X159288314Y-69050819D01*
X159288314Y-69050819D02*
X159669266Y-69050819D01*
X159669266Y-69050819D02*
X159764504Y-69098438D01*
X159764504Y-69098438D02*
X159812123Y-69146057D01*
X159812123Y-69146057D02*
X159859742Y-69241295D01*
X159859742Y-69241295D02*
X159859742Y-69384152D01*
X159859742Y-69384152D02*
X159812123Y-69479390D01*
X159812123Y-69479390D02*
X159764504Y-69527009D01*
X159764504Y-69527009D02*
X159669266Y-69574628D01*
X159669266Y-69574628D02*
X159288314Y-69574628D01*
X160812123Y-70050819D02*
X160240695Y-70050819D01*
X160526409Y-70050819D02*
X160526409Y-69050819D01*
X160526409Y-69050819D02*
X160431171Y-69193676D01*
X160431171Y-69193676D02*
X160335933Y-69288914D01*
X160335933Y-69288914D02*
X160240695Y-69336533D01*
X161288314Y-70050819D02*
X161478790Y-70050819D01*
X161478790Y-70050819D02*
X161574028Y-70003200D01*
X161574028Y-70003200D02*
X161621647Y-69955580D01*
X161621647Y-69955580D02*
X161716885Y-69812723D01*
X161716885Y-69812723D02*
X161764504Y-69622247D01*
X161764504Y-69622247D02*
X161764504Y-69241295D01*
X161764504Y-69241295D02*
X161716885Y-69146057D01*
X161716885Y-69146057D02*
X161669266Y-69098438D01*
X161669266Y-69098438D02*
X161574028Y-69050819D01*
X161574028Y-69050819D02*
X161383552Y-69050819D01*
X161383552Y-69050819D02*
X161288314Y-69098438D01*
X161288314Y-69098438D02*
X161240695Y-69146057D01*
X161240695Y-69146057D02*
X161193076Y-69241295D01*
X161193076Y-69241295D02*
X161193076Y-69479390D01*
X161193076Y-69479390D02*
X161240695Y-69574628D01*
X161240695Y-69574628D02*
X161288314Y-69622247D01*
X161288314Y-69622247D02*
X161383552Y-69669866D01*
X161383552Y-69669866D02*
X161574028Y-69669866D01*
X161574028Y-69669866D02*
X161669266Y-69622247D01*
X161669266Y-69622247D02*
X161716885Y-69574628D01*
X161716885Y-69574628D02*
X161764504Y-69479390D01*
X116078095Y-94942819D02*
X116078095Y-93942819D01*
X116078095Y-94419009D02*
X116649523Y-94419009D01*
X116649523Y-94942819D02*
X116649523Y-93942819D01*
X117649523Y-94942819D02*
X117078095Y-94942819D01*
X117363809Y-94942819D02*
X117363809Y-93942819D01*
X117363809Y-93942819D02*
X117268571Y-94085676D01*
X117268571Y-94085676D02*
X117173333Y-94180914D01*
X117173333Y-94180914D02*
X117078095Y-94228533D01*
X162661695Y-99311619D02*
X162661695Y-98311619D01*
X162661695Y-98787809D02*
X163233123Y-98787809D01*
X163233123Y-99311619D02*
X163233123Y-98311619D01*
X163614076Y-98311619D02*
X164233123Y-98311619D01*
X164233123Y-98311619D02*
X163899790Y-98692571D01*
X163899790Y-98692571D02*
X164042647Y-98692571D01*
X164042647Y-98692571D02*
X164137885Y-98740190D01*
X164137885Y-98740190D02*
X164185504Y-98787809D01*
X164185504Y-98787809D02*
X164233123Y-98883047D01*
X164233123Y-98883047D02*
X164233123Y-99121142D01*
X164233123Y-99121142D02*
X164185504Y-99216380D01*
X164185504Y-99216380D02*
X164137885Y-99264000D01*
X164137885Y-99264000D02*
X164042647Y-99311619D01*
X164042647Y-99311619D02*
X163756933Y-99311619D01*
X163756933Y-99311619D02*
X163661695Y-99264000D01*
X163661695Y-99264000D02*
X163614076Y-99216380D01*
X137602933Y-80058419D02*
X137269600Y-79582228D01*
X137031505Y-80058419D02*
X137031505Y-79058419D01*
X137031505Y-79058419D02*
X137412457Y-79058419D01*
X137412457Y-79058419D02*
X137507695Y-79106038D01*
X137507695Y-79106038D02*
X137555314Y-79153657D01*
X137555314Y-79153657D02*
X137602933Y-79248895D01*
X137602933Y-79248895D02*
X137602933Y-79391752D01*
X137602933Y-79391752D02*
X137555314Y-79486990D01*
X137555314Y-79486990D02*
X137507695Y-79534609D01*
X137507695Y-79534609D02*
X137412457Y-79582228D01*
X137412457Y-79582228D02*
X137031505Y-79582228D01*
X137936267Y-79058419D02*
X138602933Y-79058419D01*
X138602933Y-79058419D02*
X138174362Y-80058419D01*
X149166342Y-82274580D02*
X149118723Y-82322200D01*
X149118723Y-82322200D02*
X148975866Y-82369819D01*
X148975866Y-82369819D02*
X148880628Y-82369819D01*
X148880628Y-82369819D02*
X148737771Y-82322200D01*
X148737771Y-82322200D02*
X148642533Y-82226961D01*
X148642533Y-82226961D02*
X148594914Y-82131723D01*
X148594914Y-82131723D02*
X148547295Y-81941247D01*
X148547295Y-81941247D02*
X148547295Y-81798390D01*
X148547295Y-81798390D02*
X148594914Y-81607914D01*
X148594914Y-81607914D02*
X148642533Y-81512676D01*
X148642533Y-81512676D02*
X148737771Y-81417438D01*
X148737771Y-81417438D02*
X148880628Y-81369819D01*
X148880628Y-81369819D02*
X148975866Y-81369819D01*
X148975866Y-81369819D02*
X149118723Y-81417438D01*
X149118723Y-81417438D02*
X149166342Y-81465057D01*
X149547295Y-81465057D02*
X149594914Y-81417438D01*
X149594914Y-81417438D02*
X149690152Y-81369819D01*
X149690152Y-81369819D02*
X149928247Y-81369819D01*
X149928247Y-81369819D02*
X150023485Y-81417438D01*
X150023485Y-81417438D02*
X150071104Y-81465057D01*
X150071104Y-81465057D02*
X150118723Y-81560295D01*
X150118723Y-81560295D02*
X150118723Y-81655533D01*
X150118723Y-81655533D02*
X150071104Y-81798390D01*
X150071104Y-81798390D02*
X149499676Y-82369819D01*
X149499676Y-82369819D02*
X150118723Y-82369819D01*
X150975866Y-81703152D02*
X150975866Y-82369819D01*
X150737771Y-81322200D02*
X150499676Y-82036485D01*
X150499676Y-82036485D02*
X151118723Y-82036485D01*
X139850019Y-79509857D02*
X139373828Y-79843190D01*
X139850019Y-80081285D02*
X138850019Y-80081285D01*
X138850019Y-80081285D02*
X138850019Y-79700333D01*
X138850019Y-79700333D02*
X138897638Y-79605095D01*
X138897638Y-79605095D02*
X138945257Y-79557476D01*
X138945257Y-79557476D02*
X139040495Y-79509857D01*
X139040495Y-79509857D02*
X139183352Y-79509857D01*
X139183352Y-79509857D02*
X139278590Y-79557476D01*
X139278590Y-79557476D02*
X139326209Y-79605095D01*
X139326209Y-79605095D02*
X139373828Y-79700333D01*
X139373828Y-79700333D02*
X139373828Y-80081285D01*
X138945257Y-79128904D02*
X138897638Y-79081285D01*
X138897638Y-79081285D02*
X138850019Y-78986047D01*
X138850019Y-78986047D02*
X138850019Y-78747952D01*
X138850019Y-78747952D02*
X138897638Y-78652714D01*
X138897638Y-78652714D02*
X138945257Y-78605095D01*
X138945257Y-78605095D02*
X139040495Y-78557476D01*
X139040495Y-78557476D02*
X139135733Y-78557476D01*
X139135733Y-78557476D02*
X139278590Y-78605095D01*
X139278590Y-78605095D02*
X139850019Y-79176523D01*
X139850019Y-79176523D02*
X139850019Y-78557476D01*
X138850019Y-78224142D02*
X138850019Y-77605095D01*
X138850019Y-77605095D02*
X139230971Y-77938428D01*
X139230971Y-77938428D02*
X139230971Y-77795571D01*
X139230971Y-77795571D02*
X139278590Y-77700333D01*
X139278590Y-77700333D02*
X139326209Y-77652714D01*
X139326209Y-77652714D02*
X139421447Y-77605095D01*
X139421447Y-77605095D02*
X139659542Y-77605095D01*
X139659542Y-77605095D02*
X139754780Y-77652714D01*
X139754780Y-77652714D02*
X139802400Y-77700333D01*
X139802400Y-77700333D02*
X139850019Y-77795571D01*
X139850019Y-77795571D02*
X139850019Y-78081285D01*
X139850019Y-78081285D02*
X139802400Y-78176523D01*
X139802400Y-78176523D02*
X139754780Y-78224142D01*
X145026142Y-69930180D02*
X144978523Y-69977800D01*
X144978523Y-69977800D02*
X144835666Y-70025419D01*
X144835666Y-70025419D02*
X144740428Y-70025419D01*
X144740428Y-70025419D02*
X144597571Y-69977800D01*
X144597571Y-69977800D02*
X144502333Y-69882561D01*
X144502333Y-69882561D02*
X144454714Y-69787323D01*
X144454714Y-69787323D02*
X144407095Y-69596847D01*
X144407095Y-69596847D02*
X144407095Y-69453990D01*
X144407095Y-69453990D02*
X144454714Y-69263514D01*
X144454714Y-69263514D02*
X144502333Y-69168276D01*
X144502333Y-69168276D02*
X144597571Y-69073038D01*
X144597571Y-69073038D02*
X144740428Y-69025419D01*
X144740428Y-69025419D02*
X144835666Y-69025419D01*
X144835666Y-69025419D02*
X144978523Y-69073038D01*
X144978523Y-69073038D02*
X145026142Y-69120657D01*
X145978523Y-70025419D02*
X145407095Y-70025419D01*
X145692809Y-70025419D02*
X145692809Y-69025419D01*
X145692809Y-69025419D02*
X145597571Y-69168276D01*
X145597571Y-69168276D02*
X145502333Y-69263514D01*
X145502333Y-69263514D02*
X145407095Y-69311133D01*
X146883285Y-69025419D02*
X146407095Y-69025419D01*
X146407095Y-69025419D02*
X146359476Y-69501609D01*
X146359476Y-69501609D02*
X146407095Y-69453990D01*
X146407095Y-69453990D02*
X146502333Y-69406371D01*
X146502333Y-69406371D02*
X146740428Y-69406371D01*
X146740428Y-69406371D02*
X146835666Y-69453990D01*
X146835666Y-69453990D02*
X146883285Y-69501609D01*
X146883285Y-69501609D02*
X146930904Y-69596847D01*
X146930904Y-69596847D02*
X146930904Y-69834942D01*
X146930904Y-69834942D02*
X146883285Y-69930180D01*
X146883285Y-69930180D02*
X146835666Y-69977800D01*
X146835666Y-69977800D02*
X146740428Y-70025419D01*
X146740428Y-70025419D02*
X146502333Y-70025419D01*
X146502333Y-70025419D02*
X146407095Y-69977800D01*
X146407095Y-69977800D02*
X146359476Y-69930180D01*
X137501333Y-57858819D02*
X137168000Y-57382628D01*
X136929905Y-57858819D02*
X136929905Y-56858819D01*
X136929905Y-56858819D02*
X137310857Y-56858819D01*
X137310857Y-56858819D02*
X137406095Y-56906438D01*
X137406095Y-56906438D02*
X137453714Y-56954057D01*
X137453714Y-56954057D02*
X137501333Y-57049295D01*
X137501333Y-57049295D02*
X137501333Y-57192152D01*
X137501333Y-57192152D02*
X137453714Y-57287390D01*
X137453714Y-57287390D02*
X137406095Y-57335009D01*
X137406095Y-57335009D02*
X137310857Y-57382628D01*
X137310857Y-57382628D02*
X136929905Y-57382628D01*
X137834667Y-56858819D02*
X138453714Y-56858819D01*
X138453714Y-56858819D02*
X138120381Y-57239771D01*
X138120381Y-57239771D02*
X138263238Y-57239771D01*
X138263238Y-57239771D02*
X138358476Y-57287390D01*
X138358476Y-57287390D02*
X138406095Y-57335009D01*
X138406095Y-57335009D02*
X138453714Y-57430247D01*
X138453714Y-57430247D02*
X138453714Y-57668342D01*
X138453714Y-57668342D02*
X138406095Y-57763580D01*
X138406095Y-57763580D02*
X138358476Y-57811200D01*
X138358476Y-57811200D02*
X138263238Y-57858819D01*
X138263238Y-57858819D02*
X137977524Y-57858819D01*
X137977524Y-57858819D02*
X137882286Y-57811200D01*
X137882286Y-57811200D02*
X137834667Y-57763580D01*
X151387980Y-75649057D02*
X151435600Y-75696676D01*
X151435600Y-75696676D02*
X151483219Y-75839533D01*
X151483219Y-75839533D02*
X151483219Y-75934771D01*
X151483219Y-75934771D02*
X151435600Y-76077628D01*
X151435600Y-76077628D02*
X151340361Y-76172866D01*
X151340361Y-76172866D02*
X151245123Y-76220485D01*
X151245123Y-76220485D02*
X151054647Y-76268104D01*
X151054647Y-76268104D02*
X150911790Y-76268104D01*
X150911790Y-76268104D02*
X150721314Y-76220485D01*
X150721314Y-76220485D02*
X150626076Y-76172866D01*
X150626076Y-76172866D02*
X150530838Y-76077628D01*
X150530838Y-76077628D02*
X150483219Y-75934771D01*
X150483219Y-75934771D02*
X150483219Y-75839533D01*
X150483219Y-75839533D02*
X150530838Y-75696676D01*
X150530838Y-75696676D02*
X150578457Y-75649057D01*
X151483219Y-74696676D02*
X151483219Y-75268104D01*
X151483219Y-74982390D02*
X150483219Y-74982390D01*
X150483219Y-74982390D02*
X150626076Y-75077628D01*
X150626076Y-75077628D02*
X150721314Y-75172866D01*
X150721314Y-75172866D02*
X150768933Y-75268104D01*
X150483219Y-73839533D02*
X150483219Y-74030009D01*
X150483219Y-74030009D02*
X150530838Y-74125247D01*
X150530838Y-74125247D02*
X150578457Y-74172866D01*
X150578457Y-74172866D02*
X150721314Y-74268104D01*
X150721314Y-74268104D02*
X150911790Y-74315723D01*
X150911790Y-74315723D02*
X151292742Y-74315723D01*
X151292742Y-74315723D02*
X151387980Y-74268104D01*
X151387980Y-74268104D02*
X151435600Y-74220485D01*
X151435600Y-74220485D02*
X151483219Y-74125247D01*
X151483219Y-74125247D02*
X151483219Y-73934771D01*
X151483219Y-73934771D02*
X151435600Y-73839533D01*
X151435600Y-73839533D02*
X151387980Y-73791914D01*
X151387980Y-73791914D02*
X151292742Y-73744295D01*
X151292742Y-73744295D02*
X151054647Y-73744295D01*
X151054647Y-73744295D02*
X150959409Y-73791914D01*
X150959409Y-73791914D02*
X150911790Y-73839533D01*
X150911790Y-73839533D02*
X150864171Y-73934771D01*
X150864171Y-73934771D02*
X150864171Y-74125247D01*
X150864171Y-74125247D02*
X150911790Y-74220485D01*
X150911790Y-74220485D02*
X150959409Y-74268104D01*
X150959409Y-74268104D02*
X151054647Y-74315723D01*
X125544342Y-86281419D02*
X125211009Y-85805228D01*
X124972914Y-86281419D02*
X124972914Y-85281419D01*
X124972914Y-85281419D02*
X125353866Y-85281419D01*
X125353866Y-85281419D02*
X125449104Y-85329038D01*
X125449104Y-85329038D02*
X125496723Y-85376657D01*
X125496723Y-85376657D02*
X125544342Y-85471895D01*
X125544342Y-85471895D02*
X125544342Y-85614752D01*
X125544342Y-85614752D02*
X125496723Y-85709990D01*
X125496723Y-85709990D02*
X125449104Y-85757609D01*
X125449104Y-85757609D02*
X125353866Y-85805228D01*
X125353866Y-85805228D02*
X124972914Y-85805228D01*
X126496723Y-86281419D02*
X125925295Y-86281419D01*
X126211009Y-86281419D02*
X126211009Y-85281419D01*
X126211009Y-85281419D02*
X126115771Y-85424276D01*
X126115771Y-85424276D02*
X126020533Y-85519514D01*
X126020533Y-85519514D02*
X125925295Y-85567133D01*
X126830057Y-85281419D02*
X127496723Y-85281419D01*
X127496723Y-85281419D02*
X127068152Y-86281419D01*
X134224733Y-55471219D02*
X133891400Y-54995028D01*
X133653305Y-55471219D02*
X133653305Y-54471219D01*
X133653305Y-54471219D02*
X134034257Y-54471219D01*
X134034257Y-54471219D02*
X134129495Y-54518838D01*
X134129495Y-54518838D02*
X134177114Y-54566457D01*
X134177114Y-54566457D02*
X134224733Y-54661695D01*
X134224733Y-54661695D02*
X134224733Y-54804552D01*
X134224733Y-54804552D02*
X134177114Y-54899790D01*
X134177114Y-54899790D02*
X134129495Y-54947409D01*
X134129495Y-54947409D02*
X134034257Y-54995028D01*
X134034257Y-54995028D02*
X133653305Y-54995028D01*
X134605686Y-54566457D02*
X134653305Y-54518838D01*
X134653305Y-54518838D02*
X134748543Y-54471219D01*
X134748543Y-54471219D02*
X134986638Y-54471219D01*
X134986638Y-54471219D02*
X135081876Y-54518838D01*
X135081876Y-54518838D02*
X135129495Y-54566457D01*
X135129495Y-54566457D02*
X135177114Y-54661695D01*
X135177114Y-54661695D02*
X135177114Y-54756933D01*
X135177114Y-54756933D02*
X135129495Y-54899790D01*
X135129495Y-54899790D02*
X134558067Y-55471219D01*
X134558067Y-55471219D02*
X135177114Y-55471219D01*
X119911019Y-76766657D02*
X119434828Y-77099990D01*
X119911019Y-77338085D02*
X118911019Y-77338085D01*
X118911019Y-77338085D02*
X118911019Y-76957133D01*
X118911019Y-76957133D02*
X118958638Y-76861895D01*
X118958638Y-76861895D02*
X119006257Y-76814276D01*
X119006257Y-76814276D02*
X119101495Y-76766657D01*
X119101495Y-76766657D02*
X119244352Y-76766657D01*
X119244352Y-76766657D02*
X119339590Y-76814276D01*
X119339590Y-76814276D02*
X119387209Y-76861895D01*
X119387209Y-76861895D02*
X119434828Y-76957133D01*
X119434828Y-76957133D02*
X119434828Y-77338085D01*
X119911019Y-75814276D02*
X119911019Y-76385704D01*
X119911019Y-76099990D02*
X118911019Y-76099990D01*
X118911019Y-76099990D02*
X119053876Y-76195228D01*
X119053876Y-76195228D02*
X119149114Y-76290466D01*
X119149114Y-76290466D02*
X119196733Y-76385704D01*
X118911019Y-75195228D02*
X118911019Y-75099990D01*
X118911019Y-75099990D02*
X118958638Y-75004752D01*
X118958638Y-75004752D02*
X119006257Y-74957133D01*
X119006257Y-74957133D02*
X119101495Y-74909514D01*
X119101495Y-74909514D02*
X119291971Y-74861895D01*
X119291971Y-74861895D02*
X119530066Y-74861895D01*
X119530066Y-74861895D02*
X119720542Y-74909514D01*
X119720542Y-74909514D02*
X119815780Y-74957133D01*
X119815780Y-74957133D02*
X119863400Y-75004752D01*
X119863400Y-75004752D02*
X119911019Y-75099990D01*
X119911019Y-75099990D02*
X119911019Y-75195228D01*
X119911019Y-75195228D02*
X119863400Y-75290466D01*
X119863400Y-75290466D02*
X119815780Y-75338085D01*
X119815780Y-75338085D02*
X119720542Y-75385704D01*
X119720542Y-75385704D02*
X119530066Y-75433323D01*
X119530066Y-75433323D02*
X119291971Y-75433323D01*
X119291971Y-75433323D02*
X119101495Y-75385704D01*
X119101495Y-75385704D02*
X119006257Y-75338085D01*
X119006257Y-75338085D02*
X118958638Y-75290466D01*
X118958638Y-75290466D02*
X118911019Y-75195228D01*
X141812180Y-96553257D02*
X141859800Y-96600876D01*
X141859800Y-96600876D02*
X141907419Y-96743733D01*
X141907419Y-96743733D02*
X141907419Y-96838971D01*
X141907419Y-96838971D02*
X141859800Y-96981828D01*
X141859800Y-96981828D02*
X141764561Y-97077066D01*
X141764561Y-97077066D02*
X141669323Y-97124685D01*
X141669323Y-97124685D02*
X141478847Y-97172304D01*
X141478847Y-97172304D02*
X141335990Y-97172304D01*
X141335990Y-97172304D02*
X141145514Y-97124685D01*
X141145514Y-97124685D02*
X141050276Y-97077066D01*
X141050276Y-97077066D02*
X140955038Y-96981828D01*
X140955038Y-96981828D02*
X140907419Y-96838971D01*
X140907419Y-96838971D02*
X140907419Y-96743733D01*
X140907419Y-96743733D02*
X140955038Y-96600876D01*
X140955038Y-96600876D02*
X141002657Y-96553257D01*
X141002657Y-96172304D02*
X140955038Y-96124685D01*
X140955038Y-96124685D02*
X140907419Y-96029447D01*
X140907419Y-96029447D02*
X140907419Y-95791352D01*
X140907419Y-95791352D02*
X140955038Y-95696114D01*
X140955038Y-95696114D02*
X141002657Y-95648495D01*
X141002657Y-95648495D02*
X141097895Y-95600876D01*
X141097895Y-95600876D02*
X141193133Y-95600876D01*
X141193133Y-95600876D02*
X141335990Y-95648495D01*
X141335990Y-95648495D02*
X141907419Y-96219923D01*
X141907419Y-96219923D02*
X141907419Y-95600876D01*
X140907419Y-94981828D02*
X140907419Y-94886590D01*
X140907419Y-94886590D02*
X140955038Y-94791352D01*
X140955038Y-94791352D02*
X141002657Y-94743733D01*
X141002657Y-94743733D02*
X141097895Y-94696114D01*
X141097895Y-94696114D02*
X141288371Y-94648495D01*
X141288371Y-94648495D02*
X141526466Y-94648495D01*
X141526466Y-94648495D02*
X141716942Y-94696114D01*
X141716942Y-94696114D02*
X141812180Y-94743733D01*
X141812180Y-94743733D02*
X141859800Y-94791352D01*
X141859800Y-94791352D02*
X141907419Y-94886590D01*
X141907419Y-94886590D02*
X141907419Y-94981828D01*
X141907419Y-94981828D02*
X141859800Y-95077066D01*
X141859800Y-95077066D02*
X141812180Y-95124685D01*
X141812180Y-95124685D02*
X141716942Y-95172304D01*
X141716942Y-95172304D02*
X141526466Y-95219923D01*
X141526466Y-95219923D02*
X141288371Y-95219923D01*
X141288371Y-95219923D02*
X141097895Y-95172304D01*
X141097895Y-95172304D02*
X141002657Y-95124685D01*
X141002657Y-95124685D02*
X140955038Y-95077066D01*
X140955038Y-95077066D02*
X140907419Y-94981828D01*
X143285380Y-96498066D02*
X143333000Y-96545685D01*
X143333000Y-96545685D02*
X143380619Y-96688542D01*
X143380619Y-96688542D02*
X143380619Y-96783780D01*
X143380619Y-96783780D02*
X143333000Y-96926637D01*
X143333000Y-96926637D02*
X143237761Y-97021875D01*
X143237761Y-97021875D02*
X143142523Y-97069494D01*
X143142523Y-97069494D02*
X142952047Y-97117113D01*
X142952047Y-97117113D02*
X142809190Y-97117113D01*
X142809190Y-97117113D02*
X142618714Y-97069494D01*
X142618714Y-97069494D02*
X142523476Y-97021875D01*
X142523476Y-97021875D02*
X142428238Y-96926637D01*
X142428238Y-96926637D02*
X142380619Y-96783780D01*
X142380619Y-96783780D02*
X142380619Y-96688542D01*
X142380619Y-96688542D02*
X142428238Y-96545685D01*
X142428238Y-96545685D02*
X142475857Y-96498066D01*
X142713952Y-95640923D02*
X143380619Y-95640923D01*
X142333000Y-95879018D02*
X143047285Y-96117113D01*
X143047285Y-96117113D02*
X143047285Y-95498066D01*
X125595142Y-97254219D02*
X125261809Y-96778028D01*
X125023714Y-97254219D02*
X125023714Y-96254219D01*
X125023714Y-96254219D02*
X125404666Y-96254219D01*
X125404666Y-96254219D02*
X125499904Y-96301838D01*
X125499904Y-96301838D02*
X125547523Y-96349457D01*
X125547523Y-96349457D02*
X125595142Y-96444695D01*
X125595142Y-96444695D02*
X125595142Y-96587552D01*
X125595142Y-96587552D02*
X125547523Y-96682790D01*
X125547523Y-96682790D02*
X125499904Y-96730409D01*
X125499904Y-96730409D02*
X125404666Y-96778028D01*
X125404666Y-96778028D02*
X125023714Y-96778028D01*
X126547523Y-97254219D02*
X125976095Y-97254219D01*
X126261809Y-97254219D02*
X126261809Y-96254219D01*
X126261809Y-96254219D02*
X126166571Y-96397076D01*
X126166571Y-96397076D02*
X126071333Y-96492314D01*
X126071333Y-96492314D02*
X125976095Y-96539933D01*
X126928476Y-96349457D02*
X126976095Y-96301838D01*
X126976095Y-96301838D02*
X127071333Y-96254219D01*
X127071333Y-96254219D02*
X127309428Y-96254219D01*
X127309428Y-96254219D02*
X127404666Y-96301838D01*
X127404666Y-96301838D02*
X127452285Y-96349457D01*
X127452285Y-96349457D02*
X127499904Y-96444695D01*
X127499904Y-96444695D02*
X127499904Y-96539933D01*
X127499904Y-96539933D02*
X127452285Y-96682790D01*
X127452285Y-96682790D02*
X126880857Y-97254219D01*
X126880857Y-97254219D02*
X127499904Y-97254219D01*
X133164342Y-63396019D02*
X132831009Y-62919828D01*
X132592914Y-63396019D02*
X132592914Y-62396019D01*
X132592914Y-62396019D02*
X132973866Y-62396019D01*
X132973866Y-62396019D02*
X133069104Y-62443638D01*
X133069104Y-62443638D02*
X133116723Y-62491257D01*
X133116723Y-62491257D02*
X133164342Y-62586495D01*
X133164342Y-62586495D02*
X133164342Y-62729352D01*
X133164342Y-62729352D02*
X133116723Y-62824590D01*
X133116723Y-62824590D02*
X133069104Y-62872209D01*
X133069104Y-62872209D02*
X132973866Y-62919828D01*
X132973866Y-62919828D02*
X132592914Y-62919828D01*
X133545295Y-62491257D02*
X133592914Y-62443638D01*
X133592914Y-62443638D02*
X133688152Y-62396019D01*
X133688152Y-62396019D02*
X133926247Y-62396019D01*
X133926247Y-62396019D02*
X134021485Y-62443638D01*
X134021485Y-62443638D02*
X134069104Y-62491257D01*
X134069104Y-62491257D02*
X134116723Y-62586495D01*
X134116723Y-62586495D02*
X134116723Y-62681733D01*
X134116723Y-62681733D02*
X134069104Y-62824590D01*
X134069104Y-62824590D02*
X133497676Y-63396019D01*
X133497676Y-63396019D02*
X134116723Y-63396019D01*
X134973866Y-62396019D02*
X134783390Y-62396019D01*
X134783390Y-62396019D02*
X134688152Y-62443638D01*
X134688152Y-62443638D02*
X134640533Y-62491257D01*
X134640533Y-62491257D02*
X134545295Y-62634114D01*
X134545295Y-62634114D02*
X134497676Y-62824590D01*
X134497676Y-62824590D02*
X134497676Y-63205542D01*
X134497676Y-63205542D02*
X134545295Y-63300780D01*
X134545295Y-63300780D02*
X134592914Y-63348400D01*
X134592914Y-63348400D02*
X134688152Y-63396019D01*
X134688152Y-63396019D02*
X134878628Y-63396019D01*
X134878628Y-63396019D02*
X134973866Y-63348400D01*
X134973866Y-63348400D02*
X135021485Y-63300780D01*
X135021485Y-63300780D02*
X135069104Y-63205542D01*
X135069104Y-63205542D02*
X135069104Y-62967447D01*
X135069104Y-62967447D02*
X135021485Y-62872209D01*
X135021485Y-62872209D02*
X134973866Y-62824590D01*
X134973866Y-62824590D02*
X134878628Y-62776971D01*
X134878628Y-62776971D02*
X134688152Y-62776971D01*
X134688152Y-62776971D02*
X134592914Y-62824590D01*
X134592914Y-62824590D02*
X134545295Y-62872209D01*
X134545295Y-62872209D02*
X134497676Y-62967447D01*
X123803580Y-91352666D02*
X123851200Y-91400285D01*
X123851200Y-91400285D02*
X123898819Y-91543142D01*
X123898819Y-91543142D02*
X123898819Y-91638380D01*
X123898819Y-91638380D02*
X123851200Y-91781237D01*
X123851200Y-91781237D02*
X123755961Y-91876475D01*
X123755961Y-91876475D02*
X123660723Y-91924094D01*
X123660723Y-91924094D02*
X123470247Y-91971713D01*
X123470247Y-91971713D02*
X123327390Y-91971713D01*
X123327390Y-91971713D02*
X123136914Y-91924094D01*
X123136914Y-91924094D02*
X123041676Y-91876475D01*
X123041676Y-91876475D02*
X122946438Y-91781237D01*
X122946438Y-91781237D02*
X122898819Y-91638380D01*
X122898819Y-91638380D02*
X122898819Y-91543142D01*
X122898819Y-91543142D02*
X122946438Y-91400285D01*
X122946438Y-91400285D02*
X122994057Y-91352666D01*
X122898819Y-90495523D02*
X122898819Y-90685999D01*
X122898819Y-90685999D02*
X122946438Y-90781237D01*
X122946438Y-90781237D02*
X122994057Y-90828856D01*
X122994057Y-90828856D02*
X123136914Y-90924094D01*
X123136914Y-90924094D02*
X123327390Y-90971713D01*
X123327390Y-90971713D02*
X123708342Y-90971713D01*
X123708342Y-90971713D02*
X123803580Y-90924094D01*
X123803580Y-90924094D02*
X123851200Y-90876475D01*
X123851200Y-90876475D02*
X123898819Y-90781237D01*
X123898819Y-90781237D02*
X123898819Y-90590761D01*
X123898819Y-90590761D02*
X123851200Y-90495523D01*
X123851200Y-90495523D02*
X123803580Y-90447904D01*
X123803580Y-90447904D02*
X123708342Y-90400285D01*
X123708342Y-90400285D02*
X123470247Y-90400285D01*
X123470247Y-90400285D02*
X123375009Y-90447904D01*
X123375009Y-90447904D02*
X123327390Y-90495523D01*
X123327390Y-90495523D02*
X123279771Y-90590761D01*
X123279771Y-90590761D02*
X123279771Y-90781237D01*
X123279771Y-90781237D02*
X123327390Y-90876475D01*
X123327390Y-90876475D02*
X123375009Y-90924094D01*
X123375009Y-90924094D02*
X123470247Y-90971713D01*
X163161742Y-70050819D02*
X162828409Y-69574628D01*
X162590314Y-70050819D02*
X162590314Y-69050819D01*
X162590314Y-69050819D02*
X162971266Y-69050819D01*
X162971266Y-69050819D02*
X163066504Y-69098438D01*
X163066504Y-69098438D02*
X163114123Y-69146057D01*
X163114123Y-69146057D02*
X163161742Y-69241295D01*
X163161742Y-69241295D02*
X163161742Y-69384152D01*
X163161742Y-69384152D02*
X163114123Y-69479390D01*
X163114123Y-69479390D02*
X163066504Y-69527009D01*
X163066504Y-69527009D02*
X162971266Y-69574628D01*
X162971266Y-69574628D02*
X162590314Y-69574628D01*
X163542695Y-69146057D02*
X163590314Y-69098438D01*
X163590314Y-69098438D02*
X163685552Y-69050819D01*
X163685552Y-69050819D02*
X163923647Y-69050819D01*
X163923647Y-69050819D02*
X164018885Y-69098438D01*
X164018885Y-69098438D02*
X164066504Y-69146057D01*
X164066504Y-69146057D02*
X164114123Y-69241295D01*
X164114123Y-69241295D02*
X164114123Y-69336533D01*
X164114123Y-69336533D02*
X164066504Y-69479390D01*
X164066504Y-69479390D02*
X163495076Y-70050819D01*
X163495076Y-70050819D02*
X164114123Y-70050819D01*
X165066504Y-70050819D02*
X164495076Y-70050819D01*
X164780790Y-70050819D02*
X164780790Y-69050819D01*
X164780790Y-69050819D02*
X164685552Y-69193676D01*
X164685552Y-69193676D02*
X164590314Y-69288914D01*
X164590314Y-69288914D02*
X164495076Y-69336533D01*
X155364380Y-75522057D02*
X155412000Y-75569676D01*
X155412000Y-75569676D02*
X155459619Y-75712533D01*
X155459619Y-75712533D02*
X155459619Y-75807771D01*
X155459619Y-75807771D02*
X155412000Y-75950628D01*
X155412000Y-75950628D02*
X155316761Y-76045866D01*
X155316761Y-76045866D02*
X155221523Y-76093485D01*
X155221523Y-76093485D02*
X155031047Y-76141104D01*
X155031047Y-76141104D02*
X154888190Y-76141104D01*
X154888190Y-76141104D02*
X154697714Y-76093485D01*
X154697714Y-76093485D02*
X154602476Y-76045866D01*
X154602476Y-76045866D02*
X154507238Y-75950628D01*
X154507238Y-75950628D02*
X154459619Y-75807771D01*
X154459619Y-75807771D02*
X154459619Y-75712533D01*
X154459619Y-75712533D02*
X154507238Y-75569676D01*
X154507238Y-75569676D02*
X154554857Y-75522057D01*
X155459619Y-74569676D02*
X155459619Y-75141104D01*
X155459619Y-74855390D02*
X154459619Y-74855390D01*
X154459619Y-74855390D02*
X154602476Y-74950628D01*
X154602476Y-74950628D02*
X154697714Y-75045866D01*
X154697714Y-75045866D02*
X154745333Y-75141104D01*
X154459619Y-74236342D02*
X154459619Y-73569676D01*
X154459619Y-73569676D02*
X155459619Y-73998247D01*
X123041580Y-79922666D02*
X123089200Y-79970285D01*
X123089200Y-79970285D02*
X123136819Y-80113142D01*
X123136819Y-80113142D02*
X123136819Y-80208380D01*
X123136819Y-80208380D02*
X123089200Y-80351237D01*
X123089200Y-80351237D02*
X122993961Y-80446475D01*
X122993961Y-80446475D02*
X122898723Y-80494094D01*
X122898723Y-80494094D02*
X122708247Y-80541713D01*
X122708247Y-80541713D02*
X122565390Y-80541713D01*
X122565390Y-80541713D02*
X122374914Y-80494094D01*
X122374914Y-80494094D02*
X122279676Y-80446475D01*
X122279676Y-80446475D02*
X122184438Y-80351237D01*
X122184438Y-80351237D02*
X122136819Y-80208380D01*
X122136819Y-80208380D02*
X122136819Y-80113142D01*
X122136819Y-80113142D02*
X122184438Y-79970285D01*
X122184438Y-79970285D02*
X122232057Y-79922666D01*
X122136819Y-79589332D02*
X122136819Y-78970285D01*
X122136819Y-78970285D02*
X122517771Y-79303618D01*
X122517771Y-79303618D02*
X122517771Y-79160761D01*
X122517771Y-79160761D02*
X122565390Y-79065523D01*
X122565390Y-79065523D02*
X122613009Y-79017904D01*
X122613009Y-79017904D02*
X122708247Y-78970285D01*
X122708247Y-78970285D02*
X122946342Y-78970285D01*
X122946342Y-78970285D02*
X123041580Y-79017904D01*
X123041580Y-79017904D02*
X123089200Y-79065523D01*
X123089200Y-79065523D02*
X123136819Y-79160761D01*
X123136819Y-79160761D02*
X123136819Y-79446475D01*
X123136819Y-79446475D02*
X123089200Y-79541713D01*
X123089200Y-79541713D02*
X123041580Y-79589332D01*
X154816980Y-85809057D02*
X154864600Y-85856676D01*
X154864600Y-85856676D02*
X154912219Y-85999533D01*
X154912219Y-85999533D02*
X154912219Y-86094771D01*
X154912219Y-86094771D02*
X154864600Y-86237628D01*
X154864600Y-86237628D02*
X154769361Y-86332866D01*
X154769361Y-86332866D02*
X154674123Y-86380485D01*
X154674123Y-86380485D02*
X154483647Y-86428104D01*
X154483647Y-86428104D02*
X154340790Y-86428104D01*
X154340790Y-86428104D02*
X154150314Y-86380485D01*
X154150314Y-86380485D02*
X154055076Y-86332866D01*
X154055076Y-86332866D02*
X153959838Y-86237628D01*
X153959838Y-86237628D02*
X153912219Y-86094771D01*
X153912219Y-86094771D02*
X153912219Y-85999533D01*
X153912219Y-85999533D02*
X153959838Y-85856676D01*
X153959838Y-85856676D02*
X154007457Y-85809057D01*
X154007457Y-85428104D02*
X153959838Y-85380485D01*
X153959838Y-85380485D02*
X153912219Y-85285247D01*
X153912219Y-85285247D02*
X153912219Y-85047152D01*
X153912219Y-85047152D02*
X153959838Y-84951914D01*
X153959838Y-84951914D02*
X154007457Y-84904295D01*
X154007457Y-84904295D02*
X154102695Y-84856676D01*
X154102695Y-84856676D02*
X154197933Y-84856676D01*
X154197933Y-84856676D02*
X154340790Y-84904295D01*
X154340790Y-84904295D02*
X154912219Y-85475723D01*
X154912219Y-85475723D02*
X154912219Y-84856676D01*
X154340790Y-84285247D02*
X154293171Y-84380485D01*
X154293171Y-84380485D02*
X154245552Y-84428104D01*
X154245552Y-84428104D02*
X154150314Y-84475723D01*
X154150314Y-84475723D02*
X154102695Y-84475723D01*
X154102695Y-84475723D02*
X154007457Y-84428104D01*
X154007457Y-84428104D02*
X153959838Y-84380485D01*
X153959838Y-84380485D02*
X153912219Y-84285247D01*
X153912219Y-84285247D02*
X153912219Y-84094771D01*
X153912219Y-84094771D02*
X153959838Y-83999533D01*
X153959838Y-83999533D02*
X154007457Y-83951914D01*
X154007457Y-83951914D02*
X154102695Y-83904295D01*
X154102695Y-83904295D02*
X154150314Y-83904295D01*
X154150314Y-83904295D02*
X154245552Y-83951914D01*
X154245552Y-83951914D02*
X154293171Y-83999533D01*
X154293171Y-83999533D02*
X154340790Y-84094771D01*
X154340790Y-84094771D02*
X154340790Y-84285247D01*
X154340790Y-84285247D02*
X154388409Y-84380485D01*
X154388409Y-84380485D02*
X154436028Y-84428104D01*
X154436028Y-84428104D02*
X154531266Y-84475723D01*
X154531266Y-84475723D02*
X154721742Y-84475723D01*
X154721742Y-84475723D02*
X154816980Y-84428104D01*
X154816980Y-84428104D02*
X154864600Y-84380485D01*
X154864600Y-84380485D02*
X154912219Y-84285247D01*
X154912219Y-84285247D02*
X154912219Y-84094771D01*
X154912219Y-84094771D02*
X154864600Y-83999533D01*
X154864600Y-83999533D02*
X154816980Y-83951914D01*
X154816980Y-83951914D02*
X154721742Y-83904295D01*
X154721742Y-83904295D02*
X154531266Y-83904295D01*
X154531266Y-83904295D02*
X154436028Y-83951914D01*
X154436028Y-83951914D02*
X154388409Y-83999533D01*
X154388409Y-83999533D02*
X154340790Y-84094771D01*
X106519742Y-66932980D02*
X106472123Y-66980600D01*
X106472123Y-66980600D02*
X106329266Y-67028219D01*
X106329266Y-67028219D02*
X106234028Y-67028219D01*
X106234028Y-67028219D02*
X106091171Y-66980600D01*
X106091171Y-66980600D02*
X105995933Y-66885361D01*
X105995933Y-66885361D02*
X105948314Y-66790123D01*
X105948314Y-66790123D02*
X105900695Y-66599647D01*
X105900695Y-66599647D02*
X105900695Y-66456790D01*
X105900695Y-66456790D02*
X105948314Y-66266314D01*
X105948314Y-66266314D02*
X105995933Y-66171076D01*
X105995933Y-66171076D02*
X106091171Y-66075838D01*
X106091171Y-66075838D02*
X106234028Y-66028219D01*
X106234028Y-66028219D02*
X106329266Y-66028219D01*
X106329266Y-66028219D02*
X106472123Y-66075838D01*
X106472123Y-66075838D02*
X106519742Y-66123457D01*
X107472123Y-67028219D02*
X106900695Y-67028219D01*
X107186409Y-67028219D02*
X107186409Y-66028219D01*
X107186409Y-66028219D02*
X107091171Y-66171076D01*
X107091171Y-66171076D02*
X106995933Y-66266314D01*
X106995933Y-66266314D02*
X106900695Y-66313933D01*
X107805457Y-66028219D02*
X108424504Y-66028219D01*
X108424504Y-66028219D02*
X108091171Y-66409171D01*
X108091171Y-66409171D02*
X108234028Y-66409171D01*
X108234028Y-66409171D02*
X108329266Y-66456790D01*
X108329266Y-66456790D02*
X108376885Y-66504409D01*
X108376885Y-66504409D02*
X108424504Y-66599647D01*
X108424504Y-66599647D02*
X108424504Y-66837742D01*
X108424504Y-66837742D02*
X108376885Y-66932980D01*
X108376885Y-66932980D02*
X108329266Y-66980600D01*
X108329266Y-66980600D02*
X108234028Y-67028219D01*
X108234028Y-67028219D02*
X107948314Y-67028219D01*
X107948314Y-67028219D02*
X107853076Y-66980600D01*
X107853076Y-66980600D02*
X107805457Y-66932980D01*
X148124942Y-59078019D02*
X147791609Y-58601828D01*
X147553514Y-59078019D02*
X147553514Y-58078019D01*
X147553514Y-58078019D02*
X147934466Y-58078019D01*
X147934466Y-58078019D02*
X148029704Y-58125638D01*
X148029704Y-58125638D02*
X148077323Y-58173257D01*
X148077323Y-58173257D02*
X148124942Y-58268495D01*
X148124942Y-58268495D02*
X148124942Y-58411352D01*
X148124942Y-58411352D02*
X148077323Y-58506590D01*
X148077323Y-58506590D02*
X148029704Y-58554209D01*
X148029704Y-58554209D02*
X147934466Y-58601828D01*
X147934466Y-58601828D02*
X147553514Y-58601828D01*
X148505895Y-58173257D02*
X148553514Y-58125638D01*
X148553514Y-58125638D02*
X148648752Y-58078019D01*
X148648752Y-58078019D02*
X148886847Y-58078019D01*
X148886847Y-58078019D02*
X148982085Y-58125638D01*
X148982085Y-58125638D02*
X149029704Y-58173257D01*
X149029704Y-58173257D02*
X149077323Y-58268495D01*
X149077323Y-58268495D02*
X149077323Y-58363733D01*
X149077323Y-58363733D02*
X149029704Y-58506590D01*
X149029704Y-58506590D02*
X148458276Y-59078019D01*
X148458276Y-59078019D02*
X149077323Y-59078019D01*
X149934466Y-58411352D02*
X149934466Y-59078019D01*
X149696371Y-58030400D02*
X149458276Y-58744685D01*
X149458276Y-58744685D02*
X150077323Y-58744685D01*
X134231142Y-64519980D02*
X134183523Y-64567600D01*
X134183523Y-64567600D02*
X134040666Y-64615219D01*
X134040666Y-64615219D02*
X133945428Y-64615219D01*
X133945428Y-64615219D02*
X133802571Y-64567600D01*
X133802571Y-64567600D02*
X133707333Y-64472361D01*
X133707333Y-64472361D02*
X133659714Y-64377123D01*
X133659714Y-64377123D02*
X133612095Y-64186647D01*
X133612095Y-64186647D02*
X133612095Y-64043790D01*
X133612095Y-64043790D02*
X133659714Y-63853314D01*
X133659714Y-63853314D02*
X133707333Y-63758076D01*
X133707333Y-63758076D02*
X133802571Y-63662838D01*
X133802571Y-63662838D02*
X133945428Y-63615219D01*
X133945428Y-63615219D02*
X134040666Y-63615219D01*
X134040666Y-63615219D02*
X134183523Y-63662838D01*
X134183523Y-63662838D02*
X134231142Y-63710457D01*
X134612095Y-63710457D02*
X134659714Y-63662838D01*
X134659714Y-63662838D02*
X134754952Y-63615219D01*
X134754952Y-63615219D02*
X134993047Y-63615219D01*
X134993047Y-63615219D02*
X135088285Y-63662838D01*
X135088285Y-63662838D02*
X135135904Y-63710457D01*
X135135904Y-63710457D02*
X135183523Y-63805695D01*
X135183523Y-63805695D02*
X135183523Y-63900933D01*
X135183523Y-63900933D02*
X135135904Y-64043790D01*
X135135904Y-64043790D02*
X134564476Y-64615219D01*
X134564476Y-64615219D02*
X135183523Y-64615219D01*
X135659714Y-64615219D02*
X135850190Y-64615219D01*
X135850190Y-64615219D02*
X135945428Y-64567600D01*
X135945428Y-64567600D02*
X135993047Y-64519980D01*
X135993047Y-64519980D02*
X136088285Y-64377123D01*
X136088285Y-64377123D02*
X136135904Y-64186647D01*
X136135904Y-64186647D02*
X136135904Y-63805695D01*
X136135904Y-63805695D02*
X136088285Y-63710457D01*
X136088285Y-63710457D02*
X136040666Y-63662838D01*
X136040666Y-63662838D02*
X135945428Y-63615219D01*
X135945428Y-63615219D02*
X135754952Y-63615219D01*
X135754952Y-63615219D02*
X135659714Y-63662838D01*
X135659714Y-63662838D02*
X135612095Y-63710457D01*
X135612095Y-63710457D02*
X135564476Y-63805695D01*
X135564476Y-63805695D02*
X135564476Y-64043790D01*
X135564476Y-64043790D02*
X135612095Y-64139028D01*
X135612095Y-64139028D02*
X135659714Y-64186647D01*
X135659714Y-64186647D02*
X135754952Y-64234266D01*
X135754952Y-64234266D02*
X135945428Y-64234266D01*
X135945428Y-64234266D02*
X136040666Y-64186647D01*
X136040666Y-64186647D02*
X136088285Y-64139028D01*
X136088285Y-64139028D02*
X136135904Y-64043790D01*
X110050342Y-66983780D02*
X110002723Y-67031400D01*
X110002723Y-67031400D02*
X109859866Y-67079019D01*
X109859866Y-67079019D02*
X109764628Y-67079019D01*
X109764628Y-67079019D02*
X109621771Y-67031400D01*
X109621771Y-67031400D02*
X109526533Y-66936161D01*
X109526533Y-66936161D02*
X109478914Y-66840923D01*
X109478914Y-66840923D02*
X109431295Y-66650447D01*
X109431295Y-66650447D02*
X109431295Y-66507590D01*
X109431295Y-66507590D02*
X109478914Y-66317114D01*
X109478914Y-66317114D02*
X109526533Y-66221876D01*
X109526533Y-66221876D02*
X109621771Y-66126638D01*
X109621771Y-66126638D02*
X109764628Y-66079019D01*
X109764628Y-66079019D02*
X109859866Y-66079019D01*
X109859866Y-66079019D02*
X110002723Y-66126638D01*
X110002723Y-66126638D02*
X110050342Y-66174257D01*
X111002723Y-67079019D02*
X110431295Y-67079019D01*
X110717009Y-67079019D02*
X110717009Y-66079019D01*
X110717009Y-66079019D02*
X110621771Y-66221876D01*
X110621771Y-66221876D02*
X110526533Y-66317114D01*
X110526533Y-66317114D02*
X110431295Y-66364733D01*
X111574152Y-66507590D02*
X111478914Y-66459971D01*
X111478914Y-66459971D02*
X111431295Y-66412352D01*
X111431295Y-66412352D02*
X111383676Y-66317114D01*
X111383676Y-66317114D02*
X111383676Y-66269495D01*
X111383676Y-66269495D02*
X111431295Y-66174257D01*
X111431295Y-66174257D02*
X111478914Y-66126638D01*
X111478914Y-66126638D02*
X111574152Y-66079019D01*
X111574152Y-66079019D02*
X111764628Y-66079019D01*
X111764628Y-66079019D02*
X111859866Y-66126638D01*
X111859866Y-66126638D02*
X111907485Y-66174257D01*
X111907485Y-66174257D02*
X111955104Y-66269495D01*
X111955104Y-66269495D02*
X111955104Y-66317114D01*
X111955104Y-66317114D02*
X111907485Y-66412352D01*
X111907485Y-66412352D02*
X111859866Y-66459971D01*
X111859866Y-66459971D02*
X111764628Y-66507590D01*
X111764628Y-66507590D02*
X111574152Y-66507590D01*
X111574152Y-66507590D02*
X111478914Y-66555209D01*
X111478914Y-66555209D02*
X111431295Y-66602828D01*
X111431295Y-66602828D02*
X111383676Y-66698066D01*
X111383676Y-66698066D02*
X111383676Y-66888542D01*
X111383676Y-66888542D02*
X111431295Y-66983780D01*
X111431295Y-66983780D02*
X111478914Y-67031400D01*
X111478914Y-67031400D02*
X111574152Y-67079019D01*
X111574152Y-67079019D02*
X111764628Y-67079019D01*
X111764628Y-67079019D02*
X111859866Y-67031400D01*
X111859866Y-67031400D02*
X111907485Y-66983780D01*
X111907485Y-66983780D02*
X111955104Y-66888542D01*
X111955104Y-66888542D02*
X111955104Y-66698066D01*
X111955104Y-66698066D02*
X111907485Y-66602828D01*
X111907485Y-66602828D02*
X111859866Y-66555209D01*
X111859866Y-66555209D02*
X111764628Y-66507590D01*
X125595142Y-101089619D02*
X125261809Y-100613428D01*
X125023714Y-101089619D02*
X125023714Y-100089619D01*
X125023714Y-100089619D02*
X125404666Y-100089619D01*
X125404666Y-100089619D02*
X125499904Y-100137238D01*
X125499904Y-100137238D02*
X125547523Y-100184857D01*
X125547523Y-100184857D02*
X125595142Y-100280095D01*
X125595142Y-100280095D02*
X125595142Y-100422952D01*
X125595142Y-100422952D02*
X125547523Y-100518190D01*
X125547523Y-100518190D02*
X125499904Y-100565809D01*
X125499904Y-100565809D02*
X125404666Y-100613428D01*
X125404666Y-100613428D02*
X125023714Y-100613428D01*
X126547523Y-101089619D02*
X125976095Y-101089619D01*
X126261809Y-101089619D02*
X126261809Y-100089619D01*
X126261809Y-100089619D02*
X126166571Y-100232476D01*
X126166571Y-100232476D02*
X126071333Y-100327714D01*
X126071333Y-100327714D02*
X125976095Y-100375333D01*
X127404666Y-100089619D02*
X127214190Y-100089619D01*
X127214190Y-100089619D02*
X127118952Y-100137238D01*
X127118952Y-100137238D02*
X127071333Y-100184857D01*
X127071333Y-100184857D02*
X126976095Y-100327714D01*
X126976095Y-100327714D02*
X126928476Y-100518190D01*
X126928476Y-100518190D02*
X126928476Y-100899142D01*
X126928476Y-100899142D02*
X126976095Y-100994380D01*
X126976095Y-100994380D02*
X127023714Y-101042000D01*
X127023714Y-101042000D02*
X127118952Y-101089619D01*
X127118952Y-101089619D02*
X127309428Y-101089619D01*
X127309428Y-101089619D02*
X127404666Y-101042000D01*
X127404666Y-101042000D02*
X127452285Y-100994380D01*
X127452285Y-100994380D02*
X127499904Y-100899142D01*
X127499904Y-100899142D02*
X127499904Y-100661047D01*
X127499904Y-100661047D02*
X127452285Y-100565809D01*
X127452285Y-100565809D02*
X127404666Y-100518190D01*
X127404666Y-100518190D02*
X127309428Y-100470571D01*
X127309428Y-100470571D02*
X127118952Y-100470571D01*
X127118952Y-100470571D02*
X127023714Y-100518190D01*
X127023714Y-100518190D02*
X126976095Y-100565809D01*
X126976095Y-100565809D02*
X126928476Y-100661047D01*
X135628142Y-81607819D02*
X135294809Y-81131628D01*
X135056714Y-81607819D02*
X135056714Y-80607819D01*
X135056714Y-80607819D02*
X135437666Y-80607819D01*
X135437666Y-80607819D02*
X135532904Y-80655438D01*
X135532904Y-80655438D02*
X135580523Y-80703057D01*
X135580523Y-80703057D02*
X135628142Y-80798295D01*
X135628142Y-80798295D02*
X135628142Y-80941152D01*
X135628142Y-80941152D02*
X135580523Y-81036390D01*
X135580523Y-81036390D02*
X135532904Y-81084009D01*
X135532904Y-81084009D02*
X135437666Y-81131628D01*
X135437666Y-81131628D02*
X135056714Y-81131628D01*
X136009095Y-80703057D02*
X136056714Y-80655438D01*
X136056714Y-80655438D02*
X136151952Y-80607819D01*
X136151952Y-80607819D02*
X136390047Y-80607819D01*
X136390047Y-80607819D02*
X136485285Y-80655438D01*
X136485285Y-80655438D02*
X136532904Y-80703057D01*
X136532904Y-80703057D02*
X136580523Y-80798295D01*
X136580523Y-80798295D02*
X136580523Y-80893533D01*
X136580523Y-80893533D02*
X136532904Y-81036390D01*
X136532904Y-81036390D02*
X135961476Y-81607819D01*
X135961476Y-81607819D02*
X136580523Y-81607819D01*
X136913857Y-80607819D02*
X137580523Y-80607819D01*
X137580523Y-80607819D02*
X137151952Y-81607819D01*
X108900933Y-89564380D02*
X108853314Y-89612000D01*
X108853314Y-89612000D02*
X108710457Y-89659619D01*
X108710457Y-89659619D02*
X108615219Y-89659619D01*
X108615219Y-89659619D02*
X108472362Y-89612000D01*
X108472362Y-89612000D02*
X108377124Y-89516761D01*
X108377124Y-89516761D02*
X108329505Y-89421523D01*
X108329505Y-89421523D02*
X108281886Y-89231047D01*
X108281886Y-89231047D02*
X108281886Y-89088190D01*
X108281886Y-89088190D02*
X108329505Y-88897714D01*
X108329505Y-88897714D02*
X108377124Y-88802476D01*
X108377124Y-88802476D02*
X108472362Y-88707238D01*
X108472362Y-88707238D02*
X108615219Y-88659619D01*
X108615219Y-88659619D02*
X108710457Y-88659619D01*
X108710457Y-88659619D02*
X108853314Y-88707238D01*
X108853314Y-88707238D02*
X108900933Y-88754857D01*
X109805695Y-88659619D02*
X109329505Y-88659619D01*
X109329505Y-88659619D02*
X109281886Y-89135809D01*
X109281886Y-89135809D02*
X109329505Y-89088190D01*
X109329505Y-89088190D02*
X109424743Y-89040571D01*
X109424743Y-89040571D02*
X109662838Y-89040571D01*
X109662838Y-89040571D02*
X109758076Y-89088190D01*
X109758076Y-89088190D02*
X109805695Y-89135809D01*
X109805695Y-89135809D02*
X109853314Y-89231047D01*
X109853314Y-89231047D02*
X109853314Y-89469142D01*
X109853314Y-89469142D02*
X109805695Y-89564380D01*
X109805695Y-89564380D02*
X109758076Y-89612000D01*
X109758076Y-89612000D02*
X109662838Y-89659619D01*
X109662838Y-89659619D02*
X109424743Y-89659619D01*
X109424743Y-89659619D02*
X109329505Y-89612000D01*
X109329505Y-89612000D02*
X109281886Y-89564380D01*
X140502024Y-67937364D02*
X140454405Y-67984984D01*
X140454405Y-67984984D02*
X140311548Y-68032603D01*
X140311548Y-68032603D02*
X140216310Y-68032603D01*
X140216310Y-68032603D02*
X140073453Y-67984984D01*
X140073453Y-67984984D02*
X139978215Y-67889745D01*
X139978215Y-67889745D02*
X139930596Y-67794507D01*
X139930596Y-67794507D02*
X139882977Y-67604031D01*
X139882977Y-67604031D02*
X139882977Y-67461174D01*
X139882977Y-67461174D02*
X139930596Y-67270698D01*
X139930596Y-67270698D02*
X139978215Y-67175460D01*
X139978215Y-67175460D02*
X140073453Y-67080222D01*
X140073453Y-67080222D02*
X140216310Y-67032603D01*
X140216310Y-67032603D02*
X140311548Y-67032603D01*
X140311548Y-67032603D02*
X140454405Y-67080222D01*
X140454405Y-67080222D02*
X140502024Y-67127841D01*
X140882977Y-67127841D02*
X140930596Y-67080222D01*
X140930596Y-67080222D02*
X141025834Y-67032603D01*
X141025834Y-67032603D02*
X141263929Y-67032603D01*
X141263929Y-67032603D02*
X141359167Y-67080222D01*
X141359167Y-67080222D02*
X141406786Y-67127841D01*
X141406786Y-67127841D02*
X141454405Y-67223079D01*
X141454405Y-67223079D02*
X141454405Y-67318317D01*
X141454405Y-67318317D02*
X141406786Y-67461174D01*
X141406786Y-67461174D02*
X140835358Y-68032603D01*
X140835358Y-68032603D02*
X141454405Y-68032603D01*
X116252666Y-78448819D02*
X116252666Y-79163104D01*
X116252666Y-79163104D02*
X116205047Y-79305961D01*
X116205047Y-79305961D02*
X116109809Y-79401200D01*
X116109809Y-79401200D02*
X115966952Y-79448819D01*
X115966952Y-79448819D02*
X115871714Y-79448819D01*
X117252666Y-79448819D02*
X116681238Y-79448819D01*
X116966952Y-79448819D02*
X116966952Y-78448819D01*
X116966952Y-78448819D02*
X116871714Y-78591676D01*
X116871714Y-78591676D02*
X116776476Y-78686914D01*
X116776476Y-78686914D02*
X116681238Y-78734533D01*
X115347761Y-58639857D02*
X115252523Y-58592238D01*
X115252523Y-58592238D02*
X115157285Y-58497000D01*
X115157285Y-58497000D02*
X115014428Y-58354142D01*
X115014428Y-58354142D02*
X114919190Y-58306523D01*
X114919190Y-58306523D02*
X114823952Y-58306523D01*
X114871571Y-58544619D02*
X114776333Y-58497000D01*
X114776333Y-58497000D02*
X114681095Y-58401761D01*
X114681095Y-58401761D02*
X114633476Y-58211285D01*
X114633476Y-58211285D02*
X114633476Y-57877952D01*
X114633476Y-57877952D02*
X114681095Y-57687476D01*
X114681095Y-57687476D02*
X114776333Y-57592238D01*
X114776333Y-57592238D02*
X114871571Y-57544619D01*
X114871571Y-57544619D02*
X115062047Y-57544619D01*
X115062047Y-57544619D02*
X115157285Y-57592238D01*
X115157285Y-57592238D02*
X115252523Y-57687476D01*
X115252523Y-57687476D02*
X115300142Y-57877952D01*
X115300142Y-57877952D02*
X115300142Y-58211285D01*
X115300142Y-58211285D02*
X115252523Y-58401761D01*
X115252523Y-58401761D02*
X115157285Y-58497000D01*
X115157285Y-58497000D02*
X115062047Y-58544619D01*
X115062047Y-58544619D02*
X114871571Y-58544619D01*
X116252523Y-58544619D02*
X115681095Y-58544619D01*
X115966809Y-58544619D02*
X115966809Y-57544619D01*
X115966809Y-57544619D02*
X115871571Y-57687476D01*
X115871571Y-57687476D02*
X115776333Y-57782714D01*
X115776333Y-57782714D02*
X115681095Y-57830333D01*
X150397380Y-98712257D02*
X150445000Y-98759876D01*
X150445000Y-98759876D02*
X150492619Y-98902733D01*
X150492619Y-98902733D02*
X150492619Y-98997971D01*
X150492619Y-98997971D02*
X150445000Y-99140828D01*
X150445000Y-99140828D02*
X150349761Y-99236066D01*
X150349761Y-99236066D02*
X150254523Y-99283685D01*
X150254523Y-99283685D02*
X150064047Y-99331304D01*
X150064047Y-99331304D02*
X149921190Y-99331304D01*
X149921190Y-99331304D02*
X149730714Y-99283685D01*
X149730714Y-99283685D02*
X149635476Y-99236066D01*
X149635476Y-99236066D02*
X149540238Y-99140828D01*
X149540238Y-99140828D02*
X149492619Y-98997971D01*
X149492619Y-98997971D02*
X149492619Y-98902733D01*
X149492619Y-98902733D02*
X149540238Y-98759876D01*
X149540238Y-98759876D02*
X149587857Y-98712257D01*
X150492619Y-97759876D02*
X150492619Y-98331304D01*
X150492619Y-98045590D02*
X149492619Y-98045590D01*
X149492619Y-98045590D02*
X149635476Y-98140828D01*
X149635476Y-98140828D02*
X149730714Y-98236066D01*
X149730714Y-98236066D02*
X149778333Y-98331304D01*
X149492619Y-97140828D02*
X149492619Y-97045590D01*
X149492619Y-97045590D02*
X149540238Y-96950352D01*
X149540238Y-96950352D02*
X149587857Y-96902733D01*
X149587857Y-96902733D02*
X149683095Y-96855114D01*
X149683095Y-96855114D02*
X149873571Y-96807495D01*
X149873571Y-96807495D02*
X150111666Y-96807495D01*
X150111666Y-96807495D02*
X150302142Y-96855114D01*
X150302142Y-96855114D02*
X150397380Y-96902733D01*
X150397380Y-96902733D02*
X150445000Y-96950352D01*
X150445000Y-96950352D02*
X150492619Y-97045590D01*
X150492619Y-97045590D02*
X150492619Y-97140828D01*
X150492619Y-97140828D02*
X150445000Y-97236066D01*
X150445000Y-97236066D02*
X150397380Y-97283685D01*
X150397380Y-97283685D02*
X150302142Y-97331304D01*
X150302142Y-97331304D02*
X150111666Y-97378923D01*
X150111666Y-97378923D02*
X149873571Y-97378923D01*
X149873571Y-97378923D02*
X149683095Y-97331304D01*
X149683095Y-97331304D02*
X149587857Y-97283685D01*
X149587857Y-97283685D02*
X149540238Y-97236066D01*
X149540238Y-97236066D02*
X149492619Y-97140828D01*
X117625905Y-101546819D02*
X117625905Y-100546819D01*
X117625905Y-100546819D02*
X117864000Y-100546819D01*
X117864000Y-100546819D02*
X118006857Y-100594438D01*
X118006857Y-100594438D02*
X118102095Y-100689676D01*
X118102095Y-100689676D02*
X118149714Y-100784914D01*
X118149714Y-100784914D02*
X118197333Y-100975390D01*
X118197333Y-100975390D02*
X118197333Y-101118247D01*
X118197333Y-101118247D02*
X118149714Y-101308723D01*
X118149714Y-101308723D02*
X118102095Y-101403961D01*
X118102095Y-101403961D02*
X118006857Y-101499200D01*
X118006857Y-101499200D02*
X117864000Y-101546819D01*
X117864000Y-101546819D02*
X117625905Y-101546819D01*
X119149714Y-101546819D02*
X118578286Y-101546819D01*
X118864000Y-101546819D02*
X118864000Y-100546819D01*
X118864000Y-100546819D02*
X118768762Y-100689676D01*
X118768762Y-100689676D02*
X118673524Y-100784914D01*
X118673524Y-100784914D02*
X118578286Y-100832533D01*
X113784095Y-101800819D02*
X113784095Y-100800819D01*
X114355523Y-101800819D02*
X113926952Y-101229390D01*
X114355523Y-100800819D02*
X113784095Y-101372247D01*
X171041219Y-69451457D02*
X170565028Y-69784790D01*
X171041219Y-70022885D02*
X170041219Y-70022885D01*
X170041219Y-70022885D02*
X170041219Y-69641933D01*
X170041219Y-69641933D02*
X170088838Y-69546695D01*
X170088838Y-69546695D02*
X170136457Y-69499076D01*
X170136457Y-69499076D02*
X170231695Y-69451457D01*
X170231695Y-69451457D02*
X170374552Y-69451457D01*
X170374552Y-69451457D02*
X170469790Y-69499076D01*
X170469790Y-69499076D02*
X170517409Y-69546695D01*
X170517409Y-69546695D02*
X170565028Y-69641933D01*
X170565028Y-69641933D02*
X170565028Y-70022885D01*
X170136457Y-69070504D02*
X170088838Y-69022885D01*
X170088838Y-69022885D02*
X170041219Y-68927647D01*
X170041219Y-68927647D02*
X170041219Y-68689552D01*
X170041219Y-68689552D02*
X170088838Y-68594314D01*
X170088838Y-68594314D02*
X170136457Y-68546695D01*
X170136457Y-68546695D02*
X170231695Y-68499076D01*
X170231695Y-68499076D02*
X170326933Y-68499076D01*
X170326933Y-68499076D02*
X170469790Y-68546695D01*
X170469790Y-68546695D02*
X171041219Y-69118123D01*
X171041219Y-69118123D02*
X171041219Y-68499076D01*
X170041219Y-67594314D02*
X170041219Y-68070504D01*
X170041219Y-68070504D02*
X170517409Y-68118123D01*
X170517409Y-68118123D02*
X170469790Y-68070504D01*
X170469790Y-68070504D02*
X170422171Y-67975266D01*
X170422171Y-67975266D02*
X170422171Y-67737171D01*
X170422171Y-67737171D02*
X170469790Y-67641933D01*
X170469790Y-67641933D02*
X170517409Y-67594314D01*
X170517409Y-67594314D02*
X170612647Y-67546695D01*
X170612647Y-67546695D02*
X170850742Y-67546695D01*
X170850742Y-67546695D02*
X170945980Y-67594314D01*
X170945980Y-67594314D02*
X170993600Y-67641933D01*
X170993600Y-67641933D02*
X171041219Y-67737171D01*
X171041219Y-67737171D02*
X171041219Y-67975266D01*
X171041219Y-67975266D02*
X170993600Y-68070504D01*
X170993600Y-68070504D02*
X170945980Y-68118123D01*
X104874219Y-102115857D02*
X104398028Y-102449190D01*
X104874219Y-102687285D02*
X103874219Y-102687285D01*
X103874219Y-102687285D02*
X103874219Y-102306333D01*
X103874219Y-102306333D02*
X103921838Y-102211095D01*
X103921838Y-102211095D02*
X103969457Y-102163476D01*
X103969457Y-102163476D02*
X104064695Y-102115857D01*
X104064695Y-102115857D02*
X104207552Y-102115857D01*
X104207552Y-102115857D02*
X104302790Y-102163476D01*
X104302790Y-102163476D02*
X104350409Y-102211095D01*
X104350409Y-102211095D02*
X104398028Y-102306333D01*
X104398028Y-102306333D02*
X104398028Y-102687285D01*
X104874219Y-101163476D02*
X104874219Y-101734904D01*
X104874219Y-101449190D02*
X103874219Y-101449190D01*
X103874219Y-101449190D02*
X104017076Y-101544428D01*
X104017076Y-101544428D02*
X104112314Y-101639666D01*
X104112314Y-101639666D02*
X104159933Y-101734904D01*
X104874219Y-100211095D02*
X104874219Y-100782523D01*
X104874219Y-100496809D02*
X103874219Y-100496809D01*
X103874219Y-100496809D02*
X104017076Y-100592047D01*
X104017076Y-100592047D02*
X104112314Y-100687285D01*
X104112314Y-100687285D02*
X104159933Y-100782523D01*
X125595142Y-99768819D02*
X125261809Y-99292628D01*
X125023714Y-99768819D02*
X125023714Y-98768819D01*
X125023714Y-98768819D02*
X125404666Y-98768819D01*
X125404666Y-98768819D02*
X125499904Y-98816438D01*
X125499904Y-98816438D02*
X125547523Y-98864057D01*
X125547523Y-98864057D02*
X125595142Y-98959295D01*
X125595142Y-98959295D02*
X125595142Y-99102152D01*
X125595142Y-99102152D02*
X125547523Y-99197390D01*
X125547523Y-99197390D02*
X125499904Y-99245009D01*
X125499904Y-99245009D02*
X125404666Y-99292628D01*
X125404666Y-99292628D02*
X125023714Y-99292628D01*
X126547523Y-99768819D02*
X125976095Y-99768819D01*
X126261809Y-99768819D02*
X126261809Y-98768819D01*
X126261809Y-98768819D02*
X126166571Y-98911676D01*
X126166571Y-98911676D02*
X126071333Y-99006914D01*
X126071333Y-99006914D02*
X125976095Y-99054533D01*
X126880857Y-98768819D02*
X127499904Y-98768819D01*
X127499904Y-98768819D02*
X127166571Y-99149771D01*
X127166571Y-99149771D02*
X127309428Y-99149771D01*
X127309428Y-99149771D02*
X127404666Y-99197390D01*
X127404666Y-99197390D02*
X127452285Y-99245009D01*
X127452285Y-99245009D02*
X127499904Y-99340247D01*
X127499904Y-99340247D02*
X127499904Y-99578342D01*
X127499904Y-99578342D02*
X127452285Y-99673580D01*
X127452285Y-99673580D02*
X127404666Y-99721200D01*
X127404666Y-99721200D02*
X127309428Y-99768819D01*
X127309428Y-99768819D02*
X127023714Y-99768819D01*
X127023714Y-99768819D02*
X126928476Y-99721200D01*
X126928476Y-99721200D02*
X126880857Y-99673580D01*
X131430733Y-75689619D02*
X131097400Y-75213428D01*
X130859305Y-75689619D02*
X130859305Y-74689619D01*
X130859305Y-74689619D02*
X131240257Y-74689619D01*
X131240257Y-74689619D02*
X131335495Y-74737238D01*
X131335495Y-74737238D02*
X131383114Y-74784857D01*
X131383114Y-74784857D02*
X131430733Y-74880095D01*
X131430733Y-74880095D02*
X131430733Y-75022952D01*
X131430733Y-75022952D02*
X131383114Y-75118190D01*
X131383114Y-75118190D02*
X131335495Y-75165809D01*
X131335495Y-75165809D02*
X131240257Y-75213428D01*
X131240257Y-75213428D02*
X130859305Y-75213428D01*
X132002162Y-75118190D02*
X131906924Y-75070571D01*
X131906924Y-75070571D02*
X131859305Y-75022952D01*
X131859305Y-75022952D02*
X131811686Y-74927714D01*
X131811686Y-74927714D02*
X131811686Y-74880095D01*
X131811686Y-74880095D02*
X131859305Y-74784857D01*
X131859305Y-74784857D02*
X131906924Y-74737238D01*
X131906924Y-74737238D02*
X132002162Y-74689619D01*
X132002162Y-74689619D02*
X132192638Y-74689619D01*
X132192638Y-74689619D02*
X132287876Y-74737238D01*
X132287876Y-74737238D02*
X132335495Y-74784857D01*
X132335495Y-74784857D02*
X132383114Y-74880095D01*
X132383114Y-74880095D02*
X132383114Y-74927714D01*
X132383114Y-74927714D02*
X132335495Y-75022952D01*
X132335495Y-75022952D02*
X132287876Y-75070571D01*
X132287876Y-75070571D02*
X132192638Y-75118190D01*
X132192638Y-75118190D02*
X132002162Y-75118190D01*
X132002162Y-75118190D02*
X131906924Y-75165809D01*
X131906924Y-75165809D02*
X131859305Y-75213428D01*
X131859305Y-75213428D02*
X131811686Y-75308666D01*
X131811686Y-75308666D02*
X131811686Y-75499142D01*
X131811686Y-75499142D02*
X131859305Y-75594380D01*
X131859305Y-75594380D02*
X131906924Y-75642000D01*
X131906924Y-75642000D02*
X132002162Y-75689619D01*
X132002162Y-75689619D02*
X132192638Y-75689619D01*
X132192638Y-75689619D02*
X132287876Y-75642000D01*
X132287876Y-75642000D02*
X132335495Y-75594380D01*
X132335495Y-75594380D02*
X132383114Y-75499142D01*
X132383114Y-75499142D02*
X132383114Y-75308666D01*
X132383114Y-75308666D02*
X132335495Y-75213428D01*
X132335495Y-75213428D02*
X132287876Y-75165809D01*
X132287876Y-75165809D02*
X132192638Y-75118190D01*
X141964580Y-101161457D02*
X142012200Y-101209076D01*
X142012200Y-101209076D02*
X142059819Y-101351933D01*
X142059819Y-101351933D02*
X142059819Y-101447171D01*
X142059819Y-101447171D02*
X142012200Y-101590028D01*
X142012200Y-101590028D02*
X141916961Y-101685266D01*
X141916961Y-101685266D02*
X141821723Y-101732885D01*
X141821723Y-101732885D02*
X141631247Y-101780504D01*
X141631247Y-101780504D02*
X141488390Y-101780504D01*
X141488390Y-101780504D02*
X141297914Y-101732885D01*
X141297914Y-101732885D02*
X141202676Y-101685266D01*
X141202676Y-101685266D02*
X141107438Y-101590028D01*
X141107438Y-101590028D02*
X141059819Y-101447171D01*
X141059819Y-101447171D02*
X141059819Y-101351933D01*
X141059819Y-101351933D02*
X141107438Y-101209076D01*
X141107438Y-101209076D02*
X141155057Y-101161457D01*
X141155057Y-100780504D02*
X141107438Y-100732885D01*
X141107438Y-100732885D02*
X141059819Y-100637647D01*
X141059819Y-100637647D02*
X141059819Y-100399552D01*
X141059819Y-100399552D02*
X141107438Y-100304314D01*
X141107438Y-100304314D02*
X141155057Y-100256695D01*
X141155057Y-100256695D02*
X141250295Y-100209076D01*
X141250295Y-100209076D02*
X141345533Y-100209076D01*
X141345533Y-100209076D02*
X141488390Y-100256695D01*
X141488390Y-100256695D02*
X142059819Y-100828123D01*
X142059819Y-100828123D02*
X142059819Y-100209076D01*
X142059819Y-99256695D02*
X142059819Y-99828123D01*
X142059819Y-99542409D02*
X141059819Y-99542409D01*
X141059819Y-99542409D02*
X141202676Y-99637647D01*
X141202676Y-99637647D02*
X141297914Y-99732885D01*
X141297914Y-99732885D02*
X141345533Y-99828123D01*
X145774580Y-97905866D02*
X145822200Y-97953485D01*
X145822200Y-97953485D02*
X145869819Y-98096342D01*
X145869819Y-98096342D02*
X145869819Y-98191580D01*
X145869819Y-98191580D02*
X145822200Y-98334437D01*
X145822200Y-98334437D02*
X145726961Y-98429675D01*
X145726961Y-98429675D02*
X145631723Y-98477294D01*
X145631723Y-98477294D02*
X145441247Y-98524913D01*
X145441247Y-98524913D02*
X145298390Y-98524913D01*
X145298390Y-98524913D02*
X145107914Y-98477294D01*
X145107914Y-98477294D02*
X145012676Y-98429675D01*
X145012676Y-98429675D02*
X144917438Y-98334437D01*
X144917438Y-98334437D02*
X144869819Y-98191580D01*
X144869819Y-98191580D02*
X144869819Y-98096342D01*
X144869819Y-98096342D02*
X144917438Y-97953485D01*
X144917438Y-97953485D02*
X144965057Y-97905866D01*
X144869819Y-97572532D02*
X144869819Y-96905866D01*
X144869819Y-96905866D02*
X145869819Y-97334437D01*
X109728095Y-68780819D02*
X109728095Y-67780819D01*
X109728095Y-68257009D02*
X110299523Y-68257009D01*
X110299523Y-68780819D02*
X110299523Y-67780819D01*
X110728095Y-67876057D02*
X110775714Y-67828438D01*
X110775714Y-67828438D02*
X110870952Y-67780819D01*
X110870952Y-67780819D02*
X111109047Y-67780819D01*
X111109047Y-67780819D02*
X111204285Y-67828438D01*
X111204285Y-67828438D02*
X111251904Y-67876057D01*
X111251904Y-67876057D02*
X111299523Y-67971295D01*
X111299523Y-67971295D02*
X111299523Y-68066533D01*
X111299523Y-68066533D02*
X111251904Y-68209390D01*
X111251904Y-68209390D02*
X110680476Y-68780819D01*
X110680476Y-68780819D02*
X111299523Y-68780819D01*
X118641019Y-76112666D02*
X118164828Y-76445999D01*
X118641019Y-76684094D02*
X117641019Y-76684094D01*
X117641019Y-76684094D02*
X117641019Y-76303142D01*
X117641019Y-76303142D02*
X117688638Y-76207904D01*
X117688638Y-76207904D02*
X117736257Y-76160285D01*
X117736257Y-76160285D02*
X117831495Y-76112666D01*
X117831495Y-76112666D02*
X117974352Y-76112666D01*
X117974352Y-76112666D02*
X118069590Y-76160285D01*
X118069590Y-76160285D02*
X118117209Y-76207904D01*
X118117209Y-76207904D02*
X118164828Y-76303142D01*
X118164828Y-76303142D02*
X118164828Y-76684094D01*
X118641019Y-75636475D02*
X118641019Y-75445999D01*
X118641019Y-75445999D02*
X118593400Y-75350761D01*
X118593400Y-75350761D02*
X118545780Y-75303142D01*
X118545780Y-75303142D02*
X118402923Y-75207904D01*
X118402923Y-75207904D02*
X118212447Y-75160285D01*
X118212447Y-75160285D02*
X117831495Y-75160285D01*
X117831495Y-75160285D02*
X117736257Y-75207904D01*
X117736257Y-75207904D02*
X117688638Y-75255523D01*
X117688638Y-75255523D02*
X117641019Y-75350761D01*
X117641019Y-75350761D02*
X117641019Y-75541237D01*
X117641019Y-75541237D02*
X117688638Y-75636475D01*
X117688638Y-75636475D02*
X117736257Y-75684094D01*
X117736257Y-75684094D02*
X117831495Y-75731713D01*
X117831495Y-75731713D02*
X118069590Y-75731713D01*
X118069590Y-75731713D02*
X118164828Y-75684094D01*
X118164828Y-75684094D02*
X118212447Y-75636475D01*
X118212447Y-75636475D02*
X118260066Y-75541237D01*
X118260066Y-75541237D02*
X118260066Y-75350761D01*
X118260066Y-75350761D02*
X118212447Y-75255523D01*
X118212447Y-75255523D02*
X118164828Y-75207904D01*
X118164828Y-75207904D02*
X118069590Y-75160285D01*
X141939180Y-82710257D02*
X141986800Y-82757876D01*
X141986800Y-82757876D02*
X142034419Y-82900733D01*
X142034419Y-82900733D02*
X142034419Y-82995971D01*
X142034419Y-82995971D02*
X141986800Y-83138828D01*
X141986800Y-83138828D02*
X141891561Y-83234066D01*
X141891561Y-83234066D02*
X141796323Y-83281685D01*
X141796323Y-83281685D02*
X141605847Y-83329304D01*
X141605847Y-83329304D02*
X141462990Y-83329304D01*
X141462990Y-83329304D02*
X141272514Y-83281685D01*
X141272514Y-83281685D02*
X141177276Y-83234066D01*
X141177276Y-83234066D02*
X141082038Y-83138828D01*
X141082038Y-83138828D02*
X141034419Y-82995971D01*
X141034419Y-82995971D02*
X141034419Y-82900733D01*
X141034419Y-82900733D02*
X141082038Y-82757876D01*
X141082038Y-82757876D02*
X141129657Y-82710257D01*
X141129657Y-82329304D02*
X141082038Y-82281685D01*
X141082038Y-82281685D02*
X141034419Y-82186447D01*
X141034419Y-82186447D02*
X141034419Y-81948352D01*
X141034419Y-81948352D02*
X141082038Y-81853114D01*
X141082038Y-81853114D02*
X141129657Y-81805495D01*
X141129657Y-81805495D02*
X141224895Y-81757876D01*
X141224895Y-81757876D02*
X141320133Y-81757876D01*
X141320133Y-81757876D02*
X141462990Y-81805495D01*
X141462990Y-81805495D02*
X142034419Y-82376923D01*
X142034419Y-82376923D02*
X142034419Y-81757876D01*
X141129657Y-81376923D02*
X141082038Y-81329304D01*
X141082038Y-81329304D02*
X141034419Y-81234066D01*
X141034419Y-81234066D02*
X141034419Y-80995971D01*
X141034419Y-80995971D02*
X141082038Y-80900733D01*
X141082038Y-80900733D02*
X141129657Y-80853114D01*
X141129657Y-80853114D02*
X141224895Y-80805495D01*
X141224895Y-80805495D02*
X141320133Y-80805495D01*
X141320133Y-80805495D02*
X141462990Y-80853114D01*
X141462990Y-80853114D02*
X142034419Y-81424542D01*
X142034419Y-81424542D02*
X142034419Y-80805495D01*
D11*
X153246667Y-54676318D02*
X153246667Y-55583461D01*
X153246667Y-55583461D02*
X153186190Y-55764889D01*
X153186190Y-55764889D02*
X153065238Y-55885842D01*
X153065238Y-55885842D02*
X152883809Y-55946318D01*
X152883809Y-55946318D02*
X152762857Y-55946318D01*
X153790952Y-54797270D02*
X153851428Y-54736794D01*
X153851428Y-54736794D02*
X153972381Y-54676318D01*
X153972381Y-54676318D02*
X154274762Y-54676318D01*
X154274762Y-54676318D02*
X154395714Y-54736794D01*
X154395714Y-54736794D02*
X154456190Y-54797270D01*
X154456190Y-54797270D02*
X154516667Y-54918222D01*
X154516667Y-54918222D02*
X154516667Y-55039175D01*
X154516667Y-55039175D02*
X154456190Y-55220603D01*
X154456190Y-55220603D02*
X153730476Y-55946318D01*
X153730476Y-55946318D02*
X154516667Y-55946318D01*
D10*
X151997580Y-61348857D02*
X152045200Y-61396476D01*
X152045200Y-61396476D02*
X152092819Y-61539333D01*
X152092819Y-61539333D02*
X152092819Y-61634571D01*
X152092819Y-61634571D02*
X152045200Y-61777428D01*
X152045200Y-61777428D02*
X151949961Y-61872666D01*
X151949961Y-61872666D02*
X151854723Y-61920285D01*
X151854723Y-61920285D02*
X151664247Y-61967904D01*
X151664247Y-61967904D02*
X151521390Y-61967904D01*
X151521390Y-61967904D02*
X151330914Y-61920285D01*
X151330914Y-61920285D02*
X151235676Y-61872666D01*
X151235676Y-61872666D02*
X151140438Y-61777428D01*
X151140438Y-61777428D02*
X151092819Y-61634571D01*
X151092819Y-61634571D02*
X151092819Y-61539333D01*
X151092819Y-61539333D02*
X151140438Y-61396476D01*
X151140438Y-61396476D02*
X151188057Y-61348857D01*
X152092819Y-60396476D02*
X152092819Y-60967904D01*
X152092819Y-60682190D02*
X151092819Y-60682190D01*
X151092819Y-60682190D02*
X151235676Y-60777428D01*
X151235676Y-60777428D02*
X151330914Y-60872666D01*
X151330914Y-60872666D02*
X151378533Y-60967904D01*
X151426152Y-59539333D02*
X152092819Y-59539333D01*
X151045200Y-59777428D02*
X151759485Y-60015523D01*
X151759485Y-60015523D02*
X151759485Y-59396476D01*
D12*
%TO.C,L1*%
X107594400Y-77293600D02*
X107594400Y-76873600D01*
X105824400Y-76873600D02*
X109364400Y-76873600D01*
X109364400Y-69633600D02*
X105824400Y-69633600D01*
X109364400Y-76873600D02*
X109364400Y-69633600D01*
X107594400Y-69213600D02*
X107594400Y-69633600D01*
X105824400Y-69633600D02*
X105824400Y-76873600D01*
%TO.C,C8*%
X136862401Y-60631000D02*
X136462401Y-60631000D01*
X136662401Y-60831000D02*
X136662401Y-60431000D01*
X134592600Y-61516000D02*
X134592600Y-57356000D01*
X134552600Y-61516000D02*
X134552600Y-57356000D01*
X134512600Y-61515000D02*
X134512600Y-57357000D01*
X134472600Y-61513000D02*
X134472600Y-57359000D01*
X134432600Y-61510000D02*
X134432600Y-57362000D01*
X134392600Y-61507000D02*
X134392600Y-60276000D01*
X134392600Y-58596000D02*
X134392600Y-57365000D01*
X134352600Y-61503000D02*
X134352600Y-60276000D01*
X134352600Y-58596000D02*
X134352600Y-57369000D01*
X134312600Y-61498000D02*
X134312600Y-60276000D01*
X134312600Y-58596000D02*
X134312600Y-57374000D01*
X134272600Y-61492000D02*
X134272600Y-60276000D01*
X134272600Y-58596000D02*
X134272600Y-57380000D01*
X134232600Y-61486000D02*
X134232600Y-60276000D01*
X134232600Y-58596000D02*
X134232600Y-57386000D01*
X134192600Y-61478000D02*
X134192600Y-60276000D01*
X134192600Y-58596000D02*
X134192600Y-57394000D01*
X134152600Y-61470000D02*
X134152600Y-60276000D01*
X134152600Y-58596000D02*
X134152600Y-57402000D01*
X134112600Y-61461000D02*
X134112600Y-60276000D01*
X134112600Y-58596000D02*
X134112600Y-57411000D01*
X134072600Y-61452000D02*
X134072600Y-60276000D01*
X134072600Y-58596000D02*
X134072600Y-57420000D01*
X134032600Y-61441000D02*
X134032600Y-60276000D01*
X134032600Y-58596000D02*
X134032600Y-57431000D01*
X133992600Y-61430000D02*
X133992600Y-60276000D01*
X133992600Y-58596000D02*
X133992600Y-57442000D01*
X133952600Y-61418000D02*
X133952600Y-60276000D01*
X133952600Y-58596000D02*
X133952600Y-57454000D01*
X133912600Y-61404000D02*
X133912600Y-60276000D01*
X133912600Y-58596000D02*
X133912600Y-57468000D01*
X133871600Y-61390000D02*
X133871600Y-60276000D01*
X133871600Y-58596000D02*
X133871600Y-57482000D01*
X133831600Y-61376000D02*
X133831600Y-60276000D01*
X133831600Y-58596000D02*
X133831600Y-57496000D01*
X133791600Y-61360000D02*
X133791600Y-60276000D01*
X133791600Y-58596000D02*
X133791600Y-57512000D01*
X133751600Y-61343000D02*
X133751600Y-60276000D01*
X133751600Y-58596000D02*
X133751600Y-57529000D01*
X133711600Y-61325000D02*
X133711600Y-60276000D01*
X133711600Y-58596000D02*
X133711600Y-57547000D01*
X133671600Y-61306000D02*
X133671600Y-60276000D01*
X133671600Y-58596000D02*
X133671600Y-57566000D01*
X133631600Y-61287000D02*
X133631600Y-60276000D01*
X133631600Y-58596000D02*
X133631600Y-57585000D01*
X133591600Y-61266000D02*
X133591600Y-60276000D01*
X133591600Y-58596000D02*
X133591600Y-57606000D01*
X133551600Y-61244000D02*
X133551600Y-60276000D01*
X133551600Y-58596000D02*
X133551600Y-57628000D01*
X133511600Y-61221000D02*
X133511600Y-60276000D01*
X133511600Y-58596000D02*
X133511600Y-57651000D01*
X133471600Y-61196000D02*
X133471600Y-60276000D01*
X133471600Y-58596000D02*
X133471600Y-57676000D01*
X133431600Y-61171000D02*
X133431600Y-60276000D01*
X133431600Y-58596000D02*
X133431600Y-57701000D01*
X133391600Y-61144000D02*
X133391600Y-60276000D01*
X133391600Y-58596000D02*
X133391600Y-57728000D01*
X133351600Y-61116000D02*
X133351600Y-60276000D01*
X133351600Y-58596000D02*
X133351600Y-57756000D01*
X133311600Y-61086000D02*
X133311600Y-60276000D01*
X133311600Y-58596000D02*
X133311600Y-57786000D01*
X133271600Y-61055000D02*
X133271600Y-60276000D01*
X133271600Y-58596000D02*
X133271600Y-57817000D01*
X133231600Y-61023000D02*
X133231600Y-60276000D01*
X133231600Y-58596000D02*
X133231600Y-57849000D01*
X133191600Y-60988000D02*
X133191600Y-60276000D01*
X133191600Y-58596000D02*
X133191600Y-57884000D01*
X133151600Y-60952000D02*
X133151600Y-60276000D01*
X133151600Y-58596000D02*
X133151600Y-57920000D01*
X133111600Y-60914000D02*
X133111600Y-60276000D01*
X133111600Y-58596000D02*
X133111600Y-57958000D01*
X133071600Y-60874000D02*
X133071600Y-60276000D01*
X133071600Y-58596000D02*
X133071600Y-57998000D01*
X133031600Y-60832000D02*
X133031600Y-60276000D01*
X133031600Y-58596000D02*
X133031600Y-58040000D01*
X132991600Y-60787000D02*
X132991600Y-60276000D01*
X132991600Y-58596000D02*
X132991600Y-58085000D01*
X132951600Y-60740000D02*
X132951600Y-60276000D01*
X132951600Y-58596000D02*
X132951600Y-58132000D01*
X132911600Y-60690000D02*
X132911600Y-60276000D01*
X132911600Y-58596000D02*
X132911600Y-58182000D01*
X132871600Y-60636000D02*
X132871600Y-60276000D01*
X132871600Y-58596000D02*
X132871600Y-58236000D01*
X132831600Y-60578000D02*
X132831600Y-60276000D01*
X132831600Y-58596000D02*
X132831600Y-58294000D01*
X132791600Y-60516000D02*
X132791600Y-60276000D01*
X132791600Y-58596000D02*
X132791600Y-58356000D01*
X132751600Y-60449000D02*
X132751600Y-58423000D01*
X132711600Y-60376000D02*
X132711600Y-58496000D01*
X132671600Y-60295000D02*
X132671600Y-58577000D01*
X132631600Y-60204000D02*
X132631600Y-58668000D01*
X132591600Y-60100000D02*
X132591600Y-58772000D01*
X132551600Y-59973000D02*
X132551600Y-58899000D01*
X132511600Y-59806000D02*
X132511600Y-59066000D01*
X136712600Y-59436000D02*
G75*
G03*
X132472600Y-59436000I-2120000J0D01*
G01*
X132472600Y-59436000D02*
G75*
G03*
X136712600Y-59436000I2120000J0D01*
G01*
%TO.C,R22*%
X165762000Y-78454000D02*
X165762000Y-71914000D01*
X166092000Y-78454000D02*
X165762000Y-78454000D01*
X168172000Y-78454000D02*
X168502000Y-78454000D01*
X168502000Y-78454000D02*
X168502000Y-71914000D01*
X165762000Y-71914000D02*
X166092000Y-71914000D01*
X168502000Y-71914000D02*
X168172000Y-71914000D01*
%TO.C,R14*%
X135858000Y-89076200D02*
X129318000Y-89076200D01*
X135858000Y-88746200D02*
X135858000Y-89076200D01*
X135858000Y-86666200D02*
X135858000Y-86336200D01*
X135858000Y-86336200D02*
X129318000Y-86336200D01*
X129318000Y-89076200D02*
X129318000Y-88746200D01*
X129318000Y-86336200D02*
X129318000Y-86666200D01*
%TO.C,D2*%
X124839600Y-56235600D02*
X125489600Y-56235600D01*
X125489600Y-55115600D02*
X125489600Y-57355600D01*
X125489600Y-57355600D02*
X129729600Y-57355600D01*
X126089600Y-55115600D02*
X126089600Y-57355600D01*
X126209600Y-55115600D02*
X126209600Y-57355600D01*
X126329600Y-55115600D02*
X126329600Y-57355600D01*
X129729600Y-55115600D02*
X125489600Y-55115600D01*
X129729600Y-57355600D02*
X129729600Y-55115600D01*
X130379600Y-56235600D02*
X129729600Y-56235600D01*
%TO.C,C25*%
X122402401Y-57151200D02*
X122002401Y-57151200D01*
X122202401Y-57351200D02*
X122202401Y-56951200D01*
X120132600Y-58036200D02*
X120132600Y-53876200D01*
X120092600Y-58036200D02*
X120092600Y-53876200D01*
X120052600Y-58035200D02*
X120052600Y-53877200D01*
X120012600Y-58033200D02*
X120012600Y-53879200D01*
X119972600Y-58030200D02*
X119972600Y-53882200D01*
X119932600Y-58027200D02*
X119932600Y-56796200D01*
X119932600Y-55116200D02*
X119932600Y-53885200D01*
X119892600Y-58023200D02*
X119892600Y-56796200D01*
X119892600Y-55116200D02*
X119892600Y-53889200D01*
X119852600Y-58018200D02*
X119852600Y-56796200D01*
X119852600Y-55116200D02*
X119852600Y-53894200D01*
X119812600Y-58012200D02*
X119812600Y-56796200D01*
X119812600Y-55116200D02*
X119812600Y-53900200D01*
X119772600Y-58006200D02*
X119772600Y-56796200D01*
X119772600Y-55116200D02*
X119772600Y-53906200D01*
X119732600Y-57998200D02*
X119732600Y-56796200D01*
X119732600Y-55116200D02*
X119732600Y-53914200D01*
X119692600Y-57990200D02*
X119692600Y-56796200D01*
X119692600Y-55116200D02*
X119692600Y-53922200D01*
X119652600Y-57981200D02*
X119652600Y-56796200D01*
X119652600Y-55116200D02*
X119652600Y-53931200D01*
X119612600Y-57972200D02*
X119612600Y-56796200D01*
X119612600Y-55116200D02*
X119612600Y-53940200D01*
X119572600Y-57961200D02*
X119572600Y-56796200D01*
X119572600Y-55116200D02*
X119572600Y-53951200D01*
X119532600Y-57950200D02*
X119532600Y-56796200D01*
X119532600Y-55116200D02*
X119532600Y-53962200D01*
X119492600Y-57938200D02*
X119492600Y-56796200D01*
X119492600Y-55116200D02*
X119492600Y-53974200D01*
X119452600Y-57924200D02*
X119452600Y-56796200D01*
X119452600Y-55116200D02*
X119452600Y-53988200D01*
X119411600Y-57910200D02*
X119411600Y-56796200D01*
X119411600Y-55116200D02*
X119411600Y-54002200D01*
X119371600Y-57896200D02*
X119371600Y-56796200D01*
X119371600Y-55116200D02*
X119371600Y-54016200D01*
X119331600Y-57880200D02*
X119331600Y-56796200D01*
X119331600Y-55116200D02*
X119331600Y-54032200D01*
X119291600Y-57863200D02*
X119291600Y-56796200D01*
X119291600Y-55116200D02*
X119291600Y-54049200D01*
X119251600Y-57845200D02*
X119251600Y-56796200D01*
X119251600Y-55116200D02*
X119251600Y-54067200D01*
X119211600Y-57826200D02*
X119211600Y-56796200D01*
X119211600Y-55116200D02*
X119211600Y-54086200D01*
X119171600Y-57807200D02*
X119171600Y-56796200D01*
X119171600Y-55116200D02*
X119171600Y-54105200D01*
X119131600Y-57786200D02*
X119131600Y-56796200D01*
X119131600Y-55116200D02*
X119131600Y-54126200D01*
X119091600Y-57764200D02*
X119091600Y-56796200D01*
X119091600Y-55116200D02*
X119091600Y-54148200D01*
X119051600Y-57741200D02*
X119051600Y-56796200D01*
X119051600Y-55116200D02*
X119051600Y-54171200D01*
X119011600Y-57716200D02*
X119011600Y-56796200D01*
X119011600Y-55116200D02*
X119011600Y-54196200D01*
X118971600Y-57691200D02*
X118971600Y-56796200D01*
X118971600Y-55116200D02*
X118971600Y-54221200D01*
X118931600Y-57664200D02*
X118931600Y-56796200D01*
X118931600Y-55116200D02*
X118931600Y-54248200D01*
X118891600Y-57636200D02*
X118891600Y-56796200D01*
X118891600Y-55116200D02*
X118891600Y-54276200D01*
X118851600Y-57606200D02*
X118851600Y-56796200D01*
X118851600Y-55116200D02*
X118851600Y-54306200D01*
X118811600Y-57575200D02*
X118811600Y-56796200D01*
X118811600Y-55116200D02*
X118811600Y-54337200D01*
X118771600Y-57543200D02*
X118771600Y-56796200D01*
X118771600Y-55116200D02*
X118771600Y-54369200D01*
X118731600Y-57508200D02*
X118731600Y-56796200D01*
X118731600Y-55116200D02*
X118731600Y-54404200D01*
X118691600Y-57472200D02*
X118691600Y-56796200D01*
X118691600Y-55116200D02*
X118691600Y-54440200D01*
X118651600Y-57434200D02*
X118651600Y-56796200D01*
X118651600Y-55116200D02*
X118651600Y-54478200D01*
X118611600Y-57394200D02*
X118611600Y-56796200D01*
X118611600Y-55116200D02*
X118611600Y-54518200D01*
X118571600Y-57352200D02*
X118571600Y-56796200D01*
X118571600Y-55116200D02*
X118571600Y-54560200D01*
X118531600Y-57307200D02*
X118531600Y-56796200D01*
X118531600Y-55116200D02*
X118531600Y-54605200D01*
X118491600Y-57260200D02*
X118491600Y-56796200D01*
X118491600Y-55116200D02*
X118491600Y-54652200D01*
X118451600Y-57210200D02*
X118451600Y-56796200D01*
X118451600Y-55116200D02*
X118451600Y-54702200D01*
X118411600Y-57156200D02*
X118411600Y-56796200D01*
X118411600Y-55116200D02*
X118411600Y-54756200D01*
X118371600Y-57098200D02*
X118371600Y-56796200D01*
X118371600Y-55116200D02*
X118371600Y-54814200D01*
X118331600Y-57036200D02*
X118331600Y-56796200D01*
X118331600Y-55116200D02*
X118331600Y-54876200D01*
X118291600Y-56969200D02*
X118291600Y-54943200D01*
X118251600Y-56896200D02*
X118251600Y-55016200D01*
X118211600Y-56815200D02*
X118211600Y-55097200D01*
X118171600Y-56724200D02*
X118171600Y-55188200D01*
X118131600Y-56620200D02*
X118131600Y-55292200D01*
X118091600Y-56493200D02*
X118091600Y-55419200D01*
X118051600Y-56326200D02*
X118051600Y-55586200D01*
X122252600Y-55956200D02*
G75*
G03*
X118012600Y-55956200I-2120000J0D01*
G01*
X118012600Y-55956200D02*
G75*
G03*
X122252600Y-55956200I2120000J0D01*
G01*
%TO.C,R28*%
X168070200Y-84207600D02*
X168070200Y-90747600D01*
X167740200Y-84207600D02*
X168070200Y-84207600D01*
X165660200Y-84207600D02*
X165330200Y-84207600D01*
X165330200Y-84207600D02*
X165330200Y-90747600D01*
X168070200Y-90747600D02*
X167740200Y-90747600D01*
X165330200Y-90747600D02*
X165660200Y-90747600D01*
%TO.C,R5*%
X131692400Y-72820200D02*
X125152400Y-72820200D01*
X131692400Y-72490200D02*
X131692400Y-72820200D01*
X131692400Y-70410200D02*
X131692400Y-70080200D01*
X131692400Y-70080200D02*
X125152400Y-70080200D01*
X125152400Y-72820200D02*
X125152400Y-72490200D01*
X125152400Y-70080200D02*
X125152400Y-70410200D01*
%TO.C,R4*%
X145433800Y-74115600D02*
X138893800Y-74115600D01*
X145433800Y-73785600D02*
X145433800Y-74115600D01*
X145433800Y-71705600D02*
X145433800Y-71375600D01*
X145433800Y-71375600D02*
X138893800Y-71375600D01*
X138893800Y-74115600D02*
X138893800Y-73785600D01*
X138893800Y-71375600D02*
X138893800Y-71705600D01*
%TO.C,R1*%
X131692400Y-66622600D02*
X125152400Y-66622600D01*
X131692400Y-66292600D02*
X131692400Y-66622600D01*
X131692400Y-64212600D02*
X131692400Y-63882600D01*
X131692400Y-63882600D02*
X125152400Y-63882600D01*
X125152400Y-66622600D02*
X125152400Y-66292600D01*
X125152400Y-63882600D02*
X125152400Y-64212600D01*
%TO.C,C9*%
X137091001Y-75871000D02*
X136691001Y-75871000D01*
X136891001Y-76071000D02*
X136891001Y-75671000D01*
X134821200Y-76756000D02*
X134821200Y-72596000D01*
X134781200Y-76756000D02*
X134781200Y-72596000D01*
X134741200Y-76755000D02*
X134741200Y-72597000D01*
X134701200Y-76753000D02*
X134701200Y-72599000D01*
X134661200Y-76750000D02*
X134661200Y-72602000D01*
X134621200Y-76747000D02*
X134621200Y-75516000D01*
X134621200Y-73836000D02*
X134621200Y-72605000D01*
X134581200Y-76743000D02*
X134581200Y-75516000D01*
X134581200Y-73836000D02*
X134581200Y-72609000D01*
X134541200Y-76738000D02*
X134541200Y-75516000D01*
X134541200Y-73836000D02*
X134541200Y-72614000D01*
X134501200Y-76732000D02*
X134501200Y-75516000D01*
X134501200Y-73836000D02*
X134501200Y-72620000D01*
X134461200Y-76726000D02*
X134461200Y-75516000D01*
X134461200Y-73836000D02*
X134461200Y-72626000D01*
X134421200Y-76718000D02*
X134421200Y-75516000D01*
X134421200Y-73836000D02*
X134421200Y-72634000D01*
X134381200Y-76710000D02*
X134381200Y-75516000D01*
X134381200Y-73836000D02*
X134381200Y-72642000D01*
X134341200Y-76701000D02*
X134341200Y-75516000D01*
X134341200Y-73836000D02*
X134341200Y-72651000D01*
X134301200Y-76692000D02*
X134301200Y-75516000D01*
X134301200Y-73836000D02*
X134301200Y-72660000D01*
X134261200Y-76681000D02*
X134261200Y-75516000D01*
X134261200Y-73836000D02*
X134261200Y-72671000D01*
X134221200Y-76670000D02*
X134221200Y-75516000D01*
X134221200Y-73836000D02*
X134221200Y-72682000D01*
X134181200Y-76658000D02*
X134181200Y-75516000D01*
X134181200Y-73836000D02*
X134181200Y-72694000D01*
X134141200Y-76644000D02*
X134141200Y-75516000D01*
X134141200Y-73836000D02*
X134141200Y-72708000D01*
X134100200Y-76630000D02*
X134100200Y-75516000D01*
X134100200Y-73836000D02*
X134100200Y-72722000D01*
X134060200Y-76616000D02*
X134060200Y-75516000D01*
X134060200Y-73836000D02*
X134060200Y-72736000D01*
X134020200Y-76600000D02*
X134020200Y-75516000D01*
X134020200Y-73836000D02*
X134020200Y-72752000D01*
X133980200Y-76583000D02*
X133980200Y-75516000D01*
X133980200Y-73836000D02*
X133980200Y-72769000D01*
X133940200Y-76565000D02*
X133940200Y-75516000D01*
X133940200Y-73836000D02*
X133940200Y-72787000D01*
X133900200Y-76546000D02*
X133900200Y-75516000D01*
X133900200Y-73836000D02*
X133900200Y-72806000D01*
X133860200Y-76527000D02*
X133860200Y-75516000D01*
X133860200Y-73836000D02*
X133860200Y-72825000D01*
X133820200Y-76506000D02*
X133820200Y-75516000D01*
X133820200Y-73836000D02*
X133820200Y-72846000D01*
X133780200Y-76484000D02*
X133780200Y-75516000D01*
X133780200Y-73836000D02*
X133780200Y-72868000D01*
X133740200Y-76461000D02*
X133740200Y-75516000D01*
X133740200Y-73836000D02*
X133740200Y-72891000D01*
X133700200Y-76436000D02*
X133700200Y-75516000D01*
X133700200Y-73836000D02*
X133700200Y-72916000D01*
X133660200Y-76411000D02*
X133660200Y-75516000D01*
X133660200Y-73836000D02*
X133660200Y-72941000D01*
X133620200Y-76384000D02*
X133620200Y-75516000D01*
X133620200Y-73836000D02*
X133620200Y-72968000D01*
X133580200Y-76356000D02*
X133580200Y-75516000D01*
X133580200Y-73836000D02*
X133580200Y-72996000D01*
X133540200Y-76326000D02*
X133540200Y-75516000D01*
X133540200Y-73836000D02*
X133540200Y-73026000D01*
X133500200Y-76295000D02*
X133500200Y-75516000D01*
X133500200Y-73836000D02*
X133500200Y-73057000D01*
X133460200Y-76263000D02*
X133460200Y-75516000D01*
X133460200Y-73836000D02*
X133460200Y-73089000D01*
X133420200Y-76228000D02*
X133420200Y-75516000D01*
X133420200Y-73836000D02*
X133420200Y-73124000D01*
X133380200Y-76192000D02*
X133380200Y-75516000D01*
X133380200Y-73836000D02*
X133380200Y-73160000D01*
X133340200Y-76154000D02*
X133340200Y-75516000D01*
X133340200Y-73836000D02*
X133340200Y-73198000D01*
X133300200Y-76114000D02*
X133300200Y-75516000D01*
X133300200Y-73836000D02*
X133300200Y-73238000D01*
X133260200Y-76072000D02*
X133260200Y-75516000D01*
X133260200Y-73836000D02*
X133260200Y-73280000D01*
X133220200Y-76027000D02*
X133220200Y-75516000D01*
X133220200Y-73836000D02*
X133220200Y-73325000D01*
X133180200Y-75980000D02*
X133180200Y-75516000D01*
X133180200Y-73836000D02*
X133180200Y-73372000D01*
X133140200Y-75930000D02*
X133140200Y-75516000D01*
X133140200Y-73836000D02*
X133140200Y-73422000D01*
X133100200Y-75876000D02*
X133100200Y-75516000D01*
X133100200Y-73836000D02*
X133100200Y-73476000D01*
X133060200Y-75818000D02*
X133060200Y-75516000D01*
X133060200Y-73836000D02*
X133060200Y-73534000D01*
X133020200Y-75756000D02*
X133020200Y-75516000D01*
X133020200Y-73836000D02*
X133020200Y-73596000D01*
X132980200Y-75689000D02*
X132980200Y-73663000D01*
X132940200Y-75616000D02*
X132940200Y-73736000D01*
X132900200Y-75535000D02*
X132900200Y-73817000D01*
X132860200Y-75444000D02*
X132860200Y-73908000D01*
X132820200Y-75340000D02*
X132820200Y-74012000D01*
X132780200Y-75213000D02*
X132780200Y-74139000D01*
X132740200Y-75046000D02*
X132740200Y-74306000D01*
X136941200Y-74676000D02*
G75*
G03*
X132701200Y-74676000I-2120000J0D01*
G01*
X132701200Y-74676000D02*
G75*
G03*
X136941200Y-74676000I2120000J0D01*
G01*
%TO.C,R15*%
X129292600Y-92406800D02*
X135832600Y-92406800D01*
X129292600Y-92736800D02*
X129292600Y-92406800D01*
X129292600Y-94816800D02*
X129292600Y-95146800D01*
X129292600Y-95146800D02*
X135832600Y-95146800D01*
X135832600Y-92406800D02*
X135832600Y-92736800D01*
X135832600Y-95146800D02*
X135832600Y-94816800D01*
%TO.C,R20*%
X151461600Y-85090000D02*
X150691600Y-85090000D01*
X150691600Y-86460000D02*
X150691600Y-83720000D01*
X150691600Y-83720000D02*
X144151600Y-83720000D01*
X144151600Y-86460000D02*
X150691600Y-86460000D01*
X144151600Y-83720000D02*
X144151600Y-86460000D01*
X143381600Y-85090000D02*
X144151600Y-85090000D01*
%TO.C,C23*%
X133887200Y-83005600D02*
X133887200Y-82690600D01*
X133887200Y-83005600D02*
X128647200Y-83005600D01*
X133887200Y-80580600D02*
X133887200Y-80265600D01*
X133887200Y-80265600D02*
X128647200Y-80265600D01*
X128647200Y-83005600D02*
X128647200Y-82690600D01*
X128647200Y-80580600D02*
X128647200Y-80265600D01*
%TO.C,C1*%
X154199600Y-80824400D02*
X154199600Y-81139400D01*
X154199600Y-80824400D02*
X159439600Y-80824400D01*
X154199600Y-83249400D02*
X154199600Y-83564400D01*
X154199600Y-83564400D02*
X159439600Y-83564400D01*
X159439600Y-80824400D02*
X159439600Y-81139400D01*
X159439600Y-83249400D02*
X159439600Y-83564400D01*
%TO.C,R18*%
X155856000Y-78428600D02*
X155856000Y-71888600D01*
X156186000Y-78428600D02*
X155856000Y-78428600D01*
X158266000Y-78428600D02*
X158596000Y-78428600D01*
X158596000Y-78428600D02*
X158596000Y-71888600D01*
X155856000Y-71888600D02*
X156186000Y-71888600D01*
X158596000Y-71888600D02*
X158266000Y-71888600D01*
%TO.C,C12*%
X118538000Y-83466000D02*
X118538000Y-83781000D01*
X118538000Y-83466000D02*
X123778000Y-83466000D01*
X118538000Y-85891000D02*
X118538000Y-86206000D01*
X118538000Y-86206000D02*
X123778000Y-86206000D01*
X123778000Y-83466000D02*
X123778000Y-83781000D01*
X123778000Y-85891000D02*
X123778000Y-86206000D01*
%TO.C,R6*%
X138462000Y-61368000D02*
X145002000Y-61368000D01*
X138462000Y-61698000D02*
X138462000Y-61368000D01*
X138462000Y-63778000D02*
X138462000Y-64108000D01*
X138462000Y-64108000D02*
X145002000Y-64108000D01*
X145002000Y-61368000D02*
X145002000Y-61698000D01*
X145002000Y-64108000D02*
X145002000Y-63778000D01*
%TO.C,C19*%
X108662800Y-99292400D02*
X108977800Y-99292400D01*
X108662800Y-99292400D02*
X108662800Y-94052400D01*
X111087800Y-99292400D02*
X111402800Y-99292400D01*
X111402800Y-99292400D02*
X111402800Y-94052400D01*
X108662800Y-94052400D02*
X108977800Y-94052400D01*
X111087800Y-94052400D02*
X111402800Y-94052400D01*
%TO.C,C11*%
X129721600Y-75969800D02*
X129721600Y-75654800D01*
X129721600Y-75969800D02*
X124481600Y-75969800D01*
X129721600Y-73544800D02*
X129721600Y-73229800D01*
X129721600Y-73229800D02*
X124481600Y-73229800D01*
X124481600Y-75969800D02*
X124481600Y-75654800D01*
X124481600Y-73544800D02*
X124481600Y-73229800D01*
%TO.C,R29*%
X158451800Y-92508400D02*
X164991800Y-92508400D01*
X158451800Y-92838400D02*
X158451800Y-92508400D01*
X158451800Y-94918400D02*
X158451800Y-95248400D01*
X158451800Y-95248400D02*
X164991800Y-95248400D01*
X164991800Y-92508400D02*
X164991800Y-92838400D01*
X164991800Y-95248400D02*
X164991800Y-94918400D01*
%TO.C,C26*%
X156776001Y-97334000D02*
X156376001Y-97334000D01*
X156576001Y-97534000D02*
X156576001Y-97134000D01*
X154506200Y-98219000D02*
X154506200Y-94059000D01*
X154466200Y-98219000D02*
X154466200Y-94059000D01*
X154426200Y-98218000D02*
X154426200Y-94060000D01*
X154386200Y-98216000D02*
X154386200Y-94062000D01*
X154346200Y-98213000D02*
X154346200Y-94065000D01*
X154306200Y-98210000D02*
X154306200Y-96979000D01*
X154306200Y-95299000D02*
X154306200Y-94068000D01*
X154266200Y-98206000D02*
X154266200Y-96979000D01*
X154266200Y-95299000D02*
X154266200Y-94072000D01*
X154226200Y-98201000D02*
X154226200Y-96979000D01*
X154226200Y-95299000D02*
X154226200Y-94077000D01*
X154186200Y-98195000D02*
X154186200Y-96979000D01*
X154186200Y-95299000D02*
X154186200Y-94083000D01*
X154146200Y-98189000D02*
X154146200Y-96979000D01*
X154146200Y-95299000D02*
X154146200Y-94089000D01*
X154106200Y-98181000D02*
X154106200Y-96979000D01*
X154106200Y-95299000D02*
X154106200Y-94097000D01*
X154066200Y-98173000D02*
X154066200Y-96979000D01*
X154066200Y-95299000D02*
X154066200Y-94105000D01*
X154026200Y-98164000D02*
X154026200Y-96979000D01*
X154026200Y-95299000D02*
X154026200Y-94114000D01*
X153986200Y-98155000D02*
X153986200Y-96979000D01*
X153986200Y-95299000D02*
X153986200Y-94123000D01*
X153946200Y-98144000D02*
X153946200Y-96979000D01*
X153946200Y-95299000D02*
X153946200Y-94134000D01*
X153906200Y-98133000D02*
X153906200Y-96979000D01*
X153906200Y-95299000D02*
X153906200Y-94145000D01*
X153866200Y-98121000D02*
X153866200Y-96979000D01*
X153866200Y-95299000D02*
X153866200Y-94157000D01*
X153826200Y-98107000D02*
X153826200Y-96979000D01*
X153826200Y-95299000D02*
X153826200Y-94171000D01*
X153785200Y-98093000D02*
X153785200Y-96979000D01*
X153785200Y-95299000D02*
X153785200Y-94185000D01*
X153745200Y-98079000D02*
X153745200Y-96979000D01*
X153745200Y-95299000D02*
X153745200Y-94199000D01*
X153705200Y-98063000D02*
X153705200Y-96979000D01*
X153705200Y-95299000D02*
X153705200Y-94215000D01*
X153665200Y-98046000D02*
X153665200Y-96979000D01*
X153665200Y-95299000D02*
X153665200Y-94232000D01*
X153625200Y-98028000D02*
X153625200Y-96979000D01*
X153625200Y-95299000D02*
X153625200Y-94250000D01*
X153585200Y-98009000D02*
X153585200Y-96979000D01*
X153585200Y-95299000D02*
X153585200Y-94269000D01*
X153545200Y-97990000D02*
X153545200Y-96979000D01*
X153545200Y-95299000D02*
X153545200Y-94288000D01*
X153505200Y-97969000D02*
X153505200Y-96979000D01*
X153505200Y-95299000D02*
X153505200Y-94309000D01*
X153465200Y-97947000D02*
X153465200Y-96979000D01*
X153465200Y-95299000D02*
X153465200Y-94331000D01*
X153425200Y-97924000D02*
X153425200Y-96979000D01*
X153425200Y-95299000D02*
X153425200Y-94354000D01*
X153385200Y-97899000D02*
X153385200Y-96979000D01*
X153385200Y-95299000D02*
X153385200Y-94379000D01*
X153345200Y-97874000D02*
X153345200Y-96979000D01*
X153345200Y-95299000D02*
X153345200Y-94404000D01*
X153305200Y-97847000D02*
X153305200Y-96979000D01*
X153305200Y-95299000D02*
X153305200Y-94431000D01*
X153265200Y-97819000D02*
X153265200Y-96979000D01*
X153265200Y-95299000D02*
X153265200Y-94459000D01*
X153225200Y-97789000D02*
X153225200Y-96979000D01*
X153225200Y-95299000D02*
X153225200Y-94489000D01*
X153185200Y-97758000D02*
X153185200Y-96979000D01*
X153185200Y-95299000D02*
X153185200Y-94520000D01*
X153145200Y-97726000D02*
X153145200Y-96979000D01*
X153145200Y-95299000D02*
X153145200Y-94552000D01*
X153105200Y-97691000D02*
X153105200Y-96979000D01*
X153105200Y-95299000D02*
X153105200Y-94587000D01*
X153065200Y-97655000D02*
X153065200Y-96979000D01*
X153065200Y-95299000D02*
X153065200Y-94623000D01*
X153025200Y-97617000D02*
X153025200Y-96979000D01*
X153025200Y-95299000D02*
X153025200Y-94661000D01*
X152985200Y-97577000D02*
X152985200Y-96979000D01*
X152985200Y-95299000D02*
X152985200Y-94701000D01*
X152945200Y-97535000D02*
X152945200Y-96979000D01*
X152945200Y-95299000D02*
X152945200Y-94743000D01*
X152905200Y-97490000D02*
X152905200Y-96979000D01*
X152905200Y-95299000D02*
X152905200Y-94788000D01*
X152865200Y-97443000D02*
X152865200Y-96979000D01*
X152865200Y-95299000D02*
X152865200Y-94835000D01*
X152825200Y-97393000D02*
X152825200Y-96979000D01*
X152825200Y-95299000D02*
X152825200Y-94885000D01*
X152785200Y-97339000D02*
X152785200Y-96979000D01*
X152785200Y-95299000D02*
X152785200Y-94939000D01*
X152745200Y-97281000D02*
X152745200Y-96979000D01*
X152745200Y-95299000D02*
X152745200Y-94997000D01*
X152705200Y-97219000D02*
X152705200Y-96979000D01*
X152705200Y-95299000D02*
X152705200Y-95059000D01*
X152665200Y-97152000D02*
X152665200Y-95126000D01*
X152625200Y-97079000D02*
X152625200Y-95199000D01*
X152585200Y-96998000D02*
X152585200Y-95280000D01*
X152545200Y-96907000D02*
X152545200Y-95371000D01*
X152505200Y-96803000D02*
X152505200Y-95475000D01*
X152465200Y-96676000D02*
X152465200Y-95602000D01*
X152425200Y-96509000D02*
X152425200Y-95769000D01*
X156626200Y-96139000D02*
G75*
G03*
X152386200Y-96139000I-2120000J0D01*
G01*
X152386200Y-96139000D02*
G75*
G03*
X156626200Y-96139000I2120000J0D01*
G01*
%TO.C,R19*%
X159132600Y-78454000D02*
X159132600Y-71914000D01*
X159462600Y-78454000D02*
X159132600Y-78454000D01*
X161542600Y-78454000D02*
X161872600Y-78454000D01*
X161872600Y-78454000D02*
X161872600Y-71914000D01*
X159132600Y-71914000D02*
X159462600Y-71914000D01*
X161872600Y-71914000D02*
X161542600Y-71914000D01*
%TO.C,R7*%
X145510000Y-77163600D02*
X138970000Y-77163600D01*
X145510000Y-76833600D02*
X145510000Y-77163600D01*
X145510000Y-74753600D02*
X145510000Y-74423600D01*
X145510000Y-74423600D02*
X138970000Y-74423600D01*
X138970000Y-77163600D02*
X138970000Y-76833600D01*
X138970000Y-74423600D02*
X138970000Y-74753600D01*
%TO.C,C24*%
X148186288Y-83199200D02*
X147736288Y-83199200D01*
X147961288Y-83424200D02*
X147961288Y-82974200D01*
X147768741Y-80804200D02*
G75*
G03*
X147768741Y-82924200I-2119741J-1060000D01*
G01*
%TO.C,R23*%
X148100800Y-80237000D02*
X141560800Y-80237000D01*
X148100800Y-79907000D02*
X148100800Y-80237000D01*
X148100800Y-77827000D02*
X148100800Y-77497000D01*
X148100800Y-77497000D02*
X141560800Y-77497000D01*
X141560800Y-80237000D02*
X141560800Y-79907000D01*
X141560800Y-77497000D02*
X141560800Y-77827000D01*
%TO.C,C15*%
X150137800Y-70354200D02*
X149822800Y-70354200D01*
X150137800Y-70354200D02*
X150137800Y-75594200D01*
X147712800Y-70354200D02*
X147397800Y-70354200D01*
X147397800Y-70354200D02*
X147397800Y-75594200D01*
X150137800Y-75594200D02*
X149822800Y-75594200D01*
X147712800Y-75594200D02*
X147397800Y-75594200D01*
%TO.C,R3*%
X145002000Y-61060000D02*
X138462000Y-61060000D01*
X145002000Y-60730000D02*
X145002000Y-61060000D01*
X145002000Y-58650000D02*
X145002000Y-58320000D01*
X145002000Y-58320000D02*
X138462000Y-58320000D01*
X138462000Y-61060000D02*
X138462000Y-60730000D01*
X138462000Y-58320000D02*
X138462000Y-58650000D01*
%TO.C,C16*%
X150342799Y-70509200D02*
X150742799Y-70509200D01*
X150542799Y-70309200D02*
X150542799Y-70709200D01*
X152612600Y-69624200D02*
X152612600Y-73784200D01*
X152652600Y-69624200D02*
X152652600Y-73784200D01*
X152692600Y-69625200D02*
X152692600Y-73783200D01*
X152732600Y-69627200D02*
X152732600Y-73781200D01*
X152772600Y-69630200D02*
X152772600Y-73778200D01*
X152812600Y-69633200D02*
X152812600Y-70864200D01*
X152812600Y-72544200D02*
X152812600Y-73775200D01*
X152852600Y-69637200D02*
X152852600Y-70864200D01*
X152852600Y-72544200D02*
X152852600Y-73771200D01*
X152892600Y-69642200D02*
X152892600Y-70864200D01*
X152892600Y-72544200D02*
X152892600Y-73766200D01*
X152932600Y-69648200D02*
X152932600Y-70864200D01*
X152932600Y-72544200D02*
X152932600Y-73760200D01*
X152972600Y-69654200D02*
X152972600Y-70864200D01*
X152972600Y-72544200D02*
X152972600Y-73754200D01*
X153012600Y-69662200D02*
X153012600Y-70864200D01*
X153012600Y-72544200D02*
X153012600Y-73746200D01*
X153052600Y-69670200D02*
X153052600Y-70864200D01*
X153052600Y-72544200D02*
X153052600Y-73738200D01*
X153092600Y-69679200D02*
X153092600Y-70864200D01*
X153092600Y-72544200D02*
X153092600Y-73729200D01*
X153132600Y-69688200D02*
X153132600Y-70864200D01*
X153132600Y-72544200D02*
X153132600Y-73720200D01*
X153172600Y-69699200D02*
X153172600Y-70864200D01*
X153172600Y-72544200D02*
X153172600Y-73709200D01*
X153212600Y-69710200D02*
X153212600Y-70864200D01*
X153212600Y-72544200D02*
X153212600Y-73698200D01*
X153252600Y-69722200D02*
X153252600Y-70864200D01*
X153252600Y-72544200D02*
X153252600Y-73686200D01*
X153292600Y-69736200D02*
X153292600Y-70864200D01*
X153292600Y-72544200D02*
X153292600Y-73672200D01*
X153333600Y-69750200D02*
X153333600Y-70864200D01*
X153333600Y-72544200D02*
X153333600Y-73658200D01*
X153373600Y-69764200D02*
X153373600Y-70864200D01*
X153373600Y-72544200D02*
X153373600Y-73644200D01*
X153413600Y-69780200D02*
X153413600Y-70864200D01*
X153413600Y-72544200D02*
X153413600Y-73628200D01*
X153453600Y-69797200D02*
X153453600Y-70864200D01*
X153453600Y-72544200D02*
X153453600Y-73611200D01*
X153493600Y-69815200D02*
X153493600Y-70864200D01*
X153493600Y-72544200D02*
X153493600Y-73593200D01*
X153533600Y-69834200D02*
X153533600Y-70864200D01*
X153533600Y-72544200D02*
X153533600Y-73574200D01*
X153573600Y-69853200D02*
X153573600Y-70864200D01*
X153573600Y-72544200D02*
X153573600Y-73555200D01*
X153613600Y-69874200D02*
X153613600Y-70864200D01*
X153613600Y-72544200D02*
X153613600Y-73534200D01*
X153653600Y-69896200D02*
X153653600Y-70864200D01*
X153653600Y-72544200D02*
X153653600Y-73512200D01*
X153693600Y-69919200D02*
X153693600Y-70864200D01*
X153693600Y-72544200D02*
X153693600Y-73489200D01*
X153733600Y-69944200D02*
X153733600Y-70864200D01*
X153733600Y-72544200D02*
X153733600Y-73464200D01*
X153773600Y-69969200D02*
X153773600Y-70864200D01*
X153773600Y-72544200D02*
X153773600Y-73439200D01*
X153813600Y-69996200D02*
X153813600Y-70864200D01*
X153813600Y-72544200D02*
X153813600Y-73412200D01*
X153853600Y-70024200D02*
X153853600Y-70864200D01*
X153853600Y-72544200D02*
X153853600Y-73384200D01*
X153893600Y-70054200D02*
X153893600Y-70864200D01*
X153893600Y-72544200D02*
X153893600Y-73354200D01*
X153933600Y-70085200D02*
X153933600Y-70864200D01*
X153933600Y-72544200D02*
X153933600Y-73323200D01*
X153973600Y-70117200D02*
X153973600Y-70864200D01*
X153973600Y-72544200D02*
X153973600Y-73291200D01*
X154013600Y-70152200D02*
X154013600Y-70864200D01*
X154013600Y-72544200D02*
X154013600Y-73256200D01*
X154053600Y-70188200D02*
X154053600Y-70864200D01*
X154053600Y-72544200D02*
X154053600Y-73220200D01*
X154093600Y-70226200D02*
X154093600Y-70864200D01*
X154093600Y-72544200D02*
X154093600Y-73182200D01*
X154133600Y-70266200D02*
X154133600Y-70864200D01*
X154133600Y-72544200D02*
X154133600Y-73142200D01*
X154173600Y-70308200D02*
X154173600Y-70864200D01*
X154173600Y-72544200D02*
X154173600Y-73100200D01*
X154213600Y-70353200D02*
X154213600Y-70864200D01*
X154213600Y-72544200D02*
X154213600Y-73055200D01*
X154253600Y-70400200D02*
X154253600Y-70864200D01*
X154253600Y-72544200D02*
X154253600Y-73008200D01*
X154293600Y-70450200D02*
X154293600Y-70864200D01*
X154293600Y-72544200D02*
X154293600Y-72958200D01*
X154333600Y-70504200D02*
X154333600Y-70864200D01*
X154333600Y-72544200D02*
X154333600Y-72904200D01*
X154373600Y-70562200D02*
X154373600Y-70864200D01*
X154373600Y-72544200D02*
X154373600Y-72846200D01*
X154413600Y-70624200D02*
X154413600Y-70864200D01*
X154413600Y-72544200D02*
X154413600Y-72784200D01*
X154453600Y-70691200D02*
X154453600Y-72717200D01*
X154493600Y-70764200D02*
X154493600Y-72644200D01*
X154533600Y-70845200D02*
X154533600Y-72563200D01*
X154573600Y-70936200D02*
X154573600Y-72472200D01*
X154613600Y-71040200D02*
X154613600Y-72368200D01*
X154653600Y-71167200D02*
X154653600Y-72241200D01*
X154693600Y-71334200D02*
X154693600Y-72074200D01*
X154732600Y-71704200D02*
G75*
G03*
X150492600Y-71704200I-2120000J0D01*
G01*
X150492600Y-71704200D02*
G75*
G03*
X154732600Y-71704200I2120000J0D01*
G01*
%TO.C,R17*%
X129318000Y-83288200D02*
X135858000Y-83288200D01*
X129318000Y-83618200D02*
X129318000Y-83288200D01*
X129318000Y-85698200D02*
X129318000Y-86028200D01*
X129318000Y-86028200D02*
X135858000Y-86028200D01*
X135858000Y-83288200D02*
X135858000Y-83618200D01*
X135858000Y-86028200D02*
X135858000Y-85698200D01*
%TO.C,R2*%
X130676400Y-60425000D02*
X124136400Y-60425000D01*
X130676400Y-60095000D02*
X130676400Y-60425000D01*
X130676400Y-58015000D02*
X130676400Y-57685000D01*
X130676400Y-57685000D02*
X124136400Y-57685000D01*
X124136400Y-60425000D02*
X124136400Y-60095000D01*
X124136400Y-57685000D02*
X124136400Y-58015000D01*
%TO.C,R10*%
X122909000Y-66580000D02*
X122909000Y-73120000D01*
X122579000Y-66580000D02*
X122909000Y-66580000D01*
X120499000Y-66580000D02*
X120169000Y-66580000D01*
X120169000Y-66580000D02*
X120169000Y-73120000D01*
X122909000Y-73120000D02*
X122579000Y-73120000D01*
X120169000Y-73120000D02*
X120499000Y-73120000D01*
%TO.C,C20*%
X137822000Y-94568000D02*
X138137000Y-94568000D01*
X137822000Y-94568000D02*
X137822000Y-89328000D01*
X140247000Y-94568000D02*
X140562000Y-94568000D01*
X140562000Y-94568000D02*
X140562000Y-89328000D01*
X137822000Y-89328000D02*
X138137000Y-89328000D01*
X140247000Y-89328000D02*
X140562000Y-89328000D01*
%TO.C,C4*%
X141047800Y-93679000D02*
X141362800Y-93679000D01*
X141047800Y-93679000D02*
X141047800Y-88439000D01*
X143472800Y-93679000D02*
X143787800Y-93679000D01*
X143787800Y-93679000D02*
X143787800Y-88439000D01*
X141047800Y-88439000D02*
X141362800Y-88439000D01*
X143472800Y-88439000D02*
X143787800Y-88439000D01*
%TO.C,R12*%
X129318000Y-89333400D02*
X135858000Y-89333400D01*
X129318000Y-89663400D02*
X129318000Y-89333400D01*
X129318000Y-91743400D02*
X129318000Y-92073400D01*
X129318000Y-92073400D02*
X135858000Y-92073400D01*
X135858000Y-89333400D02*
X135858000Y-89663400D01*
X135858000Y-92073400D02*
X135858000Y-91743400D01*
%TO.C,R26*%
X130828800Y-63523800D02*
X124288800Y-63523800D01*
X130828800Y-63193800D02*
X130828800Y-63523800D01*
X130828800Y-61113800D02*
X130828800Y-60783800D01*
X130828800Y-60783800D02*
X124288800Y-60783800D01*
X124288800Y-63523800D02*
X124288800Y-63193800D01*
X124288800Y-60783800D02*
X124288800Y-61113800D01*
%TO.C,C6*%
X127354000Y-88820000D02*
X127039000Y-88820000D01*
X127354000Y-88820000D02*
X127354000Y-94060000D01*
X124929000Y-88820000D02*
X124614000Y-88820000D01*
X124614000Y-88820000D02*
X124614000Y-94060000D01*
X127354000Y-94060000D02*
X127039000Y-94060000D01*
X124929000Y-94060000D02*
X124614000Y-94060000D01*
%TO.C,R21*%
X162434600Y-78454000D02*
X162434600Y-71914000D01*
X162764600Y-78454000D02*
X162434600Y-78454000D01*
X164844600Y-78454000D02*
X165174600Y-78454000D01*
X165174600Y-78454000D02*
X165174600Y-71914000D01*
X162434600Y-71914000D02*
X162764600Y-71914000D01*
X165174600Y-71914000D02*
X164844600Y-71914000D01*
%TO.C,C17*%
X150603399Y-77037000D02*
X151003399Y-77037000D01*
X150803399Y-76837000D02*
X150803399Y-77237000D01*
X152873200Y-76152000D02*
X152873200Y-80312000D01*
X152913200Y-76152000D02*
X152913200Y-80312000D01*
X152953200Y-76153000D02*
X152953200Y-80311000D01*
X152993200Y-76155000D02*
X152993200Y-80309000D01*
X153033200Y-76158000D02*
X153033200Y-80306000D01*
X153073200Y-76161000D02*
X153073200Y-77392000D01*
X153073200Y-79072000D02*
X153073200Y-80303000D01*
X153113200Y-76165000D02*
X153113200Y-77392000D01*
X153113200Y-79072000D02*
X153113200Y-80299000D01*
X153153200Y-76170000D02*
X153153200Y-77392000D01*
X153153200Y-79072000D02*
X153153200Y-80294000D01*
X153193200Y-76176000D02*
X153193200Y-77392000D01*
X153193200Y-79072000D02*
X153193200Y-80288000D01*
X153233200Y-76182000D02*
X153233200Y-77392000D01*
X153233200Y-79072000D02*
X153233200Y-80282000D01*
X153273200Y-76190000D02*
X153273200Y-77392000D01*
X153273200Y-79072000D02*
X153273200Y-80274000D01*
X153313200Y-76198000D02*
X153313200Y-77392000D01*
X153313200Y-79072000D02*
X153313200Y-80266000D01*
X153353200Y-76207000D02*
X153353200Y-77392000D01*
X153353200Y-79072000D02*
X153353200Y-80257000D01*
X153393200Y-76216000D02*
X153393200Y-77392000D01*
X153393200Y-79072000D02*
X153393200Y-80248000D01*
X153433200Y-76227000D02*
X153433200Y-77392000D01*
X153433200Y-79072000D02*
X153433200Y-80237000D01*
X153473200Y-76238000D02*
X153473200Y-77392000D01*
X153473200Y-79072000D02*
X153473200Y-80226000D01*
X153513200Y-76250000D02*
X153513200Y-77392000D01*
X153513200Y-79072000D02*
X153513200Y-80214000D01*
X153553200Y-76264000D02*
X153553200Y-77392000D01*
X153553200Y-79072000D02*
X153553200Y-80200000D01*
X153594200Y-76278000D02*
X153594200Y-77392000D01*
X153594200Y-79072000D02*
X153594200Y-80186000D01*
X153634200Y-76292000D02*
X153634200Y-77392000D01*
X153634200Y-79072000D02*
X153634200Y-80172000D01*
X153674200Y-76308000D02*
X153674200Y-77392000D01*
X153674200Y-79072000D02*
X153674200Y-80156000D01*
X153714200Y-76325000D02*
X153714200Y-77392000D01*
X153714200Y-79072000D02*
X153714200Y-80139000D01*
X153754200Y-76343000D02*
X153754200Y-77392000D01*
X153754200Y-79072000D02*
X153754200Y-80121000D01*
X153794200Y-76362000D02*
X153794200Y-77392000D01*
X153794200Y-79072000D02*
X153794200Y-80102000D01*
X153834200Y-76381000D02*
X153834200Y-77392000D01*
X153834200Y-79072000D02*
X153834200Y-80083000D01*
X153874200Y-76402000D02*
X153874200Y-77392000D01*
X153874200Y-79072000D02*
X153874200Y-80062000D01*
X153914200Y-76424000D02*
X153914200Y-77392000D01*
X153914200Y-79072000D02*
X153914200Y-80040000D01*
X153954200Y-76447000D02*
X153954200Y-77392000D01*
X153954200Y-79072000D02*
X153954200Y-80017000D01*
X153994200Y-76472000D02*
X153994200Y-77392000D01*
X153994200Y-79072000D02*
X153994200Y-79992000D01*
X154034200Y-76497000D02*
X154034200Y-77392000D01*
X154034200Y-79072000D02*
X154034200Y-79967000D01*
X154074200Y-76524000D02*
X154074200Y-77392000D01*
X154074200Y-79072000D02*
X154074200Y-79940000D01*
X154114200Y-76552000D02*
X154114200Y-77392000D01*
X154114200Y-79072000D02*
X154114200Y-79912000D01*
X154154200Y-76582000D02*
X154154200Y-77392000D01*
X154154200Y-79072000D02*
X154154200Y-79882000D01*
X154194200Y-76613000D02*
X154194200Y-77392000D01*
X154194200Y-79072000D02*
X154194200Y-79851000D01*
X154234200Y-76645000D02*
X154234200Y-77392000D01*
X154234200Y-79072000D02*
X154234200Y-79819000D01*
X154274200Y-76680000D02*
X154274200Y-77392000D01*
X154274200Y-79072000D02*
X154274200Y-79784000D01*
X154314200Y-76716000D02*
X154314200Y-77392000D01*
X154314200Y-79072000D02*
X154314200Y-79748000D01*
X154354200Y-76754000D02*
X154354200Y-77392000D01*
X154354200Y-79072000D02*
X154354200Y-79710000D01*
X154394200Y-76794000D02*
X154394200Y-77392000D01*
X154394200Y-79072000D02*
X154394200Y-79670000D01*
X154434200Y-76836000D02*
X154434200Y-77392000D01*
X154434200Y-79072000D02*
X154434200Y-79628000D01*
X154474200Y-76881000D02*
X154474200Y-77392000D01*
X154474200Y-79072000D02*
X154474200Y-79583000D01*
X154514200Y-76928000D02*
X154514200Y-77392000D01*
X154514200Y-79072000D02*
X154514200Y-79536000D01*
X154554200Y-76978000D02*
X154554200Y-77392000D01*
X154554200Y-79072000D02*
X154554200Y-79486000D01*
X154594200Y-77032000D02*
X154594200Y-77392000D01*
X154594200Y-79072000D02*
X154594200Y-79432000D01*
X154634200Y-77090000D02*
X154634200Y-77392000D01*
X154634200Y-79072000D02*
X154634200Y-79374000D01*
X154674200Y-77152000D02*
X154674200Y-77392000D01*
X154674200Y-79072000D02*
X154674200Y-79312000D01*
X154714200Y-77219000D02*
X154714200Y-79245000D01*
X154754200Y-77292000D02*
X154754200Y-79172000D01*
X154794200Y-77373000D02*
X154794200Y-79091000D01*
X154834200Y-77464000D02*
X154834200Y-79000000D01*
X154874200Y-77568000D02*
X154874200Y-78896000D01*
X154914200Y-77695000D02*
X154914200Y-78769000D01*
X154954200Y-77862000D02*
X154954200Y-78602000D01*
X154993200Y-78232000D02*
G75*
G03*
X150753200Y-78232000I-2120000J0D01*
G01*
X150753200Y-78232000D02*
G75*
G03*
X154993200Y-78232000I2120000J0D01*
G01*
%TO.C,C3*%
X123598000Y-82376000D02*
X123913000Y-82376000D01*
X123598000Y-82376000D02*
X123598000Y-77136000D01*
X126023000Y-82376000D02*
X126338000Y-82376000D01*
X126338000Y-82376000D02*
X126338000Y-77136000D01*
X123598000Y-77136000D02*
X123913000Y-77136000D01*
X126023000Y-77136000D02*
X126338000Y-77136000D01*
%TO.C,C28*%
X151411000Y-92877000D02*
X151726000Y-92877000D01*
X151411000Y-92877000D02*
X151411000Y-87637000D01*
X153836000Y-92877000D02*
X154151000Y-92877000D01*
X154151000Y-92877000D02*
X154151000Y-87637000D01*
X151411000Y-87637000D02*
X151726000Y-87637000D01*
X153836000Y-87637000D02*
X154151000Y-87637000D01*
%TO.C,C13*%
X104056600Y-62406600D02*
X104456600Y-62406600D01*
X104256600Y-62206600D02*
X104256600Y-62606600D01*
X106326401Y-61521600D02*
X106326401Y-65681600D01*
X106366401Y-61521600D02*
X106366401Y-65681600D01*
X106406401Y-61522600D02*
X106406401Y-65680600D01*
X106446401Y-61524600D02*
X106446401Y-65678600D01*
X106486401Y-61527600D02*
X106486401Y-65675600D01*
X106526401Y-61530600D02*
X106526401Y-62761600D01*
X106526401Y-64441600D02*
X106526401Y-65672600D01*
X106566401Y-61534600D02*
X106566401Y-62761600D01*
X106566401Y-64441600D02*
X106566401Y-65668600D01*
X106606401Y-61539600D02*
X106606401Y-62761600D01*
X106606401Y-64441600D02*
X106606401Y-65663600D01*
X106646401Y-61545600D02*
X106646401Y-62761600D01*
X106646401Y-64441600D02*
X106646401Y-65657600D01*
X106686401Y-61551600D02*
X106686401Y-62761600D01*
X106686401Y-64441600D02*
X106686401Y-65651600D01*
X106726401Y-61559600D02*
X106726401Y-62761600D01*
X106726401Y-64441600D02*
X106726401Y-65643600D01*
X106766401Y-61567600D02*
X106766401Y-62761600D01*
X106766401Y-64441600D02*
X106766401Y-65635600D01*
X106806401Y-61576600D02*
X106806401Y-62761600D01*
X106806401Y-64441600D02*
X106806401Y-65626600D01*
X106846401Y-61585600D02*
X106846401Y-62761600D01*
X106846401Y-64441600D02*
X106846401Y-65617600D01*
X106886401Y-61596600D02*
X106886401Y-62761600D01*
X106886401Y-64441600D02*
X106886401Y-65606600D01*
X106926401Y-61607600D02*
X106926401Y-62761600D01*
X106926401Y-64441600D02*
X106926401Y-65595600D01*
X106966401Y-61619600D02*
X106966401Y-62761600D01*
X106966401Y-64441600D02*
X106966401Y-65583600D01*
X107006401Y-61633600D02*
X107006401Y-62761600D01*
X107006401Y-64441600D02*
X107006401Y-65569600D01*
X107047401Y-61647600D02*
X107047401Y-62761600D01*
X107047401Y-64441600D02*
X107047401Y-65555600D01*
X107087401Y-61661600D02*
X107087401Y-62761600D01*
X107087401Y-64441600D02*
X107087401Y-65541600D01*
X107127401Y-61677600D02*
X107127401Y-62761600D01*
X107127401Y-64441600D02*
X107127401Y-65525600D01*
X107167401Y-61694600D02*
X107167401Y-62761600D01*
X107167401Y-64441600D02*
X107167401Y-65508600D01*
X107207401Y-61712600D02*
X107207401Y-62761600D01*
X107207401Y-64441600D02*
X107207401Y-65490600D01*
X107247401Y-61731600D02*
X107247401Y-62761600D01*
X107247401Y-64441600D02*
X107247401Y-65471600D01*
X107287401Y-61750600D02*
X107287401Y-62761600D01*
X107287401Y-64441600D02*
X107287401Y-65452600D01*
X107327401Y-61771600D02*
X107327401Y-62761600D01*
X107327401Y-64441600D02*
X107327401Y-65431600D01*
X107367401Y-61793600D02*
X107367401Y-62761600D01*
X107367401Y-64441600D02*
X107367401Y-65409600D01*
X107407401Y-61816600D02*
X107407401Y-62761600D01*
X107407401Y-64441600D02*
X107407401Y-65386600D01*
X107447401Y-61841600D02*
X107447401Y-62761600D01*
X107447401Y-64441600D02*
X107447401Y-65361600D01*
X107487401Y-61866600D02*
X107487401Y-62761600D01*
X107487401Y-64441600D02*
X107487401Y-65336600D01*
X107527401Y-61893600D02*
X107527401Y-62761600D01*
X107527401Y-64441600D02*
X107527401Y-65309600D01*
X107567401Y-61921600D02*
X107567401Y-62761600D01*
X107567401Y-64441600D02*
X107567401Y-65281600D01*
X107607401Y-61951600D02*
X107607401Y-62761600D01*
X107607401Y-64441600D02*
X107607401Y-65251600D01*
X107647401Y-61982600D02*
X107647401Y-62761600D01*
X107647401Y-64441600D02*
X107647401Y-65220600D01*
X107687401Y-62014600D02*
X107687401Y-62761600D01*
X107687401Y-64441600D02*
X107687401Y-65188600D01*
X107727401Y-62049600D02*
X107727401Y-62761600D01*
X107727401Y-64441600D02*
X107727401Y-65153600D01*
X107767401Y-62085600D02*
X107767401Y-62761600D01*
X107767401Y-64441600D02*
X107767401Y-65117600D01*
X107807401Y-62123600D02*
X107807401Y-62761600D01*
X107807401Y-64441600D02*
X107807401Y-65079600D01*
X107847401Y-62163600D02*
X107847401Y-62761600D01*
X107847401Y-64441600D02*
X107847401Y-65039600D01*
X107887401Y-62205600D02*
X107887401Y-62761600D01*
X107887401Y-64441600D02*
X107887401Y-64997600D01*
X107927401Y-62250600D02*
X107927401Y-62761600D01*
X107927401Y-64441600D02*
X107927401Y-64952600D01*
X107967401Y-62297600D02*
X107967401Y-62761600D01*
X107967401Y-64441600D02*
X107967401Y-64905600D01*
X108007401Y-62347600D02*
X108007401Y-62761600D01*
X108007401Y-64441600D02*
X108007401Y-64855600D01*
X108047401Y-62401600D02*
X108047401Y-62761600D01*
X108047401Y-64441600D02*
X108047401Y-64801600D01*
X108087401Y-62459600D02*
X108087401Y-62761600D01*
X108087401Y-64441600D02*
X108087401Y-64743600D01*
X108127401Y-62521600D02*
X108127401Y-62761600D01*
X108127401Y-64441600D02*
X108127401Y-64681600D01*
X108167401Y-62588600D02*
X108167401Y-64614600D01*
X108207401Y-62661600D02*
X108207401Y-64541600D01*
X108247401Y-62742600D02*
X108247401Y-64460600D01*
X108287401Y-62833600D02*
X108287401Y-64369600D01*
X108327401Y-62937600D02*
X108327401Y-64265600D01*
X108367401Y-63064600D02*
X108367401Y-64138600D01*
X108407401Y-63231600D02*
X108407401Y-63971600D01*
X108446401Y-63601600D02*
G75*
G03*
X104206401Y-63601600I-2120000J0D01*
G01*
X104206401Y-63601600D02*
G75*
G03*
X108446401Y-63601600I2120000J0D01*
G01*
%TO.C,R24*%
X147397800Y-67481200D02*
X147397800Y-60941200D01*
X147727800Y-67481200D02*
X147397800Y-67481200D01*
X149807800Y-67481200D02*
X150137800Y-67481200D01*
X150137800Y-67481200D02*
X150137800Y-60941200D01*
X147397800Y-60941200D02*
X147727800Y-60941200D01*
X150137800Y-60941200D02*
X149807800Y-60941200D01*
%TO.C,C29*%
X133554800Y-71022200D02*
X133869800Y-71022200D01*
X133554800Y-71022200D02*
X133554800Y-65782200D01*
X135979800Y-71022200D02*
X136294800Y-71022200D01*
X136294800Y-71022200D02*
X136294800Y-65782200D01*
X133554800Y-65782200D02*
X133869800Y-65782200D01*
X135979800Y-65782200D02*
X136294800Y-65782200D01*
%TO.C,C18*%
X114612000Y-64669600D02*
X114212000Y-64669600D01*
X114412000Y-64869600D02*
X114412000Y-64469600D01*
X112342199Y-65554600D02*
X112342199Y-61394600D01*
X112302199Y-65554600D02*
X112302199Y-61394600D01*
X112262199Y-65553600D02*
X112262199Y-61395600D01*
X112222199Y-65551600D02*
X112222199Y-61397600D01*
X112182199Y-65548600D02*
X112182199Y-61400600D01*
X112142199Y-65545600D02*
X112142199Y-64314600D01*
X112142199Y-62634600D02*
X112142199Y-61403600D01*
X112102199Y-65541600D02*
X112102199Y-64314600D01*
X112102199Y-62634600D02*
X112102199Y-61407600D01*
X112062199Y-65536600D02*
X112062199Y-64314600D01*
X112062199Y-62634600D02*
X112062199Y-61412600D01*
X112022199Y-65530600D02*
X112022199Y-64314600D01*
X112022199Y-62634600D02*
X112022199Y-61418600D01*
X111982199Y-65524600D02*
X111982199Y-64314600D01*
X111982199Y-62634600D02*
X111982199Y-61424600D01*
X111942199Y-65516600D02*
X111942199Y-64314600D01*
X111942199Y-62634600D02*
X111942199Y-61432600D01*
X111902199Y-65508600D02*
X111902199Y-64314600D01*
X111902199Y-62634600D02*
X111902199Y-61440600D01*
X111862199Y-65499600D02*
X111862199Y-64314600D01*
X111862199Y-62634600D02*
X111862199Y-61449600D01*
X111822199Y-65490600D02*
X111822199Y-64314600D01*
X111822199Y-62634600D02*
X111822199Y-61458600D01*
X111782199Y-65479600D02*
X111782199Y-64314600D01*
X111782199Y-62634600D02*
X111782199Y-61469600D01*
X111742199Y-65468600D02*
X111742199Y-64314600D01*
X111742199Y-62634600D02*
X111742199Y-61480600D01*
X111702199Y-65456600D02*
X111702199Y-64314600D01*
X111702199Y-62634600D02*
X111702199Y-61492600D01*
X111662199Y-65442600D02*
X111662199Y-64314600D01*
X111662199Y-62634600D02*
X111662199Y-61506600D01*
X111621199Y-65428600D02*
X111621199Y-64314600D01*
X111621199Y-62634600D02*
X111621199Y-61520600D01*
X111581199Y-65414600D02*
X111581199Y-64314600D01*
X111581199Y-62634600D02*
X111581199Y-61534600D01*
X111541199Y-65398600D02*
X111541199Y-64314600D01*
X111541199Y-62634600D02*
X111541199Y-61550600D01*
X111501199Y-65381600D02*
X111501199Y-64314600D01*
X111501199Y-62634600D02*
X111501199Y-61567600D01*
X111461199Y-65363600D02*
X111461199Y-64314600D01*
X111461199Y-62634600D02*
X111461199Y-61585600D01*
X111421199Y-65344600D02*
X111421199Y-64314600D01*
X111421199Y-62634600D02*
X111421199Y-61604600D01*
X111381199Y-65325600D02*
X111381199Y-64314600D01*
X111381199Y-62634600D02*
X111381199Y-61623600D01*
X111341199Y-65304600D02*
X111341199Y-64314600D01*
X111341199Y-62634600D02*
X111341199Y-61644600D01*
X111301199Y-65282600D02*
X111301199Y-64314600D01*
X111301199Y-62634600D02*
X111301199Y-61666600D01*
X111261199Y-65259600D02*
X111261199Y-64314600D01*
X111261199Y-62634600D02*
X111261199Y-61689600D01*
X111221199Y-65234600D02*
X111221199Y-64314600D01*
X111221199Y-62634600D02*
X111221199Y-61714600D01*
X111181199Y-65209600D02*
X111181199Y-64314600D01*
X111181199Y-62634600D02*
X111181199Y-61739600D01*
X111141199Y-65182600D02*
X111141199Y-64314600D01*
X111141199Y-62634600D02*
X111141199Y-61766600D01*
X111101199Y-65154600D02*
X111101199Y-64314600D01*
X111101199Y-62634600D02*
X111101199Y-61794600D01*
X111061199Y-65124600D02*
X111061199Y-64314600D01*
X111061199Y-62634600D02*
X111061199Y-61824600D01*
X111021199Y-65093600D02*
X111021199Y-64314600D01*
X111021199Y-62634600D02*
X111021199Y-61855600D01*
X110981199Y-65061600D02*
X110981199Y-64314600D01*
X110981199Y-62634600D02*
X110981199Y-61887600D01*
X110941199Y-65026600D02*
X110941199Y-64314600D01*
X110941199Y-62634600D02*
X110941199Y-61922600D01*
X110901199Y-64990600D02*
X110901199Y-64314600D01*
X110901199Y-62634600D02*
X110901199Y-61958600D01*
X110861199Y-64952600D02*
X110861199Y-64314600D01*
X110861199Y-62634600D02*
X110861199Y-61996600D01*
X110821199Y-64912600D02*
X110821199Y-64314600D01*
X110821199Y-62634600D02*
X110821199Y-62036600D01*
X110781199Y-64870600D02*
X110781199Y-64314600D01*
X110781199Y-62634600D02*
X110781199Y-62078600D01*
X110741199Y-64825600D02*
X110741199Y-64314600D01*
X110741199Y-62634600D02*
X110741199Y-62123600D01*
X110701199Y-64778600D02*
X110701199Y-64314600D01*
X110701199Y-62634600D02*
X110701199Y-62170600D01*
X110661199Y-64728600D02*
X110661199Y-64314600D01*
X110661199Y-62634600D02*
X110661199Y-62220600D01*
X110621199Y-64674600D02*
X110621199Y-64314600D01*
X110621199Y-62634600D02*
X110621199Y-62274600D01*
X110581199Y-64616600D02*
X110581199Y-64314600D01*
X110581199Y-62634600D02*
X110581199Y-62332600D01*
X110541199Y-64554600D02*
X110541199Y-64314600D01*
X110541199Y-62634600D02*
X110541199Y-62394600D01*
X110501199Y-64487600D02*
X110501199Y-62461600D01*
X110461199Y-64414600D02*
X110461199Y-62534600D01*
X110421199Y-64333600D02*
X110421199Y-62615600D01*
X110381199Y-64242600D02*
X110381199Y-62706600D01*
X110341199Y-64138600D02*
X110341199Y-62810600D01*
X110301199Y-64011600D02*
X110301199Y-62937600D01*
X110261199Y-63844600D02*
X110261199Y-63104600D01*
X114462199Y-63474600D02*
G75*
G03*
X110222199Y-63474600I-2120000J0D01*
G01*
X110222199Y-63474600D02*
G75*
G03*
X114462199Y-63474600I2120000J0D01*
G01*
%TO.C,R16*%
X129318000Y-98502800D02*
X135858000Y-98502800D01*
X129318000Y-98832800D02*
X129318000Y-98502800D01*
X129318000Y-100912800D02*
X129318000Y-101242800D01*
X129318000Y-101242800D02*
X135858000Y-101242800D01*
X135858000Y-98502800D02*
X135858000Y-98832800D01*
X135858000Y-101242800D02*
X135858000Y-100912800D01*
%TO.C,R27*%
X135121400Y-79906800D02*
X128581400Y-79906800D01*
X135121400Y-79576800D02*
X135121400Y-79906800D01*
X135121400Y-77496800D02*
X135121400Y-77166800D01*
X135121400Y-77166800D02*
X128581400Y-77166800D01*
X128581400Y-79906800D02*
X128581400Y-79576800D01*
X128581400Y-77166800D02*
X128581400Y-77496800D01*
%TO.C,C5*%
X110925600Y-92860800D02*
X110925600Y-92545800D01*
X110925600Y-92860800D02*
X105685600Y-92860800D01*
X110925600Y-90435800D02*
X110925600Y-90120800D01*
X110925600Y-90120800D02*
X105685600Y-90120800D01*
X105685600Y-92860800D02*
X105685600Y-92545800D01*
X105685600Y-90435800D02*
X105685600Y-90120800D01*
%TO.C,C2*%
X136628200Y-70245600D02*
X136943200Y-70245600D01*
X136628200Y-70245600D02*
X136628200Y-65005600D01*
X139053200Y-70245600D02*
X139368200Y-70245600D01*
X139368200Y-70245600D02*
X139368200Y-65005600D01*
X136628200Y-65005600D02*
X136943200Y-65005600D01*
X139053200Y-65005600D02*
X139368200Y-65005600D01*
%TO.C,J1*%
X112462000Y-71329000D02*
X113792000Y-71329000D01*
X112462000Y-72659000D02*
X112462000Y-71329000D01*
X112462000Y-73929000D02*
X112462000Y-91769000D01*
X112462000Y-73929000D02*
X115122000Y-73929000D01*
X112462000Y-91769000D02*
X115122000Y-91769000D01*
X115122000Y-73929000D02*
X115122000Y-91769000D01*
%TO.C,Q1*%
X120062400Y-59102000D02*
X116462400Y-59102000D01*
X119402400Y-63301999D02*
G75*
G03*
X120629598Y-62055842I-1140000J2349999D01*
G01*
X120586583Y-59829205D02*
G75*
G03*
X120062399Y-59102001I-2324183J-1122795D01*
G01*
X115906943Y-62050371D02*
G75*
G03*
X117152400Y-63302000I2355457J1098371D01*
G01*
X116462401Y-59102001D02*
G75*
G03*
X115938217Y-59829205I1799999J-1849999D01*
G01*
%TO.C,C10*%
X151156600Y-92024399D02*
X151156600Y-92424399D01*
X151356600Y-92224399D02*
X150956600Y-92224399D01*
X152041600Y-94294200D02*
X147881600Y-94294200D01*
X152041600Y-94334200D02*
X147881600Y-94334200D01*
X152040600Y-94374200D02*
X147882600Y-94374200D01*
X152038600Y-94414200D02*
X147884600Y-94414200D01*
X152035600Y-94454200D02*
X147887600Y-94454200D01*
X152032600Y-94494200D02*
X150801600Y-94494200D01*
X149121600Y-94494200D02*
X147890600Y-94494200D01*
X152028600Y-94534200D02*
X150801600Y-94534200D01*
X149121600Y-94534200D02*
X147894600Y-94534200D01*
X152023600Y-94574200D02*
X150801600Y-94574200D01*
X149121600Y-94574200D02*
X147899600Y-94574200D01*
X152017600Y-94614200D02*
X150801600Y-94614200D01*
X149121600Y-94614200D02*
X147905600Y-94614200D01*
X152011600Y-94654200D02*
X150801600Y-94654200D01*
X149121600Y-94654200D02*
X147911600Y-94654200D01*
X152003600Y-94694200D02*
X150801600Y-94694200D01*
X149121600Y-94694200D02*
X147919600Y-94694200D01*
X151995600Y-94734200D02*
X150801600Y-94734200D01*
X149121600Y-94734200D02*
X147927600Y-94734200D01*
X151986600Y-94774200D02*
X150801600Y-94774200D01*
X149121600Y-94774200D02*
X147936600Y-94774200D01*
X151977600Y-94814200D02*
X150801600Y-94814200D01*
X149121600Y-94814200D02*
X147945600Y-94814200D01*
X151966600Y-94854200D02*
X150801600Y-94854200D01*
X149121600Y-94854200D02*
X147956600Y-94854200D01*
X151955600Y-94894200D02*
X150801600Y-94894200D01*
X149121600Y-94894200D02*
X147967600Y-94894200D01*
X151943600Y-94934200D02*
X150801600Y-94934200D01*
X149121600Y-94934200D02*
X147979600Y-94934200D01*
X151929600Y-94974200D02*
X150801600Y-94974200D01*
X149121600Y-94974200D02*
X147993600Y-94974200D01*
X151915600Y-95015200D02*
X150801600Y-95015200D01*
X149121600Y-95015200D02*
X148007600Y-95015200D01*
X151901600Y-95055200D02*
X150801600Y-95055200D01*
X149121600Y-95055200D02*
X148021600Y-95055200D01*
X151885600Y-95095200D02*
X150801600Y-95095200D01*
X149121600Y-95095200D02*
X148037600Y-95095200D01*
X151868600Y-95135200D02*
X150801600Y-95135200D01*
X149121600Y-95135200D02*
X148054600Y-95135200D01*
X151850600Y-95175200D02*
X150801600Y-95175200D01*
X149121600Y-95175200D02*
X148072600Y-95175200D01*
X151831600Y-95215200D02*
X150801600Y-95215200D01*
X149121600Y-95215200D02*
X148091600Y-95215200D01*
X151812600Y-95255200D02*
X150801600Y-95255200D01*
X149121600Y-95255200D02*
X148110600Y-95255200D01*
X151791600Y-95295200D02*
X150801600Y-95295200D01*
X149121600Y-95295200D02*
X148131600Y-95295200D01*
X151769600Y-95335200D02*
X150801600Y-95335200D01*
X149121600Y-95335200D02*
X148153600Y-95335200D01*
X151746600Y-95375200D02*
X150801600Y-95375200D01*
X149121600Y-95375200D02*
X148176600Y-95375200D01*
X151721600Y-95415200D02*
X150801600Y-95415200D01*
X149121600Y-95415200D02*
X148201600Y-95415200D01*
X151696600Y-95455200D02*
X150801600Y-95455200D01*
X149121600Y-95455200D02*
X148226600Y-95455200D01*
X151669600Y-95495200D02*
X150801600Y-95495200D01*
X149121600Y-95495200D02*
X148253600Y-95495200D01*
X151641600Y-95535200D02*
X150801600Y-95535200D01*
X149121600Y-95535200D02*
X148281600Y-95535200D01*
X151611600Y-95575200D02*
X150801600Y-95575200D01*
X149121600Y-95575200D02*
X148311600Y-95575200D01*
X151580600Y-95615200D02*
X150801600Y-95615200D01*
X149121600Y-95615200D02*
X148342600Y-95615200D01*
X151548600Y-95655200D02*
X150801600Y-95655200D01*
X149121600Y-95655200D02*
X148374600Y-95655200D01*
X151513600Y-95695200D02*
X150801600Y-95695200D01*
X149121600Y-95695200D02*
X148409600Y-95695200D01*
X151477600Y-95735200D02*
X150801600Y-95735200D01*
X149121600Y-95735200D02*
X148445600Y-95735200D01*
X151439600Y-95775200D02*
X150801600Y-95775200D01*
X149121600Y-95775200D02*
X148483600Y-95775200D01*
X151399600Y-95815200D02*
X150801600Y-95815200D01*
X149121600Y-95815200D02*
X148523600Y-95815200D01*
X151357600Y-95855200D02*
X150801600Y-95855200D01*
X149121600Y-95855200D02*
X148565600Y-95855200D01*
X151312600Y-95895200D02*
X150801600Y-95895200D01*
X149121600Y-95895200D02*
X148610600Y-95895200D01*
X151265600Y-95935200D02*
X150801600Y-95935200D01*
X149121600Y-95935200D02*
X148657600Y-95935200D01*
X151215600Y-95975200D02*
X150801600Y-95975200D01*
X149121600Y-95975200D02*
X148707600Y-95975200D01*
X151161600Y-96015200D02*
X150801600Y-96015200D01*
X149121600Y-96015200D02*
X148761600Y-96015200D01*
X151103600Y-96055200D02*
X150801600Y-96055200D01*
X149121600Y-96055200D02*
X148819600Y-96055200D01*
X151041600Y-96095200D02*
X150801600Y-96095200D01*
X149121600Y-96095200D02*
X148881600Y-96095200D01*
X150974600Y-96135200D02*
X148948600Y-96135200D01*
X150901600Y-96175200D02*
X149021600Y-96175200D01*
X150820600Y-96215200D02*
X149102600Y-96215200D01*
X150729600Y-96255200D02*
X149193600Y-96255200D01*
X150625600Y-96295200D02*
X149297600Y-96295200D01*
X150498600Y-96335200D02*
X149424600Y-96335200D01*
X150331600Y-96375200D02*
X149591600Y-96375200D01*
X152081600Y-94294200D02*
G75*
G03*
X147841600Y-94294200I-2120000J0D01*
G01*
X147841600Y-94294200D02*
G75*
G03*
X152081600Y-94294200I2120000J0D01*
G01*
%TO.C,D1*%
X115086000Y-99060000D02*
X115736000Y-99060000D01*
X115736000Y-97940000D02*
X115736000Y-100180000D01*
X115736000Y-100180000D02*
X119976000Y-100180000D01*
X116336000Y-97940000D02*
X116336000Y-100180000D01*
X116456000Y-97940000D02*
X116456000Y-100180000D01*
X116576000Y-97940000D02*
X116576000Y-100180000D01*
X119976000Y-97940000D02*
X115736000Y-97940000D01*
X119976000Y-100180000D02*
X119976000Y-97940000D01*
X120626000Y-99060000D02*
X119976000Y-99060000D01*
%TO.C,R25*%
X168962400Y-78428600D02*
X168962400Y-71888600D01*
X169292400Y-78428600D02*
X168962400Y-78428600D01*
X171372400Y-78428600D02*
X171702400Y-78428600D01*
X171702400Y-78428600D02*
X171702400Y-71888600D01*
X168962400Y-71888600D02*
X169292400Y-71888600D01*
X171702400Y-71888600D02*
X171372400Y-71888600D01*
%TO.C,R11*%
X108100800Y-94774000D02*
X108100800Y-101314000D01*
X107770800Y-94774000D02*
X108100800Y-94774000D01*
X105690800Y-94774000D02*
X105360800Y-94774000D01*
X105360800Y-94774000D02*
X105360800Y-101314000D01*
X108100800Y-101314000D02*
X107770800Y-101314000D01*
X105360800Y-101314000D02*
X105690800Y-101314000D01*
%TO.C,R13*%
X135858000Y-98198000D02*
X129318000Y-98198000D01*
X135858000Y-97868000D02*
X135858000Y-98198000D01*
X135858000Y-95788000D02*
X135858000Y-95458000D01*
X135858000Y-95458000D02*
X129318000Y-95458000D01*
X129318000Y-98198000D02*
X129318000Y-97868000D01*
X129318000Y-95458000D02*
X129318000Y-95788000D01*
%TO.C,R8*%
X131692400Y-69721400D02*
X125152400Y-69721400D01*
X131692400Y-69391400D02*
X131692400Y-69721400D01*
X131692400Y-67311400D02*
X131692400Y-66981400D01*
X131692400Y-66981400D02*
X125152400Y-66981400D01*
X125152400Y-69721400D02*
X125152400Y-69391400D01*
X125152400Y-66981400D02*
X125152400Y-67311400D01*
%TO.C,C21*%
X140689000Y-96628600D02*
X140374000Y-96628600D01*
X140689000Y-96628600D02*
X140689000Y-101868600D01*
X138264000Y-96628600D02*
X137949000Y-96628600D01*
X137949000Y-96628600D02*
X137949000Y-101868600D01*
X140689000Y-101868600D02*
X140374000Y-101868600D01*
X138264000Y-101868600D02*
X137949000Y-101868600D01*
%TO.C,C7*%
X146584600Y-92017000D02*
X146584600Y-92417000D01*
X146784600Y-92217000D02*
X146384600Y-92217000D01*
X147469600Y-94286801D02*
X143309600Y-94286801D01*
X147469600Y-94326801D02*
X143309600Y-94326801D01*
X147468600Y-94366801D02*
X143310600Y-94366801D01*
X147466600Y-94406801D02*
X143312600Y-94406801D01*
X147463600Y-94446801D02*
X143315600Y-94446801D01*
X147460600Y-94486801D02*
X146229600Y-94486801D01*
X144549600Y-94486801D02*
X143318600Y-94486801D01*
X147456600Y-94526801D02*
X146229600Y-94526801D01*
X144549600Y-94526801D02*
X143322600Y-94526801D01*
X147451600Y-94566801D02*
X146229600Y-94566801D01*
X144549600Y-94566801D02*
X143327600Y-94566801D01*
X147445600Y-94606801D02*
X146229600Y-94606801D01*
X144549600Y-94606801D02*
X143333600Y-94606801D01*
X147439600Y-94646801D02*
X146229600Y-94646801D01*
X144549600Y-94646801D02*
X143339600Y-94646801D01*
X147431600Y-94686801D02*
X146229600Y-94686801D01*
X144549600Y-94686801D02*
X143347600Y-94686801D01*
X147423600Y-94726801D02*
X146229600Y-94726801D01*
X144549600Y-94726801D02*
X143355600Y-94726801D01*
X147414600Y-94766801D02*
X146229600Y-94766801D01*
X144549600Y-94766801D02*
X143364600Y-94766801D01*
X147405600Y-94806801D02*
X146229600Y-94806801D01*
X144549600Y-94806801D02*
X143373600Y-94806801D01*
X147394600Y-94846801D02*
X146229600Y-94846801D01*
X144549600Y-94846801D02*
X143384600Y-94846801D01*
X147383600Y-94886801D02*
X146229600Y-94886801D01*
X144549600Y-94886801D02*
X143395600Y-94886801D01*
X147371600Y-94926801D02*
X146229600Y-94926801D01*
X144549600Y-94926801D02*
X143407600Y-94926801D01*
X147357600Y-94966801D02*
X146229600Y-94966801D01*
X144549600Y-94966801D02*
X143421600Y-94966801D01*
X147343600Y-95007801D02*
X146229600Y-95007801D01*
X144549600Y-95007801D02*
X143435600Y-95007801D01*
X147329600Y-95047801D02*
X146229600Y-95047801D01*
X144549600Y-95047801D02*
X143449600Y-95047801D01*
X147313600Y-95087801D02*
X146229600Y-95087801D01*
X144549600Y-95087801D02*
X143465600Y-95087801D01*
X147296600Y-95127801D02*
X146229600Y-95127801D01*
X144549600Y-95127801D02*
X143482600Y-95127801D01*
X147278600Y-95167801D02*
X146229600Y-95167801D01*
X144549600Y-95167801D02*
X143500600Y-95167801D01*
X147259600Y-95207801D02*
X146229600Y-95207801D01*
X144549600Y-95207801D02*
X143519600Y-95207801D01*
X147240600Y-95247801D02*
X146229600Y-95247801D01*
X144549600Y-95247801D02*
X143538600Y-95247801D01*
X147219600Y-95287801D02*
X146229600Y-95287801D01*
X144549600Y-95287801D02*
X143559600Y-95287801D01*
X147197600Y-95327801D02*
X146229600Y-95327801D01*
X144549600Y-95327801D02*
X143581600Y-95327801D01*
X147174600Y-95367801D02*
X146229600Y-95367801D01*
X144549600Y-95367801D02*
X143604600Y-95367801D01*
X147149600Y-95407801D02*
X146229600Y-95407801D01*
X144549600Y-95407801D02*
X143629600Y-95407801D01*
X147124600Y-95447801D02*
X146229600Y-95447801D01*
X144549600Y-95447801D02*
X143654600Y-95447801D01*
X147097600Y-95487801D02*
X146229600Y-95487801D01*
X144549600Y-95487801D02*
X143681600Y-95487801D01*
X147069600Y-95527801D02*
X146229600Y-95527801D01*
X144549600Y-95527801D02*
X143709600Y-95527801D01*
X147039600Y-95567801D02*
X146229600Y-95567801D01*
X144549600Y-95567801D02*
X143739600Y-95567801D01*
X147008600Y-95607801D02*
X146229600Y-95607801D01*
X144549600Y-95607801D02*
X143770600Y-95607801D01*
X146976600Y-95647801D02*
X146229600Y-95647801D01*
X144549600Y-95647801D02*
X143802600Y-95647801D01*
X146941600Y-95687801D02*
X146229600Y-95687801D01*
X144549600Y-95687801D02*
X143837600Y-95687801D01*
X146905600Y-95727801D02*
X146229600Y-95727801D01*
X144549600Y-95727801D02*
X143873600Y-95727801D01*
X146867600Y-95767801D02*
X146229600Y-95767801D01*
X144549600Y-95767801D02*
X143911600Y-95767801D01*
X146827600Y-95807801D02*
X146229600Y-95807801D01*
X144549600Y-95807801D02*
X143951600Y-95807801D01*
X146785600Y-95847801D02*
X146229600Y-95847801D01*
X144549600Y-95847801D02*
X143993600Y-95847801D01*
X146740600Y-95887801D02*
X146229600Y-95887801D01*
X144549600Y-95887801D02*
X144038600Y-95887801D01*
X146693600Y-95927801D02*
X146229600Y-95927801D01*
X144549600Y-95927801D02*
X144085600Y-95927801D01*
X146643600Y-95967801D02*
X146229600Y-95967801D01*
X144549600Y-95967801D02*
X144135600Y-95967801D01*
X146589600Y-96007801D02*
X146229600Y-96007801D01*
X144549600Y-96007801D02*
X144189600Y-96007801D01*
X146531600Y-96047801D02*
X146229600Y-96047801D01*
X144549600Y-96047801D02*
X144247600Y-96047801D01*
X146469600Y-96087801D02*
X146229600Y-96087801D01*
X144549600Y-96087801D02*
X144309600Y-96087801D01*
X146402600Y-96127801D02*
X144376600Y-96127801D01*
X146329600Y-96167801D02*
X144449600Y-96167801D01*
X146248600Y-96207801D02*
X144530600Y-96207801D01*
X146157600Y-96247801D02*
X144621600Y-96247801D01*
X146053600Y-96287801D02*
X144725600Y-96287801D01*
X145926600Y-96327801D02*
X144852600Y-96327801D01*
X145759600Y-96367801D02*
X145019600Y-96367801D01*
X147509600Y-94286801D02*
G75*
G03*
X143269600Y-94286801I-2120000J0D01*
G01*
X143269600Y-94286801D02*
G75*
G03*
X147509600Y-94286801I2120000J0D01*
G01*
%TO.C,R9*%
X119480000Y-66580000D02*
X119480000Y-73120000D01*
X119150000Y-66580000D02*
X119480000Y-66580000D01*
X117070000Y-66580000D02*
X116740000Y-66580000D01*
X116740000Y-66580000D02*
X116740000Y-73120000D01*
X119480000Y-73120000D02*
X119150000Y-73120000D01*
X116740000Y-73120000D02*
X117070000Y-73120000D01*
%TO.C,C22*%
X137822000Y-87202000D02*
X138137000Y-87202000D01*
X137822000Y-87202000D02*
X137822000Y-81962000D01*
X140247000Y-87202000D02*
X140562000Y-87202000D01*
X140562000Y-87202000D02*
X140562000Y-81962000D01*
X137822000Y-81962000D02*
X138137000Y-81962000D01*
X140247000Y-81962000D02*
X140562000Y-81962000D01*
D13*
%TO.C,J2*%
X155160000Y-54228000D02*
X155160000Y-54228000D01*
X155160000Y-54228000D02*
X155160000Y-54228000D01*
X155160000Y-54228000D02*
X155160000Y-57428000D01*
X155160000Y-54228000D02*
X169960000Y-54228000D01*
X155160000Y-57428000D02*
X155160000Y-54228000D01*
X155160000Y-57428000D02*
X155160000Y-57428000D01*
X155160000Y-62428000D02*
X155160000Y-62428000D01*
X155160000Y-62428000D02*
X155160000Y-67428000D01*
X155160000Y-67428000D02*
X155160000Y-62428000D01*
X155160000Y-67428000D02*
X155160000Y-67428000D01*
X155160000Y-67428000D02*
X155160000Y-67428000D01*
X155160000Y-67428000D02*
X169960000Y-67428000D01*
X169960000Y-54228000D02*
X155160000Y-54228000D01*
X169960000Y-54228000D02*
X169960000Y-54228000D01*
X169960000Y-54228000D02*
X169960000Y-54228000D01*
X169960000Y-54228000D02*
X169960000Y-57178000D01*
X169960000Y-57178000D02*
X169960000Y-54228000D01*
X169960000Y-57178000D02*
X169960000Y-57178000D01*
X169960000Y-62178000D02*
X169960000Y-62178000D01*
X169960000Y-62178000D02*
X169960000Y-67428000D01*
X169960000Y-67428000D02*
X155160000Y-67428000D01*
X169960000Y-67428000D02*
X169960000Y-62178000D01*
X169960000Y-67428000D02*
X169960000Y-67428000D01*
X169960000Y-67428000D02*
X169960000Y-67428000D01*
D12*
%TO.C,C14*%
X150522000Y-68406000D02*
X150837000Y-68406000D01*
X150522000Y-68406000D02*
X150522000Y-63166000D01*
X152947000Y-68406000D02*
X153262000Y-68406000D01*
X153262000Y-68406000D02*
X153262000Y-63166000D01*
X150522000Y-63166000D02*
X150837000Y-63166000D01*
X152947000Y-63166000D02*
X153262000Y-63166000D01*
%TD*%
M02*
